# Blender v2.78 (sub 0) OBJ File: 'cup_of_tea.blend'
# www.blender.org
mtllib cup_of_tea.mtl
o Circle.001
v 1.154686 0.351730 1.474748
v 1.188690 0.347934 1.489217
v 1.221739 0.337563 1.487867
v 1.244978 0.323396 1.471060
v 1.252179 0.309228 1.443300
v 1.241414 0.298857 1.412024
v 1.215566 0.295061 1.385613
v 1.181562 0.298857 1.371145
v 1.148513 0.309228 1.372495
v 1.125275 0.323396 1.389301
v 1.118073 0.337563 1.417062
v 1.128839 0.347934 1.448337
v 1.149501 0.315038 1.482340
v 1.183644 0.312225 1.496605
v 1.217072 0.304540 1.494699
v 1.240830 0.294042 1.477133
v 1.248549 0.283544 1.448614
v 1.238163 0.275859 1.416783
v 1.212455 0.273046 1.390168
v 1.178312 0.275859 1.375903
v 1.144883 0.283544 1.377809
v 1.121126 0.294042 1.395375
v 1.113406 0.304540 1.423895
v 1.123792 0.312225 1.455726
v 1.147008 0.276549 1.485989
v 1.181218 0.274768 1.500157
v 1.214829 0.269900 1.497984
v 1.238836 0.263251 1.480053
v 1.246804 0.256602 1.451168
v 1.236601 0.251734 1.419070
v 1.210959 0.249953 1.392358
v 1.176749 0.251734 1.378191
v 1.143139 0.256602 1.380364
v 1.119132 0.263251 1.398294
v 1.111163 0.269900 1.427179
v 1.121366 0.274768 1.459278
v 1.147251 0.236923 1.485633
v 1.181455 0.236204 1.499810
v 1.215048 0.234237 1.497664
v 1.239030 0.231550 1.479768
v 1.246975 0.228863 1.450919
v 1.236754 0.226897 1.418847
v 1.211105 0.226177 1.392145
v 1.176902 0.226897 1.377968
v 1.143309 0.228863 1.380115
v 1.119327 0.231550 1.398010
v 1.111382 0.234237 1.426859
v 1.121603 0.236204 1.458931
v 1.150226 0.196837 1.481279
v 1.184349 0.197191 1.495572
v 1.217725 0.198159 1.493744
v 1.241410 0.199481 1.476284
v 1.249057 0.200803 1.447871
v 1.238618 0.201771 1.416117
v 1.212890 0.202125 1.389532
v 1.178766 0.201771 1.375238
v 1.145391 0.200803 1.377066
v 1.121706 0.199481 1.394526
v 1.114059 0.198159 1.422940
v 1.124498 0.197191 1.454693
v 1.155881 0.156978 1.472999
v 1.189853 0.158400 1.487515
v 1.222814 0.162286 1.486293
v 1.245933 0.167594 1.469661
v 1.253015 0.172902 1.442075
v 1.242162 0.176787 1.410928
v 1.216283 0.178210 1.384564
v 1.182311 0.176787 1.370049
v 1.149349 0.172902 1.371271
v 1.126230 0.167594 1.387902
v 1.119148 0.162286 1.415488
v 1.130001 0.158400 1.446635
v 1.164119 0.118026 1.460937
v 1.197871 0.120492 1.475776
v 1.230229 0.127229 1.475437
v 1.252524 0.136432 1.460011
v 1.258782 0.145635 1.433632
v 1.247326 0.152373 1.403367
v 1.221226 0.154838 1.377327
v 1.187474 0.152373 1.362488
v 1.155116 0.145635 1.362827
v 1.132821 0.136432 1.378253
v 1.126563 0.127229 1.404632
v 1.138019 0.120492 1.434896
v 1.174801 0.080649 1.445298
v 1.208266 0.084117 1.460556
v 1.239842 0.093590 1.461362
v 1.261069 0.106531 1.447500
v 1.266259 0.119472 1.422685
v 1.254021 0.128945 1.393565
v 1.227635 0.132412 1.367944
v 1.194170 0.128945 1.352686
v 1.162593 0.119472 1.351880
v 1.141366 0.106531 1.365742
v 1.136176 0.093590 1.390557
v 1.148414 0.084117 1.419677
v 1.187742 0.045487 1.426351
v 1.220860 0.049896 1.442116
v 1.251490 0.061944 1.444309
v 1.271422 0.078401 1.432342
v 1.275318 0.094858 1.409421
v 1.262133 0.106905 1.381689
v 1.235399 0.111315 1.356575
v 1.202281 0.106905 1.340809
v 1.171652 0.094858 1.338617
v 1.151719 0.078401 1.350584
v 1.147823 0.061944 1.373504
v 1.161009 0.049896 1.401237
v 1.202722 0.013140 1.404418
v 1.235439 0.018416 1.420772
v 1.264971 0.032832 1.424570
v 1.283406 0.052523 1.414796
v 1.285804 0.072215 1.394069
v 1.271522 0.086631 1.367942
v 1.244387 0.091907 1.343416
v 1.211670 0.086631 1.327062
v 1.182138 0.072215 1.323264
v 1.163703 0.052523 1.333038
v 1.161305 0.032832 1.353765
v 1.175587 0.018416 1.379892
v 1.219484 -0.015837 1.379877
v 1.251752 -0.009785 1.396887
v 1.280057 0.006752 1.402483
v 1.296816 0.029341 1.395163
v 1.297538 0.051931 1.376889
v 1.282029 0.068468 1.352559
v 1.254445 0.074520 1.328691
v 1.222177 0.068468 1.311680
v 1.193872 0.051931 1.306085
v 1.177113 0.029341 1.313404
v 1.176391 0.006752 1.331678
v 1.191900 -0.009785 1.356008
v 1.237742 -0.040950 1.353145
v 1.269521 -0.034224 1.370872
v 1.296489 -0.015849 1.378424
v 1.311422 0.009251 1.373778
v 1.310318 0.034352 1.358178
v 1.293473 0.052727 1.335804
v 1.265399 0.059453 1.312652
v 1.233621 0.052727 1.294925
v 1.206652 0.034352 1.287373
v 1.191719 0.009251 1.292019
v 1.192823 -0.015849 1.307619
v 1.209669 -0.034224 1.329993
v 1.257183 -0.061767 1.324682
v 1.288440 -0.054484 1.343172
v 1.313986 -0.034585 1.352807
v 1.326975 -0.007402 1.351007
v 1.323927 0.019780 1.338253
v 1.305658 0.039679 1.317963
v 1.277064 0.046963 1.295574
v 1.245806 0.039679 1.277084
v 1.220261 0.019780 1.267448
v 1.207272 -0.007402 1.269249
v 1.210320 -0.034585 1.282002
v 1.228589 -0.054484 1.302292
v 1.297363 -0.090602 1.265854
v 1.326670 -0.083239 1.284256
v 1.349628 -0.063122 1.295526
v 1.360086 -0.035641 1.296643
v 1.355241 -0.008161 1.287308
v 1.336392 0.011955 1.270022
v 1.308589 0.019319 1.249418
v 1.279281 0.011955 1.231015
v 1.256323 -0.008161 1.219746
v 1.245865 -0.035641 1.218629
v 1.250710 -0.063122 1.227964
v 1.269560 -0.083239 1.245249
v 1.376802 -0.113801 1.149547
v 1.404743 -0.106585 1.172891
v 1.421229 -0.086870 1.195792
v 1.421841 -0.059939 1.212112
v 1.406417 -0.033007 1.217478
v 1.379088 -0.013292 1.210454
v 1.347178 -0.006076 1.192919
v 1.319236 -0.013292 1.169574
v 1.302751 -0.033007 1.146674
v 1.302138 -0.059939 1.130354
v 1.317563 -0.086870 1.124987
v 1.344891 -0.106585 1.132012
v 1.301057 0.518325 1.260445
v 1.330863 0.510125 1.281060
v 1.352444 0.487722 1.296501
v 1.360016 0.457120 1.302631
v 1.351552 0.426517 1.297807
v 1.329318 0.404114 1.283322
v 1.299272 0.395914 1.263058
v 1.269466 0.404114 1.242443
v 1.247885 0.426517 1.227002
v 1.240313 0.457120 1.220872
v 1.248778 0.487722 1.225696
v 1.271011 0.510125 1.240180
v 1.273830 0.516301 1.300309
v 1.304641 0.508095 1.319452
v 1.328968 0.485677 1.330872
v 1.340292 0.455052 1.331509
v 1.335579 0.424428 1.321192
v 1.316092 0.402009 1.302686
v 1.287052 0.393804 1.280950
v 1.256240 0.402009 1.261807
v 1.231913 0.424428 1.250387
v 1.220589 0.455052 1.249750
v 1.225302 0.485677 1.260067
v 1.244789 0.508095 1.278573
v 1.253664 0.511956 1.329833
v 1.285016 0.503866 1.348185
v 1.310819 0.481766 1.357443
v 1.324160 0.451576 1.355128
v 1.321464 0.421386 1.341859
v 1.303453 0.399286 1.321192
v 1.274953 0.391196 1.298665
v 1.243601 0.399286 1.280313
v 1.217798 0.421386 1.271054
v 1.204457 0.451576 1.273370
v 1.207153 0.481766 1.286639
v 1.225164 0.503866 1.307306
v 1.234410 0.502444 1.358024
v 1.266277 0.494610 1.375621
v 1.293490 0.473206 1.382815
v 1.308756 0.443967 1.377681
v 1.307985 0.414728 1.361593
v 1.291384 0.393324 1.338862
v 1.263400 0.385490 1.315579
v 1.231532 0.393324 1.297983
v 1.204319 0.414728 1.290788
v 1.189053 0.443967 1.295922
v 1.189824 0.473206 1.312011
v 1.206426 0.494610 1.334741
v 1.216395 0.487931 1.384400
v 1.248745 0.480485 1.401289
v 1.277277 0.460143 1.406554
v 1.294345 0.432356 1.398781
v 1.295375 0.404569 1.380056
v 1.280092 0.384227 1.355394
v 1.252591 0.376781 1.331404
v 1.220240 0.384227 1.314515
v 1.191709 0.404569 1.309251
v 1.174641 0.432356 1.317023
v 1.173611 0.460143 1.335749
v 1.188894 0.480485 1.360410
v 1.199928 0.468662 1.408508
v 1.232720 0.461733 1.424752
v 1.262457 0.442802 1.428251
v 1.281172 0.416941 1.418068
v 1.283849 0.391081 1.396932
v 1.269771 0.372150 1.370505
v 1.242711 0.365220 1.345870
v 1.209919 0.372150 1.329626
v 1.180183 0.391081 1.326127
v 1.161468 0.416941 1.336310
v 1.158791 0.442802 1.357446
v 1.172868 0.461733 1.383873
v 1.185292 0.444969 1.429937
v 1.218476 0.438675 1.445607
v 1.249285 0.421478 1.447537
v 1.269463 0.397987 1.435211
v 1.273603 0.374496 1.411932
v 1.260597 0.357299 1.383937
v 1.233929 0.351004 1.358727
v 1.200746 0.357299 1.343058
v 1.169937 0.374496 1.341127
v 1.149759 0.397987 1.353453
v 1.145619 0.421478 1.376733
v 1.158624 0.438675 1.404728
v 1.172736 0.417256 1.448321
v 1.206257 0.411704 1.463498
v 1.237984 0.396536 1.464082
v 1.259418 0.375816 1.449918
v 1.264814 0.355096 1.424800
v 1.252727 0.339928 1.395460
v 1.226396 0.334377 1.369757
v 1.192876 0.339928 1.354580
v 1.161148 0.355096 1.353996
v 1.139714 0.375816 1.368160
v 1.134318 0.396536 1.393277
v 1.146405 0.411704 1.422618
v 1.162476 0.385999 1.463343
v 1.196271 0.381284 1.478117
v 1.228750 0.368404 1.477602
v 1.251209 0.350810 1.461936
v 1.257632 0.333216 1.435316
v 1.246296 0.320336 1.404876
v 1.220240 0.315622 1.378770
v 1.186444 0.320336 1.363996
v 1.153966 0.333216 1.364511
v 1.131506 0.350810 1.380177
v 1.125084 0.368404 1.406798
v 1.136420 0.381284 1.437238
v 1.837614 -0.109256 1.073467
v 1.869360 -0.109256 1.015502
v 1.889188 -0.109256 0.952457
v 1.896335 -0.109256 0.886755
v 1.890527 -0.109256 0.820921
v 1.871987 -0.109256 0.757485
v 1.841428 -0.109256 0.698885
v 1.800024 -0.109256 0.647373
v 1.749365 -0.109256 0.604928
v 1.691400 -0.109256 0.573182
v 1.628355 -0.109256 0.553354
v 1.562653 -0.109256 0.546207
v 1.496819 -0.109256 0.552015
v 1.433383 -0.109256 0.570555
v 1.374783 -0.109256 0.601114
v 1.323271 -0.109256 0.642519
v 1.280826 -0.109256 0.693177
v 1.249080 -0.109256 0.751142
v 1.229252 -0.109256 0.814188
v 1.222105 -0.109256 0.879889
v 1.227913 -0.109256 0.945723
v 1.246453 -0.109256 1.009159
v 1.277012 -0.109256 1.067759
v 1.318417 -0.109256 1.119271
v 1.369075 -0.109256 1.161716
v 1.427041 -0.109256 1.193462
v 1.490086 -0.109256 1.213290
v 1.555788 -0.109256 1.220437
v 1.621621 -0.109256 1.214629
v 1.685057 -0.109256 1.196089
v 1.743657 -0.109256 1.165530
v 1.795169 -0.109256 1.124125
v 1.909341 0.163204 1.122458
v 1.949266 0.163204 1.049557
v 1.974203 0.163204 0.970269
v 1.983191 0.163204 0.887639
v 1.975887 0.163204 0.804844
v 1.952571 0.163204 0.725064
v 1.914138 0.163204 0.651366
v 1.862066 0.163204 0.586582
v 1.798356 0.163204 0.533201
v 1.725455 0.163204 0.493276
v 1.646167 0.163204 0.468339
v 1.563537 0.163204 0.459351
v 1.480741 0.163204 0.466655
v 1.400962 0.163204 0.489971
v 1.327263 0.163204 0.528404
v 1.262479 0.163204 0.580476
v 1.209099 0.163204 0.644187
v 1.169173 0.163204 0.717087
v 1.144237 0.163204 0.796375
v 1.135248 0.163204 0.879005
v 1.142553 0.163204 0.961801
v 1.165869 0.163204 1.041581
v 1.204302 0.163204 1.115279
v 1.256374 0.163204 1.180063
v 1.320085 0.163204 1.233443
v 1.392985 0.163204 1.273369
v 1.472273 0.163204 1.298305
v 1.554903 0.163204 1.307294
v 1.637699 0.163204 1.299989
v 1.717479 0.163204 1.276673
v 1.791177 0.163204 1.238240
v 1.855961 0.163204 1.186167
v 1.939253 0.413306 1.142888
v 1.982590 0.413306 1.063760
v 2.009656 0.413306 0.977697
v 2.019413 0.413306 0.888008
v 2.011485 0.413306 0.798139
v 1.986176 0.413306 0.711543
v 1.944460 0.413306 0.631549
v 1.887939 0.413306 0.561230
v 1.818786 0.413306 0.503289
v 1.739658 0.413306 0.459952
v 1.653595 0.413306 0.432885
v 1.563906 0.413306 0.423129
v 1.474037 0.413306 0.431057
v 1.387441 0.413306 0.456366
v 1.307446 0.413306 0.498082
v 1.237128 0.413306 0.554603
v 1.179187 0.413306 0.623756
v 1.135850 0.413306 0.702885
v 1.108783 0.413306 0.788947
v 1.099027 0.413306 0.878636
v 1.106955 0.413306 0.968506
v 1.132264 0.413306 1.055101
v 1.173980 0.413306 1.135096
v 1.230501 0.413306 1.205415
v 1.299654 0.413306 1.263356
v 1.378783 0.413306 1.306692
v 1.464845 0.413306 1.333759
v 1.554534 0.413306 1.343515
v 1.644404 0.413306 1.335587
v 1.730999 0.413306 1.310278
v 1.810994 0.413306 1.268562
v 1.881313 0.413306 1.212041
v 1.935395 0.551632 1.140253
v 1.978292 0.551632 1.061928
v 2.005084 0.551632 0.976739
v 2.014741 0.551632 0.887960
v 2.006893 0.551632 0.799004
v 1.981842 0.551632 0.713287
v 1.940549 0.551632 0.634105
v 1.884602 0.551632 0.564500
v 1.816151 0.551632 0.507147
v 1.737826 0.551632 0.464250
v 1.652637 0.551632 0.437459
v 1.563858 0.551632 0.427801
v 1.474901 0.551632 0.435649
v 1.389185 0.551632 0.460700
v 1.310003 0.551632 0.501993
v 1.240398 0.551632 0.557940
v 1.183045 0.551632 0.626391
v 1.140148 0.551632 0.704717
v 1.113356 0.551632 0.789905
v 1.103699 0.551632 0.878684
v 1.111547 0.551632 0.967641
v 1.136598 0.551632 1.053357
v 1.177891 0.551632 1.132540
v 1.233838 0.551632 1.202145
v 1.302289 0.551632 1.259497
v 1.380615 0.551632 1.302394
v 1.465803 0.551632 1.329186
v 1.554582 0.551632 1.338843
v 1.643539 0.551632 1.330995
v 1.729255 0.551632 1.305943
v 1.808438 0.551632 1.264651
v 1.878042 0.551632 1.208704
v 1.821931 -0.133870 1.062756
v 1.851889 -0.133870 1.008056
v 1.870600 -0.133870 0.948562
v 1.877344 -0.133870 0.886561
v 1.871864 -0.133870 0.824436
v 1.854368 -0.133870 0.764574
v 1.825530 -0.133870 0.709275
v 1.786458 -0.133870 0.660665
v 1.738654 -0.133870 0.620611
v 1.683954 -0.133870 0.590653
v 1.624460 -0.133870 0.571942
v 1.562459 -0.133870 0.565198
v 1.500334 -0.133870 0.570678
v 1.440472 -0.133870 0.588174
v 1.385173 -0.133870 0.617012
v 1.336563 -0.133870 0.656084
v 1.296509 -0.133870 0.703888
v 1.266551 -0.133870 0.758588
v 1.247840 -0.133870 0.818082
v 1.241096 -0.133870 0.880083
v 1.246576 -0.133870 0.942208
v 1.264072 -0.133870 1.002070
v 1.292910 -0.133870 1.057369
v 1.331982 -0.133870 1.105980
v 1.379786 -0.133870 1.146033
v 1.434487 -0.133870 1.175991
v 1.493980 -0.133870 1.194702
v 1.555981 -0.133870 1.201446
v 1.618106 -0.133870 1.195966
v 1.677969 -0.133870 1.178470
v 1.733267 -0.133870 1.149632
v 1.781878 -0.133870 1.110560
v 1.807443 -0.148266 1.052860
v 1.835749 -0.148266 1.001177
v 1.853428 -0.148266 0.944964
v 1.859800 -0.148266 0.886383
v 1.854622 -0.148266 0.827684
v 1.838091 -0.148266 0.771123
v 1.810844 -0.148266 0.718874
v 1.773927 -0.148266 0.672944
v 1.728758 -0.148266 0.635099
v 1.677075 -0.148266 0.606793
v 1.620862 -0.148266 0.589114
v 1.562281 -0.148266 0.582742
v 1.503582 -0.148266 0.587920
v 1.447021 -0.148266 0.604451
v 1.394771 -0.148266 0.631698
v 1.348842 -0.148266 0.668615
v 1.310997 -0.148266 0.713784
v 1.282691 -0.148266 0.765467
v 1.265012 -0.148266 0.821680
v 1.258640 -0.148266 0.880262
v 1.263818 -0.148266 0.938961
v 1.280349 -0.148266 0.995522
v 1.307596 -0.148266 1.047771
v 1.344514 -0.148266 1.093700
v 1.389682 -0.148266 1.131545
v 1.441365 -0.148266 1.159851
v 1.497578 -0.148266 1.177530
v 1.556160 -0.148266 1.183902
v 1.614859 -0.148266 1.178724
v 1.671420 -0.148266 1.162193
v 1.723669 -0.148266 1.134946
v 1.769598 -0.148266 1.098028
v 1.794492 -0.143703 1.044015
v 1.821321 -0.143703 0.995028
v 1.838078 -0.143703 0.941748
v 1.844118 -0.143703 0.886223
v 1.839210 -0.143703 0.830587
v 1.823541 -0.143703 0.776977
v 1.797716 -0.143703 0.727453
v 1.762725 -0.143703 0.683920
v 1.719913 -0.143703 0.648050
v 1.670926 -0.143703 0.621221
v 1.617646 -0.143703 0.604464
v 1.562121 -0.143703 0.598424
v 1.506484 -0.143703 0.603332
v 1.452874 -0.143703 0.619001
v 1.403351 -0.143703 0.644826
v 1.359818 -0.143703 0.679818
v 1.323948 -0.143703 0.722629
v 1.297119 -0.143703 0.771616
v 1.280362 -0.143703 0.824896
v 1.274322 -0.143703 0.880421
v 1.279230 -0.143703 0.936058
v 1.294899 -0.143703 0.989668
v 1.320724 -0.143703 1.039191
v 1.355716 -0.143703 1.082724
v 1.398527 -0.143703 1.118594
v 1.447514 -0.143703 1.145423
v 1.500794 -0.143703 1.162180
v 1.556319 -0.143703 1.168220
v 1.611956 -0.143703 1.163312
v 1.665566 -0.143703 1.147643
v 1.715089 -0.143703 1.121817
v 1.758622 -0.143703 1.086826
v 1.202910 0.003169 0.731465
v 1.180131 0.003169 0.803896
v 1.939848 0.003169 0.811632
v 1.918548 0.003169 0.738752
v 1.830294 0.003169 1.159973
v 1.879057 0.003169 1.101774
v 1.171920 0.003169 0.879378
v 1.883439 0.003169 0.671429
v 1.178592 0.003169 0.955013
v 1.835871 0.003169 0.612248
v 1.199892 0.003169 1.027892
v 1.777672 0.003169 0.563485
v 1.235001 0.003169 1.095216
v 1.711077 0.003169 0.527013
v 1.282569 0.003169 1.154396
v 1.638646 0.003169 0.504233
v 1.340769 0.003169 1.203160
v 1.563164 0.003169 0.496022
v 1.407363 0.003169 1.239632
v 1.487529 0.003169 0.502694
v 1.479794 0.003169 1.262411
v 1.414650 0.003169 0.523994
v 1.555277 0.003169 1.270622
v 1.347327 0.003169 0.559103
v 1.915529 0.003169 1.035179
v 1.630911 0.003169 1.263950
v 1.288146 0.003169 0.606671
v 1.938309 0.003169 0.962749
v 1.703790 0.003169 1.242650
v 1.239383 0.003169 0.664871
v 1.946520 0.003169 0.887266
v 1.771114 0.003169 1.207541
v 1.206750 -0.066062 0.809473
v 1.893317 -0.066062 0.748904
v 1.856599 -0.066062 1.086434
v 1.199115 -0.066062 0.879655
v 1.860673 -0.066062 0.686307
v 1.205319 -0.066062 0.949979
v 1.816445 -0.066062 0.631282
v 1.225123 -0.066062 1.017741
v 1.762332 -0.066062 0.585943
v 1.257767 -0.066062 1.080337
v 1.700414 -0.066062 0.552032
v 1.301995 -0.066062 1.135362
v 1.633069 -0.066062 0.530852
v 1.356108 -0.066062 1.180701
v 1.562887 -0.066062 0.523217
v 1.418026 -0.066062 1.214612
v 1.492563 -0.066062 0.529421
v 1.485371 -0.066062 1.235792
v 1.424801 -0.066062 0.549225
v 1.555554 -0.066062 1.243427
v 1.362205 -0.066062 0.581869
v 1.890510 -0.066062 1.024516
v 1.625877 -0.066062 1.237223
v 1.307180 -0.066062 0.626097
v 1.911690 -0.066062 0.957171
v 1.693639 -0.066062 1.217419
v 1.261841 -0.066062 0.680210
v 1.919325 -0.066062 0.886989
v 1.756235 -0.066062 1.184775
v 1.227930 -0.066062 0.742128
v 1.913121 -0.066062 0.816665
v 1.811260 -0.066062 1.140547
v 1.926695 0.578148 1.134310
v 1.968599 0.578148 1.057797
v 1.994771 0.578148 0.974578
v 2.004205 0.578148 0.887853
v 1.996539 0.578148 0.800954
v 1.972067 0.578148 0.717220
v 1.931729 0.578148 0.639869
v 1.877076 0.578148 0.571874
v 1.810208 0.578148 0.515848
v 1.733695 0.578148 0.473943
v 1.650476 0.578148 0.447771
v 1.563751 0.578148 0.438337
v 1.476852 0.578148 0.446003
v 1.393118 0.578148 0.470475
v 1.315767 0.578148 0.510813
v 1.247772 0.578148 0.565466
v 1.191745 0.578148 0.632334
v 1.149841 0.578148 0.708847
v 1.123669 0.578148 0.792066
v 1.114234 0.578148 0.878791
v 1.121901 0.578148 0.965691
v 1.146373 0.578148 1.049425
v 1.186711 0.578148 1.126776
v 1.241364 0.578148 1.194771
v 1.308232 0.578148 1.250797
v 1.384745 0.578148 1.292701
v 1.467964 0.578148 1.318873
v 1.554689 0.578148 1.328308
v 1.641589 0.578148 1.320641
v 1.725323 0.578148 1.296169
v 1.802674 0.578148 1.255831
v 1.870669 0.578148 1.201178
v 1.915800 0.586519 1.126869
v 1.956462 0.586519 1.052624
v 1.981858 0.586519 0.971873
v 1.991013 0.586519 0.887719
v 1.983574 0.586519 0.803396
v 1.959827 0.586519 0.722144
v 1.920685 0.586519 0.647087
v 1.867653 0.586519 0.581108
v 1.802767 0.586519 0.526742
v 1.728522 0.586519 0.486080
v 1.647771 0.586519 0.460684
v 1.563617 0.586519 0.451529
v 1.479294 0.586519 0.458968
v 1.398042 0.586519 0.482715
v 1.322984 0.586519 0.521857
v 1.257005 0.586519 0.574890
v 1.202640 0.586519 0.639775
v 1.161978 0.586519 0.714020
v 1.136582 0.586519 0.794771
v 1.127427 0.586519 0.878926
v 1.134866 0.586519 0.963249
v 1.158613 0.586519 1.044500
v 1.197755 0.586519 1.119558
v 1.250788 0.586519 1.185537
v 1.315673 0.586519 1.239902
v 1.389918 0.586519 1.280564
v 1.470670 0.586519 1.305960
v 1.554824 0.586519 1.315115
v 1.639147 0.586519 1.307676
v 1.720398 0.586519 1.283929
v 1.795456 0.586519 1.244787
v 1.861435 0.586519 1.191754
v 1.906035 0.583340 1.120199
v 1.945583 0.583340 1.047988
v 1.970284 0.583340 0.969448
v 1.979188 0.583340 0.887599
v 1.971952 0.583340 0.805585
v 1.948856 0.583340 0.726558
v 1.910786 0.583340 0.653556
v 1.859206 0.583340 0.589384
v 1.796097 0.583340 0.536507
v 1.723886 0.583340 0.496959
v 1.645346 0.583340 0.472258
v 1.563496 0.583340 0.463354
v 1.481483 0.583340 0.470590
v 1.402456 0.583340 0.493686
v 1.329454 0.583340 0.531756
v 1.265282 0.583340 0.583336
v 1.212405 0.583340 0.646445
v 1.172857 0.583340 0.718657
v 1.148156 0.583340 0.797196
v 1.139252 0.583340 0.879046
v 1.146487 0.583340 0.961060
v 1.169584 0.583340 1.040086
v 1.207654 0.583340 1.113088
v 1.259234 0.583340 1.177261
v 1.322343 0.583340 1.230137
v 1.394555 0.583340 1.269685
v 1.473094 0.583340 1.294386
v 1.554944 0.583340 1.303290
v 1.636958 0.583340 1.296054
v 1.715984 0.583340 1.272958
v 1.788986 0.583340 1.234888
v 1.853158 0.583340 1.183308
v 1.899283 0.556386 1.115588
v 1.938061 0.556386 1.044782
v 1.962281 0.556386 0.967771
v 1.971012 0.556386 0.887515
v 1.963917 0.556386 0.807098
v 1.941271 0.556386 0.729610
v 1.903942 0.556386 0.658029
v 1.853366 0.556386 0.595106
v 1.791486 0.556386 0.543259
v 1.720680 0.556386 0.504480
v 1.643669 0.556386 0.480261
v 1.563413 0.556386 0.471530
v 1.482996 0.556386 0.478624
v 1.405508 0.556386 0.501271
v 1.333927 0.556386 0.538600
v 1.271004 0.556386 0.589176
v 1.219157 0.556386 0.651056
v 1.180378 0.556386 0.721862
v 1.156158 0.556386 0.798873
v 1.147428 0.556386 0.879129
v 1.154522 0.556386 0.959546
v 1.177169 0.556386 1.037034
v 1.214498 0.556386 1.108615
v 1.265074 0.556386 1.171538
v 1.326954 0.556386 1.223385
v 1.397760 0.556386 1.262164
v 1.474771 0.556386 1.286384
v 1.555027 0.556386 1.295114
v 1.635445 0.556386 1.288020
v 1.712932 0.556386 1.265373
v 1.784513 0.556386 1.228044
v 1.847436 0.556386 1.177468
v 1.900649 0.415090 1.116521
v 1.939583 0.415090 1.045430
v 1.963900 0.415090 0.968110
v 1.972666 0.415090 0.887532
v 1.965543 0.415090 0.806792
v 1.942805 0.415090 0.728993
v 1.905327 0.415090 0.657124
v 1.854547 0.415090 0.593949
v 1.792419 0.415090 0.541893
v 1.721328 0.415090 0.502959
v 1.644008 0.415090 0.478642
v 1.563430 0.415090 0.469876
v 1.482690 0.415090 0.476999
v 1.404890 0.415090 0.499737
v 1.333022 0.415090 0.537215
v 1.269846 0.415090 0.587995
v 1.217791 0.415090 0.650123
v 1.178857 0.415090 0.721214
v 1.154540 0.415090 0.798534
v 1.145774 0.415090 0.879112
v 1.152897 0.415090 0.959853
v 1.175635 0.415090 1.037652
v 1.213113 0.415090 1.109520
v 1.263893 0.415090 1.172696
v 1.326021 0.415090 1.224751
v 1.397112 0.415090 1.263685
v 1.474432 0.415090 1.288002
v 1.555010 0.415090 1.296768
v 1.635751 0.415090 1.289645
v 1.713550 0.415090 1.266907
v 1.785418 0.415090 1.229429
v 1.848594 0.415090 1.178649
v 1.873930 0.164407 1.098271
v 1.909817 0.164407 1.032744
v 1.932231 0.164407 0.961475
v 1.940311 0.164407 0.887203
v 1.933745 0.164407 0.812781
v 1.912787 0.164407 0.741070
v 1.878241 0.164407 0.674826
v 1.831436 0.164407 0.616594
v 1.774169 0.164407 0.568613
v 1.708642 0.164407 0.532725
v 1.637373 0.164407 0.510311
v 1.563100 0.164407 0.502231
v 1.488679 0.164407 0.508797
v 1.416968 0.164407 0.529755
v 1.350724 0.164407 0.564301
v 1.292492 0.164407 0.611106
v 1.244510 0.164407 0.668373
v 1.208623 0.164407 0.733900
v 1.186209 0.164407 0.805169
v 1.178129 0.164407 0.879442
v 1.184695 0.164407 0.953864
v 1.205653 0.164407 1.025574
v 1.240199 0.164407 1.091819
v 1.287004 0.164407 1.150050
v 1.344271 0.164407 1.198032
v 1.409798 0.164407 1.233919
v 1.481067 0.164407 1.256333
v 1.555340 0.164407 1.264413
v 1.629762 0.164407 1.257847
v 1.701472 0.164407 1.236889
v 1.767717 0.164407 1.202343
v 1.825948 0.164407 1.155538
v 1.847447 0.004627 1.080184
v 1.880315 0.004627 1.020171
v 1.900843 0.004627 0.954899
v 1.908243 0.004627 0.886876
v 1.902230 0.004627 0.818717
v 1.883035 0.004627 0.753040
v 1.851396 0.004627 0.692370
v 1.808529 0.004627 0.639039
v 1.756082 0.004627 0.595095
v 1.696069 0.004627 0.562227
v 1.630797 0.004627 0.541699
v 1.562774 0.004627 0.534299
v 1.494615 0.004627 0.540312
v 1.428938 0.004627 0.559507
v 1.368268 0.004627 0.591146
v 1.314937 0.004627 0.634013
v 1.270993 0.004627 0.686460
v 1.238125 0.004627 0.746474
v 1.217597 0.004627 0.811746
v 1.210197 0.004627 0.879768
v 1.216210 0.004627 0.947928
v 1.235405 0.004627 1.013604
v 1.267044 0.004627 1.074274
v 1.309911 0.004627 1.127606
v 1.362359 0.004627 1.171550
v 1.422372 0.004627 1.204417
v 1.487644 0.004627 1.224945
v 1.555666 0.004627 1.232345
v 1.623826 0.004627 1.226332
v 1.689502 0.004627 1.207137
v 1.750172 0.004627 1.175498
v 1.803504 0.004627 1.132631
v 1.830459 -0.060026 1.068581
v 1.861389 -0.060026 1.012105
v 1.880708 -0.060026 0.950680
v 1.887671 -0.060026 0.886667
v 1.882013 -0.060026 0.822525
v 1.863949 -0.060026 0.760719
v 1.834175 -0.060026 0.703625
v 1.793835 -0.060026 0.653437
v 1.744479 -0.060026 0.612083
v 1.688003 -0.060026 0.581153
v 1.626578 -0.060026 0.561834
v 1.562564 -0.060026 0.554871
v 1.498423 -0.060026 0.560529
v 1.436617 -0.060026 0.578593
v 1.379523 -0.060026 0.608367
v 1.329335 -0.060026 0.648707
v 1.287981 -0.060026 0.698064
v 1.257050 -0.060026 0.754539
v 1.237732 -0.060026 0.815964
v 1.230769 -0.060026 0.879978
v 1.236427 -0.060026 0.944120
v 1.254491 -0.060026 1.005925
v 1.284265 -0.060026 1.063019
v 1.324605 -0.060026 1.113207
v 1.373962 -0.060026 1.154561
v 1.430437 -0.060026 1.185492
v 1.491862 -0.060026 1.204810
v 1.555876 -0.060026 1.211773
v 1.620018 -0.060026 1.206115
v 1.681823 -0.060026 1.188051
v 1.738917 -0.060026 1.158277
v 1.789105 -0.060026 1.117937
v 1.817801 -0.077707 1.059935
v 1.847287 -0.077707 1.006095
v 1.865704 -0.077707 0.947536
v 1.872343 -0.077707 0.886511
v 1.866948 -0.077707 0.825362
v 1.849728 -0.077707 0.766441
v 1.821343 -0.077707 0.712012
v 1.782886 -0.077707 0.664165
v 1.735833 -0.077707 0.624742
v 1.681993 -0.077707 0.595255
v 1.623434 -0.077707 0.576838
v 1.562408 -0.077707 0.570199
v 1.501260 -0.077707 0.575594
v 1.442339 -0.077707 0.592814
v 1.387909 -0.077707 0.621199
v 1.340063 -0.077707 0.659656
v 1.300639 -0.077707 0.706710
v 1.271152 -0.077707 0.760550
v 1.252736 -0.077707 0.819108
v 1.246097 -0.077707 0.880134
v 1.251492 -0.077707 0.941282
v 1.268712 -0.077707 1.000203
v 1.297097 -0.077707 1.054633
v 1.335554 -0.077707 1.102479
v 1.382608 -0.077707 1.141903
v 1.436448 -0.077707 1.171390
v 1.495006 -0.077707 1.189806
v 1.556032 -0.077707 1.196445
v 1.617180 -0.077707 1.191050
v 1.676101 -0.077707 1.173830
v 1.730531 -0.077707 1.145445
v 1.778377 -0.077707 1.106987
v 1.795476 -0.084799 1.044687
v 1.822417 -0.084799 0.995495
v 1.839243 -0.084799 0.941992
v 1.845309 -0.084799 0.886235
v 1.840380 -0.084799 0.830366
v 1.824646 -0.084799 0.776532
v 1.798713 -0.084799 0.726802
v 1.763575 -0.084799 0.683087
v 1.720585 -0.084799 0.647066
v 1.671393 -0.084799 0.620125
v 1.617890 -0.084799 0.603299
v 1.562133 -0.084799 0.597233
v 1.506264 -0.084799 0.602162
v 1.452430 -0.084799 0.617895
v 1.402700 -0.084799 0.643829
v 1.358984 -0.084799 0.678967
v 1.322964 -0.084799 0.721957
v 1.296023 -0.084799 0.771149
v 1.279196 -0.084799 0.824652
v 1.273131 -0.084799 0.880409
v 1.278060 -0.084799 0.936278
v 1.293793 -0.084799 0.990112
v 1.319727 -0.084799 1.039843
v 1.354865 -0.084799 1.083558
v 1.397856 -0.084799 1.119578
v 1.447047 -0.084799 1.146519
v 1.500550 -0.084799 1.163346
v 1.556307 -0.084799 1.169411
v 1.612176 -0.084799 1.164482
v 1.666010 -0.084799 1.148749
v 1.715741 -0.084799 1.122815
v 1.759456 -0.084799 1.087677
v 1.645189 0.482469 1.339756
v 1.732583 0.482469 1.314214
v 1.234158 0.482469 0.551572
v 1.175683 0.482469 0.621363
v 2.013809 0.482469 0.978567
v 2.023656 0.482469 0.888051
v 1.813315 0.482469 1.272113
v 1.131947 0.482469 0.701221
v 2.015655 0.482469 0.797354
v 1.884282 0.482469 1.215071
v 1.104631 0.482469 0.788077
v 1.990113 0.482469 0.709959
v 1.942757 0.482469 1.145281
v 1.094784 0.482469 0.878593
v 1.948012 0.482469 0.629228
v 1.102785 0.482469 0.969291
v 1.890970 0.482469 0.558260
v 1.128327 0.482469 1.056685
v 1.821179 0.482469 0.499785
v 1.170428 0.482469 1.137417
v 1.741321 0.482469 0.456049
v 1.227470 0.482469 1.208384
v 1.654465 0.482469 0.428733
v 1.297261 0.482469 1.266859
v 1.563949 0.482469 0.418886
v 1.377119 0.482469 1.310595
v 1.473251 0.482469 0.426888
v 1.463975 0.482469 1.337911
v 1.385857 0.482469 0.452429
v 1.554491 0.482469 1.347758
v 1.305125 0.482469 0.494530
v 1.986493 0.482469 1.065423
v 1.384514 0.288255 1.293245
v 1.467843 0.288255 1.319452
v 1.476742 0.288255 0.445422
v 1.392897 0.288255 0.469926
v 1.554683 0.288255 1.328899
v 1.315443 0.288255 0.510318
v 1.927183 0.288255 1.134644
v 1.969143 0.288255 1.058029
v 1.641698 0.288255 1.321222
v 1.247358 0.288255 0.565043
v 1.995350 0.288255 0.974700
v 1.725543 0.288255 1.296717
v 1.191257 0.288255 0.632000
v 2.004797 0.288255 0.887859
v 1.802997 0.288255 1.256326
v 1.149297 0.288255 0.708616
v 1.997120 0.288255 0.800844
v 1.871082 0.288255 1.201600
v 1.123090 0.288255 0.791945
v 1.972615 0.288255 0.716999
v 1.113643 0.288255 0.878785
v 1.932224 0.288255 0.639545
v 1.121320 0.288255 0.965800
v 1.877499 0.288255 0.571460
v 1.145824 0.288255 1.049645
v 1.810542 0.288255 0.515359
v 1.186216 0.288255 1.127099
v 1.733927 0.288255 0.473399
v 1.240942 0.288255 1.195184
v 1.650598 0.288255 0.447192
v 1.307899 0.288255 1.251285
v 1.563757 0.288255 0.437745
v 1.181922 0.083186 0.722520
v 1.962269 0.083186 0.807409
v 1.846262 0.083186 1.176269
v 1.157801 0.083186 0.799217
v 1.939714 0.083186 0.730236
v 1.897897 0.083186 1.114642
v 1.149106 0.083186 0.879146
v 1.902538 0.083186 0.658947
v 1.156171 0.083186 0.959236
v 1.852167 0.083186 0.596280
v 1.178726 0.083186 1.036408
v 1.790540 0.083186 0.544645
v 1.215902 0.083186 1.107697
v 1.720022 0.083186 0.506024
v 1.266273 0.083186 1.170364
v 1.643325 0.083186 0.481903
v 1.327901 0.083186 1.222000
v 1.563396 0.083186 0.473208
v 1.398418 0.083186 1.260620
v 1.483306 0.083186 0.480273
v 1.475115 0.083186 1.284742
v 1.406134 0.083186 0.502828
v 1.555044 0.083186 1.293436
v 1.334845 0.083186 0.540004
v 1.936518 0.083186 1.044124
v 1.635134 0.083186 1.286371
v 1.272178 0.083186 0.590375
v 1.960639 0.083186 0.967427
v 1.712306 0.083186 1.263816
v 1.220542 0.083186 0.652003
v 1.969334 0.083186 0.887498
v 1.783596 0.083186 1.226640
vn -0.5361 0.3107 0.7849
vn -0.5547 0.1805 0.8122
vn -0.1472 0.1626 0.9756
vn -0.1226 0.2791 0.9524
vn 0.3545 0.1022 0.9294
vn 0.3733 0.1750 0.9110
vn 0.8179 0.0001 0.5753
vn 0.8179 0.0021 0.5754
vn 0.9948 -0.1008 0.0115
vn 0.9845 -0.1713 0.0363
vn 0.8595 -0.1598 -0.4855
vn 0.8473 -0.2759 -0.4538
vn 0.5550 -0.1773 -0.8127
vn 0.5366 -0.3076 -0.7857
vn 0.1396 -0.1598 -0.9772
vn 0.1144 -0.2759 -0.9543
vn -0.3726 -0.1008 -0.9225
vn -0.3920 -0.1713 -0.9039
vn -0.8334 0.0001 -0.5526
vn -0.8335 0.0021 -0.5525
vn -0.9947 0.1022 0.0078
vn -0.9844 0.1750 -0.0163
vn -0.8552 0.1626 0.4920
vn -0.8425 0.2791 0.4606
vn -0.5632 0.0532 0.8246
vn -0.1625 0.0478 0.9855
vn 0.3415 0.0293 0.9394
vn 0.8182 -0.0016 0.5749
vn 0.9995 -0.0298 -0.0051
vn 0.8627 -0.0455 -0.5037
vn 0.5633 -0.0502 -0.8247
vn 0.1553 -0.0455 -0.9868
vn -0.3589 -0.0298 -0.9329
vn -0.8332 -0.0016 -0.5530
vn -0.9993 0.0293 0.0236
vn -0.8589 0.0478 0.5099
vn -0.5626 -0.0695 0.8238
vn -0.1690 -0.0635 0.9836
vn 0.3343 -0.0425 0.9415
vn 0.8186 -0.0030 0.5744
vn 0.9991 0.0404 -0.0135
vn 0.8581 0.0652 -0.5092
vn 0.5625 0.0721 -0.8236
vn 0.1622 0.0652 -0.9846
vn -0.3509 0.0404 -0.9355
vn -0.8328 -0.0030 -0.5535
vn -0.9986 -0.0425 0.0311
vn -0.8546 -0.0635 0.5153
vn -0.5541 -0.1865 0.8113
vn -0.1672 -0.1704 0.9711
vn 0.3329 -0.1123 0.9362
vn 0.8190 -0.0040 0.5738
vn 0.9940 0.1089 -0.0138
vn 0.8469 0.1714 -0.5033
vn 0.5539 0.1885 -0.8109
vn 0.1606 0.1714 -0.9720
vn -0.3487 0.1089 -0.9308
vn -0.8324 -0.0040 -0.5541
vn -0.9932 -0.1123 0.0305
vn -0.8437 -0.1704 0.5090
vn -0.5385 -0.2973 0.7884
vn -0.1576 -0.2719 0.9493
vn 0.3371 -0.1793 0.9242
vn 0.8194 -0.0049 0.5732
vn 0.9846 0.1747 -0.0063
vn 0.8301 0.2723 -0.4866
vn 0.5382 0.2987 -0.7880
vn 0.1512 0.2723 -0.9503
vn -0.3523 0.1747 -0.9194
vn -0.8320 -0.0049 -0.5547
vn -0.9835 -0.1793 0.0221
vn -0.8269 -0.2719 0.4922
vn -0.5165 -0.4017 0.7562
vn -0.1406 -0.3679 0.9192
vn 0.3470 -0.2429 0.9059
vn 0.8197 -0.0055 0.5727
vn 0.9714 0.2373 0.0089
vn 0.8083 0.3675 -0.4600
vn 0.5163 0.4026 -0.7559
vn 0.1344 0.3675 -0.9202
vn -0.3616 0.2373 -0.9016
vn -0.8317 -0.0055 -0.5552
vn -0.9700 -0.2429 0.0063
vn -0.8050 -0.3679 0.4653
vn -0.4885 -0.4999 0.7152
vn -0.1164 -0.4579 0.8813
vn 0.3622 -0.3024 0.8816
vn 0.8200 -0.0061 0.5723
vn 0.9547 0.2959 0.0313
vn 0.7819 0.4569 -0.4240
vn 0.4884 0.5001 -0.7151
vn 0.1105 0.4569 -0.8826
vn -0.3764 0.2959 -0.8779
vn -0.8314 -0.0061 -0.5556
vn -0.9530 -0.3024 -0.0166
vn -0.7786 -0.4579 0.4290
vn -0.4547 -0.5916 0.6658
vn -0.0853 -0.5419 0.8361
vn 0.3827 -0.3575 0.8519
vn 0.8202 -0.0067 0.5720
vn 0.9348 0.3500 0.0607
vn 0.7514 0.5401 -0.3790
vn 0.4548 0.5912 -0.6659
vn 0.0797 0.5401 -0.8378
vn -0.3966 0.3500 -0.8486
vn -0.8312 -0.0067 -0.5559
vn -0.9327 -0.3575 -0.0466
vn -0.7478 -0.5419 0.3836
vn -0.4152 -0.6767 0.6080
vn -0.0474 -0.6193 0.7837
vn 0.4082 -0.4075 0.8168
vn 0.8204 -0.0074 0.5717
vn 0.9118 0.3990 0.0968
vn 0.7167 0.6170 -0.3250
vn 0.4156 0.6759 -0.6085
vn 0.0420 0.6170 -0.7858
vn -0.4219 0.3990 -0.8141
vn -0.8310 -0.0074 -0.5561
vn -0.9094 -0.4075 -0.0831
vn -0.7128 -0.6193 0.3293
vn -0.3699 -0.7548 0.5417
vn -0.0028 -0.6896 0.7241
vn 0.4386 -0.4519 0.7767
vn 0.8206 -0.0083 0.5715
vn 0.8860 0.4423 0.1393
vn 0.6778 0.6868 -0.2621
vn 0.3706 0.7537 -0.5427
vn -0.0024 0.6868 -0.7268
vn -0.4520 0.4423 -0.7746
vn -0.8308 -0.0083 -0.5564
vn -0.8831 -0.4519 -0.1260
vn -0.6735 -0.6896 0.2661
vn -0.3187 -0.8251 0.4666
vn 0.0484 -0.7521 0.6572
vn 0.4735 -0.4901 0.7318
vn 0.8209 -0.0093 0.5710
vn 0.8574 0.4792 0.1877
vn 0.6347 0.7490 -0.1904
vn 0.3197 0.8238 -0.4681
vn -0.0535 0.7490 -0.6604
vn -0.4868 0.4792 -0.7303
vn -0.8305 -0.0093 -0.5568
vn -0.8539 -0.4901 -0.1749
vn -0.6298 -0.7521 0.1939
vn -0.2515 -0.8950 0.3683
vn 0.1184 -0.8139 0.5687
vn 0.5269 -0.5284 0.6657
vn 0.8340 -0.0172 0.5514
vn 0.8359 0.5009 0.2241
vn 0.5956 0.7935 -0.1243
vn 0.2715 0.8765 -0.3975
vn -0.1009 0.7935 -0.6001
vn -0.5129 0.5009 -0.6971
vn -0.8170 -0.0172 -0.5763
vn -0.8118 -0.5284 -0.2486
vn -0.5728 -0.8139 0.0967
vn -0.1529 -0.9626 0.2238
vn 0.1947 -0.8788 0.4356
vn 0.5622 -0.5809 0.5886
vn 0.8275 -0.0246 0.5608
vn 0.7892 0.5465 0.2799
vn 0.5321 0.8446 -0.0597
vn 0.2205 0.9203 -0.3229
vn -0.1379 0.8446 -0.5173
vn -0.5479 0.5465 -0.6333
vn -0.8235 -0.0246 -0.5668
vn -0.7528 -0.5809 -0.3095
vn -0.4766 -0.8788 -0.0229
vn -0.0941 -0.9860 0.1379
vn 0.2111 -0.9155 0.3424
vn 0.5254 -0.6662 0.5292
vn 0.7841 -0.1494 0.6024
vn 0.7732 0.5032 0.3858
vn 0.5075 0.8616 0.0122
vn 0.1887 0.9423 -0.2763
vn -0.1960 0.8616 -0.4682
vn -0.6407 0.5032 -0.5799
vn -0.8463 -0.1494 -0.5112
vn -0.6841 -0.6662 -0.2969
vn -0.3958 -0.9155 -0.0721
vn -0.0241 0.9991 0.0353
vn -0.0464 0.9966 0.0680
vn 0.3270 0.8916 0.3131
vn 0.3429 0.8959 0.2822
vn 0.6601 0.5540 0.5072
vn 0.6670 0.5625 0.4884
vn 0.8263 0.0061 0.5632
vn 0.8262 0.0164 0.5632
vn 0.7208 -0.5461 0.4268
vn 0.7173 -0.5401 0.4400
vn 0.4238 -0.8883 0.1770
vn 0.4186 -0.8878 0.1915
vn 0.0602 -0.9943 -0.0881
vn 0.0525 -0.9956 -0.0768
vn -0.3191 -0.8883 -0.3303
vn -0.3307 -0.8878 -0.3202
vn -0.6598 -0.5461 -0.5162
vn -0.6708 -0.5401 -0.5081
vn -0.8252 0.0061 -0.5648
vn -0.8251 0.0164 -0.5647
vn -0.7126 0.5540 -0.4303
vn -0.6977 0.5625 -0.4436
vn -0.4107 0.8916 -0.1907
vn -0.3877 0.8959 -0.2167
vn -0.1106 0.9806 0.1620
vn 0.2728 0.8759 0.3980
vn 0.6261 0.5448 0.5579
vn 0.8249 0.0143 0.5650
vn 0.7560 -0.5264 0.3891
vn 0.4763 -0.8715 0.1164
vn 0.1093 -0.9810 -0.1601
vn -0.2817 -0.8715 -0.4013
vn -0.6374 -0.5264 -0.5626
vn -0.8264 0.0143 -0.5629
vn -0.7474 0.5448 -0.3802
vn -0.4700 0.8759 -0.1093
vn -0.1933 0.9394 0.2830
vn 0.2026 0.8372 0.5079
vn 0.5829 0.5181 0.6259
vn 0.8234 0.0139 0.5673
vn 0.8019 -0.5000 0.3270
vn 0.5534 -0.8328 0.0115
vn 0.1925 -0.9399 -0.2819
vn -0.2120 -0.8328 -0.5113
vn -0.5963 -0.5000 -0.6280
vn -0.8279 0.0139 -0.5606
vn -0.7951 0.5181 -0.3153
vn -0.5468 0.8372 -0.0039
vn -0.2729 0.8751 0.3996
vn 0.1335 0.7790 0.6127
vn 0.5403 0.4807 0.6906
vn 0.8219 0.0128 0.5695
vn 0.8449 -0.4637 0.2666
vn 0.6259 -0.7746 -0.0907
vn 0.2727 -0.8753 -0.3993
vn -0.1432 -0.7746 -0.6160
vn -0.5557 -0.4637 -0.6900
vn -0.8295 0.0128 -0.5584
vn -0.8398 0.4807 -0.2521
vn -0.6193 0.7790 0.0986
vn -0.3464 0.7891 0.5072
vn 0.0677 0.7024 0.7085
vn 0.4994 0.4333 0.7501
vn 0.8205 0.0111 0.5716
vn 0.8838 -0.4183 0.2093
vn 0.6912 -0.6981 -0.1867
vn 0.3467 -0.7888 -0.5076
vn -0.0775 -0.6981 -0.7117
vn -0.5165 -0.4183 -0.7471
vn -0.8309 0.0111 -0.5563
vn -0.8805 0.4333 -0.1923
vn -0.6846 0.7024 0.1946
vn -0.4109 0.6850 0.6016
vn 0.0077 0.6104 0.7920
vn 0.4614 0.3773 0.8029
vn 0.8193 0.0091 0.5732
vn 0.9178 -0.3650 0.1565
vn 0.7468 -0.6063 -0.2731
vn 0.4115 -0.6838 -0.6025
vn -0.0173 -0.6063 -0.7950
vn -0.4796 -0.3650 -0.7979
vn -0.8320 0.0091 -0.5546
vn -0.9158 0.3773 -0.1377
vn -0.7405 0.6104 0.2809
vn -0.4645 0.5672 0.6800
vn -0.0447 0.5065 0.8610
vn 0.4272 0.3144 0.8477
vn 0.8185 0.0067 0.5744
vn 0.9460 -0.3049 0.1094
vn 0.7916 -0.5027 -0.3474
vn 0.4653 -0.5652 -0.6812
vn 0.0356 -0.5027 -0.8637
vn -0.4461 -0.3049 -0.8414
vn -0.8328 0.0067 -0.5535
vn -0.9450 0.3144 -0.0895
vn -0.7858 0.5065 0.3549
vn -0.5062 0.4409 0.7412
vn -0.0884 0.3948 0.9145
vn 0.3977 0.2463 0.8838
vn 0.8180 0.0043 0.5751
vn 0.9683 -0.2398 0.0691
vn 0.8250 -0.3912 -0.4078
vn 0.5070 -0.4382 -0.7423
vn 0.0797 -0.3912 -0.9168
vn -0.4166 -0.2399 -0.8768
vn -0.8333 0.0043 -0.5528
vn -0.9679 0.2463 -0.0489
vn -0.8197 0.3948 0.4150
vn -0.9543 -0.2220 -0.1999
vn -0.9644 -0.1704 -0.2021
vn -0.9065 -0.1704 -0.3863
vn -0.8970 -0.2220 -0.3823
vn 0.9046 -0.2220 -0.3639
vn 0.9142 -0.1704 -0.3678
vn 0.9683 -0.1704 -0.1824
vn 0.9582 -0.2220 -0.1805
vn 0.8051 -0.2220 0.5499
vn 0.8137 -0.1704 0.5557
vn 0.6896 -0.1704 0.7038
vn 0.6824 -0.2220 0.6964
vn -0.9750 -0.2220 -0.0099
vn -0.9853 -0.1704 -0.0100
vn 0.8162 -0.2220 -0.5334
vn 0.8248 -0.1704 -0.5390
vn -0.9582 -0.2220 0.1805
vn -0.9683 -0.1704 0.1824
vn 0.6964 -0.2220 -0.6824
vn 0.7038 -0.1704 -0.6896
vn -0.9046 -0.2220 0.3639
vn -0.9142 -0.1704 0.3678
vn 0.5499 -0.2220 -0.8051
vn 0.5557 -0.1704 -0.8137
vn -0.8162 -0.2220 0.5334
vn -0.8248 -0.1704 0.5390
vn 0.3823 -0.2220 -0.8970
vn 0.3863 -0.1704 -0.9065
vn -0.6964 -0.2220 0.6824
vn -0.7038 -0.1704 0.6896
vn 0.1999 -0.2220 -0.9543
vn 0.2021 -0.1704 -0.9644
vn -0.5499 -0.2220 0.8051
vn -0.5557 -0.1704 0.8137
vn 0.0099 -0.2220 -0.9750
vn 0.0100 -0.1704 -0.9853
vn -0.3823 -0.2220 0.8970
vn -0.3863 -0.1704 0.9065
vn -0.1805 -0.2220 -0.9582
vn -0.1824 -0.1704 -0.9683
vn -0.1999 -0.2220 0.9543
vn -0.2021 -0.1704 0.9644
vn -0.3639 -0.2220 -0.9046
vn -0.3678 -0.1704 -0.9142
vn -0.0099 -0.2220 0.9750
vn -0.0100 -0.1704 0.9853
vn -0.5334 -0.2220 -0.8162
vn -0.5390 -0.1704 -0.8248
vn 0.8970 -0.2220 0.3823
vn 0.9065 -0.1704 0.3863
vn 0.1805 -0.2220 0.9582
vn 0.1824 -0.1704 0.9683
vn -0.6824 -0.2220 -0.6964
vn -0.6896 -0.1704 -0.7038
vn 0.9543 -0.2220 0.1999
vn 0.9644 -0.1704 0.2021
vn 0.3639 -0.2220 0.9046
vn 0.3678 -0.1704 0.9142
vn -0.8051 -0.2220 -0.5499
vn -0.8137 -0.1704 -0.5557
vn 0.9750 -0.2220 0.0099
vn 0.9853 -0.1704 0.0100
vn 0.5334 -0.2220 0.8162
vn 0.5390 -0.1704 0.8248
vn -0.2029 -0.1430 0.9687
vn -0.2042 -0.0885 0.9749
vn -0.3905 -0.0885 0.9163
vn -0.3880 -0.1430 0.9105
vn -0.3694 -0.1430 -0.9182
vn -0.3718 -0.0885 -0.9241
vn -0.1844 -0.0885 -0.9789
vn -0.1832 -0.1430 -0.9726
vn -0.0101 -0.1430 0.9897
vn -0.0101 -0.0885 0.9960
vn -0.5414 -0.1430 -0.8285
vn -0.5449 -0.0885 -0.8338
vn 0.9105 -0.1430 0.3880
vn 0.9163 -0.0885 0.3905
vn 0.8225 -0.0885 0.5618
vn 0.8173 -0.1430 0.5582
vn 0.1832 -0.1430 0.9726
vn 0.1844 -0.0885 0.9789
vn -0.6926 -0.1430 -0.7069
vn -0.6971 -0.0885 -0.7114
vn 0.9687 -0.1430 0.2029
vn 0.9749 -0.0885 0.2043
vn 0.3694 -0.1430 0.9182
vn 0.3718 -0.0885 0.9241
vn -0.8173 -0.1430 -0.5582
vn -0.8225 -0.0885 -0.5618
vn 0.9897 -0.1430 0.0101
vn 0.9960 -0.0885 0.0101
vn 0.5414 -0.1430 0.8285
vn 0.5449 -0.0885 0.8338
vn -0.9105 -0.1430 -0.3880
vn -0.9163 -0.0885 -0.3905
vn 0.9726 -0.1430 -0.1832
vn 0.9789 -0.0885 -0.1844
vn 0.6927 -0.1430 0.7069
vn 0.6971 -0.0885 0.7114
vn -0.9687 -0.1430 -0.2029
vn -0.9749 -0.0885 -0.2043
vn 0.9182 -0.1430 -0.3694
vn 0.9241 -0.0885 -0.3718
vn -0.9897 -0.1430 -0.0101
vn -0.9960 -0.0885 -0.0101
vn 0.8285 -0.1430 -0.5414
vn 0.8338 -0.0885 -0.5449
vn -0.9726 -0.1430 0.1832
vn -0.9789 -0.0885 0.1844
vn 0.7069 -0.1430 -0.6926
vn 0.7114 -0.0885 -0.6971
vn -0.9182 -0.1430 0.3694
vn -0.9241 -0.0885 0.3718
vn 0.5582 -0.1430 -0.8173
vn 0.5618 -0.0885 -0.8225
vn -0.8285 -0.1430 0.5414
vn -0.8338 -0.0885 0.5449
vn 0.3880 -0.1430 -0.9105
vn 0.3905 -0.0885 -0.9163
vn -0.7069 -0.1430 0.6927
vn -0.7114 -0.0885 0.6971
vn 0.2029 -0.1430 -0.9687
vn 0.2043 -0.0885 -0.9749
vn -0.5582 -0.1430 0.8173
vn -0.5618 -0.0885 0.8225
vn 0.0101 -0.1430 -0.9897
vn 0.0101 -0.0885 -0.9960
vn 0.3730 0.0332 0.9272
vn 0.3615 0.2486 0.8986
vn 0.1793 0.2486 0.9518
vn 0.1850 0.0332 0.9821
vn -0.8253 0.0332 -0.5637
vn -0.7998 0.2486 -0.5463
vn -0.6779 0.2486 -0.6918
vn -0.6995 0.0332 -0.7139
vn 0.9994 0.0332 0.0102
vn 0.9685 0.2486 0.0099
vn 0.9480 0.2486 0.1986
vn 0.9782 0.0332 0.2049
vn 0.5468 0.0332 0.8366
vn 0.5299 0.2486 0.8108
vn -0.9194 0.0332 -0.3918
vn -0.8910 0.2486 -0.3797
vn 0.9821 0.0332 -0.1850
vn 0.9518 0.2486 -0.1793
vn 0.6995 0.0332 0.7139
vn 0.6779 0.2486 0.6918
vn -0.9782 0.0332 -0.2049
vn -0.9480 0.2486 -0.1986
vn 0.9272 0.0332 -0.3730
vn 0.8986 0.2486 -0.3615
vn 0.8253 0.0332 0.5637
vn 0.7998 0.2486 0.5463
vn -0.9994 0.0332 -0.0102
vn -0.9685 0.2486 -0.0099
vn 0.8366 0.0332 -0.5468
vn 0.8108 0.2486 -0.5299
vn -0.9821 0.0332 0.1850
vn -0.9518 0.2486 0.1793
vn 0.7139 0.0332 -0.6995
vn 0.6918 0.2486 -0.6779
vn -0.9272 0.0332 0.3730
vn -0.8986 0.2486 0.3615
vn 0.5637 0.0332 -0.8253
vn 0.5463 0.2486 -0.7998
vn -0.8366 0.0332 0.5468
vn -0.8108 0.2486 0.5299
vn 0.3918 0.0332 -0.9194
vn 0.3797 0.2486 -0.8910
vn -0.7139 0.0332 0.6995
vn -0.6918 0.2486 0.6779
vn 0.2049 0.0332 -0.9782
vn 0.1986 0.2486 -0.9480
vn -0.5637 0.0332 0.8253
vn -0.5463 0.2486 0.7998
vn 0.0102 0.0332 -0.9994
vn 0.0099 0.2486 -0.9685
vn -0.3918 0.0332 0.9194
vn -0.3797 0.2486 0.8910
vn -0.1850 0.0332 -0.9822
vn -0.1793 0.2486 -0.9518
vn -0.2049 0.0332 0.9782
vn -0.1986 0.2486 0.9480
vn -0.3730 0.0332 -0.9272
vn -0.3615 0.2486 -0.8986
vn -0.0102 0.0332 0.9994
vn -0.0099 0.2486 0.9685
vn -0.5468 0.0332 -0.8366
vn -0.5299 0.2486 -0.8108
vn 0.9194 0.0332 0.3918
vn 0.8910 0.2486 0.3797
vn -0.7743 -0.5399 -0.3300
vn -0.6633 -0.6929 -0.2827
vn -0.7057 -0.6929 -0.1478
vn -0.8238 -0.5399 -0.1726
vn 0.8272 -0.5399 -0.1558
vn 0.7085 -0.6929 -0.1334
vn 0.6689 -0.6929 -0.2691
vn 0.7809 -0.5399 -0.3142
vn 0.5891 -0.5399 0.6012
vn 0.5046 -0.6929 0.5150
vn 0.5954 -0.6929 0.4066
vn 0.6951 -0.5399 0.4747
vn -0.7210 -0.6929 -0.0073
vn -0.8417 -0.5399 -0.0085
vn 0.6035 -0.6929 -0.3944
vn 0.7046 -0.5399 -0.4605
vn -0.7085 -0.6929 0.1334
vn -0.8272 -0.5399 0.1558
vn 0.5150 -0.6929 -0.5046
vn 0.6012 -0.5399 -0.5891
vn -0.6689 -0.6929 0.2691
vn -0.7809 -0.5399 0.3142
vn 0.4066 -0.6929 -0.5954
vn 0.4747 -0.5399 -0.6951
vn -0.6035 -0.6929 0.3944
vn -0.7046 -0.5399 0.4605
vn 0.2827 -0.6929 -0.6633
vn 0.3300 -0.5399 -0.7743
vn -0.5150 -0.6929 0.5046
vn -0.6012 -0.5399 0.5891
vn 0.1478 -0.6929 -0.7057
vn 0.1726 -0.5399 -0.8238
vn -0.4066 -0.6929 0.5954
vn -0.4747 -0.5399 0.6951
vn 0.0073 -0.6929 -0.7210
vn 0.0085 -0.5399 -0.8417
vn -0.2827 -0.6929 0.6633
vn -0.3300 -0.5399 0.7743
vn -0.1334 -0.6929 -0.7085
vn -0.1558 -0.5399 -0.8272
vn -0.1478 -0.6929 0.7057
vn -0.1726 -0.5399 0.8238
vn -0.2691 -0.6929 -0.6689
vn -0.3142 -0.5399 -0.7809
vn -0.0073 -0.6929 0.7210
vn -0.0085 -0.5399 0.8417
vn -0.3944 -0.6929 -0.6035
vn -0.4605 -0.5399 -0.7046
vn 0.6633 -0.6929 0.2827
vn 0.7743 -0.5399 0.3300
vn 0.1334 -0.6929 0.7085
vn 0.1558 -0.5399 0.8272
vn -0.5046 -0.6929 -0.5150
vn -0.5891 -0.5399 -0.6012
vn 0.7057 -0.6929 0.1478
vn 0.8238 -0.5399 0.1726
vn 0.2691 -0.6929 0.6689
vn 0.3142 -0.5399 0.7809
vn -0.5954 -0.6929 -0.4066
vn -0.6951 -0.5399 -0.4747
vn 0.7210 -0.6929 0.0073
vn 0.8417 -0.5399 0.0085
vn 0.3944 -0.6929 0.6035
vn 0.4605 -0.5399 0.7046
vn -0.2118 -0.9736 0.0852
vn -0.1911 -0.9736 0.1249
vn 0.1287 -0.9736 -0.1885
vn 0.0895 -0.9736 -0.2100
vn -0.1630 -0.9736 0.1597
vn 0.0468 -0.9736 -0.2234
vn -0.1287 -0.9736 0.1885
vn 0.0023 -0.9736 -0.2282
vn -0.0895 -0.9736 0.2100
vn -0.0422 -0.9736 -0.2243
vn -0.0468 -0.9736 0.2234
vn -0.0852 -0.9736 -0.2118
vn -0.0023 -0.9736 0.2282
vn -0.1249 -0.9736 -0.1911
vn 0.1885 -0.9736 0.1287
vn 0.2100 -0.9736 0.0895
vn 0.0422 -0.9736 0.2243
vn -0.1597 -0.9736 -0.1630
vn 0.2234 -0.9736 0.0468
vn 0.0852 -0.9736 0.2118
vn -0.1885 -0.9736 -0.1287
vn 0.2282 -0.9736 0.0023
vn 0.1249 -0.9736 0.1911
vn -0.2100 -0.9736 -0.0895
vn 0.2243 -0.9736 -0.0422
vn 0.1597 -0.9736 0.1630
vn -0.2234 -0.9736 -0.0468
vn 0.2118 -0.9736 -0.0852
vn -0.2282 -0.9736 -0.0023
vn 0.1911 -0.9736 -0.1249
vn -0.2243 -0.9736 0.0422
vn 0.1630 -0.9736 -0.1597
vn 0.0844 -0.9887 -0.1236
vn 0.0587 -0.9887 -0.1377
vn -0.0015 -0.9887 0.1497
vn 0.0277 -0.9887 0.1471
vn 0.0307 -0.9887 -0.1465
vn 0.0558 -0.9887 0.1389
vn 0.0015 -0.9887 -0.1497
vn 0.0819 -0.9887 0.1253
vn -0.1236 -0.9887 -0.0844
vn -0.1377 -0.9887 -0.0587
vn -0.0277 -0.9887 -0.1471
vn 0.1048 -0.9887 0.1069
vn -0.1465 -0.9887 -0.0307
vn -0.0558 -0.9887 -0.1389
vn 0.1236 -0.9887 0.0844
vn -0.1497 -0.9887 -0.0015
vn -0.0819 -0.9887 -0.1253
vn 0.1377 -0.9887 0.0587
vn -0.1471 -0.9887 0.0277
vn -0.1048 -0.9887 -0.1069
vn 0.1465 -0.9887 0.0307
vn -0.1389 -0.9887 0.0558
vn 0.1497 -0.9887 0.0015
vn -0.1253 -0.9887 0.0819
vn 0.1471 -0.9887 -0.0277
vn -0.1069 -0.9887 0.1048
vn 0.1389 -0.9887 -0.0558
vn -0.0844 -0.9887 0.1236
vn 0.1253 -0.9887 -0.0819
vn -0.0587 -0.9887 0.1377
vn 0.1069 -0.9887 -0.1048
vn -0.0307 -0.9887 0.1465
vn 0.6361 -0.4171 0.6492
vn 0.6632 -0.3194 0.6768
vn 0.5184 -0.3194 0.7932
vn 0.4972 -0.4171 0.7608
vn 0.8932 -0.4171 -0.1682
vn 0.9312 -0.3194 -0.1754
vn 0.9476 -0.3194 0.0096
vn 0.9088 -0.4171 0.0092
vn -0.8361 -0.4171 -0.3563
vn -0.8717 -0.3194 -0.3715
vn -0.7825 -0.3194 -0.5344
vn -0.7505 -0.4171 -0.5126
vn 0.3537 -0.3194 0.8791
vn 0.3392 -0.4171 0.8432
vn 0.9275 -0.3194 0.1943
vn 0.8895 -0.4171 0.1864
vn -0.6632 -0.3194 -0.6768
vn -0.6361 -0.4171 -0.6492
vn 0.1754 -0.3194 0.9312
vn 0.1682 -0.4171 0.8932
vn 0.8717 -0.3194 0.3715
vn 0.8361 -0.4171 0.3563
vn -0.5184 -0.3194 -0.7932
vn -0.4972 -0.4171 -0.7608
vn -0.0096 -0.3194 0.9476
vn -0.0092 -0.4171 0.9088
vn 0.7825 -0.3194 0.5344
vn 0.7505 -0.4171 0.5126
vn -0.3537 -0.3194 -0.8791
vn -0.3392 -0.4171 -0.8432
vn -0.1943 -0.3194 0.9275
vn -0.1864 -0.4171 0.8895
vn -0.1754 -0.3194 -0.9312
vn -0.1682 -0.4171 -0.8932
vn -0.3715 -0.3194 0.8717
vn -0.3563 -0.4171 0.8361
vn 0.0096 -0.3194 -0.9476
vn 0.0092 -0.4171 -0.9088
vn -0.5344 -0.3194 0.7825
vn -0.5126 -0.4171 0.7505
vn 0.1943 -0.3194 -0.9275
vn 0.1864 -0.4171 -0.8895
vn -0.6768 -0.3194 0.6632
vn -0.6492 -0.4171 0.6361
vn 0.3715 -0.3194 -0.8717
vn 0.3563 -0.4171 -0.8361
vn -0.7932 -0.3194 0.5184
vn -0.7608 -0.4171 0.4972
vn 0.5344 -0.3194 -0.7825
vn 0.5126 -0.4171 -0.7505
vn -0.8791 -0.3194 0.3537
vn -0.8432 -0.4171 0.3392
vn 0.6768 -0.3194 -0.6632
vn 0.6492 -0.4171 -0.6361
vn -0.9312 -0.3194 0.1754
vn -0.8932 -0.4171 0.1682
vn 0.7932 -0.3194 -0.5184
vn 0.7608 -0.4171 -0.4972
vn -0.9476 -0.3194 -0.0096
vn -0.9088 -0.4171 -0.0092
vn 0.8791 -0.3194 -0.3537
vn 0.8432 -0.4171 -0.3392
vn -0.9275 -0.3194 -0.1943
vn -0.8895 -0.4171 -0.1864
vn 0.6422 0.6286 0.4386
vn 0.5443 0.6286 0.5555
vn -0.7776 0.6286 -0.0079
vn -0.7612 0.6286 -0.1595
vn 0.6510 0.6286 -0.4255
vn 0.7215 0.6286 -0.2903
vn -0.7642 0.6286 0.1439
vn 0.5555 0.6286 -0.5443
vn -0.7215 0.6286 0.2903
vn 0.4386 0.6286 -0.6422
vn -0.6510 0.6286 0.4255
vn 0.3049 0.6286 -0.7154
vn -0.5555 0.6286 0.5443
vn 0.1595 0.6286 -0.7612
vn -0.4386 0.6286 0.6422
vn 0.0079 0.6286 -0.7776
vn -0.3049 0.6286 0.7154
vn -0.1439 0.6286 -0.7642
vn -0.1595 0.6286 0.7612
vn -0.2903 0.6286 -0.7215
vn -0.0079 0.6286 0.7776
vn -0.4255 0.6286 -0.6510
vn 0.7154 0.6286 0.3049
vn 0.1439 0.6286 0.7642
vn -0.5443 0.6286 -0.5555
vn 0.7612 0.6286 0.1595
vn 0.2903 0.6286 0.7215
vn -0.6422 0.6286 -0.4386
vn 0.7776 0.6286 0.0079
vn 0.4255 0.6286 0.6510
vn -0.7154 0.6286 -0.3049
vn 0.7642 0.6286 -0.1439
vn 0.0359 0.9845 -0.1715
vn 0.0687 0.9845 -0.1611
vn -0.0988 0.9845 0.1447
vn -0.1251 0.9845 0.1226
vn 0.0018 0.9845 -0.1752
vn -0.0687 0.9845 0.1611
vn -0.0324 0.9845 -0.1722
vn -0.0359 0.9845 0.1715
vn -0.0654 0.9845 -0.1625
vn -0.0018 0.9845 0.1752
vn -0.0958 0.9845 -0.1466
vn 0.1611 0.9845 0.0687
vn 0.1447 0.9845 0.0988
vn 0.0324 0.9845 0.1722
vn -0.1226 0.9845 -0.1251
vn 0.1715 0.9845 0.0359
vn 0.0654 0.9845 0.1625
vn -0.1447 0.9845 -0.0988
vn 0.1752 0.9845 0.0018
vn 0.0958 0.9845 0.1466
vn -0.1611 0.9845 -0.0687
vn 0.1722 0.9845 -0.0324
vn 0.1226 0.9845 0.1251
vn -0.1715 0.9845 -0.0359
vn 0.1625 0.9845 -0.0654
vn -0.1752 0.9845 -0.0018
vn 0.1466 0.9845 -0.0958
vn -0.1722 0.9845 0.0324
vn 0.1251 0.9845 -0.1226
vn -0.1625 0.9845 0.0654
vn 0.0988 0.9845 -0.1447
vn -0.1466 0.9845 0.0958
vn 0.2536 0.7337 0.6303
vn 0.1257 0.7337 0.6677
vn 0.0069 0.7337 -0.6794
vn 0.1393 0.7337 -0.6650
vn 0.3717 0.7337 0.5687
vn -0.6250 0.7337 -0.2664
vn -0.5610 0.7337 -0.3832
vn -0.1257 0.7337 -0.6677
vn 0.4755 0.7337 0.4853
vn -0.6650 0.7337 -0.1393
vn -0.2536 0.7337 -0.6303
vn 0.5610 0.7337 0.3832
vn -0.6794 0.7337 -0.0069
vn -0.3717 0.7337 -0.5687
vn 0.6250 0.7337 0.2664
vn -0.6677 0.7337 0.1257
vn -0.4755 0.7337 -0.4853
vn 0.6650 0.7337 0.1393
vn -0.6303 0.7337 0.2536
vn 0.6794 0.7337 0.0069
vn -0.5687 0.7337 0.3717
vn 0.6677 0.7337 -0.1257
vn -0.4853 0.7337 0.4755
vn 0.6303 0.7337 -0.2536
vn -0.3832 0.7337 0.5610
vn 0.5687 0.7337 -0.3717
vn -0.2664 0.7337 0.6250
vn 0.4853 0.7337 -0.4755
vn -0.1393 0.7337 0.6650
vn 0.3832 0.7337 -0.5610
vn -0.0069 0.7337 0.6794
vn 0.2664 0.7337 -0.6250
vn 0.8173 0.1423 0.5582
vn 0.6927 0.1423 0.7070
vn -0.9897 0.1423 -0.0101
vn -0.9688 0.1423 -0.2030
vn -0.5415 0.1423 -0.8285
vn -0.3695 0.1423 -0.9183
vn 0.9106 0.1423 0.3881
vn -0.9727 0.1423 0.1832
vn -0.6927 0.1423 -0.7070
vn 0.9688 0.1423 0.2030
vn -0.9183 0.1423 0.3695
vn -0.8173 0.1423 -0.5582
vn 0.9897 0.1423 0.0101
vn -0.8285 0.1423 0.5415
vn 0.9727 0.1423 -0.1832
vn -0.7070 0.1423 0.6927
vn 0.9183 0.1423 -0.3695
vn -0.5582 0.1422 0.8173
vn 0.8285 0.1423 -0.5415
vn -0.3881 0.1423 0.9106
vn 0.7070 0.1423 -0.6927
vn -0.2030 0.1423 0.9688
vn 0.5582 0.1423 -0.8173
vn -0.0101 0.1423 0.9897
vn 0.3881 0.1423 -0.9106
vn 0.1832 0.1423 0.9727
vn 0.2030 0.1423 -0.9688
vn 0.3695 0.1423 0.9183
vn 0.0101 0.1423 -0.9897
vn 0.5415 0.1423 0.8285
vn -0.9106 0.1423 -0.3881
vn -0.1832 0.1423 -0.9727
vn 0.9983 0.0580 0.0102
vn 0.9771 0.0580 0.2047
vn -0.8357 0.0580 0.5461
vn -0.9261 0.0580 0.3726
vn 0.9810 0.0580 -0.1848
vn -0.7131 0.0580 0.6987
vn 0.9261 0.0580 -0.3726
vn -0.5630 0.0580 0.8244
vn 0.8357 0.0580 -0.5461
vn -0.3914 0.0580 0.9184
vn 0.7130 0.0580 -0.6987
vn -0.2047 0.0580 0.9771
vn 0.5630 0.0580 -0.8244
vn -0.0102 0.0580 0.9983
vn 0.3914 0.0580 -0.9184
vn 0.1848 0.0580 0.9810
vn 0.2047 0.0580 -0.9771
vn 0.3726 0.0580 0.9261
vn 0.0102 0.0580 -0.9983
vn 0.5461 0.0580 0.8357
vn -0.9184 0.0580 -0.3914
vn -0.8244 0.0580 -0.5630
vn -0.1848 0.0580 -0.9810
vn 0.6987 0.0580 0.7131
vn -0.9771 0.0580 -0.2047
vn -0.3726 0.0580 -0.9261
vn 0.8244 0.0580 0.5630
vn -0.9983 0.0580 -0.0102
vn -0.5461 0.0580 -0.8357
vn 0.9184 0.0580 0.3914
vn -0.9810 0.0580 0.1848
vn -0.6987 0.0580 -0.7131
vn 0.8260 0.1621 -0.5398
vn 0.9154 0.1621 -0.3683
vn -0.3869 0.1621 0.9077
vn -0.5565 0.1621 0.8148
vn 0.7048 0.1621 -0.6906
vn -0.2023 0.1621 0.9658
vn 0.5565 0.1621 -0.8148
vn -0.0100 0.1621 0.9867
vn 0.3869 0.1621 -0.9077
vn 0.1826 0.1621 0.9697
vn 0.2023 0.1621 -0.9658
vn 0.3683 0.1621 0.9154
vn 0.0100 0.1621 -0.9867
vn 0.5398 0.1621 0.8260
vn -0.9077 0.1621 -0.3869
vn -0.8148 0.1621 -0.5565
vn -0.1826 0.1621 -0.9697
vn 0.6906 0.1621 0.7048
vn -0.9658 0.1621 -0.2023
vn -0.3683 0.1621 -0.9154
vn 0.8148 0.1621 0.5565
vn -0.9867 0.1621 -0.0100
vn -0.5398 0.1621 -0.8260
vn 0.9077 0.1621 0.3869
vn -0.9697 0.1621 0.1826
vn -0.6906 0.1621 -0.7048
vn 0.9658 0.1621 0.2023
vn -0.9154 0.1621 0.3683
vn 0.9867 0.1621 0.0100
vn -0.8260 0.1621 0.5398
vn 0.9697 0.1621 -0.1826
vn -0.7048 0.1621 0.6906
vn 0.3797 0.2495 -0.8908
vn 0.5462 0.2495 -0.7996
vn 0.1792 0.2495 0.9516
vn -0.0099 0.2495 0.9683
vn 0.1986 0.2495 -0.9478
vn 0.3614 0.2495 0.8984
vn 0.0099 0.2495 -0.9683
vn 0.5297 0.2495 0.8106
vn -0.8908 0.2495 -0.3797
vn -0.7996 0.2495 -0.5462
vn -0.1792 0.2495 -0.9516
vn 0.6777 0.2495 0.6916
vn -0.9478 0.2495 -0.1986
vn -0.3614 0.2495 -0.8984
vn 0.7996 0.2495 0.5462
vn -0.9683 0.2495 -0.0099
vn -0.5297 0.2495 -0.8106
vn 0.8908 0.2495 0.3797
vn -0.9516 0.2495 0.1792
vn -0.6777 0.2495 -0.6916
vn 0.9478 0.2495 0.1986
vn -0.8984 0.2495 0.3614
vn 0.9683 0.2495 0.0099
vn -0.8106 0.2495 0.5297
vn 0.9516 0.2495 -0.1792
vn -0.6917 0.2495 0.6777
vn 0.8984 0.2495 -0.3614
vn -0.5462 0.2495 0.7996
vn 0.8106 0.2495 -0.5297
vn -0.3797 0.2495 0.8908
vn 0.6916 0.2495 -0.6777
vn -0.1986 0.2495 0.9478
vn -0.8050 0.4839 -0.3431
vn -0.7226 0.4839 -0.4935
vn -0.1620 0.4839 -0.8600
vn 0.0089 0.4839 -0.8751
vn 0.6124 0.4839 0.6250
vn 0.4787 0.4839 0.7325
vn -0.8565 0.4839 -0.1794
vn -0.3266 0.4839 -0.8119
vn 0.7226 0.4839 0.4935
vn -0.8751 0.4839 -0.0089
vn -0.4787 0.4839 -0.7325
vn 0.8050 0.4839 0.3431
vn -0.8600 0.4839 0.1620
vn -0.6124 0.4839 -0.6250
vn 0.8565 0.4839 0.1794
vn -0.8119 0.4839 0.3266
vn 0.8751 0.4839 0.0089
vn -0.7325 0.4839 0.4787
vn 0.8600 0.4839 -0.1620
vn -0.6250 0.4839 0.6124
vn 0.8119 0.4839 -0.3266
vn -0.4935 0.4839 0.7226
vn 0.7325 0.4839 -0.4787
vn -0.3431 0.4839 0.8050
vn 0.6250 0.4839 -0.6124
vn -0.1794 0.4839 0.8565
vn 0.4935 0.4839 -0.7226
vn -0.0089 0.4839 0.8751
vn 0.3431 0.4839 -0.8050
vn 0.1620 0.4839 0.8600
vn 0.1794 0.4839 -0.8565
vn 0.3266 0.4839 0.8119
vn -0.5319 0.8408 0.1002
vn -0.5412 0.8408 -0.0055
vn -0.3788 0.8408 -0.3866
vn -0.2961 0.8408 -0.4531
vn 0.5298 0.8408 0.1110
vn 0.4979 0.8408 0.2122
vn -0.5022 0.8408 0.2020
vn -0.4470 0.8408 -0.3053
vn 0.5412 0.8408 0.0055
vn -0.4531 0.8408 0.2961
vn 0.5319 0.8408 -0.1002
vn -0.3866 0.8408 0.3788
vn 0.5022 0.8408 -0.2020
vn -0.3053 0.8408 0.4470
vn 0.4531 0.8408 -0.2961
vn -0.2122 0.8408 0.4979
vn 0.3866 0.8408 -0.3788
vn -0.1110 0.8408 0.5298
vn 0.3053 0.8408 -0.4470
vn -0.0055 0.8408 0.5412
vn 0.2122 0.8408 -0.4979
vn 0.1002 0.8408 0.5319
vn 0.1110 0.8408 -0.5298
vn 0.2020 0.8408 0.5022
vn 0.0055 0.8408 -0.5412
vn 0.2961 0.8408 0.4531
vn -0.4979 0.8408 -0.2122
vn -0.1002 0.8408 -0.5319
vn 0.3788 0.8408 0.3866
vn -0.5298 0.8408 -0.1110
vn -0.2020 0.8408 -0.5022
vn 0.4470 0.8408 0.3053
vn -0.0970 0.9907 0.0950
vn -0.1137 0.9907 0.0743
vn 0.1259 0.9907 -0.0507
vn 0.1334 0.9907 -0.0251
vn -0.0766 0.9907 0.1121
vn 0.1137 0.9907 -0.0743
vn -0.0532 0.9907 0.1249
vn 0.0970 0.9907 -0.0950
vn -0.0278 0.9907 0.1329
vn 0.0766 0.9907 -0.1121
vn -0.0014 0.9907 0.1357
vn 0.0532 0.9907 -0.1249
vn 0.0251 0.9907 0.1334
vn 0.0278 0.9907 -0.1329
vn 0.0507 0.9907 0.1259
vn 0.0014 0.9907 -0.1357
vn 0.0743 0.9907 0.1137
vn -0.1249 0.9907 -0.0532
vn -0.1121 0.9907 -0.0766
vn -0.0251 0.9907 -0.1334
vn 0.0950 0.9907 0.0970
vn -0.1329 0.9907 -0.0278
vn -0.0507 0.9907 -0.1259
vn 0.1121 0.9907 0.0766
vn -0.1357 0.9907 -0.0014
vn -0.0743 0.9907 -0.1137
vn 0.1249 0.9907 0.0532
vn -0.1334 0.9907 0.0251
vn -0.0950 0.9907 -0.0970
vn 0.1329 0.9907 0.0278
vn -0.1259 0.9907 0.0507
vn 0.1357 0.9907 0.0014
usemtl glass
s 1
f 1//1 13//2 14//3 2//4
f 2//4 14//3 15//5 3//6
f 3//6 15//5 16//7 4//8
f 4//8 16//7 17//9 5//10
f 5//10 17//9 18//11 6//12
f 6//12 18//11 19//13 7//14
f 7//14 19//13 20//15 8//16
f 8//16 20//15 21//17 9//18
f 9//18 21//17 22//19 10//20
f 10//20 22//19 23//21 11//22
f 11//22 23//21 24//23 12//24
f 1//1 12//24 24//23 13//2
f 13//2 25//25 26//26 14//3
f 14//3 26//26 27//27 15//5
f 15//5 27//27 28//28 16//7
f 16//7 28//28 29//29 17//9
f 17//9 29//29 30//30 18//11
f 18//11 30//30 31//31 19//13
f 19//13 31//31 32//32 20//15
f 20//15 32//32 33//33 21//17
f 21//17 33//33 34//34 22//19
f 22//19 34//34 35//35 23//21
f 23//21 35//35 36//36 24//23
f 24//23 36//36 25//25 13//2
f 25//25 37//37 38//38 26//26
f 26//26 38//38 39//39 27//27
f 27//27 39//39 40//40 28//28
f 28//28 40//40 41//41 29//29
f 29//29 41//41 42//42 30//30
f 30//30 42//42 43//43 31//31
f 31//31 43//43 44//44 32//32
f 32//32 44//44 45//45 33//33
f 33//33 45//45 46//46 34//34
f 34//34 46//46 47//47 35//35
f 35//35 47//47 48//48 36//36
f 36//36 48//48 37//37 25//25
f 37//37 49//49 50//50 38//38
f 38//38 50//50 51//51 39//39
f 39//39 51//51 52//52 40//40
f 40//40 52//52 53//53 41//41
f 41//41 53//53 54//54 42//42
f 42//42 54//54 55//55 43//43
f 43//43 55//55 56//56 44//44
f 44//44 56//56 57//57 45//45
f 45//45 57//57 58//58 46//46
f 46//46 58//58 59//59 47//47
f 47//47 59//59 60//60 48//48
f 48//48 60//60 49//49 37//37
f 49//49 61//61 62//62 50//50
f 50//50 62//62 63//63 51//51
f 51//51 63//63 64//64 52//52
f 52//52 64//64 65//65 53//53
f 53//53 65//65 66//66 54//54
f 54//54 66//66 67//67 55//55
f 55//55 67//67 68//68 56//56
f 56//56 68//68 69//69 57//57
f 57//57 69//69 70//70 58//58
f 58//58 70//70 71//71 59//59
f 59//59 71//71 72//72 60//60
f 60//60 72//72 61//61 49//49
f 61//61 73//73 74//74 62//62
f 62//62 74//74 75//75 63//63
f 63//63 75//75 76//76 64//64
f 64//64 76//76 77//77 65//65
f 65//65 77//77 78//78 66//66
f 66//66 78//78 79//79 67//67
f 67//67 79//79 80//80 68//68
f 68//68 80//80 81//81 69//69
f 69//69 81//81 82//82 70//70
f 70//70 82//82 83//83 71//71
f 71//71 83//83 84//84 72//72
f 72//72 84//84 73//73 61//61
f 73//73 85//85 86//86 74//74
f 74//74 86//86 87//87 75//75
f 75//75 87//87 88//88 76//76
f 76//76 88//88 89//89 77//77
f 77//77 89//89 90//90 78//78
f 78//78 90//90 91//91 79//79
f 79//79 91//91 92//92 80//80
f 80//80 92//92 93//93 81//81
f 81//81 93//93 94//94 82//82
f 82//82 94//94 95//95 83//83
f 83//83 95//95 96//96 84//84
f 84//84 96//96 85//85 73//73
f 85//85 97//97 98//98 86//86
f 86//86 98//98 99//99 87//87
f 87//87 99//99 100//100 88//88
f 88//88 100//100 101//101 89//89
f 89//89 101//101 102//102 90//90
f 90//90 102//102 103//103 91//91
f 91//91 103//103 104//104 92//92
f 92//92 104//104 105//105 93//93
f 93//93 105//105 106//106 94//94
f 94//94 106//106 107//107 95//95
f 95//95 107//107 108//108 96//96
f 96//96 108//108 97//97 85//85
f 97//97 109//109 110//110 98//98
f 98//98 110//110 111//111 99//99
f 99//99 111//111 112//112 100//100
f 100//100 112//112 113//113 101//101
f 101//101 113//113 114//114 102//102
f 102//102 114//114 115//115 103//103
f 103//103 115//115 116//116 104//104
f 104//104 116//116 117//117 105//105
f 105//105 117//117 118//118 106//106
f 106//106 118//118 119//119 107//107
f 107//107 119//119 120//120 108//108
f 108//108 120//120 109//109 97//97
f 109//109 121//121 122//122 110//110
f 110//110 122//122 123//123 111//111
f 111//111 123//123 124//124 112//112
f 112//112 124//124 125//125 113//113
f 113//113 125//125 126//126 114//114
f 114//114 126//126 127//127 115//115
f 115//115 127//127 128//128 116//116
f 116//116 128//128 129//129 117//117
f 117//117 129//129 130//130 118//118
f 118//118 130//130 131//131 119//119
f 119//119 131//131 132//132 120//120
f 120//120 132//132 121//121 109//109
f 121//121 133//133 134//134 122//122
f 122//122 134//134 135//135 123//123
f 123//123 135//135 136//136 124//124
f 124//124 136//136 137//137 125//125
f 125//125 137//137 138//138 126//126
f 126//126 138//138 139//139 127//127
f 127//127 139//139 140//140 128//128
f 128//128 140//140 141//141 129//129
f 129//129 141//141 142//142 130//130
f 130//130 142//142 143//143 131//131
f 131//131 143//143 144//144 132//132
f 132//132 144//144 133//133 121//121
f 133//133 145//145 146//146 134//134
f 134//134 146//146 147//147 135//135
f 135//135 147//147 148//148 136//136
f 136//136 148//148 149//149 137//137
f 137//137 149//149 150//150 138//138
f 138//138 150//150 151//151 139//139
f 139//139 151//151 152//152 140//140
f 140//140 152//152 153//153 141//141
f 141//141 153//153 154//154 142//142
f 142//142 154//154 155//155 143//143
f 143//143 155//155 156//156 144//144
f 144//144 156//156 145//145 133//133
f 145//145 157//157 158//158 146//146
f 146//146 158//158 159//159 147//147
f 147//147 159//159 160//160 148//148
f 148//148 160//160 161//161 149//149
f 149//149 161//161 162//162 150//150
f 150//150 162//162 163//163 151//151
f 151//151 163//163 164//164 152//152
f 152//152 164//164 165//165 153//153
f 153//153 165//165 166//166 154//154
f 154//154 166//166 167//167 155//155
f 155//155 167//167 168//168 156//156
f 156//156 168//168 157//157 145//145
f 157//157 169//169 170//170 158//158
f 158//158 170//170 171//171 159//159
f 159//159 171//171 172//172 160//160
f 160//160 172//172 173//173 161//161
f 161//161 173//173 174//174 162//162
f 162//162 174//174 175//175 163//163
f 163//163 175//175 176//176 164//164
f 164//164 176//176 177//177 165//165
f 165//165 177//177 178//178 166//166
f 166//166 178//178 179//179 167//167
f 167//167 179//179 180//180 168//168
f 168//168 180//180 169//169 157//157
f 181//181 193//182 194//183 182//184
f 182//184 194//183 195//185 183//186
f 183//186 195//185 196//187 184//188
f 184//188 196//187 197//189 185//190
f 185//190 197//189 198//191 186//192
f 186//192 198//191 199//193 187//194
f 187//194 199//193 200//195 188//196
f 188//196 200//195 201//197 189//198
f 189//198 201//197 202//199 190//200
f 190//200 202//199 203//201 191//202
f 191//202 203//201 204//203 192//204
f 192//204 204//203 193//182 181//181
f 193//182 205//205 206//206 194//183
f 194//183 206//206 207//207 195//185
f 195//185 207//207 208//208 196//187
f 196//187 208//208 209//209 197//189
f 197//189 209//209 210//210 198//191
f 198//191 210//210 211//211 199//193
f 199//193 211//211 212//212 200//195
f 200//195 212//212 213//213 201//197
f 201//197 213//213 214//214 202//199
f 202//199 214//214 215//215 203//201
f 203//201 215//215 216//216 204//203
f 204//203 216//216 205//205 193//182
f 205//205 217//217 218//218 206//206
f 206//206 218//218 219//219 207//207
f 207//207 219//219 220//220 208//208
f 208//208 220//220 221//221 209//209
f 209//209 221//221 222//222 210//210
f 210//210 222//222 223//223 211//211
f 211//211 223//223 224//224 212//212
f 212//212 224//224 225//225 213//213
f 213//213 225//225 226//226 214//214
f 214//214 226//226 227//227 215//215
f 215//215 227//227 228//228 216//216
f 216//216 228//228 217//217 205//205
f 217//217 229//229 230//230 218//218
f 218//218 230//230 231//231 219//219
f 219//219 231//231 232//232 220//220
f 220//220 232//232 233//233 221//221
f 221//221 233//233 234//234 222//222
f 222//222 234//234 235//235 223//223
f 223//223 235//235 236//236 224//224
f 224//224 236//236 237//237 225//225
f 225//225 237//237 238//238 226//226
f 226//226 238//238 239//239 227//227
f 227//227 239//239 240//240 228//228
f 228//228 240//240 229//229 217//217
f 229//229 241//241 242//242 230//230
f 230//230 242//242 243//243 231//231
f 231//231 243//243 244//244 232//232
f 232//232 244//244 245//245 233//233
f 233//233 245//245 246//246 234//234
f 234//234 246//246 247//247 235//235
f 235//235 247//247 248//248 236//236
f 236//236 248//248 249//249 237//237
f 237//237 249//249 250//250 238//238
f 238//238 250//250 251//251 239//239
f 239//239 251//251 252//252 240//240
f 240//240 252//252 241//241 229//229
f 241//241 253//253 254//254 242//242
f 242//242 254//254 255//255 243//243
f 243//243 255//255 256//256 244//244
f 244//244 256//256 257//257 245//245
f 245//245 257//257 258//258 246//246
f 246//246 258//258 259//259 247//247
f 247//247 259//259 260//260 248//248
f 248//248 260//260 261//261 249//249
f 249//249 261//261 262//262 250//250
f 250//250 262//262 263//263 251//251
f 251//251 263//263 264//264 252//252
f 252//252 264//264 253//253 241//241
f 253//253 265//265 266//266 254//254
f 254//254 266//266 267//267 255//255
f 255//255 267//267 268//268 256//256
f 256//256 268//268 269//269 257//257
f 257//257 269//269 270//270 258//258
f 258//258 270//270 271//271 259//259
f 259//259 271//271 272//272 260//260
f 260//260 272//272 273//273 261//261
f 261//261 273//273 274//274 262//262
f 262//262 274//274 275//275 263//263
f 263//263 275//275 276//276 264//264
f 264//264 276//276 265//265 253//253
f 265//265 277//277 278//278 266//266
f 266//266 278//278 279//279 267//267
f 267//267 279//279 280//280 268//268
f 268//268 280//280 281//281 269//269
f 269//269 281//281 282//282 270//270
f 270//270 282//282 283//283 271//271
f 271//271 283//283 284//284 272//272
f 272//272 284//284 285//285 273//273
f 273//273 285//285 286//286 274//274
f 274//274 286//286 287//287 275//275
f 275//275 287//287 288//288 276//276
f 276//276 288//288 277//277 265//265
f 277//277 1//1 2//4 278//278
f 278//278 2//4 3//6 279//279
f 279//279 3//6 4//8 280//280
f 280//280 4//8 5//10 281//281
f 281//281 5//10 6//12 282//282
f 282//282 6//12 7//14 283//283
f 283//283 7//14 8//16 284//284
f 284//284 8//16 9//18 285//285
f 285//285 9//18 10//20 286//286
f 286//286 10//20 11//22 287//287
f 287//287 11//22 12//24 288//288
f 288//288 12//24 1//1 277//277
f 964//289 339//290 338//291 961//292
f 965//293 326//294 325//295 962//296
f 966//297 321//298 352//299 963//300
f 967//301 340//302 339//290 964//289
f 968//303 327//304 326//294 965//293
f 969//305 341//306 340//302 967//301
f 970//307 328//308 327//304 968//303
f 971//309 342//310 341//306 969//305
f 972//311 329//312 328//308 970//307
f 973//313 343//314 342//310 971//309
f 974//315 330//316 329//312 972//311
f 975//317 344//318 343//314 973//313
f 976//319 331//320 330//316 974//315
f 977//321 345//322 344//318 975//317
f 978//323 332//324 331//320 976//319
f 979//325 346//326 345//322 977//321
f 980//327 333//328 332//324 978//323
f 981//329 347//330 346//326 979//325
f 982//331 334//332 333//328 980//327
f 983//333 348//334 347//330 981//329
f 984//335 335//336 334//332 982//331
f 985//337 322//338 321//298 966//297
f 986//339 349//340 348//334 983//333
f 987//341 336//342 335//336 984//335
f 988//343 323//344 322//338 985//337
f 989//345 350//346 349//340 986//339
f 990//347 337//348 336//342 987//341
f 991//349 324//350 323//344 988//343
f 992//351 351//352 350//346 989//345
f 961//292 338//291 337//348 990//347
f 962//296 325//295 324//350 991//349
f 963//300 352//299 351//352 992//351
f 930//353 379//354 378//355 929//356
f 932//357 366//358 365//359 931//360
f 933//361 380//362 379//354 930//353
f 934//363 367//364 366//358 932//357
f 936//365 354//366 353//367 935//368
f 937//369 381//370 380//362 933//361
f 938//371 368//372 367//364 934//363
f 939//373 355//374 354//366 936//365
f 940//375 382//376 381//370 937//369
f 941//377 369//378 368//372 938//371
f 942//379 356//380 355//374 939//373
f 943//381 383//382 382//376 940//375
f 944//383 370//384 369//378 941//377
f 945//385 357//386 356//380 942//379
f 946//387 384//388 383//382 943//381
f 947//389 371//390 370//384 944//383
f 948//391 358//392 357//386 945//385
f 935//368 353//367 384//388 946//387
f 949//393 372//394 371//390 947//389
f 950//395 359//396 358//392 948//391
f 951//397 373//398 372//394 949//393
f 952//399 360//400 359//396 950//395
f 953//401 374//402 373//398 951//397
f 954//403 361//404 360//400 952//399
f 955//405 375//406 374//402 953//401
f 956//407 362//408 361//404 954//403
f 957//409 376//410 375//406 955//405
f 958//411 363//412 362//408 956//407
f 959//413 377//414 376//410 957//409
f 960//415 364//416 363//412 958//411
f 929//356 378//355 377//414 959//413
f 931//360 365//359 364//416 960//415
f 898//417 414//418 413//419 897//420
f 900//421 401//422 400//423 899//424
f 902//425 388//426 387//427 901//428
f 903//429 415//430 414//418 898//417
f 904//431 402//432 401//422 900//421
f 905//433 389//434 388//426 902//425
f 906//435 416//436 415//430 903//429
f 907//437 403//438 402//432 904//431
f 908//439 390//440 389//434 905//433
f 909//441 385//442 416//436 906//435
f 910//443 404//444 403//438 907//437
f 911//445 391//446 390//440 908//439
f 912//447 405//448 404//444 910//443
f 913//449 392//450 391//446 911//445
f 914//451 406//452 405//448 912//447
f 915//453 393//454 392//450 913//449
f 916//455 407//456 406//452 914//451
f 917//457 394//458 393//454 915//453
f 918//459 408//460 407//456 916//455
f 919//461 395//462 394//458 917//457
f 920//463 409//464 408//460 918//459
f 921//465 396//466 395//462 919//461
f 922//467 410//468 409//464 920//463
f 923//469 397//470 396//466 921//465
f 924//471 411//472 410//468 922//467
f 925//473 398//474 397//470 923//469
f 926//475 412//476 411//472 924//471
f 927//477 399//478 398//474 925//473
f 928//479 386//480 385//442 909//441
f 897//420 413//419 412//476 926//475
f 899//424 400//423 399//478 927//477
f 901//428 387//427 386//480 928//479
f 306//481 434//482 435//483 307//484
f 293//485 421//486 422//487 294//488
f 320//489 448//490 417//491 289//492
f 307//484 435//483 436//493 308//494
f 294//488 422//487 423//495 295//496
f 308//494 436//493 437//497 309//498
f 295//496 423//495 424//499 296//500
f 309//498 437//497 438//501 310//502
f 296//500 424//499 425//503 297//504
f 310//502 438//501 439//505 311//506
f 297//504 425//503 426//507 298//508
f 311//506 439//505 440//509 312//510
f 298//508 426//507 427//511 299//512
f 312//510 440//509 441//513 313//514
f 299//512 427//511 428//515 300//516
f 313//514 441//513 442//517 314//518
f 300//516 428//515 429//519 301//520
f 314//518 442//517 443//521 315//522
f 301//520 429//519 430//523 302//524
f 315//522 443//521 444//525 316//526
f 302//524 430//523 431//527 303//528
f 289//492 417//491 418//529 290//530
f 316//526 444//525 445//531 317//532
f 303//528 431//527 432//533 304//534
f 290//530 418//529 419//535 291//536
f 317//532 445//531 446//537 318//538
f 304//534 432//533 433//539 305//540
f 291//536 419//535 420//541 292//542
f 318//538 446//537 447//543 319//544
f 305//540 433//539 434//482 306//481
f 292//542 420//541 421//486 293//485
f 319//544 447//543 448//490 320//489
f 438//501 470//545 471//546 439//505
f 425//503 457//547 458//548 426//507
f 439//505 471//546 472//549 440//509
f 426//507 458//548 459//550 427//511
f 440//509 472//549 473//551 441//513
f 427//511 459//550 460//552 428//515
f 441//513 473//551 474//553 442//517
f 428//515 460//552 461//554 429//519
f 442//517 474//553 475//555 443//521
f 429//519 461//554 462//556 430//523
f 443//521 475//555 476//557 444//525
f 430//523 462//556 463//558 431//527
f 417//491 449//559 450//560 418//529
f 444//525 476//557 477//561 445//531
f 431//527 463//558 464//562 432//533
f 418//529 450//560 451//563 419//535
f 445//531 477//561 478//564 446//537
f 432//533 464//562 465//565 433//539
f 419//535 451//563 452//566 420//541
f 446//537 478//564 479//567 447//543
f 433//539 465//565 466//568 434//482
f 420//541 452//566 453//569 421//486
f 447//543 479//567 480//570 448//490
f 434//482 466//568 467//571 435//483
f 421//486 453//569 454//572 422//487
f 448//490 480//570 449//559 417//491
f 435//483 467//571 468//573 436//493
f 422//487 454//572 455//574 423//495
f 436//493 468//573 469//575 437//497
f 423//495 455//574 456//576 424//499
f 437//497 469//575 470//545 438//501
f 424//499 456//576 457//547 425//503
f 473//551 505//577 506//578 474//553
f 460//552 492//579 493//580 461//554
f 474//553 506//578 507//581 475//555
f 461//554 493//580 494//582 462//556
f 475//555 507//581 508//583 476//557
f 462//556 494//582 495//584 463//558
f 449//559 481//585 482//586 450//560
f 476//557 508//583 509//587 477//561
f 463//558 495//584 496//588 464//562
f 450//560 482//586 483//589 451//563
f 477//561 509//587 510//590 478//564
f 464//562 496//588 497//591 465//565
f 451//563 483//589 484//592 452//566
f 478//564 510//590 511//593 479//567
f 465//565 497//591 498//594 466//568
f 452//566 484//592 485//595 453//569
f 479//567 511//593 512//596 480//570
f 466//568 498//594 499//597 467//571
f 453//569 485//595 486//598 454//572
f 480//570 512//596 481//585 449//559
f 467//571 499//597 500//599 468//573
f 454//572 486//598 487//600 455//574
f 468//573 500//599 501//601 469//575
f 455//574 487//600 488//602 456//576
f 469//575 501//601 502//603 470//545
f 456//576 488//602 489//604 457//547
f 470//545 502//603 503//605 471//546
f 457//547 489//604 490//606 458//548
f 471//546 503//605 504//607 472//549
f 458//548 490//606 491//608 459//550
f 472//549 504//607 505//577 473//551
f 459//550 491//608 492//579 460//552
f 482//586 481//585 512//596 511//593 510//590 509//587 508//583 507//581 506//578 505//577 504//607 503//605 502//603 501//601 500//599 499//597 498//594 497//591 496//588 495//584 494//582 493//580 492//579 491//608 490//606 489//604 488//602 487//600 486//598 485//595 484//592 483//589
f 576//609 517//610 544//611 573//612
f 575//613 515//614 543//615 572//616
f 574//617 513//618 542//619 571//620
f 573//612 544//611 541//621 570//622
f 572//616 543//615 540//623 569//624
f 571//620 542//619 539//625 568//626
f 570//622 541//621 538//627 567//628
f 569//624 540//623 537//629 566//630
f 568//626 539//625 536//631 565//632
f 567//628 538//627 535//633 564//634
f 566//630 537//629 518//635 547//636
f 565//632 536//631 534//637 563//638
f 564//634 535//633 533//639 562//640
f 563//638 534//637 532//641 561//642
f 562//640 533//639 531//643 560//644
f 561//642 532//641 530//645 559//646
f 560//644 531//643 529//647 558//648
f 559//646 530//645 528//649 557//650
f 558//648 529//647 527//651 556//652
f 557//650 528//649 526//653 555//654
f 556//652 527//651 525//655 554//656
f 555//654 526//653 524//657 553//658
f 554//656 525//655 523//659 552//660
f 553//658 524//657 522//661 551//662
f 552//660 523//659 521//663 550//664
f 551//662 522//661 520//665 549//666
f 550//664 521//663 519//667 548//668
f 549//666 520//665 516//669 546//670
f 548//668 519//667 514//671 545//672
f 547//636 518//635 517//610 576//609
f 546//670 516//669 515//614 575//613
f 545//672 514//671 513//618 574//617
f 307//484 545//672 574//617 306//481
f 294//488 546//670 575//613 293//485
f 289//492 547//636 576//609 320//489
f 308//494 548//668 545//672 307//484
f 295//496 549//666 546//670 294//488
f 309//498 550//664 548//668 308//494
f 296//500 551//662 549//666 295//496
f 310//502 552//660 550//664 309//498
f 297//504 553//658 551//662 296//500
f 311//506 554//656 552//660 310//502
f 298//508 555//654 553//658 297//504
f 312//510 556//652 554//656 311//506
f 299//512 557//650 555//654 298//508
f 313//514 558//648 556//652 312//510
f 300//516 559//646 557//650 299//512
f 314//518 560//644 558//648 313//514
f 301//520 561//642 559//646 300//516
f 315//522 562//640 560//644 314//518
f 302//524 563//638 561//642 301//520
f 316//526 564//634 562//640 315//522
f 303//528 565//632 563//638 302//524
f 290//530 566//630 547//636 289//492
f 317//532 567//628 564//634 316//526
f 304//534 568//626 565//632 303//528
f 291//536 569//624 566//630 290//530
f 318//538 570//622 567//628 317//532
f 305//540 571//620 568//626 304//534
f 292//542 572//616 569//624 291//536
f 319//544 573//612 570//622 318//538
f 306//481 574//617 571//620 305//540
f 293//485 575//613 572//616 292//542
f 320//489 576//609 573//612 319//544
f 385//442 577//673 608//674 416//436
f 404//444 596//675 595//676 403//438
f 391//446 583//677 582//678 390//440
f 405//448 597//679 596//675 404//444
f 392//450 584//680 583//677 391//446
f 406//452 598//681 597//679 405//448
f 393//454 585//682 584//680 392//450
f 407//456 599//683 598//681 406//452
f 394//458 586//684 585//682 393//454
f 408//460 600//685 599//683 407//456
f 395//462 587//686 586//684 394//458
f 409//464 601//687 600//685 408//460
f 396//466 588//688 587//686 395//462
f 410//468 602//689 601//687 409//464
f 397//470 589//690 588//688 396//466
f 411//472 603//691 602//689 410//468
f 398//474 590//692 589//690 397//470
f 412//476 604//693 603//691 411//472
f 399//478 591//694 590//692 398//474
f 386//480 578//695 577//673 385//442
f 413//419 605//696 604//693 412//476
f 400//423 592//697 591//694 399//478
f 387//427 579//698 578//695 386//480
f 414//418 606//699 605//696 413//419
f 401//422 593//700 592//697 400//423
f 388//426 580//701 579//698 387//427
f 415//430 607//702 606//699 414//418
f 402//432 594//703 593//700 401//422
f 389//434 581//704 580//701 388//426
f 416//436 608//674 607//702 415//430
f 403//438 595//676 594//703 402//432
f 390//440 582//678 581//704 389//434
f 587//686 619//705 618//706 586//684
f 601//687 633//707 632//708 600//685
f 588//688 620//709 619//705 587//686
f 602//689 634//710 633//707 601//687
f 589//690 621//711 620//709 588//688
f 603//691 635//712 634//710 602//689
f 590//692 622//713 621//711 589//690
f 604//693 636//714 635//712 603//691
f 591//694 623//715 622//713 590//692
f 578//695 610//716 609//717 577//673
f 605//696 637//718 636//714 604//693
f 592//697 624//719 623//715 591//694
f 579//698 611//720 610//716 578//695
f 606//699 638//721 637//718 605//696
f 593//700 625//722 624//719 592//697
f 580//701 612//723 611//720 579//698
f 607//702 639//724 638//721 606//699
f 594//703 626//725 625//722 593//700
f 581//704 613//726 612//723 580//701
f 608//674 640//727 639//724 607//702
f 595//676 627//728 626//725 594//703
f 582//678 614//729 613//726 581//704
f 577//673 609//717 640//727 608//674
f 596//675 628//730 627//728 595//676
f 583//677 615//731 614//729 582//678
f 597//679 629//732 628//730 596//675
f 584//680 616//733 615//731 583//677
f 598//681 630//734 629//732 597//679
f 585//682 617//735 616//733 584//680
f 599//683 631//736 630//734 598//681
f 586//684 618//706 617//735 585//682
f 600//685 632//708 631//736 599//683
f 622//713 654//737 653//738 621//711
f 636//714 668//739 667//740 635//712
f 623//715 655//741 654//737 622//713
f 610//716 642//742 641//743 609//717
f 637//718 669//744 668//739 636//714
f 624//719 656//745 655//741 623//715
f 611//720 643//746 642//742 610//716
f 638//721 670//747 669//744 637//718
f 625//722 657//748 656//745 624//719
f 612//723 644//749 643//746 611//720
f 639//724 671//750 670//747 638//721
f 626//725 658//751 657//748 625//722
f 613//726 645//752 644//749 612//723
f 640//727 672//753 671//750 639//724
f 627//728 659//754 658//751 626//725
f 614//729 646//755 645//752 613//726
f 609//717 641//743 672//753 640//727
f 628//730 660//756 659//754 627//728
f 615//731 647//757 646//755 614//729
f 629//732 661//758 660//756 628//730
f 616//733 648//759 647//757 615//731
f 630//734 662//760 661//758 629//732
f 617//735 649//761 648//759 616//733
f 631//736 663//762 662//760 630//734
f 618//706 650//763 649//761 617//735
f 632//708 664//764 663//762 631//736
f 619//705 651//765 650//763 618//706
f 633//707 665//766 664//764 632//708
f 620//709 652//767 651//765 619//705
f 634//710 666//768 665//766 633//707
f 621//711 653//738 652//767 620//709
f 635//712 667//740 666//768 634//710
f 657//748 689//769 688//770 656//745
f 644//749 676//771 675//772 643//746
f 671//750 703//773 702//774 670//747
f 658//751 690//775 689//769 657//748
f 645//752 677//776 676//771 644//749
f 672//753 704//777 703//773 671//750
f 659//754 691//778 690//775 658//751
f 646//755 678//779 677//776 645//752
f 641//743 673//780 704//777 672//753
f 660//756 692//781 691//778 659//754
f 647//757 679//782 678//779 646//755
f 661//758 693//783 692//781 660//756
f 648//759 680//784 679//782 647//757
f 662//760 694//785 693//783 661//758
f 649//761 681//786 680//784 648//759
f 663//762 695//787 694//785 662//760
f 650//763 682//788 681//786 649//761
f 664//764 696//789 695//787 663//762
f 651//765 683//790 682//788 650//763
f 665//766 697//791 696//789 664//764
f 652//767 684//792 683//790 651//765
f 666//768 698//793 697//791 665//766
f 653//738 685//794 684//792 652//767
f 667//740 699//795 698//793 666//768
f 654//737 686//796 685//794 653//738
f 668//739 700//797 699//795 667//740
f 655//741 687//798 686//796 654//737
f 642//742 674//799 673//780 641//743
f 669//744 701//800 700//797 668//739
f 656//745 688//770 687//798 655//741
f 643//746 675//772 674//799 642//742
f 670//747 702//774 701//800 669//744
f 692//781 724//801 723//802 691//778
f 679//782 711//803 710//804 678//779
f 693//783 725//805 724//801 692//781
f 680//784 712//806 711//803 679//782
f 694//785 726//807 725//805 693//783
f 681//786 713//808 712//806 680//784
f 695//787 727//809 726//807 694//785
f 682//788 714//810 713//808 681//786
f 696//789 728//811 727//809 695//787
f 683//790 715//812 714//810 682//788
f 697//791 729//813 728//811 696//789
f 684//792 716//814 715//812 683//790
f 698//793 730//815 729//813 697//791
f 685//794 717//816 716//814 684//792
f 699//795 731//817 730//815 698//793
f 686//796 718//818 717//816 685//794
f 700//797 732//819 731//817 699//795
f 687//798 719//820 718//818 686//796
f 674//799 706//821 705//822 673//780
f 701//800 733//823 732//819 700//797
f 688//770 720//824 719//820 687//798
f 675//772 707//825 706//821 674//799
f 702//774 734//826 733//823 701//800
f 689//769 721//827 720//824 688//770
f 676//771 708//828 707//825 675//772
f 703//773 735//829 734//826 702//774
f 690//775 722//830 721//827 689//769
f 677//776 709//831 708//828 676//771
f 704//777 736//832 735//829 703//773
f 691//778 723//802 722//830 690//775
f 678//779 710//804 709//831 677//776
f 673//780 705//822 736//832 704//777
f 727//809 759//833 758//834 726//807
f 714//810 746//835 745//836 713//808
f 728//811 760//837 759//833 727//809
f 715//812 747//838 746//835 714//810
f 729//813 761//839 760//837 728//811
f 716//814 748//840 747//838 715//812
f 730//815 762//841 761//839 729//813
f 717//816 749//842 748//840 716//814
f 731//817 763//843 762//841 730//815
f 718//818 750//844 749//842 717//816
f 732//819 764//845 763//843 731//817
f 719//820 751//846 750//844 718//818
f 706//821 738//847 737//848 705//822
f 733//823 765//849 764//845 732//819
f 720//824 752//850 751//846 719//820
f 707//825 739//851 738//847 706//821
f 734//826 766//852 765//849 733//823
f 721//827 753//853 752//850 720//824
f 708//828 740//854 739//851 707//825
f 735//829 767//855 766//852 734//826
f 722//830 754//856 753//853 721//827
f 709//831 741//857 740//854 708//828
f 736//832 768//858 767//855 735//829
f 723//802 755//859 754//856 722//830
f 710//804 742//860 741//857 709//831
f 705//822 737//848 768//858 736//832
f 724//801 756//861 755//859 723//802
f 711//803 743//862 742//860 710//804
f 725//805 757//863 756//861 724//801
f 712//806 744//864 743//862 711//803
f 726//807 758//834 757//863 725//805
f 713//808 745//836 744//864 712//806
f 762//841 794//865 793//866 761//839
f 749//842 781//867 780//868 748//840
f 763//843 795//869 794//865 762//841
f 750//844 782//870 781//867 749//842
f 764//845 796//871 795//869 763//843
f 751//846 783//872 782//870 750//844
f 738//847 770//873 769//874 737//848
f 765//849 797//875 796//871 764//845
f 752//850 784//876 783//872 751//846
f 739//851 771//877 770//873 738//847
f 766//852 798//878 797//875 765//849
f 753//853 785//879 784//876 752//850
f 740//854 772//880 771//877 739//851
f 767//855 799//881 798//878 766//852
f 754//856 786//882 785//879 753//853
f 741//857 773//883 772//880 740//854
f 768//858 800//884 799//881 767//855
f 755//859 787//885 786//882 754//856
f 742//860 774//886 773//883 741//857
f 737//848 769//874 800//884 768//858
f 756//861 788//887 787//885 755//859
f 743//862 775//888 774//886 742//860
f 757//863 789//889 788//887 756//861
f 744//864 776//890 775//888 743//862
f 758//834 790//891 789//889 757//863
f 745//836 777//892 776//890 744//864
f 759//833 791//893 790//891 758//834
f 746//835 778//894 777//892 745//836
f 760//837 792//895 791//893 759//833
f 747//838 779//896 778//894 746//835
f 761//839 793//866 792//895 760//837
f 748//840 780//868 779//896 747//838
f 770//873 802//897 801//898 769//874
f 797//875 829//899 828//900 796//871
f 784//876 816//901 815//902 783//872
f 771//877 803//903 802//897 770//873
f 798//878 830//904 829//899 797//875
f 785//879 817//905 816//901 784//876
f 772//880 804//906 803//903 771//877
f 799//881 831//907 830//904 798//878
f 786//882 818//908 817//905 785//879
f 773//883 805//909 804//906 772//880
f 800//884 832//910 831//907 799//881
f 787//885 819//911 818//908 786//882
f 774//886 806//912 805//909 773//883
f 769//874 801//898 832//910 800//884
f 788//887 820//913 819//911 787//885
f 775//888 807//914 806//912 774//886
f 789//889 821//915 820//913 788//887
f 776//890 808//916 807//914 775//888
f 790//891 822//917 821//915 789//889
f 777//892 809//918 808//916 776//890
f 791//893 823//919 822//917 790//891
f 778//894 810//920 809//918 777//892
f 792//895 824//921 823//919 791//893
f 779//896 811//922 810//920 778//894
f 793//866 825//923 824//921 792//895
f 780//868 812//924 811//922 779//896
f 794//865 826//925 825//923 793//866
f 781//867 813//926 812//924 780//868
f 795//869 827//927 826//925 794//865
f 782//870 814//928 813//926 781//867
f 796//871 828//900 827//927 795//869
f 783//872 815//902 814//928 782//870
f 805//909 837//929 836//930 804//906
f 832//910 864//931 863//932 831//907
f 819//911 851//933 850//934 818//908
f 806//912 838//935 837//929 805//909
f 801//898 833//936 864//931 832//910
f 820//913 852//937 851//933 819//911
f 807//914 839//938 838//935 806//912
f 821//915 853//939 852//937 820//913
f 808//916 840//940 839//938 807//914
f 822//917 854//941 853//939 821//915
f 809//918 841//942 840//940 808//916
f 823//919 855//943 854//941 822//917
f 810//920 842//944 841//942 809//918
f 824//921 856//945 855//943 823//919
f 811//922 843//946 842//944 810//920
f 825//923 857//947 856//945 824//921
f 812//924 844//948 843//946 811//922
f 826//925 858//949 857//947 825//923
f 813//926 845//950 844//948 812//924
f 827//927 859//951 858//949 826//925
f 814//928 846//952 845//950 813//926
f 828//900 860//953 859//951 827//927
f 815//902 847//954 846//952 814//928
f 802//897 834//955 833//936 801//898
f 829//899 861//956 860//953 828//900
f 816//901 848//957 847//954 815//902
f 803//903 835//958 834//955 802//897
f 830//904 862//959 861//956 829//899
f 817//905 849//960 848//957 816//901
f 804//906 836//930 835//958 803//903
f 831//907 863//932 862//959 830//904
f 818//908 850//934 849//960 817//905
f 840//940 872//961 871//962 839//938
f 854//941 886//963 885//964 853//939
f 841//942 873//965 872//961 840//940
f 855//943 887//966 886//963 854//941
f 842//944 874//967 873//965 841//942
f 856//945 888//968 887//966 855//943
f 843//946 875//969 874//967 842//944
f 857//947 889//970 888//968 856//945
f 844//948 876//971 875//969 843//946
f 858//949 890//972 889//970 857//947
f 845//950 877//973 876//971 844//948
f 859//951 891//974 890//972 858//949
f 846//952 878//975 877//973 845//950
f 860//953 892//976 891//974 859//951
f 847//954 879//977 878//975 846//952
f 834//955 866//978 865//979 833//936
f 861//956 893//980 892//976 860//953
f 848//957 880//981 879//977 847//954
f 835//958 867//982 866//978 834//955
f 862//959 894//983 893//980 861//956
f 849//960 881//984 880//981 848//957
f 836//930 868//985 867//982 835//958
f 863//932 895//986 894//983 862//959
f 850//934 882//987 881//984 849//960
f 837//929 869//988 868//985 836//930
f 864//931 896//989 895//986 863//932
f 851//933 883//990 882//987 850//934
f 838//935 870//991 869//988 837//929
f 833//936 865//979 896//989 864//931
f 852//937 884//992 883//990 851//933
f 839//938 871//962 870//991 838//935
f 853//939 885//964 884//992 852//937
f 866//978 867//982 868//985 869//988 870//991 871//962 872//961 873//965 874//967 875//969 876//971 877//973 878//975 879//977 880//981 881//984 882//987 883//990 884//992 885//964 886//963 887//966 888//968 889//970 890//972 891//974 892//976 893//980 894//983 895//986 896//989 865//979
f 355//374 901//428 928//479 354//366
f 368//372 899//424 927//477 367//364
f 381//370 897//420 926//475 380//362
f 354//366 928//479 909//441 353//367
f 367//364 927//477 925//473 366//358
f 380//362 926//475 924//471 379//354
f 366//358 925//473 923//469 365//359
f 379//354 924//471 922//467 378//355
f 365//359 923//469 921//465 364//416
f 378//355 922//467 920//463 377//414
f 364//416 921//465 919//461 363//412
f 377//414 920//463 918//459 376//410
f 363//412 919//461 917//457 362//408
f 376//410 918//459 916//455 375//406
f 362//408 917//457 915//453 361//404
f 375//406 916//455 914//451 374//402
f 361//404 915//453 913//449 360//400
f 374//402 914//451 912//447 373//398
f 360//400 913//449 911//445 359//396
f 373//398 912//447 910//443 372//394
f 359//396 911//445 908//439 358//392
f 372//394 910//443 907//437 371//390
f 353//367 909//441 906//435 384//388
f 358//392 908//439 905//433 357//386
f 371//390 907//437 904//431 370//384
f 384//388 906//435 903//429 383//382
f 357//386 905//433 902//425 356//380
f 370//384 904//431 900//421 369//378
f 383//382 903//429 898//417 382//376
f 356//380 902//425 901//428 355//374
f 369//378 900//421 899//424 368//372
f 382//376 898//417 897//420 381//370
f 333//328 931//360 960//415 332//324
f 346//326 929//356 959//413 345//322
f 332//324 960//415 958//411 331//320
f 345//322 959//413 957//409 344//318
f 331//320 958//411 956//407 330//316
f 344//318 957//409 955//405 343//314
f 330//316 956//407 954//403 329//312
f 343//314 955//405 953//401 342//310
f 329//312 954//403 952//399 328//308
f 342//310 953//401 951//397 341//306
f 328//308 952//399 950//395 327//304
f 341//306 951//397 949//393 340//302
f 327//304 950//395 948//391 326//294
f 340//302 949//393 947//389 339//290
f 321//298 935//368 946//387 352//299
f 326//294 948//391 945//385 325//295
f 339//290 947//389 944//383 338//291
f 352//299 946//387 943//381 351//352
f 325//295 945//385 942//379 324//350
f 338//291 944//383 941//377 337//348
f 351//352 943//381 940//375 350//346
f 324//350 942//379 939//373 323//344
f 337//348 941//377 938//371 336//342
f 350//346 940//375 937//369 349//340
f 323//344 939//373 936//365 322//338
f 336//342 938//371 934//363 335//336
f 349//340 937//369 933//361 348//334
f 322//338 936//365 935//368 321//298
f 335//336 934//363 932//357 334//332
f 348//334 933//361 930//353 347//330
f 334//332 932//357 931//360 333//328
f 347//330 930//353 929//356 346//326
f 517//610 963//300 992//351 544//611
f 515//614 962//296 991//349 543//615
f 513//618 961//292 990//347 542//619
f 544//611 992//351 989//345 541//621
f 543//615 991//349 988//343 540//623
f 542//619 990//347 987//341 539//625
f 541//621 989//345 986//339 538//627
f 540//623 988//343 985//337 537//629
f 539//625 987//341 984//335 536//631
f 538//627 986//339 983//333 535//633
f 537//629 985//337 966//297 518//635
f 536//631 984//335 982//331 534//637
f 535//633 983//333 981//329 533//639
f 534//637 982//331 980//327 532//641
f 533//639 981//329 979//325 531//643
f 532//641 980//327 978//323 530//645
f 531//643 979//325 977//321 529//647
f 530//645 978//323 976//319 528//649
f 529//647 977//321 975//317 527//651
f 528//649 976//319 974//315 526//653
f 527//651 975//317 973//313 525//655
f 526//653 974//315 972//311 524//657
f 525//655 973//313 971//309 523//659
f 524//657 972//311 970//307 522//661
f 523//659 971//309 969//305 521//663
f 522//661 970//307 968//303 520//665
f 521//663 969//305 967//301 519//667
f 520//665 968//303 965//293 516//669
f 519//667 967//301 964//289 514//671
f 518//635 966//297 963//300 517//610
f 516//669 965//293 962//296 515//614
f 514//671 964//289 961//292 513//618
