# Blender v2.78 (sub 0) OBJ File: 'cup_of_tea.blend'
# www.blender.org
mtllib cup_of_tea.mtl
o Circle
v 0.345401 0.340916 1.532896
v 0.338170 0.337120 1.496656
v 0.318416 0.326748 1.470127
v 0.291430 0.312581 1.460416
v 0.264445 0.298414 1.470127
v 0.244690 0.288043 1.496656
v 0.237460 0.284246 1.532896
v 0.244690 0.288043 1.569136
v 0.264445 0.298414 1.595665
v 0.291430 0.312581 1.605376
v 0.318416 0.326748 1.595665
v 0.338170 0.337120 1.569136
v 0.354595 0.304223 1.532896
v 0.347118 0.301410 1.496656
v 0.326690 0.293725 1.470127
v 0.298785 0.283227 1.460416
v 0.270881 0.272729 1.470127
v 0.250453 0.265044 1.496656
v 0.242976 0.262231 1.532896
v 0.250453 0.265044 1.569136
v 0.270881 0.272729 1.595665
v 0.298785 0.283227 1.605376
v 0.326690 0.293725 1.595665
v 0.347118 0.301410 1.569136
v 0.359014 0.265735 1.532896
v 0.351419 0.263953 1.496656
v 0.330667 0.259085 1.470127
v 0.302321 0.252436 1.460416
v 0.273974 0.245787 1.470127
v 0.253223 0.240919 1.496656
v 0.245628 0.239138 1.532896
v 0.253223 0.240919 1.569136
v 0.273974 0.245787 1.595665
v 0.302321 0.252436 1.605376
v 0.330667 0.259085 1.595665
v 0.351419 0.263953 1.569136
v 0.358583 0.226108 1.532896
v 0.350999 0.225389 1.496656
v 0.330280 0.223422 1.470127
v 0.301976 0.220735 1.460416
v 0.273673 0.218049 1.470127
v 0.252953 0.216082 1.496656
v 0.245369 0.215362 1.532896
v 0.252953 0.216082 1.569136
v 0.273673 0.218049 1.595665
v 0.301976 0.220735 1.605376
v 0.330280 0.223422 1.595665
v 0.350999 0.225389 1.569136
v 0.353309 0.186023 1.532896
v 0.345867 0.186377 1.496656
v 0.325533 0.187345 1.470127
v 0.297757 0.188667 1.460416
v 0.269981 0.189989 1.470127
v 0.249648 0.190956 1.496656
v 0.242205 0.191311 1.532896
v 0.249648 0.190956 1.569136
v 0.269981 0.189989 1.595665
v 0.297757 0.188667 1.605376
v 0.325533 0.187345 1.595665
v 0.345867 0.186377 1.569136
v 0.343283 0.146163 1.532896
v 0.336109 0.147585 1.496656
v 0.316510 0.151471 1.470127
v 0.289736 0.156779 1.460416
v 0.262963 0.162087 1.470127
v 0.243363 0.165972 1.496656
v 0.236189 0.167395 1.532896
v 0.243363 0.165972 1.569136
v 0.262963 0.162087 1.595665
v 0.289736 0.156779 1.605376
v 0.316510 0.151471 1.595665
v 0.336109 0.147585 1.569136
v 0.328676 0.107211 1.532896
v 0.321893 0.109677 1.496656
v 0.303363 0.116414 1.470127
v 0.278050 0.125618 1.460416
v 0.252738 0.134821 1.470127
v 0.234207 0.141558 1.496656
v 0.227425 0.144024 1.532896
v 0.234207 0.141558 1.569136
v 0.252738 0.134821 1.595665
v 0.278050 0.125618 1.605376
v 0.303363 0.116414 1.595665
v 0.321893 0.109677 1.569136
v 0.309738 0.069835 1.532896
v 0.303463 0.073302 1.496656
v 0.286319 0.082775 1.470127
v 0.262900 0.095716 1.460416
v 0.239481 0.108657 1.470127
v 0.222337 0.118130 1.496656
v 0.216062 0.121598 1.532896
v 0.222337 0.118130 1.569136
v 0.239481 0.108657 1.595665
v 0.262900 0.095716 1.605376
v 0.286319 0.082775 1.595665
v 0.303463 0.073302 1.569136
v 0.286792 0.034672 1.532896
v 0.281132 0.039082 1.496656
v 0.265668 0.051129 1.470127
v 0.244543 0.067586 1.460416
v 0.223419 0.084043 1.470127
v 0.207955 0.096091 1.496656
v 0.202295 0.100500 1.532896
v 0.207955 0.096091 1.569136
v 0.223419 0.084043 1.595665
v 0.244543 0.067586 1.605376
v 0.265668 0.051129 1.595665
v 0.281132 0.039082 1.569136
v 0.260232 0.002325 1.532896
v 0.255284 0.007602 1.496656
v 0.241764 0.022017 1.470127
v 0.223296 0.041709 1.460416
v 0.204827 0.061400 1.470127
v 0.191307 0.075816 1.496656
v 0.186359 0.081092 1.532896
v 0.191307 0.075816 1.569136
v 0.204827 0.061400 1.595665
v 0.223296 0.041709 1.605376
v 0.241764 0.022017 1.595665
v 0.255284 0.007602 1.569136
v 0.230512 -0.026652 1.532896
v 0.226360 -0.020600 1.496656
v 0.215016 -0.004063 1.470127
v 0.199520 0.018527 1.460416
v 0.184023 0.041116 1.470127
v 0.172679 0.057653 1.496656
v 0.168527 0.063706 1.532896
v 0.172679 0.057653 1.569136
v 0.184023 0.041116 1.595665
v 0.199520 0.018527 1.605376
v 0.215016 -0.004063 1.595665
v 0.226360 -0.020600 1.569136
v 0.198141 -0.051765 1.532896
v 0.194856 -0.045039 1.496656
v 0.185882 -0.026664 1.470127
v 0.173623 -0.001563 1.460416
v 0.161363 0.023537 1.470127
v 0.152389 0.041913 1.496656
v 0.149104 0.048638 1.532896
v 0.152389 0.041913 1.569136
v 0.161363 0.023537 1.595665
v 0.173623 -0.001563 1.605376
v 0.185882 -0.026664 1.595665
v 0.194856 -0.045039 1.569136
v 0.163672 -0.072582 1.532896
v 0.161311 -0.065299 1.496656
v 0.154860 -0.045400 1.470127
v 0.146047 -0.018217 1.460416
v 0.137235 0.008965 1.470127
v 0.130784 0.028864 1.496656
v 0.128423 0.036148 1.532896
v 0.130784 0.028864 1.569136
v 0.137235 0.008965 1.595665
v 0.146047 -0.018217 1.605376
v 0.154860 -0.045400 1.595665
v 0.161311 -0.065299 1.569136
v 0.092432 -0.101417 1.532896
v 0.091098 -0.094053 1.498316
v 0.087456 -0.073937 1.473002
v 0.082480 -0.046456 1.463736
v 0.077504 -0.018976 1.473002
v 0.073861 0.001141 1.498316
v 0.072528 0.008504 1.532896
v 0.073861 0.001141 1.567476
v 0.077504 -0.018976 1.592791
v 0.082480 -0.046456 1.602057
v 0.087456 -0.073937 1.592791
v 0.091098 -0.094053 1.567476
v -0.048415 -0.124616 1.532896
v -0.044897 -0.117400 1.496656
v -0.035284 -0.097685 1.470127
v -0.022153 -0.070753 1.460416
v -0.009022 -0.043822 1.470127
v 0.000590 -0.024107 1.496656
v 0.004109 -0.016891 1.532896
v 0.000590 -0.024107 1.569136
v -0.009022 -0.043822 1.595665
v -0.022153 -0.070753 1.605376
v -0.035284 -0.097685 1.595665
v -0.044897 -0.117400 1.569136
v 0.085882 0.507510 1.532896
v 0.086094 0.499311 1.496656
v 0.086673 0.476908 1.470127
v 0.087464 0.446305 1.460416
v 0.088255 0.415702 1.470127
v 0.088834 0.393299 1.496656
v 0.089046 0.385099 1.532896
v 0.088834 0.393299 1.569136
v 0.088255 0.415702 1.595665
v 0.087464 0.446305 1.605376
v 0.086673 0.476908 1.595665
v 0.086094 0.499311 1.569136
v 0.134157 0.505486 1.532896
v 0.132586 0.497281 1.496656
v 0.128296 0.474862 1.470127
v 0.122435 0.444238 1.460416
v 0.116574 0.413613 1.470127
v 0.112284 0.391195 1.496656
v 0.110713 0.382989 1.532896
v 0.112284 0.391195 1.569136
v 0.116574 0.413613 1.595665
v 0.122435 0.444238 1.605376
v 0.128296 0.474862 1.595665
v 0.132586 0.497281 1.569136
v 0.169910 0.501141 1.532896
v 0.167382 0.493052 1.496656
v 0.160474 0.470951 1.470127
v 0.151038 0.440761 1.460416
v 0.141602 0.410571 1.470127
v 0.134694 0.388471 1.496656
v 0.132166 0.380381 1.532896
v 0.134694 0.388471 1.569136
v 0.141602 0.410571 1.595665
v 0.151038 0.440761 1.605376
v 0.160474 0.470951 1.595665
v 0.167382 0.493052 1.569136
v 0.204050 0.491630 1.532896
v 0.200606 0.483795 1.496656
v 0.191199 0.462391 1.470127
v 0.178349 0.433152 1.460416
v 0.165499 0.403914 1.470127
v 0.156092 0.382510 1.496656
v 0.152649 0.374675 1.532896
v 0.156092 0.382510 1.569136
v 0.165499 0.403914 1.595665
v 0.178349 0.433152 1.605376
v 0.191199 0.462391 1.595665
v 0.200606 0.483795 1.569136
v 0.235990 0.477116 1.532896
v 0.231691 0.469670 1.496656
v 0.219946 0.449329 1.470127
v 0.203902 0.421541 1.460416
v 0.187858 0.393754 1.470127
v 0.176112 0.373412 1.496656
v 0.171813 0.365967 1.532896
v 0.176112 0.373412 1.569136
v 0.187858 0.393754 1.595665
v 0.203902 0.421541 1.605376
v 0.219946 0.449329 1.595665
v 0.231691 0.469670 1.569136
v 0.265185 0.457847 1.532896
v 0.260104 0.450918 1.496656
v 0.246222 0.431987 1.470127
v 0.227258 0.406126 1.460416
v 0.208294 0.380266 1.470127
v 0.194412 0.361335 1.496656
v 0.189331 0.354406 1.532896
v 0.194412 0.361335 1.569136
v 0.208294 0.380266 1.595665
v 0.227258 0.406126 1.605376
v 0.246222 0.431987 1.595665
v 0.260104 0.450918 1.569136
v 0.291136 0.434154 1.532896
v 0.285359 0.427860 1.496656
v 0.269577 0.410663 1.470127
v 0.248018 0.387172 1.460416
v 0.226460 0.363681 1.470127
v 0.210677 0.346484 1.496656
v 0.204901 0.340190 1.532896
v 0.210677 0.346484 1.569136
v 0.226460 0.363681 1.595665
v 0.248018 0.387172 1.605376
v 0.269577 0.410663 1.595665
v 0.285359 0.427860 1.569136
v 0.313398 0.406441 1.532896
v 0.307025 0.400890 1.496656
v 0.289613 0.385722 1.470127
v 0.265828 0.365002 1.460416
v 0.242043 0.344282 1.470127
v 0.224631 0.329114 1.496656
v 0.218258 0.323562 1.532896
v 0.224631 0.329114 1.569136
v 0.242043 0.344282 1.595665
v 0.265828 0.365002 1.605376
v 0.289613 0.385722 1.595665
v 0.307025 0.400890 1.569136
v 0.331590 0.375184 1.532896
v 0.324729 0.370469 1.496656
v 0.305986 0.357590 1.470127
v 0.280381 0.339996 1.460416
v 0.254777 0.322401 1.470127
v 0.236034 0.309522 1.496656
v 0.229173 0.304807 1.532896
v 0.236034 0.309522 1.569136
v 0.254777 0.322401 1.595665
v 0.280381 0.339996 1.605376
v 0.305986 0.357590 1.595665
v 0.324729 0.370469 1.569136
v -0.371141 -0.120070 1.195281
v -0.436912 -0.120070 1.201759
v -0.500156 -0.120070 1.220944
v -0.558441 -0.120070 1.252098
v -0.609529 -0.120070 1.294025
v -0.651456 -0.120070 1.345113
v -0.682610 -0.120070 1.403398
v -0.701795 -0.120070 1.466642
v -0.708273 -0.120070 1.532413
v -0.701795 -0.120070 1.598184
v -0.682610 -0.120070 1.661428
v -0.651456 -0.120070 1.719714
v -0.609529 -0.120070 1.770802
v -0.558441 -0.120070 1.812729
v -0.500156 -0.120070 1.843883
v -0.436912 -0.120070 1.863068
v -0.371140 -0.120070 1.869546
v -0.305369 -0.120070 1.863068
v -0.242125 -0.120070 1.843883
v -0.183840 -0.120070 1.812729
v -0.132752 -0.120070 1.770802
v -0.090825 -0.120070 1.719714
v -0.059671 -0.120070 1.661428
v -0.040486 -0.120070 1.598184
v -0.034008 -0.120070 1.532413
v -0.040486 -0.120070 1.466642
v -0.059671 -0.120070 1.403398
v -0.090825 -0.120070 1.345112
v -0.132752 -0.120070 1.294024
v -0.183840 -0.120070 1.252098
v -0.242126 -0.120070 1.220943
v -0.305370 -0.120070 1.201759
v -0.371141 0.152389 1.108420
v -0.453858 0.152389 1.116567
v -0.533396 0.152389 1.140694
v -0.606699 0.152389 1.179876
v -0.670949 0.152389 1.232605
v -0.723678 0.152389 1.296855
v -0.762860 0.152389 1.370158
v -0.786987 0.152389 1.449696
v -0.795134 0.152389 1.532413
v -0.786987 0.152389 1.615130
v -0.762860 0.152389 1.694669
v -0.723678 0.152389 1.767971
v -0.670949 0.152389 1.832222
v -0.606699 0.152389 1.884951
v -0.533396 0.152389 1.924132
v -0.453858 0.152389 1.948260
v -0.371140 0.152389 1.956407
v -0.288423 0.152389 1.948260
v -0.208885 0.152389 1.924132
v -0.135582 0.152389 1.884951
v -0.071332 0.152389 1.832222
v -0.018603 0.152389 1.767971
v 0.020579 0.152389 1.694668
v 0.044706 0.152389 1.615130
v 0.052853 0.152389 1.532413
v 0.044706 0.152389 1.449696
v 0.020578 0.152389 1.370157
v -0.018603 0.152389 1.296855
v -0.071332 0.152389 1.232604
v -0.135583 0.152389 1.179875
v -0.208886 0.152389 1.140694
v -0.288424 0.152389 1.116567
v -0.371141 0.402492 1.072196
v -0.460925 0.402492 1.081039
v -0.547258 0.402492 1.107228
v -0.626824 0.402492 1.149757
v -0.696563 0.402492 1.206991
v -0.753797 0.402492 1.276730
v -0.796326 0.402492 1.356296
v -0.822515 0.402492 1.442629
v -0.831358 0.402492 1.532413
v -0.822515 0.402492 1.622197
v -0.796326 0.402492 1.708531
v -0.753797 0.402492 1.788096
v -0.696563 0.402492 1.857836
v -0.626824 0.402492 1.915070
v -0.547258 0.402492 1.957599
v -0.460924 0.402492 1.983788
v -0.371140 0.402492 1.992630
v -0.281356 0.402492 1.983788
v -0.195023 0.402492 1.957598
v -0.115457 0.402492 1.915070
v -0.045718 0.402492 1.857836
v 0.011516 0.402492 1.788096
v 0.054045 0.402492 1.708530
v 0.080234 0.402492 1.622197
v 0.089077 0.402492 1.532413
v 0.080234 0.402492 1.442629
v 0.054044 0.402492 1.356295
v 0.011516 0.402492 1.276730
v -0.045718 0.402492 1.206990
v -0.115458 0.402492 1.149756
v -0.195024 0.402492 1.107228
v -0.281357 0.402492 1.081039
v -0.371141 0.540817 1.076869
v -0.460013 0.540817 1.085622
v -0.545470 0.540817 1.111545
v -0.624228 0.540817 1.153642
v -0.693259 0.540817 1.210294
v -0.749912 0.540817 1.279326
v -0.792009 0.540817 1.358084
v -0.817932 0.540817 1.443541
v -0.826685 0.540817 1.532413
v -0.817932 0.540817 1.621286
v -0.792009 0.540817 1.706743
v -0.749912 0.540817 1.785500
v -0.693259 0.540817 1.854532
v -0.624228 0.540817 1.911185
v -0.545470 0.540817 1.953282
v -0.460013 0.540817 1.979205
v -0.371140 0.540817 1.987958
v -0.282268 0.540817 1.979205
v -0.196811 0.540817 1.953282
v -0.118053 0.540817 1.911185
v -0.049022 0.540817 1.854532
v 0.007631 0.540817 1.785500
v 0.049728 0.540817 1.706742
v 0.075651 0.540817 1.621285
v 0.084404 0.540817 1.532413
v 0.075651 0.540817 1.443540
v 0.049728 0.540817 1.358083
v 0.007631 0.540817 1.279326
v -0.049022 0.540817 1.210294
v -0.118054 0.540817 1.153641
v -0.196812 0.540817 1.111545
v -0.282269 0.540817 1.085622
v -0.371141 -0.144685 1.214272
v -0.433207 -0.144685 1.220385
v -0.492888 -0.144685 1.238490
v -0.547890 -0.144685 1.267889
v -0.596100 -0.144685 1.307454
v -0.635665 -0.144685 1.355664
v -0.665064 -0.144685 1.410666
v -0.683168 -0.144685 1.470347
v -0.689281 -0.144685 1.532413
v -0.683168 -0.144685 1.594479
v -0.665064 -0.144685 1.654160
v -0.635665 -0.144685 1.709163
v -0.596100 -0.144685 1.757373
v -0.547890 -0.144685 1.796938
v -0.492888 -0.144685 1.826337
v -0.433207 -0.144685 1.844441
v -0.371141 -0.144685 1.850554
v -0.309074 -0.144685 1.844441
v -0.249393 -0.144685 1.826337
v -0.194391 -0.144685 1.796937
v -0.146181 -0.144685 1.757373
v -0.106616 -0.144685 1.709163
v -0.077217 -0.144685 1.654160
v -0.059113 -0.144685 1.594479
v -0.053000 -0.144685 1.532413
v -0.059113 -0.144685 1.470347
v -0.077217 -0.144685 1.410666
v -0.106616 -0.144685 1.355663
v -0.146181 -0.144685 1.307453
v -0.194391 -0.144685 1.267889
v -0.249394 -0.144685 1.238489
v -0.309075 -0.144685 1.220385
v -0.371141 -0.159080 1.231817
v -0.429784 -0.159080 1.237593
v -0.486174 -0.159080 1.254699
v -0.538143 -0.159080 1.282477
v -0.583694 -0.159080 1.319860
v -0.621077 -0.159080 1.365411
v -0.648855 -0.159080 1.417380
v -0.665961 -0.159080 1.473770
v -0.671736 -0.159080 1.532413
v -0.665961 -0.159080 1.591057
v -0.648855 -0.159080 1.647446
v -0.621077 -0.159080 1.699415
v -0.583694 -0.159080 1.744967
v -0.538143 -0.159080 1.782350
v -0.486174 -0.159080 1.810128
v -0.429784 -0.159080 1.827233
v -0.371141 -0.159080 1.833009
v -0.312497 -0.159080 1.827233
v -0.256107 -0.159080 1.810127
v -0.204138 -0.159080 1.782349
v -0.158587 -0.159080 1.744967
v -0.121204 -0.159080 1.699415
v -0.093426 -0.159080 1.647446
v -0.076321 -0.159080 1.591056
v -0.070545 -0.159080 1.532413
v -0.076321 -0.159080 1.473770
v -0.093426 -0.159080 1.417380
v -0.121204 -0.159080 1.365411
v -0.158588 -0.159080 1.319860
v -0.204139 -0.159080 1.282477
v -0.256108 -0.159080 1.254699
v -0.312498 -0.159080 1.237593
v -0.371141 -0.154518 1.247501
v -0.426724 -0.154518 1.252975
v -0.480172 -0.154518 1.269188
v -0.529430 -0.154518 1.295517
v -0.572604 -0.154518 1.330950
v -0.608037 -0.154518 1.374124
v -0.634366 -0.154518 1.423382
v -0.650579 -0.154518 1.476830
v -0.656053 -0.154518 1.532413
v -0.650579 -0.154518 1.587997
v -0.634366 -0.154518 1.641445
v -0.608037 -0.154518 1.690702
v -0.572604 -0.154518 1.733877
v -0.529430 -0.154518 1.769310
v -0.480172 -0.154518 1.795638
v -0.426724 -0.154518 1.811851
v -0.371141 -0.154518 1.817326
v -0.315557 -0.154518 1.811851
v -0.262109 -0.154518 1.795638
v -0.212851 -0.154518 1.769309
v -0.169677 -0.154518 1.733877
v -0.134244 -0.154518 1.690702
v -0.107916 -0.154518 1.641444
v -0.091702 -0.154518 1.587997
v -0.086228 -0.154518 1.532413
v -0.091703 -0.154518 1.476829
v -0.107916 -0.154518 1.423382
v -0.134245 -0.154518 1.374124
v -0.169677 -0.154518 1.330949
v -0.212852 -0.154518 1.295517
v -0.262110 -0.154518 1.269188
v -0.315557 -0.154518 1.252975
v -0.295578 -0.007646 1.912291
v -0.222919 -0.007646 1.890250
v -0.645017 -0.007646 1.258536
v -0.693186 -0.007646 1.317230
v -0.295579 -0.007646 1.152535
v -0.371141 -0.007646 1.145093
v -0.155957 -0.007646 1.854458
v -0.728978 -0.007646 1.384192
v -0.097264 -0.007646 1.806290
v -0.751019 -0.007646 1.456851
v -0.049095 -0.007646 1.747597
v -0.758461 -0.007646 1.532413
v -0.013303 -0.007646 1.680634
v -0.751019 -0.007646 1.607976
v 0.008738 -0.007646 1.607975
v -0.728978 -0.007646 1.680634
v 0.016180 -0.007646 1.532413
v -0.693186 -0.007646 1.747597
v 0.008737 -0.007646 1.456850
v -0.645017 -0.007646 1.806290
v -0.013303 -0.007646 1.384192
v -0.586324 -0.007646 1.854458
v -0.049096 -0.007646 1.317229
v -0.519362 -0.007646 1.890251
v -0.446703 -0.007646 1.152535
v -0.097264 -0.007646 1.258536
v -0.446703 -0.007646 1.912291
v -0.519362 -0.007646 1.174576
v -0.155957 -0.007646 1.210368
v -0.371140 -0.007646 1.919734
v -0.586324 -0.007646 1.210368
v -0.222920 -0.007646 1.174576
v -0.233327 -0.076876 1.865124
v -0.670572 -0.076876 1.332339
v -0.371141 -0.076876 1.172290
v -0.171067 -0.076876 1.831845
v -0.703851 -0.076876 1.394600
v -0.116495 -0.076876 1.787059
v -0.724344 -0.076876 1.462157
v -0.071709 -0.076876 1.732487
v -0.731264 -0.076876 1.532413
v -0.038430 -0.076876 1.670226
v -0.724344 -0.076876 1.602670
v -0.017937 -0.076876 1.602670
v -0.703851 -0.076876 1.670226
v -0.011017 -0.076876 1.532413
v -0.670572 -0.076876 1.732487
v -0.017937 -0.076876 1.462156
v -0.625786 -0.076876 1.787059
v -0.038430 -0.076876 1.394600
v -0.571214 -0.076876 1.831845
v -0.071709 -0.076876 1.332339
v -0.508954 -0.076876 1.865124
v -0.441397 -0.076876 1.179209
v -0.116495 -0.076876 1.277767
v -0.441397 -0.076876 1.885617
v -0.508954 -0.076876 1.199703
v -0.171067 -0.076876 1.232981
v -0.371140 -0.076876 1.892537
v -0.571214 -0.076876 1.232982
v -0.233328 -0.076876 1.199702
v -0.300884 -0.076876 1.885617
v -0.625786 -0.076876 1.277768
v -0.300884 -0.076876 1.179209
v -0.371141 0.567333 1.087405
v -0.457957 0.567333 1.095955
v -0.541438 0.567333 1.121279
v -0.618374 0.567333 1.162402
v -0.685809 0.567333 1.217745
v -0.741152 0.567333 1.285180
v -0.782275 0.567333 1.362116
v -0.807598 0.567333 1.445596
v -0.816149 0.567333 1.532413
v -0.807598 0.567333 1.619230
v -0.782275 0.567333 1.702711
v -0.741152 0.567333 1.779647
v -0.685809 0.567333 1.847082
v -0.618374 0.567333 1.902424
v -0.541438 0.567333 1.943548
v -0.457957 0.567333 1.968871
v -0.371140 0.567333 1.977422
v -0.284324 0.567333 1.968871
v -0.200843 0.567333 1.943547
v -0.123907 0.567333 1.902424
v -0.056472 0.567333 1.847082
v -0.001129 0.567333 1.779647
v 0.039994 0.567333 1.702710
v 0.065317 0.567333 1.619230
v 0.073868 0.567333 1.532413
v 0.065317 0.567333 1.445596
v 0.039994 0.567333 1.362115
v -0.001130 0.567333 1.285179
v -0.056472 0.567333 1.217744
v -0.123908 0.567333 1.162402
v -0.200844 0.567333 1.121279
v -0.284324 0.567333 1.095955
v -0.371141 0.575704 1.100598
v -0.455384 0.575704 1.108895
v -0.536389 0.575704 1.133468
v -0.611044 0.575704 1.173372
v -0.676480 0.575704 1.227074
v -0.730182 0.575704 1.292510
v -0.770086 0.575704 1.367165
v -0.794658 0.575704 1.448170
v -0.802956 0.575704 1.532413
v -0.794659 0.575704 1.616656
v -0.770086 0.575704 1.697662
v -0.730182 0.575704 1.772317
v -0.676480 0.575704 1.837753
v -0.611044 0.575704 1.891454
v -0.536389 0.575704 1.931358
v -0.455383 0.575704 1.955931
v -0.371140 0.575704 1.964228
v -0.286897 0.575704 1.955931
v -0.205892 0.575704 1.931358
v -0.131237 0.575704 1.891454
v -0.065801 0.575704 1.837752
v -0.012099 0.575704 1.772317
v 0.027805 0.575704 1.697662
v 0.052377 0.575704 1.616656
v 0.060675 0.575704 1.532413
v 0.052377 0.575704 1.448170
v 0.027804 0.575704 1.367164
v -0.012100 0.575704 1.292509
v -0.065802 0.575704 1.227073
v -0.131237 0.575704 1.173372
v -0.205893 0.575704 1.133468
v -0.286898 0.575704 1.108895
v -0.371141 0.572526 1.112424
v -0.453076 0.572526 1.120494
v -0.531864 0.572526 1.144393
v -0.604474 0.572526 1.183205
v -0.668118 0.572526 1.235436
v -0.720349 0.572526 1.299080
v -0.759160 0.572526 1.371690
v -0.783060 0.572526 1.450477
v -0.791130 0.572526 1.532413
v -0.783060 0.572526 1.614349
v -0.759160 0.572526 1.693136
v -0.720349 0.572526 1.765747
v -0.668118 0.572526 1.829391
v -0.604474 0.572526 1.881622
v -0.531864 0.572526 1.920433
v -0.453076 0.572526 1.944333
v -0.371140 0.572526 1.952403
v -0.289205 0.572526 1.944333
v -0.210417 0.572526 1.920433
v -0.137807 0.572526 1.881622
v -0.074163 0.572526 1.829391
v -0.021932 0.572526 1.765747
v 0.016879 0.572526 1.693136
v 0.040779 0.572526 1.614349
v 0.048849 0.572526 1.532413
v 0.040779 0.572526 1.450477
v 0.016879 0.572526 1.371690
v -0.021932 0.572526 1.299079
v -0.074163 0.572526 1.235435
v -0.137807 0.572526 1.183204
v -0.210418 0.572526 1.144393
v -0.289205 0.572526 1.120494
v -0.371141 0.545571 1.120600
v -0.451481 0.545571 1.128513
v -0.528735 0.545571 1.151947
v -0.599932 0.545571 1.190003
v -0.662337 0.545571 1.241217
v -0.713551 0.545571 1.303622
v -0.751606 0.545571 1.374819
v -0.775041 0.545571 1.452073
v -0.782954 0.545571 1.532413
v -0.775041 0.545571 1.612754
v -0.751607 0.545571 1.690007
v -0.713551 0.545571 1.761204
v -0.662337 0.545571 1.823609
v -0.599932 0.545571 1.874824
v -0.528735 0.545571 1.912879
v -0.451481 0.545571 1.936314
v -0.371140 0.545571 1.944227
v -0.290800 0.545571 1.936314
v -0.213546 0.545571 1.912879
v -0.142349 0.545571 1.874823
v -0.079944 0.545571 1.823609
v -0.028730 0.545571 1.761204
v 0.009326 0.545571 1.690007
v 0.032760 0.545571 1.612754
v 0.040673 0.545571 1.532413
v 0.032760 0.545571 1.452072
v 0.009325 0.545571 1.374819
v -0.028731 0.545571 1.303622
v -0.079945 0.545571 1.241217
v -0.142350 0.545571 1.190003
v -0.213547 0.545571 1.151947
v -0.290800 0.545571 1.128513
v -0.371141 0.404275 1.118946
v -0.451804 0.404275 1.126891
v -0.529368 0.404275 1.150419
v -0.600851 0.404275 1.188628
v -0.663506 0.404275 1.240048
v -0.714926 0.404275 1.302703
v -0.753135 0.404275 1.374186
v -0.776663 0.404275 1.451750
v -0.784608 0.404275 1.532413
v -0.776663 0.404275 1.613077
v -0.753135 0.404275 1.690640
v -0.714926 0.404275 1.762123
v -0.663506 0.404275 1.824779
v -0.600851 0.404275 1.876199
v -0.529368 0.404275 1.914407
v -0.451804 0.404275 1.937936
v -0.371140 0.404275 1.945881
v -0.290477 0.404275 1.937936
v -0.212913 0.404275 1.914407
v -0.141430 0.404275 1.876199
v -0.078775 0.404275 1.824779
v -0.027355 0.404275 1.762123
v 0.010854 0.404275 1.690640
v 0.034382 0.404275 1.613076
v 0.042327 0.404275 1.532413
v 0.034382 0.404275 1.451749
v 0.010853 0.404275 1.374186
v -0.027355 0.404275 1.302703
v -0.078775 0.404275 1.240047
v -0.141431 0.404275 1.188627
v -0.212914 0.404275 1.150419
v -0.290478 0.404275 1.126890
v -0.371141 0.153592 1.151303
v -0.445492 0.153592 1.158626
v -0.516985 0.153592 1.180313
v -0.582874 0.153592 1.215531
v -0.640626 0.153592 1.262927
v -0.688022 0.153592 1.320680
v -0.723241 0.153592 1.386569
v -0.744928 0.153592 1.458062
v -0.752251 0.153592 1.532413
v -0.744928 0.153592 1.606764
v -0.723241 0.153592 1.678258
v -0.688022 0.153592 1.744147
v -0.640626 0.153592 1.801899
v -0.582874 0.153592 1.849295
v -0.516985 0.153592 1.884514
v -0.445491 0.153592 1.906201
v -0.371140 0.153592 1.913524
v -0.296789 0.153592 1.906201
v -0.225296 0.153592 1.884513
v -0.159407 0.153592 1.849295
v -0.101655 0.153592 1.801899
v -0.054259 0.153592 1.744147
v -0.019040 0.153592 1.678258
v 0.002647 0.153592 1.606764
v 0.009970 0.153592 1.532413
v 0.002647 0.153592 1.458062
v -0.019040 0.153592 1.386568
v -0.054259 0.153592 1.320679
v -0.101655 0.153592 1.262927
v -0.159407 0.153592 1.215531
v -0.225296 0.153592 1.180313
v -0.296790 0.153592 1.158626
v -0.371141 -0.006187 1.183372
v -0.439235 -0.006187 1.190079
v -0.504713 -0.006187 1.209942
v -0.565057 -0.006187 1.242196
v -0.617950 -0.006187 1.285604
v -0.661357 -0.006187 1.338497
v -0.693612 -0.006187 1.398841
v -0.713475 -0.006187 1.464319
v -0.720181 -0.006187 1.532413
v -0.713475 -0.006187 1.600508
v -0.693612 -0.006187 1.665985
v -0.661357 -0.006187 1.726330
v -0.617950 -0.006187 1.779222
v -0.565057 -0.006187 1.822630
v -0.504713 -0.006187 1.854885
v -0.439235 -0.006187 1.874747
v -0.371140 -0.006187 1.881454
v -0.303046 -0.006187 1.874747
v -0.237568 -0.006187 1.854885
v -0.177224 -0.006187 1.822630
v -0.124331 -0.006187 1.779222
v -0.080924 -0.006187 1.726330
v -0.048669 -0.006187 1.665985
v -0.028806 -0.006187 1.600507
v -0.022100 -0.006187 1.532413
v -0.028807 -0.006187 1.464318
v -0.048669 -0.006187 1.398841
v -0.080924 -0.006187 1.338496
v -0.124332 -0.006187 1.285604
v -0.177224 -0.006187 1.242196
v -0.237569 -0.006187 1.209941
v -0.303047 -0.006187 1.190079
v -0.371141 -0.070841 1.203945
v -0.435222 -0.070841 1.210256
v -0.496840 -0.070841 1.228948
v -0.553628 -0.070841 1.259302
v -0.603403 -0.070841 1.300151
v -0.644252 -0.070841 1.349926
v -0.674606 -0.070841 1.406714
v -0.693297 -0.070841 1.468332
v -0.699609 -0.070841 1.532413
v -0.693297 -0.070841 1.596494
v -0.674606 -0.070841 1.658113
v -0.644252 -0.070841 1.714900
v -0.603403 -0.070841 1.764675
v -0.553628 -0.070841 1.805525
v -0.496840 -0.070841 1.835878
v -0.435221 -0.070841 1.854570
v -0.371140 -0.070841 1.860882
v -0.307059 -0.070841 1.854570
v -0.245441 -0.070841 1.835878
v -0.188653 -0.070841 1.805525
v -0.138878 -0.070841 1.764675
v -0.098029 -0.070841 1.714900
v -0.067675 -0.070841 1.658112
v -0.048984 -0.070841 1.596494
v -0.042672 -0.070841 1.532413
v -0.048984 -0.070841 1.468332
v -0.067676 -0.070841 1.406713
v -0.098029 -0.070841 1.349926
v -0.138879 -0.070841 1.300151
v -0.188654 -0.070841 1.259302
v -0.245442 -0.070841 1.228948
v -0.307060 -0.070841 1.210256
v -0.371141 -0.088521 1.219274
v -0.432231 -0.088521 1.225291
v -0.490974 -0.088521 1.243111
v -0.545111 -0.088521 1.272048
v -0.592563 -0.088521 1.310991
v -0.631506 -0.088521 1.358443
v -0.660443 -0.088521 1.412580
v -0.678263 -0.088521 1.471323
v -0.684279 -0.088521 1.532413
v -0.678263 -0.088521 1.593504
v -0.660443 -0.088521 1.652246
v -0.631506 -0.088521 1.706384
v -0.592563 -0.088521 1.753836
v -0.545111 -0.088521 1.792779
v -0.490974 -0.088521 1.821716
v -0.432231 -0.088521 1.839535
v -0.371140 -0.088521 1.845552
v -0.310050 -0.088521 1.839535
v -0.251307 -0.088521 1.821716
v -0.197170 -0.088521 1.792779
v -0.149718 -0.088521 1.753836
v -0.110775 -0.088521 1.706384
v -0.081838 -0.088521 1.652246
v -0.064019 -0.088521 1.593503
v -0.058002 -0.088521 1.532413
v -0.064019 -0.088521 1.471323
v -0.081838 -0.088521 1.412580
v -0.110775 -0.088521 1.358442
v -0.149718 -0.088521 1.310990
v -0.197170 -0.088521 1.272048
v -0.251308 -0.088521 1.243111
v -0.310051 -0.088521 1.225291
v -0.371141 -0.095614 1.246309
v -0.426957 -0.095614 1.251807
v -0.480628 -0.095614 1.268088
v -0.530091 -0.095614 1.294527
v -0.573447 -0.095614 1.330107
v -0.609027 -0.095614 1.373462
v -0.635466 -0.095614 1.422926
v -0.651747 -0.095614 1.476597
v -0.657244 -0.095614 1.532413
v -0.651747 -0.095614 1.588229
v -0.635466 -0.095614 1.641900
v -0.609027 -0.095614 1.691364
v -0.573447 -0.095614 1.734719
v -0.530091 -0.095614 1.770300
v -0.480628 -0.095614 1.796739
v -0.426957 -0.095614 1.813020
v -0.371141 -0.095614 1.818517
v -0.315324 -0.095614 1.813020
v -0.261653 -0.095614 1.796739
v -0.212190 -0.095614 1.770300
v -0.168834 -0.095614 1.734719
v -0.133254 -0.095614 1.691364
v -0.106815 -0.095614 1.641900
v -0.090534 -0.095614 1.588229
v -0.085037 -0.095614 1.532413
v -0.090534 -0.095614 1.476597
v -0.106815 -0.095614 1.422926
v -0.133254 -0.095614 1.373462
v -0.168835 -0.095614 1.330107
v -0.212190 -0.095614 1.294526
v -0.261654 -0.095614 1.268088
v -0.315325 -0.095614 1.251807
v -0.042718 0.471654 1.203990
v -0.113101 0.471654 1.146229
v -0.461752 0.471654 1.987949
v -0.371140 0.471654 1.996873
v -0.548882 0.471654 1.103308
v -0.629181 0.471654 1.146229
v -0.193400 0.471654 1.103308
v -0.280529 0.471654 1.987949
v -0.699563 0.471654 1.203990
v -0.280530 0.471654 1.076878
v -0.193399 0.471654 1.961518
v -0.757325 0.471654 1.274373
v -0.371141 0.471654 1.067953
v -0.113100 0.471654 1.918597
v -0.800246 0.471654 1.354672
v -0.042718 0.471654 1.860836
v -0.826676 0.471654 1.441802
v 0.015044 0.471654 1.790453
v -0.835601 0.471654 1.532413
v 0.057965 0.471654 1.710154
v -0.826676 0.471654 1.623025
v 0.084395 0.471654 1.623025
v -0.800246 0.471654 1.710154
v 0.093319 0.471654 1.532413
v -0.757325 0.471654 1.790453
v 0.084395 0.471654 1.441801
v -0.699563 0.471654 1.860836
v 0.057964 0.471654 1.354672
v -0.629181 0.471654 1.918598
v 0.015043 0.471654 1.274373
v -0.548882 0.471654 1.961519
v -0.461752 0.471654 1.076878
v 0.065897 0.277440 1.445481
v 0.040540 0.277440 1.361889
v -0.686227 0.277440 1.847500
v -0.618703 0.277440 1.902916
v -0.000638 0.277440 1.284851
v -0.541664 0.277440 1.944094
v -0.371141 0.277440 1.086813
v -0.458073 0.277440 1.095375
v -0.056054 0.277440 1.217326
v -0.458073 0.277440 1.969451
v -0.541664 0.277440 1.120733
v -0.123579 0.277440 1.161910
v -0.371140 0.277440 1.978013
v -0.618703 0.277440 1.161911
v -0.200617 0.277440 1.120732
v -0.284208 0.277440 1.969451
v -0.686227 0.277440 1.217327
v -0.284209 0.277440 1.095375
v -0.200617 0.277440 1.944094
v -0.741643 0.277440 1.284851
v -0.123578 0.277440 1.902916
v -0.782821 0.277440 1.361890
v -0.056054 0.277440 1.847500
v -0.808179 0.277440 1.445481
v -0.000638 0.277440 1.779975
v -0.816741 0.277440 1.532413
v 0.040540 0.277440 1.702937
v -0.808179 0.277440 1.619345
v 0.065897 0.277440 1.619345
v -0.782821 0.277440 1.702937
v 0.074459 0.277440 1.532413
v -0.741643 0.277440 1.779975
v -0.291127 0.072372 1.934668
v -0.661150 0.072372 1.242404
v -0.291128 0.072372 1.130158
v -0.214188 0.072372 1.911329
v -0.712156 0.072372 1.304554
v -0.371141 0.072372 1.122278
v -0.143281 0.072372 1.873428
v -0.750056 0.072372 1.375461
v -0.081131 0.072372 1.822423
v -0.773396 0.072372 1.452400
v -0.030125 0.072372 1.760272
v -0.781276 0.072372 1.532413
v 0.007775 0.072372 1.689365
v -0.773396 0.072372 1.612427
v 0.031114 0.072372 1.612426
v -0.750057 0.072372 1.689365
v 0.038995 0.072372 1.532413
v -0.712156 0.072372 1.760272
v 0.031114 0.072372 1.452399
v -0.661150 0.072372 1.822423
v 0.007775 0.072372 1.375461
v -0.599000 0.072372 1.873429
v -0.030126 0.072372 1.304554
v -0.528093 0.072372 1.911329
v -0.451154 0.072372 1.130158
v -0.081131 0.072372 1.242403
v -0.451154 0.072372 1.934668
v -0.528093 0.072372 1.153497
v -0.143282 0.072372 1.191398
v -0.371140 0.072372 1.942549
v -0.599000 0.072372 1.191398
v -0.214189 0.072372 1.153497
vn 0.9505 0.3107 0.0000
vn 0.9836 0.1805 0.0000
vn 0.8887 0.1626 -0.4287
vn 0.8556 0.2791 -0.4359
vn 0.5675 0.1022 -0.8170
vn 0.5417 0.1750 -0.8221
vn 0.0137 0.0001 -0.9999
vn 0.0138 0.0021 -0.9999
vn -0.5516 -0.1008 -0.8280
vn -0.5253 -0.1713 -0.8335
vn -0.8857 -0.1598 -0.4359
vn -0.8526 -0.2759 -0.4437
vn -0.9841 -0.1773 0.0000
vn -0.9515 -0.3076 0.0000
vn -0.8857 -0.1598 0.4359
vn -0.8526 -0.2759 0.4437
vn -0.5516 -0.1008 0.8280
vn -0.5253 -0.1713 0.8335
vn 0.0137 0.0001 0.9999
vn 0.0138 0.0021 0.9999
vn 0.5675 0.1022 0.8170
vn 0.5417 0.1750 0.8221
vn 0.8887 0.1626 0.4287
vn 0.8556 0.2791 0.4359
vn 0.9986 0.0532 0.0000
vn 0.9055 0.0478 -0.4216
vn 0.5831 0.0293 -0.8119
vn 0.0132 -0.0016 -0.9999
vn -0.5679 -0.0298 -0.8225
vn -0.9025 -0.0455 -0.4283
vn -0.9987 -0.0502 0.0000
vn -0.9025 -0.0455 0.4283
vn -0.5679 -0.0298 0.8225
vn 0.0132 -0.0016 0.9999
vn 0.5831 0.0293 0.8119
vn 0.9055 0.0478 0.4216
vn 0.9976 -0.0695 0.0000
vn 0.9075 -0.0635 -0.4151
vn 0.5889 -0.0425 -0.8071
vn 0.0126 -0.0030 -0.9999
vn -0.5746 0.0404 -0.8174
vn -0.9045 0.0652 -0.4214
vn -0.9974 0.0721 0.0000
vn -0.9045 0.0652 0.4214
vn -0.5746 0.0404 0.8174
vn 0.0126 -0.0030 0.9999
vn 0.5889 -0.0425 0.8071
vn 0.9075 -0.0635 0.4151
vn 0.9825 -0.1865 0.0000
vn 0.8962 -0.1704 -0.4096
vn 0.5853 -0.1123 -0.8029
vn 0.0119 -0.0040 -0.9999
vn -0.5720 0.1089 -0.8130
vn -0.8932 0.1714 -0.4155
vn -0.9821 0.1885 0.0000
vn -0.8932 0.1714 0.4155
vn -0.5720 0.1089 0.8130
vn 0.0119 -0.0040 0.9999
vn 0.5853 -0.1123 0.8029
vn 0.8962 -0.1704 0.4096
vn 0.9548 -0.2973 0.0000
vn 0.8728 -0.2719 -0.4053
vn 0.5730 -0.1793 -0.7997
vn 0.0112 -0.0049 -0.9999
vn -0.5605 0.1747 -0.8095
vn -0.8700 0.2723 -0.4110
vn -0.9543 0.2987 0.0000
vn -0.8700 0.2723 0.4110
vn -0.5605 0.1747 0.8095
vn 0.0112 -0.0049 0.9999
vn 0.5730 -0.1793 0.7997
vn 0.8728 -0.2719 0.4053
vn 0.9157 -0.4017 0.0000
vn 0.8383 -0.3679 -0.4023
vn 0.5523 -0.2429 -0.7974
vn 0.0106 -0.0055 -0.9999
vn -0.5405 0.2373 -0.8071
vn -0.8357 0.3675 -0.4080
vn -0.9154 0.4026 0.0000
vn -0.8357 0.3675 0.4080
vn -0.5405 0.2373 0.8071
vn 0.0106 -0.0055 0.9999
vn 0.5523 -0.2429 0.7974
vn 0.8383 -0.3679 0.4023
vn 0.8661 -0.4999 0.0000
vn 0.7934 -0.4579 -0.4010
vn 0.5237 -0.3024 -0.7964
vn 0.0101 -0.0061 -0.9999
vn -0.5126 0.2959 -0.8060
vn -0.7912 0.4569 -0.4065
vn -0.8660 0.5001 0.0000
vn -0.7912 0.4569 0.4065
vn -0.5126 0.2959 0.8060
vn 0.0101 -0.0061 0.9999
vn 0.5237 -0.3024 0.7964
vn 0.7934 -0.4579 0.4010
vn 0.8062 -0.5916 0.0000
vn 0.7385 -0.5419 -0.4011
vn 0.4876 -0.3575 -0.7965
vn 0.0098 -0.0067 -0.9999
vn -0.4771 0.3500 -0.8061
vn -0.7367 0.5401 -0.4067
vn -0.8065 0.5912 0.0000
vn -0.7367 0.5401 0.4067
vn -0.4771 0.3500 0.8061
vn 0.0098 -0.0067 0.9999
vn 0.4876 -0.3575 0.7965
vn 0.7385 -0.5419 0.4011
vn 0.7363 -0.6767 0.0000
vn 0.6739 -0.6193 -0.4028
vn 0.4443 -0.4075 -0.7978
vn 0.0094 -0.0074 -0.9999
vn -0.4343 0.3990 -0.8076
vn -0.6726 0.6170 -0.4085
vn -0.7369 0.6759 0.0000
vn -0.6726 0.6170 0.4085
vn -0.4343 0.3990 0.8076
vn 0.0094 -0.0074 0.9999
vn 0.4443 -0.4075 0.7978
vn 0.6739 -0.6193 0.4028
vn 0.6559 -0.7548 0.0000
vn 0.5996 -0.6896 -0.4061
vn 0.3940 -0.4519 -0.8003
vn 0.0091 -0.0083 -0.9999
vn -0.3847 0.4423 -0.8102
vn -0.5988 0.6868 -0.4119
vn -0.6572 0.7537 0.0000
vn -0.5988 0.6868 0.4119
vn -0.3847 0.4423 0.8102
vn 0.0091 -0.0083 0.9999
vn 0.3940 -0.4519 0.8003
vn 0.5996 -0.6896 0.4061
vn 0.5650 -0.8251 0.0000
vn 0.5154 -0.7521 -0.4107
vn 0.3372 -0.4901 -0.8038
vn 0.0086 -0.0093 -0.9999
vn -0.3285 0.4792 -0.8139
vn -0.5152 0.7490 -0.4167
vn -0.5668 0.8238 0.0000
vn -0.5152 0.7490 0.4167
vn -0.3285 0.4792 0.8139
vn 0.0086 -0.0093 0.9999
vn 0.3372 -0.4901 0.8038
vn 0.5154 -0.7521 0.4107
vn 0.4460 -0.8950 0.0000
vn 0.4029 -0.8139 -0.4185
vn 0.2525 -0.5284 -0.8106
vn -0.0151 -0.0172 -0.9997
vn -0.2864 0.5009 -0.8167
vn -0.4386 0.7935 -0.4217
vn -0.4813 0.8765 0.0000
vn -0.4386 0.7935 0.4217
vn -0.2864 0.5009 0.8167
vn -0.0151 -0.0172 0.9997
vn 0.2525 -0.5284 0.8106
vn 0.4029 -0.8139 0.4185
vn 0.2710 -0.9626 0.0000
vn 0.2499 -0.8788 -0.4065
vn 0.1690 -0.5809 -0.7962
vn -0.0036 -0.0246 -0.9997
vn -0.2139 0.5465 -0.8096
vn -0.3494 0.8446 -0.4057
vn -0.3910 0.9203 0.0000
vn -0.3494 0.8446 0.4057
vn -0.2139 0.5465 0.8096
vn -0.0036 -0.0246 0.9997
vn 0.1690 -0.5809 0.7962
vn 0.2499 -0.8788 0.4065
vn 0.1669 -0.9860 0.0000
vn 0.1637 -0.9155 -0.3674
vn 0.1407 -0.6662 -0.7324
vn 0.0552 -0.1494 -0.9872
vn -0.1175 0.5032 -0.8561
vn -0.2761 0.8616 -0.4259
vn -0.3346 0.9423 0.0000
vn -0.2761 0.8616 0.4259
vn -0.1175 0.5032 0.8561
vn 0.0552 -0.1494 0.9872
vn 0.1407 -0.6662 0.7324
vn 0.1637 -0.9155 0.3674
vn 0.0427 0.9991 0.0000
vn 0.0823 0.9966 0.0000
vn 0.0741 0.8916 -0.4467
vn 0.0396 0.8959 -0.4424
vn 0.0466 0.5540 -0.8312
vn 0.0271 0.5625 -0.8263
vn -0.0010 0.0061 -1.0000
vn -0.0009 0.0164 -0.9998
vn -0.0541 -0.5461 -0.8360
vn -0.0412 -0.5401 -0.8405
vn -0.0928 -0.8883 -0.4498
vn -0.0779 -0.8878 -0.4537
vn -0.1067 -0.9943 0.0000
vn -0.0930 -0.9956 0.0000
vn -0.0928 -0.8883 0.4498
vn -0.0779 -0.8878 0.4537
vn -0.0541 -0.5461 0.8360
vn -0.0412 -0.5401 0.8405
vn -0.0010 0.0061 1.0000
vn -0.0009 0.0164 0.9998
vn 0.0466 0.5540 0.8312
vn 0.0271 0.5625 0.8263
vn 0.0741 0.8916 0.4467
vn 0.0396 0.8959 0.4424
vn 0.1962 0.9806 0.0000
vn 0.1748 0.8759 -0.4498
vn 0.1075 0.5448 -0.8317
vn 0.0013 0.0143 -0.9999
vn -0.1050 -0.5264 -0.8437
vn -0.1725 -0.8715 -0.4590
vn -0.1939 -0.9810 0.0000
vn -0.1725 -0.8715 0.4590
vn -0.1050 -0.5264 0.8437
vn 0.0013 0.0143 0.9999
vn 0.1075 0.5448 0.8316
vn 0.1748 0.8759 0.4498
vn 0.3427 0.9394 0.0000
vn 0.3052 0.8372 -0.4538
vn 0.1881 0.5181 -0.8343
vn 0.0040 0.0139 -0.9999
vn -0.1823 -0.5000 -0.8466
vn -0.3026 -0.8328 -0.4635
vn -0.3413 -0.9399 0.0000
vn -0.3026 -0.8328 0.4635
vn -0.1823 -0.5000 0.8466
vn 0.0040 0.0139 0.9999
vn 0.1881 0.5181 0.8343
vn 0.3052 0.8372 0.4538
vn 0.4839 0.8751 0.0000
vn 0.4307 0.7790 -0.4558
vn 0.2655 0.4807 -0.8357
vn 0.0067 0.0128 -0.9999
vn -0.2564 -0.4637 -0.8480
vn -0.4279 -0.7746 -0.4657
vn -0.4835 -0.8753 0.0000
vn -0.4279 -0.7746 0.4657
vn -0.2564 -0.4637 0.8480
vn 0.0067 0.0128 0.9999
vn 0.2655 0.4807 0.8357
vn 0.4307 0.7790 0.4558
vn 0.6142 0.7891 0.0000
vn 0.5468 0.7024 -0.4555
vn 0.3377 0.4333 -0.8355
vn 0.0092 0.0111 -0.9999
vn -0.3257 -0.4183 -0.8479
vn -0.5440 -0.6981 -0.4654
vn -0.6147 -0.7888 0.0000
vn -0.5440 -0.6981 0.4654
vn -0.3257 -0.4183 0.8479
vn 0.0092 0.0111 0.9999
vn 0.3377 0.4333 0.8355
vn 0.5468 0.7024 0.4555
vn 0.7285 0.6850 0.0000
vn 0.6496 0.6104 -0.4531
vn 0.4028 0.3773 -0.8339
vn 0.0112 0.0091 -0.9999
vn -0.3884 -0.3650 -0.8461
vn -0.6467 -0.6063 -0.4627
vn -0.7297 -0.6838 0.0000
vn -0.6467 -0.6063 0.4627
vn -0.3884 -0.3650 0.8461
vn 0.0112 0.0091 0.9999
vn 0.4028 0.3773 0.8339
vn 0.6496 0.6104 0.4531
vn 0.8235 0.5672 0.0000
vn 0.7362 0.5065 -0.4487
vn 0.4591 0.3144 -0.8309
vn 0.0127 0.0067 -0.9999
vn -0.4432 -0.3049 -0.8429
vn -0.7333 -0.5027 -0.4577
vn -0.8249 -0.5652 0.0000
vn -0.7333 -0.5027 0.4577
vn -0.4432 -0.3049 0.8429
vn 0.0127 0.0067 0.9999
vn 0.4591 0.3144 0.8309
vn 0.7362 0.5065 0.4487
vn 0.8975 0.4409 0.0000
vn 0.8050 0.3948 -0.4428
vn 0.5055 0.2463 -0.8269
vn 0.0135 0.0043 -0.9999
vn -0.4891 -0.2399 -0.8386
vn -0.8020 -0.3912 -0.4512
vn -0.8989 -0.4382 0.0000
vn -0.8020 -0.3912 0.4512
vn -0.4891 -0.2399 0.8386
vn 0.0135 0.0043 0.9999
vn 0.5055 0.2463 0.8269
vn 0.8050 0.3948 0.4428
vn 0.3731 -0.2220 0.9008
vn 0.3771 -0.1704 0.9103
vn 0.1922 -0.1704 0.9664
vn 0.1902 -0.2220 0.9563
vn -0.8107 -0.2220 -0.5417
vn -0.8193 -0.1704 -0.5474
vn -0.6967 -0.1704 -0.6967
vn -0.6894 -0.2220 -0.6894
vn 0.0000 -0.2220 -0.9750
vn 0.0000 -0.1704 -0.9854
vn 0.1922 -0.1704 -0.9664
vn 0.1902 -0.2220 -0.9563
vn 0.5417 -0.2220 0.8107
vn 0.5474 -0.1704 0.8193
vn -0.9008 -0.2220 -0.3731
vn -0.9103 -0.1704 -0.3771
vn 0.6894 -0.2220 0.6894
vn 0.6967 -0.1704 0.6967
vn -0.9563 -0.2220 -0.1902
vn -0.9664 -0.1704 -0.1922
vn 0.8107 -0.2220 0.5417
vn 0.8193 -0.1704 0.5474
vn -0.9750 -0.2220 0.0000
vn -0.9854 -0.1704 0.0000
vn 0.9008 -0.2220 0.3731
vn 0.9103 -0.1704 0.3771
vn -0.9563 -0.2220 0.1902
vn -0.9664 -0.1704 0.1922
vn 0.9563 -0.2220 0.1902
vn 0.9664 -0.1704 0.1922
vn -0.9008 -0.2220 0.3731
vn -0.9103 -0.1704 0.3771
vn 0.9750 -0.2220 0.0000
vn 0.9854 -0.1704 0.0000
vn -0.8107 -0.2220 0.5417
vn -0.8193 -0.1704 0.5474
vn 0.9563 -0.2220 -0.1902
vn 0.9664 -0.1704 -0.1922
vn -0.6894 -0.2220 0.6894
vn -0.6967 -0.1704 0.6967
vn 0.9008 -0.2220 -0.3731
vn 0.9103 -0.1704 -0.3771
vn -0.5417 -0.2220 0.8107
vn -0.5474 -0.1704 0.8193
vn 0.8107 -0.2220 -0.5417
vn 0.8193 -0.1704 -0.5474
vn -0.3731 -0.2220 0.9008
vn -0.3771 -0.1704 0.9103
vn -0.1902 -0.2220 -0.9563
vn -0.1922 -0.1704 -0.9664
vn 0.6894 -0.2220 -0.6894
vn 0.6967 -0.1704 -0.6967
vn -0.1902 -0.2220 0.9563
vn -0.1922 -0.1704 0.9664
vn -0.3731 -0.2220 -0.9008
vn -0.3771 -0.1704 -0.9103
vn 0.5417 -0.2220 -0.8107
vn 0.5474 -0.1704 -0.8193
vn 0.0000 -0.2220 0.9750
vn 0.0000 -0.1704 0.9854
vn -0.5417 -0.2220 -0.8107
vn -0.5474 -0.1704 -0.8193
vn 0.3731 -0.2220 -0.9008
vn 0.3771 -0.1704 -0.9103
vn 0.9144 -0.1430 -0.3787
vn 0.9202 -0.0885 -0.3812
vn 0.9769 -0.0885 -0.1943
vn 0.9707 -0.1430 -0.1931
vn -0.5499 -0.1430 0.8229
vn -0.5534 -0.0885 0.8282
vn -0.7043 -0.0885 0.7043
vn -0.6998 -0.1430 0.6998
vn 0.8229 -0.1430 -0.5499
vn 0.8282 -0.0885 -0.5534
vn -0.3787 -0.1430 0.9144
vn -0.3812 -0.0885 0.9202
vn -0.1931 -0.1430 -0.9707
vn -0.1943 -0.0885 -0.9769
vn 0.0000 -0.0885 -0.9961
vn 0.0000 -0.1430 -0.9897
vn 0.6998 -0.1430 -0.6998
vn 0.7043 -0.0885 -0.7043
vn -0.1931 -0.1430 0.9707
vn -0.1943 -0.0885 0.9769
vn -0.3787 -0.1430 -0.9144
vn -0.3812 -0.0885 -0.9202
vn 0.5499 -0.1430 -0.8229
vn 0.5534 -0.0885 -0.8282
vn 0.0000 -0.1430 0.9897
vn 0.0000 -0.0885 0.9961
vn -0.5499 -0.1430 -0.8229
vn -0.5534 -0.0885 -0.8282
vn 0.3787 -0.1430 -0.9144
vn 0.3812 -0.0885 -0.9202
vn 0.1931 -0.1430 0.9707
vn 0.1943 -0.0885 0.9769
vn -0.6998 -0.1430 -0.6998
vn -0.7043 -0.0885 -0.7043
vn 0.1931 -0.1430 -0.9707
vn 0.1943 -0.0885 -0.9769
vn 0.3787 -0.1430 0.9144
vn 0.3812 -0.0885 0.9202
vn -0.8229 -0.1430 -0.5499
vn -0.8282 -0.0885 -0.5534
vn 0.5499 -0.1430 0.8229
vn 0.5534 -0.0885 0.8282
vn -0.9144 -0.1430 -0.3787
vn -0.9202 -0.0885 -0.3812
vn 0.6998 -0.1430 0.6998
vn 0.7043 -0.0885 0.7043
vn -0.9707 -0.1430 -0.1931
vn -0.9769 -0.0885 -0.1943
vn 0.8229 -0.1430 0.5499
vn 0.8282 -0.0885 0.5534
vn -0.9897 -0.1430 0.0000
vn -0.9961 -0.0885 0.0000
vn 0.9144 -0.1430 0.3787
vn 0.9202 -0.0885 0.3812
vn -0.9707 -0.1430 0.1931
vn -0.9769 -0.0885 0.1943
vn 0.9707 -0.1430 0.1931
vn 0.9769 -0.0885 0.1943
vn -0.9144 -0.1430 0.3787
vn -0.9202 -0.0885 0.3812
vn 0.9897 -0.1430 0.0000
vn 0.9961 -0.0885 0.0000
vn -0.8229 -0.1430 0.5499
vn -0.8282 -0.0885 0.5534
vn 0.5553 0.0332 -0.8310
vn 0.5381 0.2486 -0.8054
vn 0.6849 0.2486 -0.6849
vn 0.7067 0.0332 -0.7067
vn 0.0000 0.0332 0.9994
vn 0.0000 0.2486 0.9686
vn -0.1889 0.2486 0.9500
vn -0.1950 0.0332 0.9802
vn -0.5553 0.0332 -0.8310
vn -0.5381 0.2486 -0.8054
vn -0.3706 0.2486 -0.8949
vn -0.3825 0.0332 -0.9234
vn 0.3825 0.0332 -0.9234
vn 0.3706 0.2486 -0.8949
vn 0.1950 0.0332 0.9802
vn 0.1889 0.2486 0.9500
vn -0.7067 0.0332 -0.7067
vn -0.6849 0.2486 -0.6849
vn 0.1950 0.0332 -0.9802
vn 0.1889 0.2486 -0.9500
vn 0.3825 0.0332 0.9234
vn 0.3706 0.2486 0.8949
vn -0.8310 0.0332 -0.5553
vn -0.8054 0.2486 -0.5381
vn 0.0000 0.0332 -0.9994
vn 0.0000 0.2486 -0.9686
vn 0.5553 0.0332 0.8310
vn 0.5381 0.2486 0.8054
vn -0.9234 0.0332 -0.3825
vn -0.8949 0.2486 -0.3706
vn 0.7067 0.0332 0.7067
vn 0.6849 0.2486 0.6849
vn -0.9802 0.0332 -0.1950
vn -0.9500 0.2486 -0.1889
vn 0.8310 0.0332 0.5553
vn 0.8054 0.2486 0.5381
vn -0.9994 0.0332 0.0000
vn -0.9686 0.2486 0.0000
vn 0.9234 0.0332 0.3825
vn 0.8949 0.2486 0.3706
vn -0.9802 0.0332 0.1950
vn -0.9500 0.2486 0.1889
vn 0.9802 0.0332 0.1950
vn 0.9500 0.2486 0.1889
vn -0.9234 0.0332 0.3825
vn -0.8949 0.2486 0.3706
vn 0.9994 0.0332 0.0000
vn 0.9686 0.2486 0.0000
vn -0.8310 0.0332 0.5553
vn -0.8054 0.2486 0.5381
vn 0.9802 0.0332 -0.1950
vn 0.9500 0.2486 -0.1889
vn -0.7067 0.0332 0.7067
vn -0.6849 0.2486 0.6849
vn 0.9233 0.0332 -0.3825
vn 0.8949 0.2486 -0.3706
vn -0.5553 0.0332 0.8310
vn -0.5381 0.2486 0.8054
vn 0.8310 0.0332 -0.5553
vn 0.8054 0.2486 -0.5381
vn -0.3825 0.0332 0.9234
vn -0.3706 0.2486 0.8949
vn -0.1950 0.0332 -0.9802
vn -0.1889 0.2486 -0.9500
vn 0.1642 -0.5399 0.8255
vn 0.1407 -0.6929 0.7071
vn 0.2759 -0.6929 0.6661
vn 0.3221 -0.5399 0.7776
vn -0.5952 -0.5399 -0.5952
vn -0.5098 -0.6929 -0.5098
vn -0.5995 -0.6929 -0.4006
vn -0.6999 -0.5399 -0.4676
vn 0.1642 -0.5399 -0.8255
vn 0.1407 -0.6929 -0.7071
vn 0.0000 -0.6929 -0.7210
vn 0.0000 -0.5399 -0.8417
vn 0.4006 -0.6929 0.5995
vn 0.4676 -0.5399 0.6999
vn -0.6661 -0.6929 -0.2759
vn -0.7776 -0.5399 -0.3221
vn 0.5098 -0.6929 0.5098
vn 0.5952 -0.5399 0.5952
vn -0.7071 -0.6929 -0.1407
vn -0.8255 -0.5399 -0.1642
vn 0.5995 -0.6929 0.4006
vn 0.6999 -0.5399 0.4676
vn -0.7210 -0.6929 0.0000
vn -0.8417 -0.5399 0.0000
vn 0.6661 -0.6929 0.2759
vn 0.7776 -0.5399 0.3221
vn -0.7071 -0.6929 0.1407
vn -0.8255 -0.5399 0.1642
vn 0.7071 -0.6929 0.1407
vn 0.8255 -0.5399 0.1642
vn -0.6661 -0.6929 0.2759
vn -0.7776 -0.5399 0.3221
vn 0.7210 -0.6929 0.0000
vn 0.8417 -0.5399 0.0000
vn -0.5995 -0.6929 0.4006
vn -0.6999 -0.5399 0.4676
vn 0.7071 -0.6929 -0.1407
vn 0.8255 -0.5399 -0.1642
vn -0.5098 -0.6929 0.5098
vn -0.5952 -0.5399 0.5952
vn 0.6661 -0.6929 -0.2759
vn 0.7776 -0.5399 -0.3221
vn -0.4006 -0.6929 0.5995
vn -0.4676 -0.5399 0.6999
vn 0.5995 -0.6929 -0.4006
vn 0.6999 -0.5399 -0.4676
vn -0.2759 -0.6929 0.6661
vn -0.3221 -0.5399 0.7776
vn -0.1407 -0.6929 -0.7071
vn -0.1642 -0.5399 -0.8255
vn 0.5098 -0.6929 -0.5098
vn 0.5952 -0.5399 -0.5952
vn -0.1407 -0.6929 0.7071
vn -0.1642 -0.5399 0.8255
vn -0.2759 -0.6929 -0.6661
vn -0.3221 -0.5399 -0.7776
vn 0.4006 -0.6929 -0.5995
vn 0.4676 -0.5399 -0.6999
vn 0.0000 -0.6929 0.7210
vn 0.0000 -0.5399 0.8417
vn -0.4006 -0.6929 -0.5995
vn -0.4676 -0.5399 -0.6999
vn 0.2759 -0.6929 -0.6661
vn 0.3221 -0.5399 -0.7776
vn 0.1898 -0.9736 0.1268
vn 0.2109 -0.9736 0.0873
vn -0.2282 -0.9736 0.0000
vn -0.2239 -0.9736 0.0445
vn 0.2239 -0.9736 0.0445
vn -0.2109 -0.9736 0.0873
vn 0.2282 -0.9736 0.0000
vn -0.1898 -0.9736 0.1268
vn 0.2239 -0.9736 -0.0445
vn -0.1614 -0.9736 0.1614
vn 0.2109 -0.9736 -0.0873
vn -0.1268 -0.9736 0.1898
vn 0.1898 -0.9736 -0.1268
vn -0.0873 -0.9736 0.2109
vn 0.0000 -0.9736 -0.2282
vn -0.0445 -0.9736 -0.2239
vn 0.1614 -0.9736 -0.1614
vn -0.0445 -0.9736 0.2239
vn -0.0873 -0.9736 -0.2109
vn 0.1268 -0.9736 -0.1898
vn 0.0000 -0.9736 0.2282
vn -0.1268 -0.9736 -0.1898
vn 0.0873 -0.9736 -0.2109
vn 0.0445 -0.9736 0.2239
vn -0.1614 -0.9736 -0.1614
vn 0.0445 -0.9736 -0.2239
vn 0.0873 -0.9736 0.2109
vn -0.1898 -0.9736 -0.1268
vn 0.1268 -0.9736 0.1898
vn -0.2109 -0.9736 -0.0873
vn 0.1614 -0.9736 0.1614
vn -0.2239 -0.9736 -0.0445
vn -0.1497 -0.9887 0.0000
vn -0.1468 -0.9887 0.0292
vn 0.1245 -0.9887 -0.0832
vn 0.1058 -0.9887 -0.1058
vn -0.1383 -0.9887 0.0573
vn 0.0832 -0.9887 -0.1245
vn -0.1245 -0.9887 0.0832
vn 0.0573 -0.9887 -0.1383
vn 0.0000 -0.9887 0.1497
vn 0.0292 -0.9887 0.1468
vn -0.1058 -0.9887 0.1058
vn 0.0292 -0.9887 -0.1468
vn 0.0573 -0.9887 0.1383
vn -0.0832 -0.9887 0.1245
vn 0.0000 -0.9887 -0.1497
vn 0.0832 -0.9887 0.1245
vn -0.0573 -0.9887 0.1383
vn -0.0292 -0.9887 -0.1468
vn 0.1058 -0.9887 0.1058
vn -0.0292 -0.9887 0.1468
vn -0.0573 -0.9887 -0.1383
vn 0.1245 -0.9887 0.0832
vn -0.0832 -0.9887 -0.1245
vn 0.1383 -0.9887 0.0573
vn -0.1058 -0.9887 -0.1058
vn 0.1468 -0.9887 0.0292
vn -0.1245 -0.9887 -0.0832
vn 0.1497 -0.9887 0.0000
vn -0.1383 -0.9887 -0.0573
vn 0.1468 -0.9887 -0.0292
vn -0.1468 -0.9887 -0.0292
vn 0.1383 -0.9887 -0.0573
vn 0.1773 -0.4171 -0.8914
vn 0.1849 -0.3194 -0.9294
vn 0.3626 -0.3194 -0.8755
vn 0.3478 -0.4171 -0.8397
vn -0.6427 -0.4171 -0.6427
vn -0.6701 -0.3194 -0.6701
vn -0.5264 -0.3194 -0.7879
vn -0.5049 -0.4171 -0.7557
vn 0.1773 -0.4171 0.8914
vn 0.1849 -0.3194 0.9294
vn 0.0000 -0.3194 0.9476
vn 0.0000 -0.4171 0.9088
vn 0.5264 -0.3194 -0.7879
vn 0.5049 -0.4171 -0.7557
vn -0.3626 -0.3194 -0.8755
vn -0.3478 -0.4171 -0.8397
vn -0.1849 -0.3194 0.9294
vn -0.1773 -0.4171 0.8914
vn 0.6701 -0.3194 -0.6701
vn 0.6427 -0.4171 -0.6427
vn -0.1849 -0.3194 -0.9294
vn -0.1773 -0.4171 -0.8914
vn -0.3626 -0.3194 0.8755
vn -0.3478 -0.4171 0.8397
vn 0.7879 -0.3194 -0.5264
vn 0.7557 -0.4171 -0.5049
vn 0.0000 -0.3194 -0.9476
vn 0.0000 -0.4171 -0.9088
vn -0.5264 -0.3194 0.7879
vn -0.5049 -0.4171 0.7557
vn 0.8755 -0.3194 -0.3626
vn 0.8397 -0.4171 -0.3478
vn -0.6701 -0.3194 0.6701
vn -0.6427 -0.4171 0.6427
vn 0.9294 -0.3194 -0.1849
vn 0.8914 -0.4171 -0.1773
vn -0.7879 -0.3194 0.5264
vn -0.7557 -0.4171 0.5049
vn 0.9476 -0.3194 0.0000
vn 0.9088 -0.4171 0.0000
vn -0.8755 -0.3194 0.3626
vn -0.8397 -0.4171 0.3478
vn 0.9294 -0.3194 0.1849
vn 0.8914 -0.4171 0.1773
vn -0.9294 -0.3194 0.1849
vn -0.8914 -0.4171 0.1773
vn 0.8755 -0.3194 0.3626
vn 0.8397 -0.4171 0.3478
vn -0.9476 -0.3194 0.0000
vn -0.9088 -0.4171 0.0000
vn 0.7879 -0.3194 0.5264
vn 0.7557 -0.4171 0.5049
vn -0.9294 -0.3194 -0.1849
vn -0.8914 -0.4171 -0.1773
vn 0.6701 -0.3194 0.6701
vn 0.6427 -0.4171 0.6427
vn -0.8755 -0.3194 -0.3626
vn -0.8397 -0.4171 -0.3478
vn 0.5264 -0.3194 0.7879
vn 0.5049 -0.4171 0.7557
vn -0.7879 -0.3194 -0.5264
vn -0.7557 -0.4171 -0.5049
vn 0.3626 -0.3194 0.8755
vn 0.3478 -0.4171 0.8397
vn 0.0000 0.6286 -0.7777
vn 0.1517 0.6286 -0.7627
vn 0.4321 0.6286 0.6466
vn 0.2976 0.6286 0.7185
vn -0.7185 0.6286 -0.2976
vn -0.6466 0.6286 -0.4321
vn 0.5499 0.6286 0.5499
vn -0.7627 0.6286 -0.1517
vn 0.6466 0.6286 0.4321
vn -0.7777 0.6286 0.0000
vn 0.7185 0.6286 0.2976
vn -0.7627 0.6286 0.1517
vn 0.7627 0.6286 0.1517
vn -0.7185 0.6286 0.2976
vn 0.7777 0.6286 0.0000
vn -0.6466 0.6286 0.4321
vn 0.7627 0.6286 -0.1517
vn -0.5499 0.6286 0.5499
vn 0.7185 0.6286 -0.2976
vn -0.4321 0.6286 0.6466
vn 0.6466 0.6286 -0.4321
vn -0.2976 0.6286 0.7185
vn -0.1517 0.6286 -0.7627
vn 0.5499 0.6286 -0.5499
vn -0.1517 0.6286 0.7627
vn -0.2976 0.6286 -0.7185
vn 0.4321 0.6286 -0.6466
vn 0.0000 0.6286 0.7777
vn -0.4321 0.6286 -0.6466
vn 0.2976 0.6286 -0.7185
vn 0.1517 0.6286 0.7627
vn -0.5499 0.6286 -0.5499
vn -0.1618 0.9845 0.0670
vn -0.1718 0.9845 0.0342
vn 0.1752 0.9845 0.0000
vn 0.1718 0.9845 0.0342
vn -0.1457 0.9845 0.0973
vn 0.1718 0.9845 -0.0342
vn -0.1239 0.9845 0.1239
vn 0.1618 0.9845 -0.0670
vn -0.0973 0.9845 0.1457
vn 0.1457 0.9845 -0.0973
vn -0.0670 0.9845 0.1618
vn -0.0342 0.9845 -0.1718
vn 0.0000 0.9845 -0.1752
vn 0.1239 0.9845 -0.1239
vn -0.0342 0.9845 0.1718
vn -0.0670 0.9845 -0.1618
vn 0.0973 0.9845 -0.1457
vn 0.0000 0.9845 0.1752
vn -0.0973 0.9845 -0.1457
vn 0.0670 0.9845 -0.1618
vn 0.0342 0.9845 0.1718
vn -0.1239 0.9845 -0.1239
vn 0.0342 0.9845 -0.1718
vn 0.0670 0.9845 0.1618
vn -0.1457 0.9845 -0.0973
vn 0.0973 0.9845 0.1457
vn -0.1618 0.9845 -0.0670
vn 0.1239 0.9845 0.1239
vn -0.1718 0.9845 -0.0342
vn 0.1457 0.9845 0.0973
vn -0.1752 0.9845 0.0000
vn 0.1618 0.9845 0.0670
vn 0.3775 0.7337 -0.5649
vn 0.4804 0.7337 -0.4804
vn -0.5649 0.7337 0.3775
vn -0.6277 0.7337 0.2600
vn 0.2600 0.7337 -0.6277
vn 0.1325 0.7337 0.6663
vn 0.0000 0.7337 0.6794
vn -0.4804 0.7337 0.4804
vn 0.1325 0.7337 -0.6663
vn 0.2600 0.7337 0.6277
vn -0.3775 0.7337 0.5649
vn 0.0000 0.7337 -0.6794
vn 0.3775 0.7337 0.5649
vn -0.2600 0.7337 0.6277
vn -0.1325 0.7337 -0.6663
vn 0.4804 0.7337 0.4804
vn -0.1325 0.7337 0.6664
vn -0.2600 0.7337 -0.6277
vn 0.5649 0.7337 0.3775
vn -0.3775 0.7337 -0.5649
vn 0.6277 0.7337 0.2600
vn -0.4804 0.7337 -0.4804
vn 0.6663 0.7337 0.1325
vn -0.5649 0.7337 -0.3775
vn 0.6794 0.7337 0.0000
vn -0.6277 0.7337 -0.2600
vn 0.6663 0.7337 -0.1325
vn -0.6663 0.7337 -0.1325
vn 0.6277 0.7337 -0.2600
vn -0.6794 0.7337 0.0000
vn 0.5649 0.7337 -0.3775
vn -0.6663 0.7337 0.1325
vn 0.0000 0.1423 -0.9898
vn 0.1931 0.1423 -0.9708
vn 0.5499 0.1423 0.8230
vn 0.3788 0.1423 0.9145
vn -0.3788 0.1423 0.9145
vn -0.5499 0.1423 0.8230
vn -0.1931 0.1423 -0.9708
vn 0.6999 0.1423 0.6999
vn -0.1931 0.1423 0.9708
vn -0.3788 0.1423 -0.9145
vn 0.8230 0.1423 0.5499
vn 0.0000 0.1423 0.9898
vn -0.5499 0.1423 -0.8230
vn 0.9145 0.1423 0.3788
vn -0.6999 0.1423 -0.6999
vn 0.9708 0.1423 0.1931
vn -0.8230 0.1423 -0.5499
vn 0.9898 0.1423 0.0000
vn -0.9145 0.1423 -0.3788
vn 0.9708 0.1423 -0.1931
vn -0.9708 0.1423 -0.1931
vn 0.9145 0.1423 -0.3788
vn -0.9898 0.1423 0.0000
vn 0.8230 0.1423 -0.5499
vn -0.9708 0.1423 0.1931
vn 0.6999 0.1423 -0.6999
vn -0.9145 0.1423 0.3788
vn 0.5499 0.1423 -0.8230
vn -0.8230 0.1423 0.5499
vn 0.3788 0.1423 -0.9145
vn 0.1931 0.1423 0.9708
vn -0.6999 0.1423 0.6999
vn -0.5546 0.0580 -0.8300
vn -0.3820 0.0580 -0.9223
vn 0.9223 0.0580 0.3820
vn 0.8300 0.0580 0.5546
vn -0.7059 0.0580 -0.7059
vn 0.9791 0.0580 0.1947
vn -0.8300 0.0580 -0.5546
vn 0.9983 0.0580 0.0000
vn -0.9223 0.0580 -0.3820
vn 0.9791 0.0580 -0.1947
vn -0.9791 0.0580 -0.1947
vn 0.9223 0.0580 -0.3820
vn -0.9983 0.0580 0.0000
vn 0.8300 0.0580 -0.5546
vn -0.9791 0.0580 0.1947
vn 0.7059 0.0580 -0.7059
vn -0.9223 0.0580 0.3820
vn 0.5546 0.0580 -0.8300
vn -0.8300 0.0580 0.5546
vn 0.3820 0.0580 -0.9223
vn 0.1947 0.0580 0.9791
vn 0.0000 0.0580 0.9983
vn -0.7059 0.0580 0.7059
vn 0.1947 0.0580 -0.9791
vn 0.3820 0.0580 0.9223
vn -0.5546 0.0580 0.8300
vn 0.0000 0.0580 -0.9983
vn 0.5546 0.0580 0.8300
vn -0.3820 0.0580 0.9223
vn -0.1947 0.0580 -0.9791
vn 0.7059 0.0580 0.7059
vn -0.1947 0.0580 0.9791
vn -0.9116 0.1621 -0.3776
vn -0.8205 0.1621 -0.5482
vn 0.9678 0.1621 -0.1925
vn 0.9868 0.1621 0.0000
vn -0.9678 0.1621 -0.1925
vn 0.9116 0.1621 -0.3776
vn -0.9868 0.1621 0.0000
vn 0.8205 0.1621 -0.5482
vn -0.9678 0.1621 0.1925
vn 0.6977 0.1621 -0.6977
vn -0.9116 0.1621 0.3776
vn 0.5482 0.1621 -0.8205
vn -0.8205 0.1621 0.5482
vn 0.3776 0.1621 -0.9116
vn 0.1925 0.1621 0.9678
vn 0.0000 0.1621 0.9868
vn -0.6977 0.1621 0.6977
vn 0.1925 0.1621 -0.9678
vn 0.3776 0.1621 0.9116
vn -0.5482 0.1621 0.8205
vn 0.0000 0.1621 -0.9868
vn 0.5482 0.1621 0.8205
vn -0.3776 0.1621 0.9116
vn -0.1925 0.1621 -0.9678
vn 0.6977 0.1621 0.6977
vn -0.1925 0.1621 0.9678
vn -0.3776 0.1621 -0.9116
vn 0.8205 0.1621 0.5482
vn -0.5482 0.1621 -0.8205
vn 0.9116 0.1621 0.3776
vn -0.6977 0.1621 -0.6977
vn 0.9678 0.1621 0.1925
vn -0.9497 0.2495 0.1889
vn -0.9684 0.2495 0.0000
vn 0.6847 0.2495 -0.6847
vn 0.8051 0.2495 -0.5380
vn -0.8946 0.2495 0.3706
vn 0.5380 0.2495 -0.8051
vn -0.8051 0.2495 0.5380
vn 0.3706 0.2495 -0.8946
vn 0.1889 0.2495 0.9497
vn 0.0000 0.2495 0.9684
vn -0.6847 0.2495 0.6847
vn 0.1889 0.2495 -0.9497
vn 0.3706 0.2495 0.8946
vn -0.5380 0.2495 0.8051
vn 0.0000 0.2495 -0.9684
vn 0.5380 0.2495 0.8051
vn -0.3706 0.2495 0.8946
vn -0.1889 0.2495 -0.9497
vn 0.6847 0.2495 0.6847
vn -0.1889 0.2495 0.9497
vn -0.3706 0.2495 -0.8946
vn 0.8051 0.2495 0.5380
vn -0.5380 0.2495 -0.8051
vn 0.8946 0.2495 0.3706
vn -0.6847 0.2495 -0.6847
vn 0.9497 0.2495 0.1889
vn -0.8051 0.2495 -0.5380
vn 0.9684 0.2495 0.0000
vn -0.8946 0.2495 -0.3706
vn 0.9497 0.2495 -0.1889
vn -0.9497 0.2495 -0.1889
vn 0.8946 0.2495 -0.3706
vn 0.1707 0.4839 0.8583
vn 0.0000 0.4839 0.8751
vn -0.6188 0.4839 0.6188
vn -0.7276 0.4839 0.4862
vn 0.1707 0.4839 -0.8583
vn 0.3349 0.4839 -0.8085
vn 0.3349 0.4839 0.8085
vn -0.4862 0.4839 0.7276
vn 0.0000 0.4839 -0.8751
vn 0.4862 0.4839 0.7276
vn -0.3349 0.4839 0.8085
vn -0.1707 0.4839 -0.8583
vn 0.6188 0.4839 0.6188
vn -0.1707 0.4839 0.8583
vn -0.3349 0.4839 -0.8085
vn 0.7276 0.4839 0.4862
vn -0.4862 0.4839 -0.7276
vn 0.8085 0.4839 0.3349
vn -0.6188 0.4839 -0.6188
vn 0.8583 0.4839 0.1707
vn -0.7276 0.4839 -0.4862
vn 0.8751 0.4839 0.0000
vn -0.8085 0.4839 -0.3349
vn 0.8583 0.4839 -0.1707
vn -0.8583 0.4839 -0.1707
vn 0.8085 0.4839 -0.3349
vn -0.8751 0.4839 0.0000
vn 0.7276 0.4839 -0.4862
vn -0.8583 0.4839 0.1707
vn 0.6188 0.4839 -0.6188
vn -0.8085 0.4839 0.3349
vn 0.4862 0.4839 -0.7276
vn 0.3827 0.8408 0.3827
vn 0.3007 0.8408 0.4501
vn -0.1056 0.8408 0.5309
vn -0.2071 0.8408 0.5001
vn -0.2071 0.8408 -0.5001
vn -0.1056 0.8408 -0.5309
vn 0.4501 0.8408 0.3007
vn 0.0000 0.8408 0.5413
vn -0.3007 0.8408 -0.4501
vn 0.5001 0.8408 0.2071
vn -0.3827 0.8408 -0.3827
vn 0.5309 0.8408 0.1056
vn -0.4501 0.8408 -0.3007
vn 0.5413 0.8408 0.0000
vn -0.5001 0.8408 -0.2071
vn 0.5309 0.8408 -0.1056
vn -0.5309 0.8408 -0.1056
vn 0.5001 0.8408 -0.2071
vn -0.5413 0.8408 0.0000
vn 0.4501 0.8408 -0.3007
vn -0.5309 0.8408 0.1056
vn 0.3827 0.8408 -0.3827
vn -0.5001 0.8408 0.2071
vn 0.3007 0.8408 -0.4501
vn -0.4501 0.8408 0.3007
vn 0.2071 0.8408 -0.5001
vn 0.1056 0.8408 0.5309
vn -0.3827 0.8408 0.3827
vn 0.1056 0.8408 -0.5309
vn 0.2071 0.8408 0.5001
vn -0.3007 0.8408 0.4501
vn 0.0000 0.8408 -0.5413
vn 0.1332 0.9907 0.0265
vn 0.1254 0.9907 0.0519
vn -0.1129 0.9907 -0.0754
vn -0.0960 0.9907 -0.0960
vn 0.1357 0.9907 0.0000
vn -0.1254 0.9907 -0.0519
vn 0.1332 0.9907 -0.0265
vn -0.1332 0.9907 -0.0265
vn 0.1254 0.9907 -0.0519
vn -0.1357 0.9907 0.0000
vn 0.1129 0.9907 -0.0754
vn -0.1332 0.9907 0.0265
vn 0.0960 0.9907 -0.0960
vn -0.1254 0.9907 0.0519
vn 0.0754 0.9907 -0.1129
vn -0.1129 0.9907 0.0754
vn 0.0519 0.9907 -0.1254
vn 0.0265 0.9907 0.1332
vn 0.0000 0.9907 0.1357
vn -0.0960 0.9907 0.0960
vn 0.0265 0.9907 -0.1332
vn 0.0519 0.9907 0.1254
vn -0.0754 0.9907 0.1129
vn 0.0000 0.9907 -0.1357
vn 0.0754 0.9907 0.1129
vn -0.0519 0.9907 0.1254
vn -0.0265 0.9907 -0.1332
vn 0.0960 0.9907 0.0960
vn -0.0265 0.9907 0.1332
vn -0.0519 0.9907 -0.1254
vn 0.1129 0.9907 0.0754
vn -0.0754 0.9907 -0.1129
usemtl ceramic
s 1
f 1//1 13//2 14//3 2//4
f 2//4 14//3 15//5 3//6
f 3//6 15//5 16//7 4//8
f 4//8 16//7 17//9 5//10
f 5//10 17//9 18//11 6//12
f 6//12 18//11 19//13 7//14
f 7//14 19//13 20//15 8//16
f 8//16 20//15 21//17 9//18
f 9//18 21//17 22//19 10//20
f 10//20 22//19 23//21 11//22
f 11//22 23//21 24//23 12//24
f 1//1 12//24 24//23 13//2
f 13//2 25//25 26//26 14//3
f 14//3 26//26 27//27 15//5
f 15//5 27//27 28//28 16//7
f 16//7 28//28 29//29 17//9
f 17//9 29//29 30//30 18//11
f 18//11 30//30 31//31 19//13
f 19//13 31//31 32//32 20//15
f 20//15 32//32 33//33 21//17
f 21//17 33//33 34//34 22//19
f 22//19 34//34 35//35 23//21
f 23//21 35//35 36//36 24//23
f 24//23 36//36 25//25 13//2
f 25//25 37//37 38//38 26//26
f 26//26 38//38 39//39 27//27
f 27//27 39//39 40//40 28//28
f 28//28 40//40 41//41 29//29
f 29//29 41//41 42//42 30//30
f 30//30 42//42 43//43 31//31
f 31//31 43//43 44//44 32//32
f 32//32 44//44 45//45 33//33
f 33//33 45//45 46//46 34//34
f 34//34 46//46 47//47 35//35
f 35//35 47//47 48//48 36//36
f 36//36 48//48 37//37 25//25
f 37//37 49//49 50//50 38//38
f 38//38 50//50 51//51 39//39
f 39//39 51//51 52//52 40//40
f 40//40 52//52 53//53 41//41
f 41//41 53//53 54//54 42//42
f 42//42 54//54 55//55 43//43
f 43//43 55//55 56//56 44//44
f 44//44 56//56 57//57 45//45
f 45//45 57//57 58//58 46//46
f 46//46 58//58 59//59 47//47
f 47//47 59//59 60//60 48//48
f 48//48 60//60 49//49 37//37
f 49//49 61//61 62//62 50//50
f 50//50 62//62 63//63 51//51
f 51//51 63//63 64//64 52//52
f 52//52 64//64 65//65 53//53
f 53//53 65//65 66//66 54//54
f 54//54 66//66 67//67 55//55
f 55//55 67//67 68//68 56//56
f 56//56 68//68 69//69 57//57
f 57//57 69//69 70//70 58//58
f 58//58 70//70 71//71 59//59
f 59//59 71//71 72//72 60//60
f 60//60 72//72 61//61 49//49
f 61//61 73//73 74//74 62//62
f 62//62 74//74 75//75 63//63
f 63//63 75//75 76//76 64//64
f 64//64 76//76 77//77 65//65
f 65//65 77//77 78//78 66//66
f 66//66 78//78 79//79 67//67
f 67//67 79//79 80//80 68//68
f 68//68 80//80 81//81 69//69
f 69//69 81//81 82//82 70//70
f 70//70 82//82 83//83 71//71
f 71//71 83//83 84//84 72//72
f 72//72 84//84 73//73 61//61
f 73//73 85//85 86//86 74//74
f 74//74 86//86 87//87 75//75
f 75//75 87//87 88//88 76//76
f 76//76 88//88 89//89 77//77
f 77//77 89//89 90//90 78//78
f 78//78 90//90 91//91 79//79
f 79//79 91//91 92//92 80//80
f 80//80 92//92 93//93 81//81
f 81//81 93//93 94//94 82//82
f 82//82 94//94 95//95 83//83
f 83//83 95//95 96//96 84//84
f 84//84 96//96 85//85 73//73
f 85//85 97//97 98//98 86//86
f 86//86 98//98 99//99 87//87
f 87//87 99//99 100//100 88//88
f 88//88 100//100 101//101 89//89
f 89//89 101//101 102//102 90//90
f 90//90 102//102 103//103 91//91
f 91//91 103//103 104//104 92//92
f 92//92 104//104 105//105 93//93
f 93//93 105//105 106//106 94//94
f 94//94 106//106 107//107 95//95
f 95//95 107//107 108//108 96//96
f 96//96 108//108 97//97 85//85
f 97//97 109//109 110//110 98//98
f 98//98 110//110 111//111 99//99
f 99//99 111//111 112//112 100//100
f 100//100 112//112 113//113 101//101
f 101//101 113//113 114//114 102//102
f 102//102 114//114 115//115 103//103
f 103//103 115//115 116//116 104//104
f 104//104 116//116 117//117 105//105
f 105//105 117//117 118//118 106//106
f 106//106 118//118 119//119 107//107
f 107//107 119//119 120//120 108//108
f 108//108 120//120 109//109 97//97
f 109//109 121//121 122//122 110//110
f 110//110 122//122 123//123 111//111
f 111//111 123//123 124//124 112//112
f 112//112 124//124 125//125 113//113
f 113//113 125//125 126//126 114//114
f 114//114 126//126 127//127 115//115
f 115//115 127//127 128//128 116//116
f 116//116 128//128 129//129 117//117
f 117//117 129//129 130//130 118//118
f 118//118 130//130 131//131 119//119
f 119//119 131//131 132//132 120//120
f 120//120 132//132 121//121 109//109
f 121//121 133//133 134//134 122//122
f 122//122 134//134 135//135 123//123
f 123//123 135//135 136//136 124//124
f 124//124 136//136 137//137 125//125
f 125//125 137//137 138//138 126//126
f 126//126 138//138 139//139 127//127
f 127//127 139//139 140//140 128//128
f 128//128 140//140 141//141 129//129
f 129//129 141//141 142//142 130//130
f 130//130 142//142 143//143 131//131
f 131//131 143//143 144//144 132//132
f 132//132 144//144 133//133 121//121
f 133//133 145//145 146//146 134//134
f 134//134 146//146 147//147 135//135
f 135//135 147//147 148//148 136//136
f 136//136 148//148 149//149 137//137
f 137//137 149//149 150//150 138//138
f 138//138 150//150 151//151 139//139
f 139//139 151//151 152//152 140//140
f 140//140 152//152 153//153 141//141
f 141//141 153//153 154//154 142//142
f 142//142 154//154 155//155 143//143
f 143//143 155//155 156//156 144//144
f 144//144 156//156 145//145 133//133
f 145//145 157//157 158//158 146//146
f 146//146 158//158 159//159 147//147
f 147//147 159//159 160//160 148//148
f 148//148 160//160 161//161 149//149
f 149//149 161//161 162//162 150//150
f 150//150 162//162 163//163 151//151
f 151//151 163//163 164//164 152//152
f 152//152 164//164 165//165 153//153
f 153//153 165//165 166//166 154//154
f 154//154 166//166 167//167 155//155
f 155//155 167//167 168//168 156//156
f 156//156 168//168 157//157 145//145
f 157//157 169//169 170//170 158//158
f 158//158 170//170 171//171 159//159
f 159//159 171//171 172//172 160//160
f 160//160 172//172 173//173 161//161
f 161//161 173//173 174//174 162//162
f 162//162 174//174 175//175 163//163
f 163//163 175//175 176//176 164//164
f 164//164 176//176 177//177 165//165
f 165//165 177//177 178//178 166//166
f 166//166 178//178 179//179 167//167
f 167//167 179//179 180//180 168//168
f 168//168 180//180 169//169 157//157
f 181//181 193//182 194//183 182//184
f 182//184 194//183 195//185 183//186
f 183//186 195//185 196//187 184//188
f 184//188 196//187 197//189 185//190
f 185//190 197//189 198//191 186//192
f 186//192 198//191 199//193 187//194
f 187//194 199//193 200//195 188//196
f 188//196 200//195 201//197 189//198
f 189//198 201//197 202//199 190//200
f 190//200 202//199 203//201 191//202
f 191//202 203//201 204//203 192//204
f 192//204 204//203 193//182 181//181
f 193//182 205//205 206//206 194//183
f 194//183 206//206 207//207 195//185
f 195//185 207//207 208//208 196//187
f 196//187 208//208 209//209 197//189
f 197//189 209//209 210//210 198//191
f 198//191 210//210 211//211 199//193
f 199//193 211//211 212//212 200//195
f 200//195 212//212 213//213 201//197
f 201//197 213//213 214//214 202//199
f 202//199 214//214 215//215 203//201
f 203//201 215//215 216//216 204//203
f 204//203 216//216 205//205 193//182
f 205//205 217//217 218//218 206//206
f 206//206 218//218 219//219 207//207
f 207//207 219//219 220//220 208//208
f 208//208 220//220 221//221 209//209
f 209//209 221//221 222//222 210//210
f 210//210 222//222 223//223 211//211
f 211//211 223//223 224//224 212//212
f 212//212 224//224 225//225 213//213
f 213//213 225//225 226//226 214//214
f 214//214 226//226 227//227 215//215
f 215//215 227//227 228//228 216//216
f 216//216 228//228 217//217 205//205
f 217//217 229//229 230//230 218//218
f 218//218 230//230 231//231 219//219
f 219//219 231//231 232//232 220//220
f 220//220 232//232 233//233 221//221
f 221//221 233//233 234//234 222//222
f 222//222 234//234 235//235 223//223
f 223//223 235//235 236//236 224//224
f 224//224 236//236 237//237 225//225
f 225//225 237//237 238//238 226//226
f 226//226 238//238 239//239 227//227
f 227//227 239//239 240//240 228//228
f 228//228 240//240 229//229 217//217
f 229//229 241//241 242//242 230//230
f 230//230 242//242 243//243 231//231
f 231//231 243//243 244//244 232//232
f 232//232 244//244 245//245 233//233
f 233//233 245//245 246//246 234//234
f 234//234 246//246 247//247 235//235
f 235//235 247//247 248//248 236//236
f 236//236 248//248 249//249 237//237
f 237//237 249//249 250//250 238//238
f 238//238 250//250 251//251 239//239
f 239//239 251//251 252//252 240//240
f 240//240 252//252 241//241 229//229
f 241//241 253//253 254//254 242//242
f 242//242 254//254 255//255 243//243
f 243//243 255//255 256//256 244//244
f 244//244 256//256 257//257 245//245
f 245//245 257//257 258//258 246//246
f 246//246 258//258 259//259 247//247
f 247//247 259//259 260//260 248//248
f 248//248 260//260 261//261 249//249
f 249//249 261//261 262//262 250//250
f 250//250 262//262 263//263 251//251
f 251//251 263//263 264//264 252//252
f 252//252 264//264 253//253 241//241
f 253//253 265//265 266//266 254//254
f 254//254 266//266 267//267 255//255
f 255//255 267//267 268//268 256//256
f 256//256 268//268 269//269 257//257
f 257//257 269//269 270//270 258//258
f 258//258 270//270 271//271 259//259
f 259//259 271//271 272//272 260//260
f 260//260 272//272 273//273 261//261
f 261//261 273//273 274//274 262//262
f 262//262 274//274 275//275 263//263
f 263//263 275//275 276//276 264//264
f 264//264 276//276 265//265 253//253
f 265//265 277//277 278//278 266//266
f 266//266 278//278 279//279 267//267
f 267//267 279//279 280//280 268//268
f 268//268 280//280 281//281 269//269
f 269//269 281//281 282//282 270//270
f 270//270 282//282 283//283 271//271
f 271//271 283//283 284//284 272//272
f 272//272 284//284 285//285 273//273
f 273//273 285//285 286//286 274//274
f 274//274 286//286 287//287 275//275
f 275//275 287//287 288//288 276//276
f 276//276 288//288 277//277 265//265
f 277//277 1//1 2//4 278//278
f 278//278 2//4 3//6 279//279
f 279//279 3//6 4//8 280//280
f 280//280 4//8 5//10 281//281
f 281//281 5//10 6//12 282//282
f 282//282 6//12 7//14 283//283
f 283//283 7//14 8//16 284//284
f 284//284 8//16 9//18 285//285
f 285//285 9//18 10//20 286//286
f 286//286 10//20 11//22 287//287
f 287//287 11//22 12//24 288//288
f 288//288 12//24 1//1 277//277
f 964//289 339//290 338//291 961//292
f 965//293 326//294 325//295 962//296
f 966//297 321//298 352//299 963//300
f 967//301 340//302 339//290 964//289
f 968//303 327//304 326//294 965//293
f 969//305 341//306 340//302 967//301
f 970//307 328//308 327//304 968//303
f 971//309 342//310 341//306 969//305
f 972//311 329//312 328//308 970//307
f 973//313 343//314 342//310 971//309
f 974//315 330//316 329//312 972//311
f 975//317 344//318 343//314 973//313
f 976//319 331//320 330//316 974//315
f 977//321 345//322 344//318 975//317
f 978//323 332//324 331//320 976//319
f 979//325 346//326 345//322 977//321
f 980//327 333//328 332//324 978//323
f 981//329 347//330 346//326 979//325
f 982//331 334//332 333//328 980//327
f 983//333 348//334 347//330 981//329
f 984//335 335//336 334//332 982//331
f 985//337 322//338 321//298 966//297
f 986//339 349//340 348//334 983//333
f 987//341 336//342 335//336 984//335
f 988//343 323//344 322//338 985//337
f 989//345 350//346 349//340 986//339
f 990//347 337//348 336//342 987//341
f 991//349 324//350 323//344 988//343
f 992//351 351//352 350//346 989//345
f 961//292 338//291 337//348 990//347
f 962//296 325//295 324//350 991//349
f 963//300 352//299 351//352 992//351
f 930//353 379//354 378//355 929//356
f 932//357 366//358 365//359 931//360
f 933//361 380//362 379//354 930//353
f 934//363 367//364 366//358 932//357
f 936//365 354//366 353//367 935//368
f 937//369 381//370 380//362 933//361
f 938//371 368//372 367//364 934//363
f 939//373 355//374 354//366 936//365
f 940//375 382//376 381//370 937//369
f 941//377 369//378 368//372 938//371
f 942//379 356//380 355//374 939//373
f 943//381 383//382 382//376 940//375
f 944//383 370//384 369//378 941//377
f 945//385 357//386 356//380 942//379
f 946//387 384//388 383//382 943//381
f 947//389 371//390 370//384 944//383
f 948//391 358//392 357//386 945//385
f 935//368 353//367 384//388 946//387
f 949//393 372//394 371//390 947//389
f 950//395 359//396 358//392 948//391
f 951//397 373//398 372//394 949//393
f 952//399 360//400 359//396 950//395
f 953//401 374//402 373//398 951//397
f 954//403 361//404 360//400 952//399
f 955//405 375//406 374//402 953//401
f 956//407 362//408 361//404 954//403
f 957//409 376//410 375//406 955//405
f 958//411 363//412 362//408 956//407
f 959//413 377//414 376//410 957//409
f 960//415 364//416 363//412 958//411
f 929//356 378//355 377//414 959//413
f 931//360 365//359 364//416 960//415
f 898//417 414//418 413//419 897//420
f 900//421 401//422 400//423 899//424
f 902//425 388//426 387//427 901//428
f 903//429 415//430 414//418 898//417
f 904//431 402//432 401//422 900//421
f 905//433 389//434 388//426 902//425
f 906//435 416//436 415//430 903//429
f 907//437 403//438 402//432 904//431
f 908//439 390//440 389//434 905//433
f 909//441 385//442 416//436 906//435
f 910//443 404//444 403//438 907//437
f 911//445 391//446 390//440 908//439
f 912//447 405//448 404//444 910//443
f 913//449 392//450 391//446 911//445
f 914//451 406//452 405//448 912//447
f 915//453 393//454 392//450 913//449
f 916//455 407//456 406//452 914//451
f 917//457 394//458 393//454 915//453
f 918//459 408//460 407//456 916//455
f 919//461 395//462 394//458 917//457
f 920//463 409//464 408//460 918//459
f 921//465 396//466 395//462 919//461
f 922//467 410//468 409//464 920//463
f 923//469 397//470 396//466 921//465
f 924//471 411//472 410//468 922//467
f 925//473 398//474 397//470 923//469
f 926//475 412//476 411//472 924//471
f 927//477 399//478 398//474 925//473
f 928//479 386//480 385//442 909//441
f 897//420 413//419 412//476 926//475
f 899//424 400//423 399//478 927//477
f 901//428 387//427 386//480 928//479
f 306//481 434//482 435//483 307//484
f 293//485 421//486 422//487 294//488
f 320//489 448//490 417//491 289//492
f 307//484 435//483 436//493 308//494
f 294//488 422//487 423//495 295//496
f 308//494 436//493 437//497 309//498
f 295//496 423//495 424//499 296//500
f 309//498 437//497 438//501 310//502
f 296//500 424//499 425//503 297//504
f 310//502 438//501 439//505 311//506
f 297//504 425//503 426//507 298//508
f 311//506 439//505 440//509 312//510
f 298//508 426//507 427//511 299//512
f 312//510 440//509 441//513 313//514
f 299//512 427//511 428//515 300//516
f 313//514 441//513 442//517 314//518
f 300//516 428//515 429//519 301//520
f 314//518 442//517 443//521 315//522
f 301//520 429//519 430//523 302//524
f 315//522 443//521 444//525 316//526
f 302//524 430//523 431//527 303//528
f 289//492 417//491 418//529 290//530
f 316//526 444//525 445//531 317//532
f 303//528 431//527 432//533 304//534
f 290//530 418//529 419//535 291//536
f 317//532 445//531 446//537 318//538
f 304//534 432//533 433//539 305//540
f 291//536 419//535 420//541 292//542
f 318//538 446//537 447//543 319//544
f 305//540 433//539 434//482 306//481
f 292//542 420//541 421//486 293//485
f 319//544 447//543 448//490 320//489
f 438//501 470//545 471//546 439//505
f 425//503 457//547 458//548 426//507
f 439//505 471//546 472//549 440//509
f 426//507 458//548 459//550 427//511
f 440//509 472//549 473//551 441//513
f 427//511 459//550 460//552 428//515
f 441//513 473//551 474//553 442//517
f 428//515 460//552 461//554 429//519
f 442//517 474//553 475//555 443//521
f 429//519 461//554 462//556 430//523
f 443//521 475//555 476//557 444//525
f 430//523 462//556 463//558 431//527
f 417//491 449//559 450//560 418//529
f 444//525 476//557 477//561 445//531
f 431//527 463//558 464//562 432//533
f 418//529 450//560 451//563 419//535
f 445//531 477//561 478//564 446//537
f 432//533 464//562 465//565 433//539
f 419//535 451//563 452//566 420//541
f 446//537 478//564 479//567 447//543
f 433//539 465//565 466//568 434//482
f 420//541 452//566 453//569 421//486
f 447//543 479//567 480//570 448//490
f 434//482 466//568 467//571 435//483
f 421//486 453//569 454//572 422//487
f 448//490 480//570 449//559 417//491
f 435//483 467//571 468//573 436//493
f 422//487 454//572 455//574 423//495
f 436//493 468//573 469//575 437//497
f 423//495 455//574 456//576 424//499
f 437//497 469//575 470//545 438//501
f 424//499 456//576 457//547 425//503
f 473//551 505//577 506//578 474//553
f 460//552 492//579 493//580 461//554
f 474//553 506//578 507//581 475//555
f 461//554 493//580 494//582 462//556
f 475//555 507//581 508//583 476//557
f 462//556 494//582 495//584 463//558
f 449//559 481//585 482//586 450//560
f 476//557 508//583 509//587 477//561
f 463//558 495//584 496//588 464//562
f 450//560 482//586 483//589 451//563
f 477//561 509//587 510//590 478//564
f 464//562 496//588 497//591 465//565
f 451//563 483//589 484//592 452//566
f 478//564 510//590 511//593 479//567
f 465//565 497//591 498//594 466//568
f 452//566 484//592 485//595 453//569
f 479//567 511//593 512//596 480//570
f 466//568 498//594 499//597 467//571
f 453//569 485//595 486//598 454//572
f 480//570 512//596 481//585 449//559
f 467//571 499//597 500//599 468//573
f 454//572 486//598 487//600 455//574
f 468//573 500//599 501//601 469//575
f 455//574 487//600 488//602 456//576
f 469//575 501//601 502//603 470//545
f 456//576 488//602 489//604 457//547
f 470//545 502//603 503//605 471//546
f 457//547 489//604 490//606 458//548
f 471//546 503//605 504//607 472//549
f 458//548 490//606 491//608 459//550
f 472//549 504//607 505//577 473//551
f 459//550 491//608 492//579 460//552
f 482//586 481//585 512//596 511//593 510//590 509//587 508//583 507//581 506//578 505//577 504//607 503//605 502//603 501//601 500//599 499//597 498//594 497//591 496//588 495//584 494//582 493//580 492//579 491//608 490//606 489//604 488//602 487//600 486//598 485//595 484//592 483//589
f 576//609 517//610 544//611 573//612
f 575//613 515//614 543//615 572//616
f 574//617 513//618 542//619 571//620
f 573//612 544//611 541//621 570//622
f 572//616 543//615 540//623 569//624
f 571//620 542//619 539//625 568//626
f 570//622 541//621 538//627 567//628
f 569//624 540//623 537//629 566//630
f 568//626 539//625 536//631 565//632
f 567//628 538//627 535//633 564//634
f 566//630 537//629 518//635 547//636
f 565//632 536//631 534//637 563//638
f 564//634 535//633 533//639 562//640
f 563//638 534//637 532//641 561//642
f 562//640 533//639 531//643 560//644
f 561//642 532//641 530//645 559//646
f 560//644 531//643 529//647 558//648
f 559//646 530//645 528//649 557//650
f 558//648 529//647 527//651 556//652
f 557//650 528//649 526//653 555//654
f 556//652 527//651 525//655 554//656
f 555//654 526//653 524//657 553//658
f 554//656 525//655 523//659 552//660
f 553//658 524//657 522//661 551//662
f 552//660 523//659 521//663 550//664
f 551//662 522//661 520//665 549//666
f 550//664 521//663 519//667 548//668
f 549//666 520//665 516//669 546//670
f 548//668 519//667 514//671 545//672
f 547//636 518//635 517//610 576//609
f 546//670 516//669 515//614 575//613
f 545//672 514//671 513//618 574//617
f 307//484 545//672 574//617 306//481
f 294//488 546//670 575//613 293//485
f 289//492 547//636 576//609 320//489
f 308//494 548//668 545//672 307//484
f 295//496 549//666 546//670 294//488
f 309//498 550//664 548//668 308//494
f 296//500 551//662 549//666 295//496
f 310//502 552//660 550//664 309//498
f 297//504 553//658 551//662 296//500
f 311//506 554//656 552//660 310//502
f 298//508 555//654 553//658 297//504
f 312//510 556//652 554//656 311//506
f 299//512 557//650 555//654 298//508
f 313//514 558//648 556//652 312//510
f 300//516 559//646 557//650 299//512
f 314//518 560//644 558//648 313//514
f 301//520 561//642 559//646 300//516
f 315//522 562//640 560//644 314//518
f 302//524 563//638 561//642 301//520
f 316//526 564//634 562//640 315//522
f 303//528 565//632 563//638 302//524
f 290//530 566//630 547//636 289//492
f 317//532 567//628 564//634 316//526
f 304//534 568//626 565//632 303//528
f 291//536 569//624 566//630 290//530
f 318//538 570//622 567//628 317//532
f 305//540 571//620 568//626 304//534
f 292//542 572//616 569//624 291//536
f 319//544 573//612 570//622 318//538
f 306//481 574//617 571//620 305//540
f 293//485 575//613 572//616 292//542
f 320//489 576//609 573//612 319//544
f 385//442 577//673 608//674 416//436
f 404//444 596//675 595//676 403//438
f 391//446 583//677 582//678 390//440
f 405//448 597//679 596//675 404//444
f 392//450 584//680 583//677 391//446
f 406//452 598//681 597//679 405//448
f 393//454 585//682 584//680 392//450
f 407//456 599//683 598//681 406//452
f 394//458 586//684 585//682 393//454
f 408//460 600//685 599//683 407//456
f 395//462 587//686 586//684 394//458
f 409//464 601//687 600//685 408//460
f 396//466 588//688 587//686 395//462
f 410//468 602//689 601//687 409//464
f 397//470 589//690 588//688 396//466
f 411//472 603//691 602//689 410//468
f 398//474 590//692 589//690 397//470
f 412//476 604//693 603//691 411//472
f 399//478 591//694 590//692 398//474
f 386//480 578//695 577//673 385//442
f 413//419 605//696 604//693 412//476
f 400//423 592//697 591//694 399//478
f 387//427 579//698 578//695 386//480
f 414//418 606//699 605//696 413//419
f 401//422 593//700 592//697 400//423
f 388//426 580//701 579//698 387//427
f 415//430 607//702 606//699 414//418
f 402//432 594//703 593//700 401//422
f 389//434 581//704 580//701 388//426
f 416//436 608//674 607//702 415//430
f 403//438 595//676 594//703 402//432
f 390//440 582//678 581//704 389//434
f 587//686 619//705 618//706 586//684
f 601//687 633//707 632//708 600//685
f 588//688 620//709 619//705 587//686
f 602//689 634//710 633//707 601//687
f 589//690 621//711 620//709 588//688
f 603//691 635//712 634//710 602//689
f 590//692 622//713 621//711 589//690
f 604//693 636//714 635//712 603//691
f 591//694 623//715 622//713 590//692
f 578//695 610//716 609//717 577//673
f 605//696 637//718 636//714 604//693
f 592//697 624//719 623//715 591//694
f 579//698 611//720 610//716 578//695
f 606//699 638//721 637//718 605//696
f 593//700 625//722 624//719 592//697
f 580//701 612//723 611//720 579//698
f 607//702 639//724 638//721 606//699
f 594//703 626//725 625//722 593//700
f 581//704 613//726 612//723 580//701
f 608//674 640//727 639//724 607//702
f 595//676 627//728 626//725 594//703
f 582//678 614//729 613//726 581//704
f 577//673 609//717 640//727 608//674
f 596//675 628//730 627//728 595//676
f 583//677 615//731 614//729 582//678
f 597//679 629//732 628//730 596//675
f 584//680 616//733 615//731 583//677
f 598//681 630//734 629//732 597//679
f 585//682 617//735 616//733 584//680
f 599//683 631//736 630//734 598//681
f 586//684 618//706 617//735 585//682
f 600//685 632//708 631//736 599//683
f 622//713 654//737 653//738 621//711
f 636//714 668//739 667//740 635//712
f 623//715 655//741 654//737 622//713
f 610//716 642//742 641//743 609//717
f 637//718 669//744 668//739 636//714
f 624//719 656//745 655//741 623//715
f 611//720 643//746 642//742 610//716
f 638//721 670//747 669//744 637//718
f 625//722 657//748 656//745 624//719
f 612//723 644//749 643//746 611//720
f 639//724 671//750 670//747 638//721
f 626//725 658//751 657//748 625//722
f 613//726 645//752 644//749 612//723
f 640//727 672//753 671//750 639//724
f 627//728 659//754 658//751 626//725
f 614//729 646//755 645//752 613//726
f 609//717 641//743 672//753 640//727
f 628//730 660//756 659//754 627//728
f 615//731 647//757 646//755 614//729
f 629//732 661//758 660//756 628//730
f 616//733 648//759 647//757 615//731
f 630//734 662//760 661//758 629//732
f 617//735 649//761 648//759 616//733
f 631//736 663//762 662//760 630//734
f 618//706 650//763 649//761 617//735
f 632//708 664//764 663//762 631//736
f 619//705 651//765 650//763 618//706
f 633//707 665//766 664//764 632//708
f 620//709 652//767 651//765 619//705
f 634//710 666//768 665//766 633//707
f 621//711 653//738 652//767 620//709
f 635//712 667//740 666//768 634//710
f 657//748 689//769 688//770 656//745
f 644//749 676//771 675//772 643//746
f 671//750 703//773 702//774 670//747
f 658//751 690//775 689//769 657//748
f 645//752 677//776 676//771 644//749
f 672//753 704//777 703//773 671//750
f 659//754 691//778 690//775 658//751
f 646//755 678//779 677//776 645//752
f 641//743 673//780 704//777 672//753
f 660//756 692//781 691//778 659//754
f 647//757 679//782 678//779 646//755
f 661//758 693//783 692//781 660//756
f 648//759 680//784 679//782 647//757
f 662//760 694//785 693//783 661//758
f 649//761 681//786 680//784 648//759
f 663//762 695//787 694//785 662//760
f 650//763 682//788 681//786 649//761
f 664//764 696//789 695//787 663//762
f 651//765 683//790 682//788 650//763
f 665//766 697//791 696//789 664//764
f 652//767 684//792 683//790 651//765
f 666//768 698//793 697//791 665//766
f 653//738 685//794 684//792 652//767
f 667//740 699//795 698//793 666//768
f 654//737 686//796 685//794 653//738
f 668//739 700//797 699//795 667//740
f 655//741 687//798 686//796 654//737
f 642//742 674//799 673//780 641//743
f 669//744 701//800 700//797 668//739
f 656//745 688//770 687//798 655//741
f 643//746 675//772 674//799 642//742
f 670//747 702//774 701//800 669//744
f 692//781 724//801 723//802 691//778
f 679//782 711//803 710//804 678//779
f 693//783 725//805 724//801 692//781
f 680//784 712//806 711//803 679//782
f 694//785 726//807 725//805 693//783
f 681//786 713//808 712//806 680//784
f 695//787 727//809 726//807 694//785
f 682//788 714//810 713//808 681//786
f 696//789 728//811 727//809 695//787
f 683//790 715//812 714//810 682//788
f 697//791 729//813 728//811 696//789
f 684//792 716//814 715//812 683//790
f 698//793 730//815 729//813 697//791
f 685//794 717//816 716//814 684//792
f 699//795 731//817 730//815 698//793
f 686//796 718//818 717//816 685//794
f 700//797 732//819 731//817 699//795
f 687//798 719//820 718//818 686//796
f 674//799 706//821 705//822 673//780
f 701//800 733//823 732//819 700//797
f 688//770 720//824 719//820 687//798
f 675//772 707//825 706//821 674//799
f 702//774 734//826 733//823 701//800
f 689//769 721//827 720//824 688//770
f 676//771 708//828 707//825 675//772
f 703//773 735//829 734//826 702//774
f 690//775 722//830 721//827 689//769
f 677//776 709//831 708//828 676//771
f 704//777 736//832 735//829 703//773
f 691//778 723//802 722//830 690//775
f 678//779 710//804 709//831 677//776
f 673//780 705//822 736//832 704//777
f 727//809 759//833 758//834 726//807
f 714//810 746//835 745//836 713//808
f 728//811 760//837 759//833 727//809
f 715//812 747//838 746//835 714//810
f 729//813 761//839 760//837 728//811
f 716//814 748//840 747//838 715//812
f 730//815 762//841 761//839 729//813
f 717//816 749//842 748//840 716//814
f 731//817 763//843 762//841 730//815
f 718//818 750//844 749//842 717//816
f 732//819 764//845 763//843 731//817
f 719//820 751//846 750//844 718//818
f 706//821 738//847 737//848 705//822
f 733//823 765//849 764//845 732//819
f 720//824 752//850 751//846 719//820
f 707//825 739//851 738//847 706//821
f 734//826 766//852 765//849 733//823
f 721//827 753//853 752//850 720//824
f 708//828 740//854 739//851 707//825
f 735//829 767//855 766//852 734//826
f 722//830 754//856 753//853 721//827
f 709//831 741//857 740//854 708//828
f 736//832 768//858 767//855 735//829
f 723//802 755//859 754//856 722//830
f 710//804 742//860 741//857 709//831
f 705//822 737//848 768//858 736//832
f 724//801 756//861 755//859 723//802
f 711//803 743//862 742//860 710//804
f 725//805 757//863 756//861 724//801
f 712//806 744//864 743//862 711//803
f 726//807 758//834 757//863 725//805
f 713//808 745//836 744//864 712//806
f 762//841 794//865 793//866 761//839
f 749//842 781//867 780//868 748//840
f 763//843 795//869 794//865 762//841
f 750//844 782//870 781//867 749//842
f 764//845 796//871 795//869 763//843
f 751//846 783//872 782//870 750//844
f 738//847 770//873 769//874 737//848
f 765//849 797//875 796//871 764//845
f 752//850 784//876 783//872 751//846
f 739//851 771//877 770//873 738//847
f 766//852 798//878 797//875 765//849
f 753//853 785//879 784//876 752//850
f 740//854 772//880 771//877 739//851
f 767//855 799//881 798//878 766//852
f 754//856 786//882 785//879 753//853
f 741//857 773//883 772//880 740//854
f 768//858 800//884 799//881 767//855
f 755//859 787//885 786//882 754//856
f 742//860 774//886 773//883 741//857
f 737//848 769//874 800//884 768//858
f 756//861 788//887 787//885 755//859
f 743//862 775//888 774//886 742//860
f 757//863 789//889 788//887 756//861
f 744//864 776//890 775//888 743//862
f 758//834 790//891 789//889 757//863
f 745//836 777//892 776//890 744//864
f 759//833 791//893 790//891 758//834
f 746//835 778//894 777//892 745//836
f 760//837 792//895 791//893 759//833
f 747//838 779//896 778//894 746//835
f 761//839 793//866 792//895 760//837
f 748//840 780//868 779//896 747//838
f 770//873 802//897 801//898 769//874
f 797//875 829//899 828//900 796//871
f 784//876 816//901 815//902 783//872
f 771//877 803//903 802//897 770//873
f 798//878 830//904 829//899 797//875
f 785//879 817//905 816//901 784//876
f 772//880 804//906 803//903 771//877
f 799//881 831//907 830//904 798//878
f 786//882 818//908 817//905 785//879
f 773//883 805//909 804//906 772//880
f 800//884 832//910 831//907 799//881
f 787//885 819//911 818//908 786//882
f 774//886 806//912 805//909 773//883
f 769//874 801//898 832//910 800//884
f 788//887 820//913 819//911 787//885
f 775//888 807//914 806//912 774//886
f 789//889 821//915 820//913 788//887
f 776//890 808//916 807//914 775//888
f 790//891 822//917 821//915 789//889
f 777//892 809//918 808//916 776//890
f 791//893 823//919 822//917 790//891
f 778//894 810//920 809//918 777//892
f 792//895 824//921 823//919 791//893
f 779//896 811//922 810//920 778//894
f 793//866 825//923 824//921 792//895
f 780//868 812//924 811//922 779//896
f 794//865 826//925 825//923 793//866
f 781//867 813//926 812//924 780//868
f 795//869 827//927 826//925 794//865
f 782//870 814//928 813//926 781//867
f 796//871 828//900 827//927 795//869
f 783//872 815//902 814//928 782//870
f 805//909 837//929 836//930 804//906
f 832//910 864//931 863//932 831//907
f 819//911 851//933 850//934 818//908
f 806//912 838//935 837//929 805//909
f 801//898 833//936 864//931 832//910
f 820//913 852//937 851//933 819//911
f 807//914 839//938 838//935 806//912
f 821//915 853//939 852//937 820//913
f 808//916 840//940 839//938 807//914
f 822//917 854//941 853//939 821//915
f 809//918 841//942 840//940 808//916
f 823//919 855//943 854//941 822//917
f 810//920 842//944 841//942 809//918
f 824//921 856//945 855//943 823//919
f 811//922 843//946 842//944 810//920
f 825//923 857//947 856//945 824//921
f 812//924 844//948 843//946 811//922
f 826//925 858//949 857//947 825//923
f 813//926 845//950 844//948 812//924
f 827//927 859//951 858//949 826//925
f 814//928 846//952 845//950 813//926
f 828//900 860//953 859//951 827//927
f 815//902 847//954 846//952 814//928
f 802//897 834//955 833//936 801//898
f 829//899 861//956 860//953 828//900
f 816//901 848//957 847//954 815//902
f 803//903 835//958 834//955 802//897
f 830//904 862//959 861//956 829//899
f 817//905 849//960 848//957 816//901
f 804//906 836//930 835//958 803//903
f 831//907 863//932 862//959 830//904
f 818//908 850//934 849//960 817//905
f 840//940 872//961 871//962 839//938
f 854//941 886//963 885//964 853//939
f 841//942 873//965 872//961 840//940
f 855//943 887//966 886//963 854//941
f 842//944 874//967 873//965 841//942
f 856//945 888//968 887//966 855//943
f 843//946 875//969 874//967 842//944
f 857//947 889//970 888//968 856//945
f 844//948 876//971 875//969 843//946
f 858//949 890//972 889//970 857//947
f 845//950 877//973 876//971 844//948
f 859//951 891//974 890//972 858//949
f 846//952 878//975 877//973 845//950
f 860//953 892//976 891//974 859//951
f 847//954 879//977 878//975 846//952
f 834//955 866//978 865//979 833//936
f 861//956 893//980 892//976 860//953
f 848//957 880//981 879//977 847//954
f 835//958 867//982 866//978 834//955
f 862//959 894//983 893//980 861//956
f 849//960 881//984 880//981 848//957
f 836//930 868//985 867//982 835//958
f 863//932 895//986 894//983 862//959
f 850//934 882//987 881//984 849//960
f 837//929 869//988 868//985 836//930
f 864//931 896//989 895//986 863//932
f 851//933 883//990 882//987 850//934
f 838//935 870//991 869//988 837//929
f 833//936 865//979 896//989 864//931
f 852//937 884//992 883//990 851//933
f 839//938 871//962 870//991 838//935
f 853//939 885//964 884//992 852//937
f 866//978 867//982 868//985 869//988 870//991 871//962 872//961 873//965 874//967 875//969 876//971 877//973 878//975 879//977 880//981 881//984 882//987 883//990 884//992 885//964 886//963 887//966 888//968 889//970 890//972 891//974 892//976 893//980 894//983 895//986 896//989 865//979
f 355//374 901//428 928//479 354//366
f 368//372 899//424 927//477 367//364
f 381//370 897//420 926//475 380//362
f 354//366 928//479 909//441 353//367
f 367//364 927//477 925//473 366//358
f 380//362 926//475 924//471 379//354
f 366//358 925//473 923//469 365//359
f 379//354 924//471 922//467 378//355
f 365//359 923//469 921//465 364//416
f 378//355 922//467 920//463 377//414
f 364//416 921//465 919//461 363//412
f 377//414 920//463 918//459 376//410
f 363//412 919//461 917//457 362//408
f 376//410 918//459 916//455 375//406
f 362//408 917//457 915//453 361//404
f 375//406 916//455 914//451 374//402
f 361//404 915//453 913//449 360//400
f 374//402 914//451 912//447 373//398
f 360//400 913//449 911//445 359//396
f 373//398 912//447 910//443 372//394
f 359//396 911//445 908//439 358//392
f 372//394 910//443 907//437 371//390
f 353//367 909//441 906//435 384//388
f 358//392 908//439 905//433 357//386
f 371//390 907//437 904//431 370//384
f 384//388 906//435 903//429 383//382
f 357//386 905//433 902//425 356//380
f 370//384 904//431 900//421 369//378
f 383//382 903//429 898//417 382//376
f 356//380 902//425 901//428 355//374
f 369//378 900//421 899//424 368//372
f 382//376 898//417 897//420 381//370
f 333//328 931//360 960//415 332//324
f 346//326 929//356 959//413 345//322
f 332//324 960//415 958//411 331//320
f 345//322 959//413 957//409 344//318
f 331//320 958//411 956//407 330//316
f 344//318 957//409 955//405 343//314
f 330//316 956//407 954//403 329//312
f 343//314 955//405 953//401 342//310
f 329//312 954//403 952//399 328//308
f 342//310 953//401 951//397 341//306
f 328//308 952//399 950//395 327//304
f 341//306 951//397 949//393 340//302
f 327//304 950//395 948//391 326//294
f 340//302 949//393 947//389 339//290
f 321//298 935//368 946//387 352//299
f 326//294 948//391 945//385 325//295
f 339//290 947//389 944//383 338//291
f 352//299 946//387 943//381 351//352
f 325//295 945//385 942//379 324//350
f 338//291 944//383 941//377 337//348
f 351//352 943//381 940//375 350//346
f 324//350 942//379 939//373 323//344
f 337//348 941//377 938//371 336//342
f 350//346 940//375 937//369 349//340
f 323//344 939//373 936//365 322//338
f 336//342 938//371 934//363 335//336
f 349//340 937//369 933//361 348//334
f 322//338 936//365 935//368 321//298
f 335//336 934//363 932//357 334//332
f 348//334 933//361 930//353 347//330
f 334//332 932//357 931//360 333//328
f 347//330 930//353 929//356 346//326
f 517//610 963//300 992//351 544//611
f 515//614 962//296 991//349 543//615
f 513//618 961//292 990//347 542//619
f 544//611 992//351 989//345 541//621
f 543//615 991//349 988//343 540//623
f 542//619 990//347 987//341 539//625
f 541//621 989//345 986//339 538//627
f 540//623 988//343 985//337 537//629
f 539//625 987//341 984//335 536//631
f 538//627 986//339 983//333 535//633
f 537//629 985//337 966//297 518//635
f 536//631 984//335 982//331 534//637
f 535//633 983//333 981//329 533//639
f 534//637 982//331 980//327 532//641
f 533//639 981//329 979//325 531//643
f 532//641 980//327 978//323 530//645
f 531//643 979//325 977//321 529//647
f 530//645 978//323 976//319 528//649
f 529//647 977//321 975//317 527//651
f 528//649 976//319 974//315 526//653
f 527//651 975//317 973//313 525//655
f 526//653 974//315 972//311 524//657
f 525//655 973//313 971//309 523//659
f 524//657 972//311 970//307 522//661
f 523//659 971//309 969//305 521//663
f 522//661 970//307 968//303 520//665
f 521//663 969//305 967//301 519//667
f 520//665 968//303 965//293 516//669
f 519//667 967//301 964//289 514//671
f 518//635 966//297 963//300 517//610
f 516//669 965//293 962//296 515//614
f 514//671 964//289 961//292 513//618
