# Blender v2.78 (sub 0) OBJ File: 'cup_of_tea.blend'
# www.blender.org
mtllib cup_of_tea.mtl
o Circle.002
v 0.037974 0.351730 -2.467123
v 0.003825 0.347934 -2.452998
v -0.018367 0.337563 -2.428471
v -0.022657 0.323396 -2.400114
v -0.007895 0.309228 -2.375526
v 0.021963 0.298857 -2.361295
v 0.058918 0.295061 -2.361233
v 0.093066 0.298857 -2.375358
v 0.115258 0.309228 -2.399884
v 0.119548 0.323396 -2.428241
v 0.104786 0.337563 -2.452829
v 0.074928 0.347934 -2.467061
v 0.036190 0.315038 -2.476142
v 0.002089 0.312225 -2.461775
v -0.019972 0.304540 -2.436588
v -0.024084 0.294042 -2.407330
v -0.009144 0.283544 -2.381839
v 0.020845 0.275859 -2.366948
v 0.057847 0.273046 -2.366644
v 0.091948 0.275859 -2.381011
v 0.114009 0.283544 -2.406198
v 0.118121 0.294042 -2.435456
v 0.103181 0.304540 -2.460947
v 0.073192 0.312225 -2.475838
v 0.035333 0.276549 -2.480477
v 0.001255 0.274768 -2.465994
v -0.020744 0.269900 -2.440490
v -0.024770 0.263251 -2.410798
v -0.009744 0.256602 -2.384874
v 0.020308 0.251734 -2.369665
v 0.057333 0.249953 -2.369246
v 0.091410 0.251734 -2.383728
v 0.113409 0.256602 -2.409233
v 0.117435 0.263251 -2.438925
v 0.102409 0.269900 -2.464848
v 0.072357 0.274768 -2.480058
v 0.035416 0.236923 -2.480054
v 0.001336 0.236204 -2.465583
v -0.020669 0.234237 -2.440110
v -0.024703 0.231550 -2.410460
v -0.009685 0.228863 -2.384578
v 0.020360 0.226897 -2.369400
v 0.057383 0.226177 -2.368992
v 0.091463 0.226897 -2.383463
v 0.113468 0.228863 -2.408937
v 0.117502 0.231550 -2.438586
v 0.102484 0.234237 -2.464468
v 0.072439 0.236204 -2.479646
v 0.036439 0.196837 -2.474881
v 0.002332 0.197191 -2.460548
v -0.019748 0.198159 -2.435453
v -0.023884 0.199481 -2.406321
v -0.008969 0.200803 -2.380957
v 0.021002 0.201771 -2.366157
v 0.057997 0.202125 -2.365888
v 0.092104 0.201771 -2.380221
v 0.114184 0.200803 -2.405315
v 0.118321 0.199481 -2.434448
v 0.103405 0.198159 -2.459812
v 0.073435 0.197191 -2.474611
v 0.038385 0.156978 -2.465045
v 0.004225 0.158400 -2.450976
v -0.017997 0.162286 -2.426601
v -0.022328 0.167594 -2.398453
v -0.007607 0.172902 -2.374072
v 0.022221 0.176787 -2.359992
v 0.059164 0.178210 -2.359986
v 0.093323 0.176787 -2.374056
v 0.115546 0.172902 -2.398430
v 0.119877 0.167594 -2.426579
v 0.105156 0.162286 -2.450960
v 0.075328 0.158400 -2.465039
v 0.041219 0.118026 -2.450716
v 0.006984 0.120492 -2.437030
v -0.015446 0.127229 -2.413705
v -0.020061 0.136432 -2.386989
v -0.005623 0.145635 -2.364041
v 0.023997 0.152373 -2.351011
v 0.060865 0.154838 -2.351388
v 0.095100 0.152373 -2.365074
v 0.117530 0.145635 -2.388399
v 0.122144 0.136432 -2.415115
v 0.107707 0.127229 -2.438063
v 0.078086 0.120492 -2.451093
v 0.044894 0.080649 -2.432137
v 0.010560 0.084117 -2.418950
v -0.012139 0.093590 -2.396984
v -0.017121 0.106531 -2.372126
v -0.003051 0.119472 -2.351036
v 0.026301 0.128945 -2.339366
v 0.063069 0.132412 -2.340241
v 0.097403 0.128945 -2.353429
v 0.120102 0.119472 -2.375395
v 0.125084 0.106531 -2.400253
v 0.111014 0.093590 -2.421342
v 0.081662 0.084117 -2.433013
v 0.049346 0.045487 -2.409628
v 0.014893 0.049896 -2.397043
v -0.008132 0.061944 -2.376726
v -0.013559 0.078401 -2.354119
v 0.000065 0.094858 -2.335280
v 0.029091 0.106905 -2.325257
v 0.065741 0.111315 -2.326736
v 0.100194 0.106905 -2.339320
v 0.123218 0.094858 -2.359638
v 0.128646 0.078401 -2.382245
v 0.115021 0.061944 -2.401084
v 0.085995 0.049896 -2.411107
v 0.054499 0.013140 -2.383573
v 0.019908 0.018416 -2.371686
v -0.003494 0.032832 -2.353276
v -0.009437 0.052523 -2.333274
v 0.003673 0.072215 -2.317041
v 0.032321 0.086631 -2.308926
v 0.068833 0.091907 -2.311103
v 0.103424 0.086631 -2.322989
v 0.126826 0.072215 -2.341399
v 0.132768 0.052523 -2.361401
v 0.119659 0.032832 -2.377634
v 0.091010 0.018416 -2.385750
v 0.060266 -0.015837 -2.354418
v 0.025520 -0.009785 -2.343313
v 0.001696 0.006752 -2.327036
v -0.004823 0.029341 -2.309950
v 0.007709 0.051931 -2.296633
v 0.035936 0.068468 -2.290652
v 0.072293 0.074520 -2.293610
v 0.107038 0.068468 -2.304715
v 0.130862 0.051931 -2.320991
v 0.137382 0.029341 -2.338077
v 0.124849 0.006752 -2.351395
v 0.096622 -0.009785 -2.357376
v 0.066547 -0.040950 -2.322661
v 0.031633 -0.034224 -2.312407
v 0.007349 -0.015849 -2.298456
v 0.000202 0.009251 -2.284545
v 0.012106 0.034352 -2.274403
v 0.039873 0.052727 -2.270747
v 0.076061 0.059453 -2.274556
v 0.110975 0.052727 -2.284810
v 0.135259 0.034352 -2.298762
v 0.142406 0.009251 -2.312672
v 0.130502 -0.015849 -2.322814
v 0.102735 -0.034224 -2.326471
v 0.073235 -0.061767 -2.288847
v 0.038141 -0.054484 -2.279500
v 0.013368 -0.034585 -2.268023
v 0.005552 -0.007402 -2.257494
v 0.016788 0.019780 -2.250734
v 0.044065 0.039679 -2.249553
v 0.080074 0.046963 -2.254268
v 0.115167 0.039679 -2.263616
v 0.139941 0.019780 -2.275092
v 0.147757 -0.007402 -2.285621
v 0.136521 -0.034585 -2.292382
v 0.109244 -0.054484 -2.293563
v 0.087057 -0.090602 -2.218961
v 0.053393 -0.083239 -2.210943
v 0.029267 -0.063122 -2.202458
v 0.021142 -0.035641 -2.195779
v 0.031198 -0.008161 -2.192695
v 0.056737 0.011955 -2.194034
v 0.090919 0.019319 -2.199435
v 0.124584 0.011955 -2.207453
v 0.148710 -0.008161 -2.215938
v 0.156835 -0.035641 -2.222617
v 0.146779 -0.063122 -2.225701
v 0.121239 -0.083239 -2.224362
v 0.114386 -0.113801 -2.080791
v 0.078152 -0.106585 -2.077211
v 0.050262 -0.086870 -2.081493
v 0.038188 -0.059939 -2.092490
v 0.045166 -0.033007 -2.107256
v 0.069326 -0.013292 -2.121833
v 0.104195 -0.006076 -2.132317
v 0.140429 -0.013292 -2.135897
v 0.168319 -0.033007 -2.131614
v 0.180393 -0.059939 -2.120617
v 0.173415 -0.086870 -2.105851
v 0.149254 -0.106585 -2.091274
v 0.088328 0.518325 -2.212536
v 0.052736 0.510125 -2.205712
v 0.026598 0.487722 -2.201133
v 0.016919 0.457120 -2.200024
v 0.026291 0.426517 -2.202685
v 0.052204 0.404114 -2.208400
v 0.087714 0.395914 -2.215640
v 0.123307 0.404114 -2.222463
v 0.149444 0.426517 -2.227043
v 0.159124 0.457120 -2.228151
v 0.149751 0.487722 -2.225491
v 0.123838 0.510125 -2.219775
v 0.078962 0.516301 -2.259893
v 0.043715 0.508095 -2.251321
v 0.018522 0.485677 -2.241964
v 0.010133 0.455052 -2.234331
v 0.020797 0.424428 -2.230465
v 0.047654 0.402009 -2.231404
v 0.083510 0.393804 -2.236895
v 0.118757 0.402009 -2.245467
v 0.143950 0.424428 -2.254824
v 0.152338 0.455052 -2.262457
v 0.141675 0.485677 -2.266323
v 0.114817 0.508095 -2.265384
v 0.072024 0.511956 -2.294967
v 0.036963 0.503866 -2.285455
v 0.012279 0.481766 -2.273531
v 0.004584 0.451576 -2.262390
v 0.015940 0.421386 -2.255017
v 0.043306 0.399286 -2.253388
v 0.079348 0.391196 -2.257940
v 0.114409 0.399286 -2.267452
v 0.139093 0.421386 -2.279376
v 0.146789 0.451576 -2.290517
v 0.135432 0.481766 -2.297889
v 0.108066 0.503866 -2.299519
v 0.065400 0.502444 -2.328458
v 0.030517 0.494610 -2.318048
v 0.006317 0.473206 -2.303673
v -0.000716 0.443967 -2.289182
v 0.011304 0.414728 -2.278461
v 0.039154 0.393324 -2.274380
v 0.075374 0.385490 -2.278034
v 0.110257 0.393324 -2.288443
v 0.134457 0.414728 -2.302819
v 0.141489 0.443967 -2.317309
v 0.129470 0.473206 -2.328031
v 0.101620 0.494610 -2.332111
v 0.059203 0.487931 -2.359791
v 0.024486 0.480485 -2.348542
v 0.000739 0.460143 -2.331873
v -0.005674 0.432356 -2.314249
v 0.006965 0.404569 -2.300394
v 0.035270 0.384227 -2.294020
v 0.071655 0.376781 -2.296834
v 0.106372 0.384227 -2.308083
v 0.130118 0.404569 -2.324753
v 0.136531 0.432356 -2.342376
v 0.123892 0.460143 -2.356231
v 0.095588 0.480485 -2.362606
v 0.053538 0.468662 -2.388432
v 0.018973 0.461733 -2.376415
v -0.004359 0.442802 -2.357649
v -0.010205 0.416941 -2.337162
v 0.003000 0.391081 -2.320442
v 0.031719 0.372150 -2.311971
v 0.068256 0.365220 -2.314018
v 0.102822 0.372150 -2.326035
v 0.126153 0.391081 -2.344801
v 0.132000 0.416941 -2.365288
v 0.118794 0.442802 -2.382007
v 0.090075 0.461733 -2.390478
v 0.048503 0.444969 -2.413889
v 0.014072 0.438675 -2.401190
v -0.008891 0.421478 -2.380561
v -0.014233 0.397987 -2.357527
v -0.000524 0.374496 -2.338263
v 0.028563 0.357299 -2.327928
v 0.065235 0.351004 -2.329293
v 0.099666 0.357299 -2.341991
v 0.122628 0.374496 -2.362621
v 0.127971 0.397987 -2.385654
v 0.114262 0.421478 -2.404919
v 0.085175 0.438675 -2.415254
v 0.044184 0.417256 -2.435728
v 0.009869 0.411704 -2.422444
v -0.012778 0.396536 -2.400215
v -0.017689 0.375816 -2.374999
v -0.003548 0.355096 -2.353550
v 0.025855 0.339928 -2.341616
v 0.062644 0.334377 -2.342396
v 0.096958 0.339928 -2.355680
v 0.119605 0.355096 -2.377908
v 0.124516 0.375816 -2.403125
v 0.110375 0.396536 -2.424574
v 0.080971 0.411704 -2.436507
v 0.040654 0.385999 -2.453574
v 0.006433 0.381284 -2.439812
v -0.015955 0.368404 -2.416277
v -0.020513 0.350810 -2.389276
v -0.006019 0.333216 -2.366042
v 0.023643 0.320336 -2.352802
v 0.060526 0.315622 -2.353104
v 0.094746 0.320336 -2.366866
v 0.117134 0.333216 -2.390400
v 0.121692 0.350810 -2.417402
v 0.107198 0.368404 -2.440636
v 0.077536 0.381284 -2.453875
v -0.154195 -0.109256 -1.698691
v -0.135078 -0.109256 -1.635427
v -0.103987 -0.109256 -1.577107
v -0.062115 -0.109256 -1.525974
v -0.011073 -0.109256 -1.483992
v 0.047179 -0.109256 -1.452775
v 0.110402 -0.109256 -1.433522
v 0.176166 -0.109256 -1.426973
v 0.241944 -0.109256 -1.433379
v 0.305209 -0.109256 -1.452496
v 0.363528 -0.109256 -1.483587
v 0.414661 -0.109256 -1.525459
v 0.456643 -0.109256 -1.576501
v 0.487861 -0.109256 -1.634753
v 0.507114 -0.109256 -1.697976
v 0.513663 -0.109256 -1.763741
v 0.507256 -0.109256 -1.829519
v 0.488140 -0.109256 -1.892783
v 0.457048 -0.109256 -1.951103
v 0.415177 -0.109256 -2.002236
v 0.364134 -0.109256 -2.044218
v 0.305882 -0.109256 -2.075435
v 0.242659 -0.109256 -2.094688
v 0.176895 -0.109256 -2.101237
v 0.111117 -0.109256 -2.094830
v 0.047852 -0.109256 -2.075714
v -0.010467 -0.109256 -2.044622
v -0.061600 -0.109256 -2.002751
v -0.103582 -0.109256 -1.951708
v -0.134800 -0.109256 -1.893456
v -0.154053 -0.109256 -1.830233
v -0.160601 -0.109256 -1.764469
v -0.239405 0.163204 -1.681837
v -0.215363 0.163204 -1.602273
v -0.176261 0.163204 -1.528928
v -0.123602 0.163204 -1.464620
v -0.059408 0.163204 -1.411822
v 0.013852 0.163204 -1.372561
v 0.093364 0.163204 -1.348348
v 0.176072 0.163204 -1.340112
v 0.258798 0.163204 -1.348169
v 0.338362 0.163204 -1.372211
v 0.411708 0.163204 -1.411313
v 0.476015 0.163204 -1.463972
v 0.528814 0.163204 -1.528166
v 0.568074 0.163204 -1.601426
v 0.592288 0.163204 -1.680938
v 0.600524 0.163204 -1.763647
v 0.592466 0.163204 -1.846372
v 0.568425 0.163204 -1.925937
v 0.529323 0.163204 -1.999282
v 0.476663 0.163204 -2.063590
v 0.412470 0.163204 -2.116388
v 0.339209 0.163204 -2.155648
v 0.259697 0.163204 -2.179862
v 0.176989 0.163204 -2.188098
v 0.094263 0.163204 -2.180041
v 0.014699 0.163204 -2.155999
v -0.058647 0.163204 -2.116897
v -0.122954 0.163204 -2.064237
v -0.175753 0.163204 -2.000043
v -0.215013 0.163204 -1.926783
v -0.239226 0.163204 -1.847271
v -0.247463 0.163204 -1.764563
v -0.274940 0.413306 -1.674809
v -0.248845 0.413306 -1.588447
v -0.206402 0.413306 -1.508836
v -0.149244 0.413306 -1.439034
v -0.079566 0.413306 -1.381725
v -0.000046 0.413306 -1.339110
v 0.086259 0.413306 -1.312828
v 0.176033 0.413306 -1.303888
v 0.265827 0.413306 -1.312634
v 0.352188 0.413306 -1.338730
v 0.431800 0.413306 -1.381172
v 0.501601 0.413306 -1.438331
v 0.558911 0.413306 -1.508008
v 0.601525 0.413306 -1.587528
v 0.627808 0.413306 -1.673833
v 0.636748 0.413306 -1.763608
v 0.628002 0.413306 -1.853401
v 0.601906 0.413306 -1.939763
v 0.559463 0.413306 -2.019374
v 0.502305 0.413306 -2.089176
v 0.432627 0.413306 -2.146485
v 0.353107 0.413306 -2.189100
v 0.266802 0.413306 -2.215382
v 0.177028 0.413306 -2.224322
v 0.087234 0.413306 -2.215576
v 0.000872 0.413306 -2.189480
v -0.078739 0.413306 -2.147037
v -0.148540 0.413306 -2.089879
v -0.205850 0.413306 -2.020201
v -0.248464 0.413306 -1.940681
v -0.274746 0.413306 -1.854376
v -0.283686 0.413306 -1.764602
v -0.270357 0.551632 -1.675715
v -0.244526 0.551632 -1.590230
v -0.202514 0.551632 -1.511427
v -0.145936 0.551632 -1.442334
v -0.076966 0.551632 -1.385607
v 0.001746 0.551632 -1.343425
v 0.087175 0.551632 -1.317410
v 0.176038 0.551632 -1.308560
v 0.264920 0.551632 -1.317217
v 0.350405 0.551632 -1.343048
v 0.429208 0.551632 -1.385060
v 0.498301 0.551632 -1.441638
v 0.555029 0.551632 -1.510608
v 0.597211 0.551632 -1.589321
v 0.623226 0.551632 -1.674750
v 0.632075 0.551632 -1.763613
v 0.623418 0.551632 -1.852494
v 0.597587 0.551632 -1.937979
v 0.555576 0.551632 -2.016783
v 0.498997 0.551632 -2.085876
v 0.430027 0.551632 -2.142603
v 0.351315 0.551632 -2.184785
v 0.265886 0.551632 -2.210800
v 0.177023 0.551632 -2.219649
v 0.088141 0.551632 -2.210992
v 0.002656 0.551632 -2.185161
v -0.076147 0.551632 -2.143150
v -0.145240 0.551632 -2.086571
v -0.201967 0.551632 -2.017601
v -0.244149 0.551632 -1.938889
v -0.270165 0.551632 -1.853459
v -0.279014 0.551632 -1.764597
v -0.135564 -0.133870 -1.702376
v -0.117525 -0.133870 -1.642675
v -0.088185 -0.133870 -1.587641
v -0.048672 -0.133870 -1.539389
v -0.000505 -0.133870 -1.499772
v 0.054466 -0.133870 -1.470313
v 0.114127 -0.133870 -1.452144
v 0.176187 -0.133870 -1.445964
v 0.238260 -0.133870 -1.452010
v 0.297960 -0.133870 -1.470050
v 0.352994 -0.133870 -1.499390
v 0.401247 -0.133870 -1.538902
v 0.440864 -0.133870 -1.587070
v 0.470323 -0.133870 -1.642040
v 0.488491 -0.133870 -1.701701
v 0.494671 -0.133870 -1.763761
v 0.488625 -0.133870 -1.825834
v 0.470586 -0.133870 -1.885534
v 0.441246 -0.133870 -1.940568
v 0.401733 -0.133870 -1.988821
v 0.353566 -0.133870 -2.028438
v 0.298595 -0.133870 -2.057897
v 0.238934 -0.133870 -2.076066
v 0.176874 -0.133870 -2.082245
v 0.114802 -0.133870 -2.076200
v 0.055101 -0.133870 -2.058160
v 0.000067 -0.133870 -2.028820
v -0.048186 -0.133870 -1.989307
v -0.087803 -0.133870 -1.941140
v -0.117261 -0.133870 -1.886169
v -0.135430 -0.133870 -1.826508
v -0.141610 -0.133870 -1.764448
v -0.118353 -0.148266 -1.705780
v -0.101308 -0.148266 -1.649372
v -0.073586 -0.148266 -1.597373
v -0.036252 -0.148266 -1.551781
v 0.009258 -0.148266 -1.514349
v 0.061198 -0.148266 -1.486515
v 0.117569 -0.148266 -1.469348
v 0.176206 -0.148266 -1.463509
v 0.234855 -0.148266 -1.469222
v 0.291263 -0.148266 -1.486266
v 0.343262 -0.148266 -1.513988
v 0.388854 -0.148266 -1.551322
v 0.426286 -0.148266 -1.596833
v 0.454121 -0.148266 -1.648772
v 0.471287 -0.148266 -1.705143
v 0.477126 -0.148266 -1.763780
v 0.471414 -0.148266 -1.822430
v 0.454369 -0.148266 -1.878838
v 0.426647 -0.148266 -1.930837
v 0.389314 -0.148266 -1.976429
v 0.343803 -0.148266 -2.013861
v 0.291864 -0.148266 -2.041695
v 0.235492 -0.148266 -2.058861
v 0.176855 -0.148266 -2.064701
v 0.118206 -0.148266 -2.058988
v 0.061798 -0.148266 -2.041943
v 0.009799 -0.148266 -2.014221
v -0.035793 -0.148266 -1.976888
v -0.073225 -0.148266 -1.931377
v -0.101059 -0.148266 -1.879438
v -0.118226 -0.148266 -1.823066
v -0.124065 -0.148266 -1.764429
v -0.102967 -0.143703 -1.708823
v -0.086812 -0.143703 -1.655358
v -0.060537 -0.143703 -1.606072
v -0.025151 -0.143703 -1.562859
v 0.017986 -0.143703 -1.527380
v 0.067215 -0.143703 -1.500998
v 0.120645 -0.143703 -1.484727
v 0.176223 -0.143703 -1.479192
v 0.231812 -0.143703 -1.484607
v 0.285277 -0.143703 -1.500762
v 0.334563 -0.143703 -1.527038
v 0.377776 -0.143703 -1.562423
v 0.413256 -0.143703 -1.605560
v 0.439638 -0.143703 -1.654789
v 0.455909 -0.143703 -1.708219
v 0.461443 -0.143703 -1.763797
v 0.456029 -0.143703 -1.819387
v 0.439873 -0.143703 -1.872852
v 0.413598 -0.143703 -1.922138
v 0.378212 -0.143703 -1.965351
v 0.335075 -0.143703 -2.000830
v 0.285846 -0.143703 -2.027212
v 0.232416 -0.143703 -2.043483
v 0.176838 -0.143703 -2.049017
v 0.121249 -0.143703 -2.043603
v 0.067784 -0.143703 -2.027447
v 0.018498 -0.143703 -2.001172
v -0.024715 -0.143703 -1.965786
v -0.060195 -0.143703 -1.922650
v -0.086576 -0.143703 -1.873420
v -0.102847 -0.143703 -1.819990
v -0.108382 -0.143703 -1.764412
v 0.534528 0.003169 -1.911939
v 0.498808 0.003169 -1.978940
v -0.039001 0.003169 -1.442293
v 0.027923 0.003169 -1.406428
v -0.210789 0.003169 -1.764523
v -0.203429 0.003169 -1.688953
v 0.450703 0.003169 -2.037686
v 0.100558 0.003169 -1.384309
v 0.392062 0.003169 -2.085917
v 0.176112 0.003169 -1.376785
v 0.325138 0.003169 -2.121782
v 0.251682 0.003169 -1.384145
v 0.252503 0.003169 -2.143901
v 0.324365 0.003169 -1.406108
v 0.176949 0.003169 -2.151425
v 0.391366 0.003169 -1.441827
v 0.101379 0.003169 -2.144064
v 0.450111 0.003169 -1.489932
v 0.028696 0.003169 -2.122102
v 0.498343 0.003169 -1.548573
v -0.038305 0.003169 -2.086382
v 0.534208 0.003169 -1.615497
v -0.097050 0.003169 -2.038277
v 0.556327 0.003169 -1.688132
v -0.181467 0.003169 -1.616271
v -0.145282 0.003169 -1.979636
v 0.563851 0.003169 -1.763686
v -0.145747 0.003169 -1.549269
v -0.181146 0.003169 -1.912712
v 0.556490 0.003169 -1.839257
v -0.097642 0.003169 -1.490524
v -0.203266 0.003169 -1.840077
v 0.476178 -0.066062 -1.963855
v 0.038358 -0.066062 -1.431543
v -0.176749 -0.066062 -1.694230
v 0.431451 -0.066062 -2.018475
v 0.105892 -0.066062 -1.410977
v 0.376928 -0.066062 -2.063320
v 0.176141 -0.066062 -1.403982
v 0.314703 -0.066062 -2.096667
v 0.246405 -0.066062 -1.410825
v 0.247169 -0.066062 -2.117233
v 0.313984 -0.066062 -1.431245
v 0.176920 -0.066062 -2.124228
v 0.376281 -0.066062 -1.464457
v 0.106656 -0.066062 -2.117384
v 0.430901 -0.066062 -1.509184
v 0.039077 -0.066062 -2.096964
v 0.475746 -0.066062 -1.563707
v -0.023220 -0.066062 -2.063752
v 0.509092 -0.066062 -1.625932
v -0.077840 -0.066062 -2.019025
v 0.529658 -0.066062 -1.693467
v -0.156329 -0.066062 -1.626651
v -0.122685 -0.066062 -1.964502
v 0.536654 -0.066062 -1.763716
v -0.123117 -0.066062 -1.564355
v -0.156031 -0.066062 -1.902277
v 0.529810 -0.066062 -1.833980
v -0.078390 -0.066062 -1.509735
v -0.176597 -0.066062 -1.834743
v 0.509390 -0.066062 -1.901559
v -0.023867 -0.066062 -1.464890
v -0.183593 -0.066062 -1.764494
v -0.260021 0.578148 -1.677760
v -0.234787 0.578148 -1.594252
v -0.193747 0.578148 -1.517271
v -0.138478 0.578148 -1.449777
v -0.071103 0.578148 -1.394361
v 0.005789 0.578148 -1.353155
v 0.089242 0.578148 -1.327741
v 0.176050 0.578148 -1.319097
v 0.262876 0.578148 -1.327553
v 0.346384 0.578148 -1.352787
v 0.423364 0.578148 -1.393827
v 0.490859 0.578148 -1.449096
v 0.546274 0.578148 -1.516472
v 0.587481 0.578148 -1.593363
v 0.612895 0.578148 -1.676816
v 0.621539 0.578148 -1.763624
v 0.613082 0.578148 -1.850450
v 0.587849 0.578148 -1.933958
v 0.546809 0.578148 -2.010938
v 0.491539 0.578148 -2.078433
v 0.424164 0.578148 -2.133849
v 0.347272 0.578148 -2.175055
v 0.263819 0.578148 -2.200469
v 0.177011 0.578148 -2.209113
v 0.090185 0.578148 -2.200656
v 0.006677 0.578148 -2.175423
v -0.070303 0.578148 -2.134383
v -0.137798 0.578148 -2.079113
v -0.193213 0.578148 -2.011738
v -0.234420 0.578148 -1.934846
v -0.259833 0.578148 -1.851393
v -0.268478 0.578148 -1.764585
v -0.247078 0.586519 -1.680320
v -0.222593 0.586519 -1.599288
v -0.182770 0.586519 -1.524590
v -0.129139 0.586519 -1.459096
v -0.063761 0.586519 -1.405323
v 0.010851 0.586519 -1.365339
v 0.091830 0.586519 -1.340678
v 0.176064 0.586519 -1.332290
v 0.260316 0.586519 -1.340496
v 0.341348 0.586519 -1.364981
v 0.416046 0.586519 -1.404805
v 0.481540 0.586519 -1.458436
v 0.535312 0.586519 -1.523813
v 0.575297 0.586519 -1.598425
v 0.599957 0.586519 -1.679404
v 0.608346 0.586519 -1.763638
v 0.600139 0.586519 -1.847890
v 0.575654 0.586519 -1.928922
v 0.535831 0.586519 -2.003620
v 0.482200 0.586519 -2.069114
v 0.416822 0.586519 -2.122887
v 0.342210 0.586519 -2.162871
v 0.261231 0.586519 -2.187531
v 0.176997 0.586519 -2.195920
v 0.092745 0.586519 -2.187713
v 0.011713 0.586519 -2.163228
v -0.062985 0.586519 -2.123405
v -0.128479 0.586519 -2.069774
v -0.182251 0.586519 -2.004396
v -0.222236 0.586519 -1.929784
v -0.246896 0.586519 -1.848805
v -0.255284 0.586519 -1.764571
v -0.235477 0.583340 -1.682614
v -0.211663 0.583340 -1.603801
v -0.172930 0.583340 -1.531149
v -0.120768 0.583340 -1.467449
v -0.057180 0.583340 -1.415149
v 0.015388 0.583340 -1.376259
v 0.094150 0.583340 -1.352274
v 0.176077 0.583340 -1.344116
v 0.258021 0.583340 -1.352097
v 0.336834 0.583340 -1.375912
v 0.409487 0.583340 -1.414644
v 0.473187 0.583340 -1.466807
v 0.525487 0.583340 -1.530394
v 0.564377 0.583340 -1.602962
v 0.588362 0.583340 -1.681724
v 0.596520 0.583340 -1.763651
v 0.588539 0.583340 -1.845596
v 0.564724 0.583340 -1.924409
v 0.525991 0.583340 -1.997061
v 0.473829 0.583340 -2.060761
v 0.410241 0.583340 -2.113061
v 0.337673 0.583340 -2.151951
v 0.258911 0.583340 -2.175936
v 0.176984 0.583340 -2.184094
v 0.095040 0.583340 -2.176113
v 0.016227 0.583340 -2.152298
v -0.056426 0.583340 -2.113565
v -0.120126 0.583340 -2.061403
v -0.172426 0.583340 -1.997815
v -0.211315 0.583340 -1.925247
v -0.235300 0.583340 -1.846485
v -0.243459 0.583340 -1.764558
v -0.227456 0.556386 -1.684201
v -0.204105 0.556386 -1.606922
v -0.166127 0.556386 -1.535684
v -0.114980 0.556386 -1.473224
v -0.052631 0.556386 -1.421942
v 0.018525 0.556386 -1.383809
v 0.095753 0.556386 -1.360291
v 0.176086 0.556386 -1.352292
v 0.256435 0.556386 -1.360118
v 0.333713 0.556386 -1.383469
v 0.404952 0.556386 -1.421447
v 0.467412 0.556386 -1.472594
v 0.518694 0.556386 -1.534944
v 0.556826 0.556386 -1.606100
v 0.580344 0.556386 -1.683328
v 0.588344 0.556386 -1.763660
v 0.580518 0.556386 -1.844009
v 0.557167 0.556386 -1.921288
v 0.519188 0.556386 -1.992526
v 0.468041 0.556386 -2.054986
v 0.405692 0.556386 -2.106268
v 0.334536 0.556386 -2.144400
v 0.257308 0.556386 -2.167918
v 0.176976 0.556386 -2.175918
v 0.096626 0.556386 -2.168092
v 0.019347 0.556386 -2.144741
v -0.051891 0.556386 -2.106762
v -0.114351 0.556386 -2.055615
v -0.165632 0.556386 -1.993266
v -0.203765 0.556386 -1.922110
v -0.227283 0.556386 -1.844882
v -0.235282 0.556386 -1.764549
v -0.229079 0.415090 -1.683880
v -0.205634 0.415090 -1.606291
v -0.167503 0.415090 -1.534766
v -0.116151 0.415090 -1.472055
v -0.053551 0.415090 -1.420568
v 0.017891 0.415090 -1.382282
v 0.095429 0.415090 -1.358670
v 0.176084 0.415090 -1.350638
v 0.256756 0.415090 -1.358495
v 0.334345 0.415090 -1.381940
v 0.405869 0.415090 -1.420071
v 0.468580 0.415090 -1.471423
v 0.520068 0.415090 -1.534023
v 0.558354 0.415090 -1.605465
v 0.581966 0.415090 -1.683003
v 0.589998 0.415090 -1.763658
v 0.582140 0.415090 -1.844330
v 0.558696 0.415090 -1.921919
v 0.520564 0.415090 -1.993443
v 0.469212 0.415090 -2.056154
v 0.406612 0.415090 -2.107642
v 0.335170 0.415090 -2.145928
v 0.257632 0.415090 -2.169540
v 0.176977 0.415090 -2.177572
v 0.096305 0.415090 -2.169714
v 0.018716 0.415090 -2.146270
v -0.052808 0.415090 -2.108138
v -0.115519 0.415090 -2.056786
v -0.167007 0.415090 -1.994186
v -0.205292 0.415090 -1.922744
v -0.228905 0.415090 -1.845206
v -0.236936 0.415090 -1.764551
v -0.197337 0.164407 -1.690158
v -0.175727 0.164407 -1.618641
v -0.140580 0.164407 -1.552714
v -0.093246 0.164407 -1.494910
v -0.035545 0.164407 -1.447452
v 0.030306 0.164407 -1.412163
v 0.101776 0.164407 -1.390398
v 0.176119 0.164407 -1.382995
v 0.250478 0.164407 -1.390237
v 0.321995 0.164407 -1.411847
v 0.387922 0.164407 -1.446994
v 0.445725 0.164407 -1.494328
v 0.493183 0.164407 -1.552029
v 0.528473 0.164407 -1.617880
v 0.550238 0.164407 -1.689350
v 0.557641 0.164407 -1.763693
v 0.550398 0.164407 -1.838052
v 0.528788 0.164407 -1.909569
v 0.493641 0.164407 -1.975496
v 0.446308 0.164407 -2.033299
v 0.388607 0.164407 -2.080758
v 0.322756 0.164407 -2.116047
v 0.251285 0.164407 -2.137812
v 0.176942 0.164407 -2.145215
v 0.102583 0.164407 -2.137973
v 0.031066 0.164407 -2.116362
v -0.034861 0.164407 -2.081215
v -0.092664 0.164407 -2.033881
v -0.140122 0.164407 -1.976181
v -0.175412 0.164407 -1.910330
v -0.197176 0.164407 -1.838859
v -0.204580 0.164407 -1.764516
v -0.165877 0.004627 -1.696380
v -0.146085 0.004627 -1.630881
v -0.113896 0.004627 -1.570502
v -0.070545 0.004627 -1.517563
v -0.017700 0.004627 -1.474098
v 0.042610 0.004627 -1.441778
v 0.108066 0.004627 -1.421845
v 0.176153 0.004627 -1.415064
v 0.244255 0.004627 -1.421697
v 0.309754 0.004627 -1.441489
v 0.370133 0.004627 -1.473679
v 0.423073 0.004627 -1.517029
v 0.466538 0.004627 -1.569875
v 0.498858 0.004627 -1.630184
v 0.518791 0.004627 -1.695640
v 0.525571 0.004627 -1.763728
v 0.518938 0.004627 -1.831829
v 0.499146 0.004627 -1.897328
v 0.466957 0.004627 -1.957708
v 0.423606 0.004627 -2.010647
v 0.370761 0.004627 -2.054112
v 0.310451 0.004627 -2.086432
v 0.244995 0.004627 -2.106365
v 0.176908 0.004627 -2.113146
v 0.108806 0.004627 -2.106512
v 0.043307 0.004627 -2.086721
v -0.017073 0.004627 -2.054531
v -0.070012 0.004627 -2.011180
v -0.113477 0.004627 -1.958335
v -0.145797 0.004627 -1.898025
v -0.165730 0.004627 -1.832569
v -0.172510 0.004627 -1.764482
v -0.145695 -0.060026 -1.700372
v -0.127070 -0.060026 -1.638734
v -0.096778 -0.060026 -1.581913
v -0.055982 -0.060026 -1.532094
v -0.006252 -0.060026 -1.491191
v 0.050503 -0.060026 -1.460776
v 0.112102 -0.060026 -1.442018
v 0.176176 -0.060026 -1.435637
v 0.240263 -0.060026 -1.441879
v 0.301902 -0.060026 -1.460504
v 0.358723 -0.060026 -1.490796
v 0.408542 -0.060026 -1.531592
v 0.449445 -0.060026 -1.581323
v 0.479860 -0.060026 -1.638078
v 0.498618 -0.060026 -1.699676
v 0.504999 -0.060026 -1.763750
v 0.498757 -0.060026 -1.827838
v 0.480131 -0.060026 -1.889476
v 0.449839 -0.060026 -1.946297
v 0.409044 -0.060026 -1.996116
v 0.359313 -0.060026 -2.037019
v 0.302558 -0.060026 -2.067434
v 0.240960 -0.060026 -2.086192
v 0.176885 -0.060026 -2.092573
v 0.112798 -0.060026 -2.086331
v 0.051159 -0.060026 -2.067706
v -0.005662 -0.060026 -2.037413
v -0.055481 -0.060026 -1.996618
v -0.096384 -0.060026 -1.946887
v -0.126799 -0.060026 -1.890132
v -0.145557 -0.060026 -1.828534
v -0.151937 -0.060026 -1.764459
v -0.130657 -0.077707 -1.703346
v -0.112901 -0.077707 -1.644585
v -0.084023 -0.077707 -1.590416
v -0.045131 -0.077707 -1.542922
v 0.002279 -0.077707 -1.503928
v 0.056385 -0.077707 -1.474932
v 0.115108 -0.077707 -1.457049
v 0.176192 -0.077707 -1.450966
v 0.237289 -0.077707 -1.456917
v 0.296051 -0.077707 -1.474673
v 0.350220 -0.077707 -1.503551
v 0.397714 -0.077707 -1.542443
v 0.436708 -0.077707 -1.589853
v 0.465704 -0.077707 -1.643959
v 0.483586 -0.077707 -1.702683
v 0.489669 -0.077707 -1.763767
v 0.483718 -0.077707 -1.824863
v 0.465963 -0.077707 -1.883625
v 0.437084 -0.077707 -1.937794
v 0.398192 -0.077707 -1.985288
v 0.350782 -0.077707 -2.024282
v 0.296676 -0.077707 -2.053278
v 0.237953 -0.077707 -2.071161
v 0.176869 -0.077707 -2.077244
v 0.115772 -0.077707 -2.071293
v 0.057010 -0.077707 -2.053537
v 0.002841 -0.077707 -2.024658
v -0.044653 -0.077707 -1.985766
v -0.083647 -0.077707 -1.938356
v -0.112642 -0.077707 -1.884250
v -0.130525 -0.077707 -1.825527
v -0.136608 -0.077707 -1.764443
v -0.104136 -0.084799 -1.708592
v -0.087913 -0.084799 -1.654903
v -0.061528 -0.084799 -1.605411
v -0.025994 -0.084799 -1.562018
v 0.017323 -0.084799 -1.526390
v 0.066758 -0.084799 -1.499898
v 0.120411 -0.084799 -1.483559
v 0.176221 -0.084799 -1.478001
v 0.232043 -0.084799 -1.483438
v 0.285732 -0.084799 -1.499661
v 0.335224 -0.084799 -1.526047
v 0.378618 -0.084799 -1.561580
v 0.414245 -0.084799 -1.604897
v 0.440738 -0.084799 -1.654332
v 0.457077 -0.084799 -1.707986
v 0.462634 -0.084799 -1.763796
v 0.457197 -0.084799 -1.819618
v 0.440974 -0.084799 -1.873306
v 0.414589 -0.084799 -1.922799
v 0.379055 -0.084799 -1.966192
v 0.335738 -0.084799 -2.001820
v 0.286303 -0.084799 -2.028312
v 0.232650 -0.084799 -2.044651
v 0.176840 -0.084799 -2.050209
v 0.121018 -0.084799 -2.044771
v 0.067329 -0.084799 -2.028548
v 0.017837 -0.084799 -2.002163
v -0.025557 -0.084799 -1.966629
v -0.061184 -0.084799 -1.923312
v -0.087676 -0.084799 -1.873877
v -0.104015 -0.084799 -1.820224
v -0.109573 -0.084799 -1.764414
v -0.209375 0.482469 -2.022562
v -0.252382 0.482469 -1.942309
v 0.640990 0.482469 -1.763603
v 0.632164 0.482469 -1.854224
v -0.209932 0.482469 -1.506482
v -0.152247 0.482469 -1.436037
v -0.278907 0.482469 -1.855208
v 0.605828 0.482469 -1.941382
v -0.081927 0.482469 -1.378200
v -0.287929 0.482469 -1.764606
v 0.562994 0.482469 -2.021728
v -0.001674 0.482469 -1.335192
v -0.279102 0.482469 -1.673986
v 0.505308 0.482469 -2.092173
v 0.085427 0.482469 -1.308668
v 0.434988 0.482469 -2.150010
v 0.176029 0.482469 -1.299645
v 0.354735 0.482469 -2.193018
v 0.266650 0.482469 -1.308472
v 0.267634 0.482469 -2.219542
v 0.353808 0.482469 -1.334808
v 0.177032 0.482469 -2.228565
v 0.434153 0.482469 -1.377642
v 0.086411 0.482469 -2.219738
v 0.504598 0.482469 -1.435327
v -0.000747 0.482469 -2.193402
v 0.562436 0.482469 -1.505647
v -0.081092 0.482469 -2.150568
v 0.605443 0.482469 -1.585900
v -0.151537 0.482469 -2.092882
v 0.631968 0.482469 -1.673001
v -0.252766 0.482469 -1.586828
v 0.006452 0.288255 -2.175969
v -0.070631 0.288255 -2.134875
v 0.546766 0.288255 -1.516142
v 0.588027 0.288255 -1.593136
v -0.138216 0.288255 -2.079532
v 0.613474 0.288255 -1.676700
v -0.260601 0.288255 -1.677645
v -0.235334 0.288255 -1.594026
v -0.193705 0.288255 -2.012067
v 0.622130 0.288255 -1.763623
v -0.194239 0.288255 -1.516943
v -0.234966 0.288255 -1.935073
v 0.613662 0.288255 -1.850565
v -0.138896 0.288255 -1.449359
v -0.260413 0.288255 -1.851509
v 0.588395 0.288255 -1.934184
v -0.071432 0.288255 -1.393870
v -0.269069 0.288255 -1.764586
v 0.547301 0.288255 -2.011266
v 0.005562 0.288255 -1.352609
v 0.491958 0.288255 -2.078851
v 0.089126 0.288255 -1.327161
v 0.424493 0.288255 -2.134340
v 0.176049 0.288255 -1.318505
v 0.347499 0.288255 -2.175601
v 0.262990 0.288255 -1.326973
v 0.263935 0.288255 -2.201049
v 0.346609 0.288255 -1.352240
v 0.177012 0.288255 -2.209705
v 0.423692 0.288255 -1.393335
v 0.090071 0.288255 -2.201236
v 0.491277 0.288255 -1.448678
v 0.555616 0.083186 -1.920647
v -0.051697 0.083186 -1.423336
v -0.233605 0.083186 -1.764548
v 0.517792 0.083186 -1.991595
v 0.019169 0.083186 -1.385359
v -0.225811 0.083186 -1.684526
v 0.466853 0.083186 -2.053801
v 0.096082 0.083186 -1.361937
v 0.404758 0.083186 -2.104874
v 0.176087 0.083186 -1.353969
v 0.333892 0.083186 -2.142851
v 0.256109 0.083186 -1.361764
v 0.256979 0.083186 -2.166273
v 0.333073 0.083186 -1.385020
v 0.176974 0.083186 -2.174240
v 0.404021 0.083186 -1.422843
v 0.096952 0.083186 -2.166446
v 0.466227 0.083186 -1.473782
v 0.019988 0.083186 -2.143190
v 0.517300 0.083186 -1.535877
v -0.050960 0.083186 -2.105366
v 0.555277 0.083186 -1.606743
v -0.113166 0.083186 -2.054428
v 0.578699 0.083186 -1.683657
v -0.202555 0.083186 -1.607562
v -0.164238 0.083186 -1.992332
v 0.586666 0.083186 -1.763662
v -0.164731 0.083186 -1.536614
v -0.202216 0.083186 -1.921466
v 0.578872 0.083186 -1.843684
v -0.113792 0.083186 -1.474409
v -0.225638 0.083186 -1.844553
vn -0.1844 0.3107 -0.9324
vn -0.1908 0.1805 -0.9649
vn -0.5930 0.1626 -0.7886
vn -0.5936 0.2791 -0.7547
vn -0.9116 0.1022 -0.3982
vn -0.9116 0.1750 -0.3719
vn -0.9836 0.0001 0.1805
vn -0.9836 0.0021 0.1804
vn -0.7052 -0.1008 0.7017
vn -0.7157 -0.1713 0.6770
vn -0.2557 -0.1598 0.9534
vn -0.2699 -0.2759 0.9225
vn 0.1910 -0.1773 0.9654
vn 0.1846 -0.3076 0.9334
vn 0.5994 -0.1598 0.7843
vn 0.6007 -0.2759 0.7503
vn 0.9193 -0.1008 0.3804
vn 0.9196 -0.1713 0.3536
vn 0.9782 0.0001 -0.2075
vn 0.9782 0.0021 -0.2076
vn 0.6913 0.1022 -0.7153
vn 0.7013 0.1750 -0.6910
vn 0.2481 0.1626 -0.9550
vn 0.2616 0.2791 -0.9239
vn -0.1937 0.0532 -0.9796
vn -0.5893 0.0478 -0.8065
vn -0.9096 0.0293 -0.4145
vn -0.9835 -0.0016 0.1810
vn -0.6967 -0.0298 0.7167
vn -0.2450 -0.0455 0.9684
vn 0.1938 -0.0502 0.9797
vn 0.5953 -0.0455 0.8022
vn 0.9171 -0.0298 0.3976
vn 0.9783 -0.0016 -0.2070
vn 0.6833 0.0293 -0.7295
vn 0.2379 0.0478 -0.9701
vn -0.1935 -0.0695 -0.9786
vn -0.5833 -0.0635 -0.8097
vn -0.9060 -0.0425 -0.4211
vn -0.9833 -0.0030 0.1816
vn -0.6904 0.0404 0.7223
vn -0.2379 0.0652 0.9691
vn 0.1935 0.0721 0.9784
vn 0.5889 0.0652 0.8056
vn 0.9134 0.0404 0.4051
vn 0.9785 -0.0030 -0.2064
vn 0.6775 -0.0425 -0.7343
vn 0.2311 -0.0635 -0.9708
vn -0.1906 -0.1865 -0.9638
vn -0.5757 -0.1704 -0.7997
vn -0.9012 -0.1123 -0.4184
vn -0.9832 -0.0040 0.1823
vn -0.6865 0.1089 0.7189
vn -0.2343 0.1714 0.9569
vn 0.1905 0.1885 0.9634
vn 0.5810 0.1714 0.7956
vn 0.9085 0.1089 0.4034
vn 0.9786 -0.0040 -0.2057
vn 0.6741 -0.1123 -0.7300
vn 0.2279 -0.1704 -0.9586
vn -0.1852 -0.2973 -0.9366
vn -0.5669 -0.2719 -0.7776
vn -0.8957 -0.1793 -0.4070
vn -0.9831 -0.0049 0.1830
vn -0.6854 0.1747 0.7069
vn -0.2344 0.2723 0.9332
vn 0.1852 0.2987 0.9362
vn 0.5720 0.2723 0.7737
vn 0.9029 0.1747 0.3927
vn 0.9787 -0.0049 -0.2050
vn 0.6733 -0.1793 -0.7173
vn 0.2282 -0.2719 -0.9348
vn -0.1777 -0.4017 -0.8983
vn -0.5574 -0.3679 -0.7443
vn -0.8895 -0.2429 -0.3871
vn -0.9830 -0.0055 0.1836
vn -0.6869 0.2373 0.6869
vn -0.2381 0.3675 0.8990
vn 0.1776 0.4026 0.8980
vn 0.5624 0.3675 0.7407
vn 0.8967 0.2373 0.3737
vn 0.9789 -0.0055 -0.2044
vn 0.6751 -0.2429 -0.6966
vn 0.2320 -0.3679 -0.9004
vn -0.1680 -0.4999 -0.8496
vn -0.5473 -0.4579 -0.7005
vn -0.8828 -0.3024 -0.3593
vn -0.9829 -0.0061 0.1840
vn -0.6912 0.2959 0.6593
vn -0.2453 0.4569 0.8550
vn 0.1680 0.5001 0.8495
vn 0.5523 0.4569 0.6973
vn 0.8901 0.2959 0.3465
vn 0.9789 -0.0061 -0.2040
vn 0.6796 -0.3024 -0.6683
vn 0.2394 -0.4579 -0.8561
vn -0.1564 -0.5916 -0.7909
vn -0.5368 -0.5419 -0.6467
vn -0.8760 -0.3575 -0.3238
vn -0.9828 -0.0067 0.1844
vn -0.6982 0.3500 0.6244
vn -0.2561 0.5401 0.8017
vn 0.1565 0.5912 0.7911
vn 0.5419 0.5401 0.6438
vn 0.8834 0.3500 0.3116
vn 0.9790 -0.0067 -0.2036
vn 0.6867 -0.3575 -0.6329
vn 0.2502 -0.5419 -0.8023
vn -0.1428 -0.6767 -0.7223
vn -0.5260 -0.6193 -0.5830
vn -0.8689 -0.4075 -0.2810
vn -0.9828 -0.0074 0.1847
vn -0.7079 0.3990 0.5828
vn -0.2702 0.6170 0.7391
vn 0.1430 0.6759 0.7229
vn 0.5313 0.6170 0.5806
vn 0.8765 0.3990 0.2694
vn 0.9791 -0.0074 -0.2033
vn 0.6965 -0.4075 -0.5906
vn 0.2644 -0.6193 -0.7393
vn -0.1273 -0.7548 -0.6435
vn -0.5147 -0.6896 -0.5094
vn -0.8615 -0.4519 -0.2312
vn -0.9827 -0.0083 0.1851
vn -0.7201 0.4423 0.5346
vn -0.2879 0.6868 0.6673
vn 0.1275 0.7537 0.6447
vn 0.5202 0.6868 0.5075
vn 0.8694 0.4423 0.2202
vn 0.9792 -0.0083 -0.2029
vn 0.7086 -0.4519 -0.5418
vn 0.2820 -0.6896 -0.6670
vn -0.1096 -0.8251 -0.5543
vn -0.5029 -0.7521 -0.4259
vn -0.8539 -0.4901 -0.1748
vn -0.9826 -0.0093 0.1856
vn -0.7346 0.4792 0.4802
vn -0.3088 0.7490 0.5862
vn 0.1100 0.8238 0.5560
vn 0.5087 0.7490 0.4245
vn 0.8621 0.4792 0.1644
vn 0.9792 -0.0093 -0.2024
vn 0.7230 -0.4901 -0.4867
vn 0.3029 -0.7521 -0.5853
vn -0.0865 -0.8950 -0.4375
vn -0.4888 -0.8139 -0.3140
vn -0.8441 -0.5284 -0.0904
vn -0.9778 -0.0172 0.2087
vn -0.7456 0.5009 0.4394
vn -0.3286 0.7935 0.5121
vn 0.0934 0.8765 0.4722
vn 0.4988 0.7935 0.3484
vn 0.8567 0.5009 0.1225
vn 0.9836 -0.0172 -0.1792
vn 0.7461 -0.5284 -0.4050
vn 0.3324 -0.8139 -0.4765
vn -0.0526 -0.9626 -0.2659
vn -0.4472 -0.8788 -0.1663
vn -0.8139 -0.5809 -0.0113
vn -0.9800 -0.0246 0.1975
vn -0.7527 0.5465 0.3670
vn -0.3302 0.8446 0.4215
vn 0.0759 0.9203 0.3836
vn 0.4658 0.8446 0.2640
vn 0.8357 0.5465 0.0528
vn 0.9814 -0.0246 -0.1904
vn 0.7483 -0.5809 -0.3203
vn 0.3503 -0.8788 -0.3240
vn -0.0324 -0.9860 -0.1638
vn -0.3922 -0.9155 -0.0893
vn -0.7457 -0.6662 0.0041
vn -0.9792 -0.1494 0.1374
vn -0.8171 0.5032 0.2814
vn -0.3643 0.8616 0.3535
vn 0.0649 0.9423 0.3283
vn 0.4714 0.8616 0.1882
vn 0.8627 0.5032 -0.0509
vn 0.9577 -0.1494 -0.2457
vn 0.6911 -0.6662 -0.2801
vn 0.3287 -0.9155 -0.2319
vn -0.0083 0.9991 -0.0419
vn -0.0160 0.9966 -0.0808
vn -0.4526 0.8916 0.0139
vn -0.4417 0.8959 0.0469
vn -0.8244 0.5540 0.1155
vn -0.8159 0.5625 0.1337
vn -0.9808 0.0061 0.1950
vn -0.9807 0.0164 0.1949
vn -0.8096 -0.5461 0.2152
vn -0.8166 -0.5401 0.2035
vn -0.4232 -0.8883 0.1783
vn -0.4299 -0.8878 0.1645
vn 0.0207 -0.9943 0.1046
vn 0.0180 -0.9956 0.0913
vn 0.4592 -0.8883 0.0038
vn 0.4602 -0.8878 -0.0116
vn 0.8306 -0.5461 -0.1091
vn 0.8326 -0.5401 -0.1226
vn 0.9811 0.0061 -0.1931
vn 0.9810 0.0164 -0.1931
vn 0.8063 0.5540 -0.2070
vn 0.8054 0.5625 -0.1870
vn 0.4238 0.8916 -0.1594
vn 0.4263 0.8959 -0.1247
vn -0.0381 0.9806 -0.1924
vn -0.4751 0.8759 -0.0842
vn -0.8367 0.5448 0.0558
vn -0.9811 0.0143 0.1927
vn -0.8073 -0.5264 0.2668
vn -0.4168 -0.8715 0.2582
vn 0.0376 -0.9810 0.1902
vn 0.4837 -0.8715 0.0801
vn 0.8481 -0.5264 -0.0606
vn 0.9806 0.0143 -0.1953
vn 0.7950 0.5448 -0.2669
vn 0.4073 0.8759 -0.2588
vn -0.0665 0.9394 -0.3362
vn -0.5043 0.8372 -0.2113
vn -0.8550 0.5181 -0.0226
vn -0.9817 0.0139 0.1900
vn -0.7952 -0.5000 0.3431
vn -0.3959 -0.8328 0.3868
vn 0.0662 -0.9399 0.3348
vn 0.5134 -0.8328 0.2069
vn 0.8659 -0.5000 0.0145
vn 0.9801 0.0139 -0.1980
vn 0.7820 0.5181 -0.3464
vn 0.3859 0.8372 -0.3874
vn -0.0939 0.8751 -0.4747
vn -0.5307 0.7790 -0.3341
vn -0.8713 0.4807 -0.0983
vn -0.9822 0.0128 0.1874
vn -0.7822 -0.4637 0.4161
vn -0.3738 -0.7746 0.5102
vn 0.0938 -0.8753 0.4743
vn 0.5399 -0.7746 0.3294
vn 0.8817 -0.4637 0.0869
vn 0.9796 0.0128 -0.2006
vn 0.7683 0.4807 -0.4226
vn 0.3635 0.7790 -0.5109
vn -0.1191 0.7891 -0.6025
vn -0.5530 0.7024 -0.4480
vn -0.8852 0.4333 -0.1692
vn -0.9827 0.0111 0.1849
vn -0.7686 -0.4183 0.4840
vn -0.3510 -0.6981 0.6240
vn 0.1193 -0.7888 0.6030
vn 0.5621 -0.6981 0.4433
vn 0.8950 -0.4183 0.1549
vn 0.9791 0.0111 -0.2030
vn 0.7541 0.4333 -0.4935
vn 0.3408 0.7024 -0.6248
vn -0.1413 0.6850 -0.7147
vn -0.5705 0.6104 -0.5494
vn -0.8962 0.3773 -0.2333
vn -0.9831 0.0091 0.1830
vn -0.7547 -0.3650 0.5452
vn -0.3284 -0.6063 0.7242
vn 0.1416 -0.6838 0.7158
vn 0.5794 -0.6063 0.5447
vn 0.9054 -0.3650 0.2168
vn 0.9787 0.0091 -0.2050
vn 0.7399 0.3773 -0.5569
vn 0.3184 0.6104 -0.7252
vn -0.1598 0.5672 -0.8079
vn -0.5830 0.5065 -0.6352
vn -0.9042 0.3144 -0.2891
vn -0.9833 0.0067 0.1816
vn -0.7409 -0.3049 0.5983
vn -0.3068 -0.5027 0.8082
vn 0.1600 -0.5652 0.8093
vn 0.5914 -0.5027 0.6305
vn 0.9129 -0.3049 0.2712
vn 0.9784 0.0067 -0.2064
vn 0.7260 0.3144 -0.6116
vn 0.2973 0.5065 -0.8093
vn -0.1741 0.4409 -0.8805
vn -0.5906 0.3948 -0.7038
vn -0.9092 0.2463 -0.3355
vn -0.9835 0.0043 0.1807
vn -0.7277 -0.2399 0.6425
vn -0.2870 -0.3912 0.8744
vn 0.1744 -0.4382 0.8818
vn 0.5983 -0.3912 0.6992
vn 0.9175 -0.2399 0.3171
vn 0.9782 0.0043 -0.2073
vn 0.7131 0.2463 -0.6564
vn 0.2782 0.3948 -0.8756
vn 0.8113 -0.2220 -0.5408
vn 0.8199 -0.1704 -0.5465
vn 0.9108 -0.1704 -0.3761
vn 0.9012 -0.2220 -0.3721
vn -0.3741 -0.2220 0.9004
vn -0.3781 -0.1704 0.9099
vn -0.5483 -0.1704 0.8187
vn -0.5426 -0.2220 0.8101
vn -0.9565 -0.2220 0.1892
vn -0.9666 -0.1704 0.1912
vn -0.9854 -0.1704 -0.0010
vn -0.9750 -0.2220 -0.0010
vn 0.6902 -0.2220 -0.6887
vn 0.6975 -0.1704 -0.6960
vn -0.1912 -0.2220 0.9561
vn -0.1933 -0.1704 0.9662
vn 0.5426 -0.2220 -0.8101
vn 0.5483 -0.1704 -0.8187
vn -0.0010 -0.2220 0.9750
vn -0.0010 -0.1704 0.9854
vn 0.3741 -0.2220 -0.9004
vn 0.3781 -0.1704 -0.9099
vn 0.1892 -0.2220 0.9565
vn 0.1912 -0.1704 0.9666
vn 0.1912 -0.2220 -0.9561
vn 0.1933 -0.1704 -0.9662
vn 0.3721 -0.2220 0.9012
vn 0.3761 -0.1704 0.9108
vn 0.0010 -0.2220 -0.9750
vn 0.0010 -0.1704 -0.9854
vn 0.5408 -0.2220 0.8113
vn 0.5465 -0.1704 0.8199
vn -0.1892 -0.2220 -0.9565
vn -0.1912 -0.1704 -0.9666
vn 0.6887 -0.2220 0.6902
vn 0.6960 -0.1704 0.6975
vn -0.3721 -0.2220 -0.9012
vn -0.3761 -0.1704 -0.9108
vn 0.8101 -0.2220 0.5426
vn 0.8187 -0.1704 0.5483
vn -0.5408 -0.2220 -0.8113
vn -0.5465 -0.1704 -0.8199
vn 0.9004 -0.2220 0.3741
vn 0.9099 -0.1704 0.3781
vn -0.6887 -0.2220 -0.6902
vn -0.6960 -0.1704 -0.6975
vn 0.9561 -0.2220 0.1912
vn 0.9662 -0.1704 0.1933
vn -0.9012 -0.2220 0.3721
vn -0.9108 -0.1704 0.3761
vn -0.8101 -0.2220 -0.5426
vn -0.8187 -0.1704 -0.5483
vn 0.9750 -0.2220 0.0010
vn 0.9854 -0.1704 0.0010
vn -0.8113 -0.2220 0.5408
vn -0.8199 -0.1704 0.5465
vn -0.9004 -0.2220 -0.3741
vn -0.9099 -0.1704 -0.3781
vn 0.9565 -0.2220 -0.1892
vn 0.9666 -0.1704 -0.1912
vn -0.6902 -0.2220 0.6887
vn -0.6975 -0.1704 0.6960
vn -0.9561 -0.2220 -0.1912
vn -0.9662 -0.1704 -0.1933
vn -0.5490 -0.1430 -0.8235
vn -0.5525 -0.0885 -0.8288
vn -0.3802 -0.0885 -0.9207
vn -0.3778 -0.1430 -0.9148
vn 0.9140 -0.1430 0.3797
vn 0.9198 -0.0885 0.3822
vn 0.8276 -0.0885 0.5543
vn 0.8223 -0.1430 0.5507
vn -0.6991 -0.1430 -0.7006
vn -0.7035 -0.0885 -0.7051
vn 0.9705 -0.1430 0.1941
vn 0.9767 -0.0885 0.1954
vn -0.9148 -0.1430 0.3778
vn -0.9207 -0.0885 0.3802
vn -0.9771 -0.0885 0.1932
vn -0.9709 -0.1430 0.1920
vn -0.8223 -0.1430 -0.5507
vn -0.8276 -0.0885 -0.5543
vn 0.9897 -0.1430 0.0011
vn 0.9961 -0.0885 0.0011
vn -0.8235 -0.1430 0.5490
vn -0.8288 -0.0885 0.5525
vn -0.9140 -0.1430 -0.3797
vn -0.9198 -0.0885 -0.3822
vn 0.9709 -0.1430 -0.1920
vn 0.9771 -0.0885 -0.1932
vn -0.7006 -0.1430 0.6991
vn -0.7051 -0.0885 0.7035
vn -0.9705 -0.1430 -0.1941
vn -0.9767 -0.0885 -0.1953
vn 0.9148 -0.1430 -0.3778
vn 0.9207 -0.0885 -0.3802
vn -0.5507 -0.1430 0.8223
vn -0.5543 -0.0885 0.8276
vn -0.9897 -0.1430 -0.0011
vn -0.9961 -0.0885 -0.0011
vn 0.8235 -0.1430 -0.5490
vn 0.8288 -0.0885 -0.5525
vn -0.3797 -0.1430 0.9140
vn -0.3822 -0.0885 0.9198
vn 0.7006 -0.1430 -0.6991
vn 0.7051 -0.0885 -0.7035
vn -0.1941 -0.1430 0.9705
vn -0.1954 -0.0885 0.9767
vn 0.5507 -0.1430 -0.8223
vn 0.5543 -0.0885 -0.8276
vn -0.0011 -0.1430 0.9897
vn -0.0011 -0.0885 0.9961
vn 0.3797 -0.1430 -0.9140
vn 0.3822 -0.0885 -0.9198
vn 0.1920 -0.1430 0.9709
vn 0.1932 -0.0885 0.9771
vn 0.1941 -0.1430 -0.9705
vn 0.1954 -0.0885 -0.9767
vn 0.3778 -0.1430 0.9148
vn 0.3802 -0.0885 0.9207
vn 0.0011 -0.1430 -0.9897
vn 0.0011 -0.0885 -0.9961
vn 0.5490 -0.1430 0.8235
vn 0.5525 -0.0885 0.8288
vn -0.1920 -0.1430 -0.9709
vn -0.1932 -0.0885 -0.9771
vn 0.6991 -0.1430 0.7006
vn 0.7035 -0.0885 0.7051
vn -0.9229 0.0332 -0.3835
vn -0.8944 0.2486 -0.3716
vn -0.8048 0.2486 -0.5390
vn -0.8304 0.0332 -0.5561
vn 0.9804 0.0332 -0.1939
vn 0.9502 0.2486 -0.1879
vn 0.9686 0.2486 0.0010
vn 0.9994 0.0332 0.0011
vn -0.7074 0.0332 0.7059
vn -0.6856 0.2486 0.6841
vn -0.8059 0.2486 0.5372
vn -0.8316 0.0332 0.5543
vn -0.9800 0.0332 -0.1960
vn -0.9498 0.2486 -0.1900
vn 0.9238 0.0332 -0.3815
vn 0.8953 0.2486 -0.3697
vn -0.5561 0.0332 0.8304
vn -0.5390 0.2486 0.8048
vn -0.9994 0.0332 -0.0011
vn -0.9686 0.2486 -0.0010
vn 0.8316 0.0332 -0.5543
vn 0.8059 0.2486 -0.5372
vn -0.3835 0.0332 0.9229
vn -0.3716 0.2486 0.8944
vn -0.9804 0.0332 0.1939
vn -0.9502 0.2486 0.1879
vn 0.7074 0.0332 -0.7059
vn 0.6856 0.2486 -0.6841
vn -0.1960 0.0332 0.9800
vn -0.1900 0.2486 0.9498
vn 0.5561 0.0332 -0.8304
vn 0.5390 0.2486 -0.8048
vn -0.0011 0.0332 0.9994
vn -0.0010 0.2486 0.9686
vn 0.3835 0.0332 -0.9229
vn 0.3716 0.2486 -0.8944
vn 0.1939 0.0332 0.9804
vn 0.1879 0.2486 0.9502
vn 0.1960 0.0332 -0.9800
vn 0.1900 0.2486 -0.9498
vn 0.3815 0.0332 0.9238
vn 0.3697 0.2486 0.8953
vn 0.0011 0.0332 -0.9994
vn 0.0010 0.2486 -0.9686
vn 0.5543 0.0332 0.8316
vn 0.5372 0.2486 0.8059
vn -0.1939 0.0332 -0.9804
vn -0.1879 0.2486 -0.9502
vn 0.7059 0.0332 0.7074
vn 0.6841 0.2486 0.6856
vn -0.3815 0.0332 -0.9238
vn -0.3697 0.2486 -0.8953
vn 0.8304 0.0332 0.5561
vn 0.8048 0.2486 0.5390
vn -0.5543 0.0332 -0.8316
vn -0.5372 0.2486 -0.8059
vn 0.9229 0.0332 0.3835
vn 0.8944 0.2486 0.3716
vn -0.7059 0.0332 -0.7074
vn -0.6841 0.2486 -0.6856
vn 0.9800 0.0332 0.1960
vn 0.9498 0.2486 0.1900
vn -0.9238 0.0332 0.3815
vn -0.8953 0.2486 0.3697
vn 0.7780 -0.5399 -0.3213
vn 0.6664 -0.6929 -0.2752
vn 0.5999 -0.6929 -0.3999
vn 0.7004 -0.5399 -0.4669
vn -0.4684 -0.5399 0.6994
vn -0.4012 -0.6929 0.5990
vn -0.2766 -0.6929 0.6658
vn -0.3229 -0.5399 0.7773
vn -0.8417 -0.5399 -0.0009
vn -0.7210 -0.6929 -0.0008
vn -0.7073 -0.6929 0.1399
vn -0.8257 -0.5399 0.1633
vn 0.5104 -0.6929 -0.5093
vn 0.5958 -0.5399 -0.5945
vn -0.1414 -0.6929 0.7070
vn -0.1651 -0.5399 0.8254
vn 0.4012 -0.6929 -0.5990
vn 0.4684 -0.5399 -0.6994
vn -0.0008 -0.6929 0.7210
vn -0.0009 -0.5399 0.8417
vn 0.2766 -0.6929 -0.6658
vn 0.3229 -0.5399 -0.7773
vn 0.1399 -0.6929 0.7073
vn 0.1633 -0.5399 0.8257
vn 0.1414 -0.6929 -0.7070
vn 0.1651 -0.5399 -0.8254
vn 0.2752 -0.6929 0.6664
vn 0.3213 -0.5399 0.7780
vn 0.0008 -0.6929 -0.7210
vn 0.0009 -0.5399 -0.8417
vn 0.3999 -0.6929 0.5999
vn 0.4669 -0.5399 0.7004
vn -0.1399 -0.6929 -0.7073
vn -0.1633 -0.5399 -0.8257
vn 0.5093 -0.6929 0.5104
vn 0.5945 -0.5399 0.5958
vn -0.2752 -0.6929 -0.6664
vn -0.3213 -0.5399 -0.7780
vn 0.5990 -0.6929 0.4012
vn 0.6994 -0.5399 0.4684
vn -0.3999 -0.6929 -0.5999
vn -0.4669 -0.5399 -0.7004
vn 0.6658 -0.6929 0.2766
vn 0.7773 -0.5399 0.3229
vn -0.5093 -0.6929 -0.5104
vn -0.5945 -0.5399 -0.5958
vn 0.7070 -0.6929 0.1414
vn 0.8254 -0.5399 0.1651
vn -0.6664 -0.6929 0.2752
vn -0.7780 -0.5399 0.3213
vn -0.5990 -0.6929 -0.4012
vn -0.6994 -0.5399 -0.4684
vn 0.7210 -0.6929 0.0008
vn 0.8417 -0.5399 0.0009
vn -0.5999 -0.6929 0.3999
vn -0.7004 -0.5399 0.4669
vn -0.6658 -0.6929 -0.2766
vn -0.7773 -0.5399 -0.3229
vn 0.7073 -0.6929 -0.1399
vn 0.8257 -0.5399 -0.1633
vn -0.5104 -0.6929 0.5093
vn -0.5958 -0.5399 0.5945
vn -0.7070 -0.6929 -0.1414
vn -0.8254 -0.5399 -0.1651
vn 0.0876 -0.9736 -0.2108
vn 0.0448 -0.9736 -0.2238
vn 0.0443 -0.9736 0.2239
vn 0.0871 -0.9736 0.2110
vn 0.0002 -0.9736 -0.2282
vn 0.1266 -0.9736 0.1899
vn -0.0443 -0.9736 -0.2239
vn 0.1612 -0.9736 0.1616
vn -0.0871 -0.9736 -0.2110
vn 0.1896 -0.9736 0.1270
vn -0.1266 -0.9736 -0.1899
vn 0.2108 -0.9736 0.0876
vn -0.1612 -0.9736 -0.1616
vn 0.2238 -0.9736 0.0448
vn -0.2239 -0.9736 0.0443
vn -0.2110 -0.9736 0.0871
vn -0.1896 -0.9736 -0.1270
vn 0.2282 -0.9736 0.0002
vn -0.1899 -0.9736 0.1266
vn -0.2108 -0.9736 -0.0876
vn 0.2239 -0.9736 -0.0443
vn -0.1616 -0.9736 0.1612
vn -0.2238 -0.9736 -0.0448
vn 0.2110 -0.9736 -0.0871
vn -0.1270 -0.9736 0.1896
vn -0.2282 -0.9736 -0.0002
vn 0.1899 -0.9736 -0.1266
vn -0.0876 -0.9736 0.2108
vn 0.1616 -0.9736 -0.1612
vn -0.0448 -0.9736 0.2238
vn 0.1270 -0.9736 -0.1896
vn -0.0002 -0.9736 0.2282
vn 0.0290 -0.9887 0.1469
vn 0.0571 -0.9887 0.1383
vn -0.1057 -0.9887 -0.1060
vn -0.1244 -0.9887 -0.0833
vn 0.0830 -0.9887 0.1245
vn -0.1382 -0.9887 -0.0574
vn 0.1057 -0.9887 0.1060
vn -0.1468 -0.9887 -0.0294
vn 0.1469 -0.9887 -0.0290
vn 0.1383 -0.9887 -0.0571
vn 0.1244 -0.9887 0.0833
vn -0.1497 -0.9887 -0.0002
vn 0.1245 -0.9887 -0.0830
vn 0.1382 -0.9887 0.0574
vn -0.1469 -0.9887 0.0290
vn 0.1060 -0.9887 -0.1057
vn 0.1468 -0.9887 0.0294
vn -0.1383 -0.9887 0.0571
vn 0.0833 -0.9887 -0.1244
vn 0.1497 -0.9887 0.0002
vn -0.1245 -0.9887 0.0830
vn 0.0574 -0.9887 -0.1382
vn -0.1060 -0.9887 0.1057
vn 0.0294 -0.9887 -0.1468
vn -0.0833 -0.9887 0.1244
vn 0.0002 -0.9887 -0.1497
vn -0.0574 -0.9887 0.1382
vn -0.0290 -0.9887 -0.1469
vn -0.0294 -0.9887 0.1468
vn -0.0571 -0.9887 -0.1383
vn -0.0002 -0.9887 0.1497
vn -0.0830 -0.9887 -0.1245
vn -0.9088 -0.4171 -0.0010
vn -0.9476 -0.3194 -0.0010
vn -0.9292 -0.3194 -0.1859
vn -0.8912 -0.4171 -0.1783
vn -0.5058 -0.4171 0.7551
vn -0.5273 -0.3194 0.7873
vn -0.6708 -0.3194 0.6693
vn -0.6433 -0.4171 0.6420
vn 0.8401 -0.4171 -0.3469
vn 0.8759 -0.3194 -0.3617
vn 0.9296 -0.3194 -0.1838
vn 0.8916 -0.4171 -0.1763
vn -0.8751 -0.3194 -0.3636
vn -0.8393 -0.4171 -0.3487
vn -0.7885 -0.3194 0.5256
vn -0.7562 -0.4171 0.5041
vn 0.9476 -0.3194 0.0010
vn 0.9088 -0.4171 0.0010
vn -0.7873 -0.3194 -0.5273
vn -0.7552 -0.4171 -0.5058
vn -0.8759 -0.3194 0.3617
vn -0.8401 -0.4171 0.3469
vn 0.9292 -0.3194 0.1859
vn 0.8912 -0.4171 0.1783
vn -0.6693 -0.3194 -0.6708
vn -0.6420 -0.4171 -0.6433
vn -0.9296 -0.3194 0.1838
vn -0.8916 -0.4171 0.1763
vn 0.8751 -0.3194 0.3636
vn 0.8393 -0.4171 0.3487
vn -0.5256 -0.3194 -0.7885
vn -0.5041 -0.4171 -0.7562
vn 0.7873 -0.3194 0.5273
vn 0.7551 -0.4171 0.5058
vn -0.3617 -0.3194 -0.8759
vn -0.3469 -0.4171 -0.8401
vn 0.6693 -0.3194 0.6708
vn 0.6420 -0.4171 0.6433
vn -0.1838 -0.3194 -0.9296
vn -0.1763 -0.4171 -0.8916
vn 0.5256 -0.3194 0.7885
vn 0.5041 -0.4171 0.7562
vn 0.0010 -0.3194 -0.9476
vn 0.0010 -0.4171 -0.9088
vn 0.3617 -0.3194 0.8759
vn 0.3469 -0.4171 0.8401
vn 0.1859 -0.3194 -0.9292
vn 0.1783 -0.4171 -0.8912
vn 0.1838 -0.3194 0.9296
vn 0.1763 -0.4171 0.8916
vn 0.3636 -0.3194 -0.8751
vn 0.3487 -0.4171 -0.8393
vn -0.0010 -0.3194 0.9476
vn -0.0010 -0.4171 0.9088
vn 0.5273 -0.3194 -0.7873
vn 0.5058 -0.4171 -0.7551
vn -0.1859 -0.3194 0.9292
vn -0.1783 -0.4171 0.8912
vn 0.6708 -0.3194 -0.6693
vn 0.6433 -0.4171 -0.6420
vn -0.3636 -0.3194 0.8751
vn -0.3487 -0.4171 0.8393
vn 0.7885 -0.3194 -0.5256
vn 0.7562 -0.4171 -0.5041
vn -0.7629 0.6286 0.1509
vn -0.7777 0.6286 -0.0008
vn 0.5505 0.6286 -0.5493
vn 0.6471 0.6286 -0.4313
vn -0.1525 0.6286 0.7626
vn -0.2984 0.6286 0.7182
vn 0.4328 0.6286 -0.6462
vn -0.0008 0.6286 0.7777
vn 0.2984 0.6286 -0.7182
vn 0.1509 0.6286 0.7629
vn 0.1525 0.6286 -0.7626
vn 0.2968 0.6286 0.7188
vn 0.0008 0.6286 -0.7777
vn 0.4313 0.6286 0.6471
vn -0.1509 0.6286 -0.7629
vn 0.5493 0.6286 0.5505
vn -0.2968 0.6286 -0.7188
vn 0.6462 0.6286 0.4328
vn -0.4313 0.6286 -0.6471
vn 0.7182 0.6286 0.2984
vn -0.5493 0.6286 -0.5505
vn 0.7626 0.6286 0.1525
vn -0.7188 0.6286 0.2968
vn -0.6462 0.6286 -0.4328
vn 0.7777 0.6286 0.0008
vn -0.6471 0.6286 0.4313
vn -0.7182 0.6286 -0.2984
vn 0.7629 0.6286 -0.1509
vn -0.5505 0.6286 0.5493
vn -0.7626 0.6286 -0.1525
vn 0.7188 0.6286 -0.2968
vn -0.4328 0.6286 0.6462
vn 0.0972 0.9845 0.1458
vn 0.0669 0.9845 0.1619
vn -0.0340 0.9845 -0.1718
vn 0.0002 0.9845 -0.1752
vn 0.1237 0.9845 0.1240
vn -0.0669 0.9845 -0.1619
vn 0.1455 0.9845 0.0975
vn -0.0972 0.9845 -0.1458
vn 0.1618 0.9845 0.0672
vn -0.1237 0.9845 -0.1240
vn 0.1718 0.9845 0.0343
vn -0.1619 0.9845 0.0669
vn -0.1718 0.9845 0.0340
vn -0.1455 0.9845 -0.0975
vn 0.1752 0.9845 0.0002
vn -0.1458 0.9845 0.0972
vn -0.1618 0.9845 -0.0672
vn 0.1718 0.9845 -0.0340
vn -0.1240 0.9845 0.1237
vn -0.1718 0.9845 -0.0343
vn 0.1619 0.9845 -0.0669
vn -0.0975 0.9845 0.1455
vn -0.1752 0.9845 -0.0002
vn 0.1458 0.9845 -0.0972
vn -0.0672 0.9845 0.1618
vn 0.1240 0.9845 -0.1237
vn -0.0343 0.9845 0.1718
vn 0.0975 0.9845 -0.1455
vn -0.0002 0.9845 0.1752
vn 0.0672 0.9845 -0.1618
vn 0.0340 0.9845 0.1718
vn 0.0343 0.9845 -0.1718
vn -0.6274 0.7337 -0.2607
vn -0.5645 0.7337 -0.3781
vn 0.4799 0.7337 0.4809
vn 0.3768 0.7337 0.5653
vn -0.6662 0.7337 -0.1332
vn 0.6280 0.7337 -0.2593
vn 0.6665 0.7337 -0.1318
vn 0.5645 0.7337 0.3781
vn -0.6794 0.7337 -0.0007
vn 0.5653 0.7337 -0.3768
vn 0.6274 0.7337 0.2607
vn -0.6665 0.7337 0.1318
vn 0.4809 0.7337 -0.4799
vn 0.6662 0.7337 0.1332
vn -0.6280 0.7337 0.2593
vn 0.3781 0.7337 -0.5645
vn 0.6794 0.7337 0.0007
vn -0.5653 0.7337 0.3768
vn 0.2607 0.7337 -0.6274
vn -0.4809 0.7337 0.4799
vn 0.1332 0.7337 -0.6662
vn -0.3781 0.7337 0.5645
vn 0.0007 0.7337 -0.6794
vn -0.2607 0.7337 0.6274
vn -0.1318 0.7337 -0.6665
vn -0.1332 0.7337 0.6662
vn -0.2593 0.7337 -0.6280
vn -0.0007 0.7337 0.6794
vn -0.3768 0.7337 -0.5653
vn 0.1318 0.7337 0.6665
vn -0.4799 0.7337 -0.4809
vn 0.2593 0.7337 0.6280
vn -0.9710 0.1423 0.1921
vn -0.9898 0.1423 -0.0011
vn 0.7006 0.1423 -0.6991
vn 0.8236 0.1423 -0.5490
vn 0.9706 0.1423 0.1941
vn 0.9141 0.1423 0.3798
vn -0.9149 0.1423 0.3778
vn 0.5508 0.1423 -0.8224
vn 0.9898 0.1423 0.0011
vn -0.8236 0.1423 0.5490
vn 0.3798 0.1423 -0.9141
vn 0.9710 0.1423 -0.1921
vn -0.7006 0.1423 0.6991
vn 0.1941 0.1423 -0.9706
vn -0.5508 0.1423 0.8224
vn 0.0011 0.1423 -0.9898
vn -0.3798 0.1423 0.9141
vn -0.1921 0.1423 -0.9710
vn -0.1941 0.1423 0.9706
vn -0.3778 0.1423 -0.9149
vn -0.0011 0.1423 0.9898
vn -0.5490 0.1423 -0.8236
vn 0.1921 0.1423 0.9710
vn -0.6991 0.1423 -0.7006
vn 0.3778 0.1423 0.9149
vn -0.8224 0.1423 -0.5508
vn 0.5490 0.1423 0.8236
vn -0.9141 0.1423 -0.3798
vn 0.6991 0.1423 0.7006
vn -0.9706 0.1423 -0.1941
vn 0.9149 0.1423 -0.3778
vn 0.8224 0.1423 0.5508
vn -0.7067 0.0580 0.7051
vn -0.8307 0.0580 0.5537
vn 0.1958 0.0580 -0.9789
vn 0.3830 0.0580 -0.9219
vn -0.5555 0.0580 0.8295
vn 0.0011 0.0580 -0.9983
vn -0.3830 0.0580 0.9219
vn -0.1937 0.0580 -0.9793
vn -0.1958 0.0580 0.9789
vn -0.3810 0.0580 -0.9227
vn -0.0011 0.0580 0.9983
vn -0.5537 0.0580 -0.8307
vn 0.1937 0.0580 0.9793
vn -0.7051 0.0580 -0.7067
vn 0.3810 0.0580 0.9227
vn -0.8295 0.0580 -0.5555
vn 0.5537 0.0580 0.8307
vn -0.9219 0.0580 -0.3830
vn 0.7051 0.0580 0.7067
vn -0.9789 0.0580 -0.1958
vn 0.9227 0.0580 -0.3810
vn 0.9793 0.0580 -0.1937
vn 0.8295 0.0580 0.5555
vn -0.9983 0.0580 -0.0011
vn 0.8307 0.0580 -0.5537
vn 0.9219 0.0580 0.3830
vn -0.9793 0.0580 0.1937
vn 0.7067 0.0580 -0.7051
vn 0.9789 0.0580 0.1958
vn -0.9227 0.0580 0.3810
vn 0.5555 0.0580 -0.8295
vn 0.9983 0.0580 0.0011
vn -0.1935 0.1621 0.9676
vn -0.3786 0.1621 0.9112
vn -0.3766 0.1621 -0.9120
vn -0.1914 0.1621 -0.9680
vn -0.0010 0.1621 0.9868
vn -0.5473 0.1621 -0.8210
vn 0.1914 0.1621 0.9680
vn -0.6970 0.1621 -0.6985
vn 0.3766 0.1621 0.9120
vn -0.8198 0.1621 -0.5491
vn 0.5473 0.1621 0.8210
vn -0.9112 0.1621 -0.3786
vn 0.6970 0.1621 0.6985
vn -0.9676 0.1621 -0.1935
vn 0.9120 0.1621 -0.3766
vn 0.9680 0.1621 -0.1914
vn 0.8198 0.1621 0.5491
vn -0.9868 0.1621 -0.0010
vn 0.8210 0.1621 -0.5473
vn 0.9112 0.1621 0.3786
vn -0.9680 0.1621 0.1914
vn 0.6985 0.1621 -0.6970
vn 0.9676 0.1621 0.1935
vn -0.9120 0.1621 0.3766
vn 0.5491 0.1621 -0.8198
vn 0.9868 0.1621 0.0010
vn -0.8210 0.1621 0.5473
vn 0.3786 0.1621 -0.9112
vn -0.6985 0.1621 0.6970
vn 0.1935 0.1621 -0.9676
vn -0.5491 0.1621 0.8198
vn 0.0010 0.1621 -0.9868
vn 0.3696 0.2495 0.8950
vn 0.1879 0.2495 0.9499
vn -0.8046 0.2495 -0.5388
vn -0.6840 0.2495 -0.6854
vn 0.5371 0.2495 0.8057
vn -0.8942 0.2495 -0.3715
vn 0.6840 0.2495 0.6854
vn -0.9495 0.2495 -0.1899
vn 0.8950 0.2495 -0.3696
vn 0.9499 0.2495 -0.1879
vn 0.8046 0.2495 0.5388
vn -0.9684 0.2495 -0.0010
vn 0.8057 0.2495 -0.5371
vn 0.8942 0.2495 0.3715
vn -0.9499 0.2495 0.1879
vn 0.6854 0.2495 -0.6840
vn 0.9495 0.2495 0.1899
vn -0.8950 0.2495 0.3696
vn 0.5388 0.2495 -0.8046
vn 0.9684 0.2495 0.0010
vn -0.8057 0.2495 0.5371
vn 0.3715 0.2495 -0.8942
vn -0.6854 0.2495 0.6840
vn 0.1899 0.2495 -0.9495
vn -0.5388 0.2495 0.8046
vn 0.0010 0.2495 -0.9684
vn -0.3715 0.2495 0.8942
vn -0.1879 0.2495 -0.9499
vn -0.1899 0.2495 0.9495
vn -0.3696 0.2495 -0.8950
vn -0.0010 0.2495 0.9684
vn -0.5371 0.2495 -0.8057
vn 0.8089 0.4839 -0.3340
vn 0.8585 0.4839 -0.1698
vn 0.7271 0.4839 0.4870
vn 0.6181 0.4839 0.6195
vn -0.8751 0.4839 -0.0009
vn -0.8581 0.4839 -0.1716
vn 0.7281 0.4839 -0.4854
vn 0.8081 0.4839 0.3358
vn -0.8585 0.4839 0.1698
vn 0.6195 0.4839 -0.6181
vn 0.8581 0.4839 0.1716
vn -0.8089 0.4839 0.3340
vn 0.4870 0.4839 -0.7271
vn 0.8751 0.4839 0.0009
vn -0.7281 0.4839 0.4854
vn 0.3358 0.4839 -0.8081
vn -0.6195 0.4839 0.6181
vn 0.1716 0.4839 -0.8581
vn -0.4870 0.4839 0.7271
vn 0.0009 0.4839 -0.8751
vn -0.3358 0.4839 0.8081
vn -0.1698 0.4839 -0.8585
vn -0.1716 0.4839 0.8581
vn -0.3340 0.4839 -0.8089
vn -0.0009 0.4839 0.8751
vn -0.4854 0.4839 -0.7281
vn 0.1698 0.4839 0.8585
vn -0.6181 0.4839 -0.6195
vn 0.3340 0.4839 0.8089
vn -0.7271 0.4839 -0.4870
vn 0.4854 0.4839 0.7281
vn -0.8081 0.4839 -0.3358
vn 0.3012 0.8408 -0.4497
vn 0.3832 0.8408 -0.3823
vn 0.5413 0.8408 0.0006
vn 0.5308 0.8408 0.1062
vn -0.4504 0.8408 0.3002
vn -0.5003 0.8408 0.2066
vn 0.2077 0.8408 -0.4999
vn 0.5310 0.8408 -0.1050
vn -0.3832 0.8408 0.3823
vn 0.1062 0.8408 -0.5308
vn -0.3012 0.8408 0.4497
vn 0.0006 0.8408 -0.5413
vn -0.2077 0.8408 0.4999
vn -0.1050 0.8408 -0.5310
vn -0.1062 0.8408 0.5308
vn -0.2066 0.8408 -0.5003
vn -0.0006 0.8408 0.5413
vn -0.3002 0.8408 -0.4504
vn 0.1050 0.8408 0.5310
vn -0.3823 0.8408 -0.3832
vn 0.2066 0.8408 0.5003
vn -0.4497 0.8408 -0.3012
vn 0.3002 0.8408 0.4504
vn -0.4999 0.8408 -0.2077
vn 0.3823 0.8408 0.3832
vn -0.5308 0.8408 -0.1062
vn 0.5003 0.8408 -0.2066
vn 0.4497 0.8408 0.3012
vn -0.5413 0.8408 -0.0006
vn 0.4504 0.8408 -0.3002
vn 0.4999 0.8408 0.2077
vn -0.5310 0.8408 0.1050
vn 0.0001 0.9907 -0.1357
vn 0.0266 0.9907 -0.1331
vn -0.0521 0.9907 0.1254
vn -0.0755 0.9907 0.1128
vn -0.0263 0.9907 -0.1332
vn -0.0266 0.9907 0.1331
vn -0.0518 0.9907 -0.1255
vn -0.0001 0.9907 0.1357
vn -0.0753 0.9907 -0.1129
vn 0.0263 0.9907 0.1332
vn -0.0959 0.9907 -0.0961
vn 0.0518 0.9907 0.1255
vn -0.1128 0.9907 -0.0755
vn 0.0753 0.9907 0.1129
vn -0.1254 0.9907 -0.0521
vn 0.0959 0.9907 0.0961
vn -0.1331 0.9907 -0.0266
vn 0.1255 0.9907 -0.0518
vn 0.1332 0.9907 -0.0263
vn 0.1128 0.9907 0.0755
vn -0.1357 0.9907 -0.0001
vn 0.1129 0.9907 -0.0753
vn 0.1254 0.9907 0.0521
vn -0.1332 0.9907 0.0263
vn 0.0961 0.9907 -0.0959
vn 0.1331 0.9907 0.0266
vn -0.1255 0.9907 0.0518
vn 0.0755 0.9907 -0.1128
vn 0.1357 0.9907 0.0001
vn -0.1129 0.9907 0.0753
vn 0.0521 0.9907 -0.1254
vn -0.0961 0.9907 0.0959
usemtl glass
s 1
f 1//1 13//2 14//3 2//4
f 2//4 14//3 15//5 3//6
f 3//6 15//5 16//7 4//8
f 4//8 16//7 17//9 5//10
f 5//10 17//9 18//11 6//12
f 6//12 18//11 19//13 7//14
f 7//14 19//13 20//15 8//16
f 8//16 20//15 21//17 9//18
f 9//18 21//17 22//19 10//20
f 10//20 22//19 23//21 11//22
f 11//22 23//21 24//23 12//24
f 1//1 12//24 24//23 13//2
f 13//2 25//25 26//26 14//3
f 14//3 26//26 27//27 15//5
f 15//5 27//27 28//28 16//7
f 16//7 28//28 29//29 17//9
f 17//9 29//29 30//30 18//11
f 18//11 30//30 31//31 19//13
f 19//13 31//31 32//32 20//15
f 20//15 32//32 33//33 21//17
f 21//17 33//33 34//34 22//19
f 22//19 34//34 35//35 23//21
f 23//21 35//35 36//36 24//23
f 24//23 36//36 25//25 13//2
f 25//25 37//37 38//38 26//26
f 26//26 38//38 39//39 27//27
f 27//27 39//39 40//40 28//28
f 28//28 40//40 41//41 29//29
f 29//29 41//41 42//42 30//30
f 30//30 42//42 43//43 31//31
f 31//31 43//43 44//44 32//32
f 32//32 44//44 45//45 33//33
f 33//33 45//45 46//46 34//34
f 34//34 46//46 47//47 35//35
f 35//35 47//47 48//48 36//36
f 36//36 48//48 37//37 25//25
f 37//37 49//49 50//50 38//38
f 38//38 50//50 51//51 39//39
f 39//39 51//51 52//52 40//40
f 40//40 52//52 53//53 41//41
f 41//41 53//53 54//54 42//42
f 42//42 54//54 55//55 43//43
f 43//43 55//55 56//56 44//44
f 44//44 56//56 57//57 45//45
f 45//45 57//57 58//58 46//46
f 46//46 58//58 59//59 47//47
f 47//47 59//59 60//60 48//48
f 48//48 60//60 49//49 37//37
f 49//49 61//61 62//62 50//50
f 50//50 62//62 63//63 51//51
f 51//51 63//63 64//64 52//52
f 52//52 64//64 65//65 53//53
f 53//53 65//65 66//66 54//54
f 54//54 66//66 67//67 55//55
f 55//55 67//67 68//68 56//56
f 56//56 68//68 69//69 57//57
f 57//57 69//69 70//70 58//58
f 58//58 70//70 71//71 59//59
f 59//59 71//71 72//72 60//60
f 60//60 72//72 61//61 49//49
f 61//61 73//73 74//74 62//62
f 62//62 74//74 75//75 63//63
f 63//63 75//75 76//76 64//64
f 64//64 76//76 77//77 65//65
f 65//65 77//77 78//78 66//66
f 66//66 78//78 79//79 67//67
f 67//67 79//79 80//80 68//68
f 68//68 80//80 81//81 69//69
f 69//69 81//81 82//82 70//70
f 70//70 82//82 83//83 71//71
f 71//71 83//83 84//84 72//72
f 72//72 84//84 73//73 61//61
f 73//73 85//85 86//86 74//74
f 74//74 86//86 87//87 75//75
f 75//75 87//87 88//88 76//76
f 76//76 88//88 89//89 77//77
f 77//77 89//89 90//90 78//78
f 78//78 90//90 91//91 79//79
f 79//79 91//91 92//92 80//80
f 80//80 92//92 93//93 81//81
f 81//81 93//93 94//94 82//82
f 82//82 94//94 95//95 83//83
f 83//83 95//95 96//96 84//84
f 84//84 96//96 85//85 73//73
f 85//85 97//97 98//98 86//86
f 86//86 98//98 99//99 87//87
f 87//87 99//99 100//100 88//88
f 88//88 100//100 101//101 89//89
f 89//89 101//101 102//102 90//90
f 90//90 102//102 103//103 91//91
f 91//91 103//103 104//104 92//92
f 92//92 104//104 105//105 93//93
f 93//93 105//105 106//106 94//94
f 94//94 106//106 107//107 95//95
f 95//95 107//107 108//108 96//96
f 96//96 108//108 97//97 85//85
f 97//97 109//109 110//110 98//98
f 98//98 110//110 111//111 99//99
f 99//99 111//111 112//112 100//100
f 100//100 112//112 113//113 101//101
f 101//101 113//113 114//114 102//102
f 102//102 114//114 115//115 103//103
f 103//103 115//115 116//116 104//104
f 104//104 116//116 117//117 105//105
f 105//105 117//117 118//118 106//106
f 106//106 118//118 119//119 107//107
f 107//107 119//119 120//120 108//108
f 108//108 120//120 109//109 97//97
f 109//109 121//121 122//122 110//110
f 110//110 122//122 123//123 111//111
f 111//111 123//123 124//124 112//112
f 112//112 124//124 125//125 113//113
f 113//113 125//125 126//126 114//114
f 114//114 126//126 127//127 115//115
f 115//115 127//127 128//128 116//116
f 116//116 128//128 129//129 117//117
f 117//117 129//129 130//130 118//118
f 118//118 130//130 131//131 119//119
f 119//119 131//131 132//132 120//120
f 120//120 132//132 121//121 109//109
f 121//121 133//133 134//134 122//122
f 122//122 134//134 135//135 123//123
f 123//123 135//135 136//136 124//124
f 124//124 136//136 137//137 125//125
f 125//125 137//137 138//138 126//126
f 126//126 138//138 139//139 127//127
f 127//127 139//139 140//140 128//128
f 128//128 140//140 141//141 129//129
f 129//129 141//141 142//142 130//130
f 130//130 142//142 143//143 131//131
f 131//131 143//143 144//144 132//132
f 132//132 144//144 133//133 121//121
f 133//133 145//145 146//146 134//134
f 134//134 146//146 147//147 135//135
f 135//135 147//147 148//148 136//136
f 136//136 148//148 149//149 137//137
f 137//137 149//149 150//150 138//138
f 138//138 150//150 151//151 139//139
f 139//139 151//151 152//152 140//140
f 140//140 152//152 153//153 141//141
f 141//141 153//153 154//154 142//142
f 142//142 154//154 155//155 143//143
f 143//143 155//155 156//156 144//144
f 144//144 156//156 145//145 133//133
f 145//145 157//157 158//158 146//146
f 146//146 158//158 159//159 147//147
f 147//147 159//159 160//160 148//148
f 148//148 160//160 161//161 149//149
f 149//149 161//161 162//162 150//150
f 150//150 162//162 163//163 151//151
f 151//151 163//163 164//164 152//152
f 152//152 164//164 165//165 153//153
f 153//153 165//165 166//166 154//154
f 154//154 166//166 167//167 155//155
f 155//155 167//167 168//168 156//156
f 156//156 168//168 157//157 145//145
f 157//157 169//169 170//170 158//158
f 158//158 170//170 171//171 159//159
f 159//159 171//171 172//172 160//160
f 160//160 172//172 173//173 161//161
f 161//161 173//173 174//174 162//162
f 162//162 174//174 175//175 163//163
f 163//163 175//175 176//176 164//164
f 164//164 176//176 177//177 165//165
f 165//165 177//177 178//178 166//166
f 166//166 178//178 179//179 167//167
f 167//167 179//179 180//180 168//168
f 168//168 180//180 169//169 157//157
f 181//181 193//182 194//183 182//184
f 182//184 194//183 195//185 183//186
f 183//186 195//185 196//187 184//188
f 184//188 196//187 197//189 185//190
f 185//190 197//189 198//191 186//192
f 186//192 198//191 199//193 187//194
f 187//194 199//193 200//195 188//196
f 188//196 200//195 201//197 189//198
f 189//198 201//197 202//199 190//200
f 190//200 202//199 203//201 191//202
f 191//202 203//201 204//203 192//204
f 192//204 204//203 193//182 181//181
f 193//182 205//205 206//206 194//183
f 194//183 206//206 207//207 195//185
f 195//185 207//207 208//208 196//187
f 196//187 208//208 209//209 197//189
f 197//189 209//209 210//210 198//191
f 198//191 210//210 211//211 199//193
f 199//193 211//211 212//212 200//195
f 200//195 212//212 213//213 201//197
f 201//197 213//213 214//214 202//199
f 202//199 214//214 215//215 203//201
f 203//201 215//215 216//216 204//203
f 204//203 216//216 205//205 193//182
f 205//205 217//217 218//218 206//206
f 206//206 218//218 219//219 207//207
f 207//207 219//219 220//220 208//208
f 208//208 220//220 221//221 209//209
f 209//209 221//221 222//222 210//210
f 210//210 222//222 223//223 211//211
f 211//211 223//223 224//224 212//212
f 212//212 224//224 225//225 213//213
f 213//213 225//225 226//226 214//214
f 214//214 226//226 227//227 215//215
f 215//215 227//227 228//228 216//216
f 216//216 228//228 217//217 205//205
f 217//217 229//229 230//230 218//218
f 218//218 230//230 231//231 219//219
f 219//219 231//231 232//232 220//220
f 220//220 232//232 233//233 221//221
f 221//221 233//233 234//234 222//222
f 222//222 234//234 235//235 223//223
f 223//223 235//235 236//236 224//224
f 224//224 236//236 237//237 225//225
f 225//225 237//237 238//238 226//226
f 226//226 238//238 239//239 227//227
f 227//227 239//239 240//240 228//228
f 228//228 240//240 229//229 217//217
f 229//229 241//241 242//242 230//230
f 230//230 242//242 243//243 231//231
f 231//231 243//243 244//244 232//232
f 232//232 244//244 245//245 233//233
f 233//233 245//245 246//246 234//234
f 234//234 246//246 247//247 235//235
f 235//235 247//247 248//248 236//236
f 236//236 248//248 249//249 237//237
f 237//237 249//249 250//250 238//238
f 238//238 250//250 251//251 239//239
f 239//239 251//251 252//252 240//240
f 240//240 252//252 241//241 229//229
f 241//241 253//253 254//254 242//242
f 242//242 254//254 255//255 243//243
f 243//243 255//255 256//256 244//244
f 244//244 256//256 257//257 245//245
f 245//245 257//257 258//258 246//246
f 246//246 258//258 259//259 247//247
f 247//247 259//259 260//260 248//248
f 248//248 260//260 261//261 249//249
f 249//249 261//261 262//262 250//250
f 250//250 262//262 263//263 251//251
f 251//251 263//263 264//264 252//252
f 252//252 264//264 253//253 241//241
f 253//253 265//265 266//266 254//254
f 254//254 266//266 267//267 255//255
f 255//255 267//267 268//268 256//256
f 256//256 268//268 269//269 257//257
f 257//257 269//269 270//270 258//258
f 258//258 270//270 271//271 259//259
f 259//259 271//271 272//272 260//260
f 260//260 272//272 273//273 261//261
f 261//261 273//273 274//274 262//262
f 262//262 274//274 275//275 263//263
f 263//263 275//275 276//276 264//264
f 264//264 276//276 265//265 253//253
f 265//265 277//277 278//278 266//266
f 266//266 278//278 279//279 267//267
f 267//267 279//279 280//280 268//268
f 268//268 280//280 281//281 269//269
f 269//269 281//281 282//282 270//270
f 270//270 282//282 283//283 271//271
f 271//271 283//283 284//284 272//272
f 272//272 284//284 285//285 273//273
f 273//273 285//285 286//286 274//274
f 274//274 286//286 287//287 275//275
f 275//275 287//287 288//288 276//276
f 276//276 288//288 277//277 265//265
f 277//277 1//1 2//4 278//278
f 278//278 2//4 3//6 279//279
f 279//279 3//6 4//8 280//280
f 280//280 4//8 5//10 281//281
f 281//281 5//10 6//12 282//282
f 282//282 6//12 7//14 283//283
f 283//283 7//14 8//16 284//284
f 284//284 8//16 9//18 285//285
f 285//285 9//18 10//20 286//286
f 286//286 10//20 11//22 287//287
f 287//287 11//22 12//24 288//288
f 288//288 12//24 1//1 277//277
f 964//289 339//290 338//291 961//292
f 965//293 326//294 325//295 962//296
f 966//297 321//298 352//299 963//300
f 967//301 340//302 339//290 964//289
f 968//303 327//304 326//294 965//293
f 969//305 341//306 340//302 967//301
f 970//307 328//308 327//304 968//303
f 971//309 342//310 341//306 969//305
f 972//311 329//312 328//308 970//307
f 973//313 343//314 342//310 971//309
f 974//315 330//316 329//312 972//311
f 975//317 344//318 343//314 973//313
f 976//319 331//320 330//316 974//315
f 977//321 345//322 344//318 975//317
f 978//323 332//324 331//320 976//319
f 979//325 346//326 345//322 977//321
f 980//327 333//328 332//324 978//323
f 981//329 347//330 346//326 979//325
f 982//331 334//332 333//328 980//327
f 983//333 348//334 347//330 981//329
f 984//335 335//336 334//332 982//331
f 985//337 322//338 321//298 966//297
f 986//339 349//340 348//334 983//333
f 987//341 336//342 335//336 984//335
f 988//343 323//344 322//338 985//337
f 989//345 350//346 349//340 986//339
f 990//347 337//348 336//342 987//341
f 991//349 324//350 323//344 988//343
f 992//351 351//352 350//346 989//345
f 961//292 338//291 337//348 990//347
f 962//296 325//295 324//350 991//349
f 963//300 352//299 351//352 992//351
f 930//353 379//354 378//355 929//356
f 932//357 366//358 365//359 931//360
f 933//361 380//362 379//354 930//353
f 934//363 367//364 366//358 932//357
f 936//365 354//366 353//367 935//368
f 937//369 381//370 380//362 933//361
f 938//371 368//372 367//364 934//363
f 939//373 355//374 354//366 936//365
f 940//375 382//376 381//370 937//369
f 941//377 369//378 368//372 938//371
f 942//379 356//380 355//374 939//373
f 943//381 383//382 382//376 940//375
f 944//383 370//384 369//378 941//377
f 945//385 357//386 356//380 942//379
f 946//387 384//388 383//382 943//381
f 947//389 371//390 370//384 944//383
f 948//391 358//392 357//386 945//385
f 935//368 353//367 384//388 946//387
f 949//393 372//394 371//390 947//389
f 950//395 359//396 358//392 948//391
f 951//397 373//398 372//394 949//393
f 952//399 360//400 359//396 950//395
f 953//401 374//402 373//398 951//397
f 954//403 361//404 360//400 952//399
f 955//405 375//406 374//402 953//401
f 956//407 362//408 361//404 954//403
f 957//409 376//410 375//406 955//405
f 958//411 363//412 362//408 956//407
f 959//413 377//414 376//410 957//409
f 960//415 364//416 363//412 958//411
f 929//356 378//355 377//414 959//413
f 931//360 365//359 364//416 960//415
f 898//417 414//418 413//419 897//420
f 900//421 401//422 400//423 899//424
f 902//425 388//426 387//427 901//428
f 903//429 415//430 414//418 898//417
f 904//431 402//432 401//422 900//421
f 905//433 389//434 388//426 902//425
f 906//435 416//436 415//430 903//429
f 907//437 403//438 402//432 904//431
f 908//439 390//440 389//434 905//433
f 909//441 385//442 416//436 906//435
f 910//443 404//444 403//438 907//437
f 911//445 391//446 390//440 908//439
f 912//447 405//448 404//444 910//443
f 913//449 392//450 391//446 911//445
f 914//451 406//452 405//448 912//447
f 915//453 393//454 392//450 913//449
f 916//455 407//456 406//452 914//451
f 917//457 394//458 393//454 915//453
f 918//459 408//460 407//456 916//455
f 919//461 395//462 394//458 917//457
f 920//463 409//464 408//460 918//459
f 921//465 396//466 395//462 919//461
f 922//467 410//468 409//464 920//463
f 923//469 397//470 396//466 921//465
f 924//471 411//472 410//468 922//467
f 925//473 398//474 397//470 923//469
f 926//475 412//476 411//472 924//471
f 927//477 399//478 398//474 925//473
f 928//479 386//480 385//442 909//441
f 897//420 413//419 412//476 926//475
f 899//424 400//423 399//478 927//477
f 901//428 387//427 386//480 928//479
f 306//481 434//482 435//483 307//484
f 293//485 421//486 422//487 294//488
f 320//489 448//490 417//491 289//492
f 307//484 435//483 436//493 308//494
f 294//488 422//487 423//495 295//496
f 308//494 436//493 437//497 309//498
f 295//496 423//495 424//499 296//500
f 309//498 437//497 438//501 310//502
f 296//500 424//499 425//503 297//504
f 310//502 438//501 439//505 311//506
f 297//504 425//503 426//507 298//508
f 311//506 439//505 440//509 312//510
f 298//508 426//507 427//511 299//512
f 312//510 440//509 441//513 313//514
f 299//512 427//511 428//515 300//516
f 313//514 441//513 442//517 314//518
f 300//516 428//515 429//519 301//520
f 314//518 442//517 443//521 315//522
f 301//520 429//519 430//523 302//524
f 315//522 443//521 444//525 316//526
f 302//524 430//523 431//527 303//528
f 289//492 417//491 418//529 290//530
f 316//526 444//525 445//531 317//532
f 303//528 431//527 432//533 304//534
f 290//530 418//529 419//535 291//536
f 317//532 445//531 446//537 318//538
f 304//534 432//533 433//539 305//540
f 291//536 419//535 420//541 292//542
f 318//538 446//537 447//543 319//544
f 305//540 433//539 434//482 306//481
f 292//542 420//541 421//486 293//485
f 319//544 447//543 448//490 320//489
f 438//501 470//545 471//546 439//505
f 425//503 457//547 458//548 426//507
f 439//505 471//546 472//549 440//509
f 426//507 458//548 459//550 427//511
f 440//509 472//549 473//551 441//513
f 427//511 459//550 460//552 428//515
f 441//513 473//551 474//553 442//517
f 428//515 460//552 461//554 429//519
f 442//517 474//553 475//555 443//521
f 429//519 461//554 462//556 430//523
f 443//521 475//555 476//557 444//525
f 430//523 462//556 463//558 431//527
f 417//491 449//559 450//560 418//529
f 444//525 476//557 477//561 445//531
f 431//527 463//558 464//562 432//533
f 418//529 450//560 451//563 419//535
f 445//531 477//561 478//564 446//537
f 432//533 464//562 465//565 433//539
f 419//535 451//563 452//566 420//541
f 446//537 478//564 479//567 447//543
f 433//539 465//565 466//568 434//482
f 420//541 452//566 453//569 421//486
f 447//543 479//567 480//570 448//490
f 434//482 466//568 467//571 435//483
f 421//486 453//569 454//572 422//487
f 448//490 480//570 449//559 417//491
f 435//483 467//571 468//573 436//493
f 422//487 454//572 455//574 423//495
f 436//493 468//573 469//575 437//497
f 423//495 455//574 456//576 424//499
f 437//497 469//575 470//545 438//501
f 424//499 456//576 457//547 425//503
f 473//551 505//577 506//578 474//553
f 460//552 492//579 493//580 461//554
f 474//553 506//578 507//581 475//555
f 461//554 493//580 494//582 462//556
f 475//555 507//581 508//583 476//557
f 462//556 494//582 495//584 463//558
f 449//559 481//585 482//586 450//560
f 476//557 508//583 509//587 477//561
f 463//558 495//584 496//588 464//562
f 450//560 482//586 483//589 451//563
f 477//561 509//587 510//590 478//564
f 464//562 496//588 497//591 465//565
f 451//563 483//589 484//592 452//566
f 478//564 510//590 511//593 479//567
f 465//565 497//591 498//594 466//568
f 452//566 484//592 485//595 453//569
f 479//567 511//593 512//596 480//570
f 466//568 498//594 499//597 467//571
f 453//569 485//595 486//598 454//572
f 480//570 512//596 481//585 449//559
f 467//571 499//597 500//599 468//573
f 454//572 486//598 487//600 455//574
f 468//573 500//599 501//601 469//575
f 455//574 487//600 488//602 456//576
f 469//575 501//601 502//603 470//545
f 456//576 488//602 489//604 457//547
f 470//545 502//603 503//605 471//546
f 457//547 489//604 490//606 458//548
f 471//546 503//605 504//607 472//549
f 458//548 490//606 491//608 459//550
f 472//549 504//607 505//577 473//551
f 459//550 491//608 492//579 460//552
f 482//586 481//585 512//596 511//593 510//590 509//587 508//583 507//581 506//578 505//577 504//607 503//605 502//603 501//601 500//599 499//597 498//594 497//591 496//588 495//584 494//582 493//580 492//579 491//608 490//606 489//604 488//602 487//600 486//598 485//595 484//592 483//589
f 576//609 517//610 544//611 573//612
f 575//613 515//614 543//615 572//616
f 574//617 513//618 542//619 571//620
f 573//612 544//611 541//621 570//622
f 572//616 543//615 540//623 569//624
f 571//620 542//619 539//625 568//626
f 570//622 541//621 538//627 567//628
f 569//624 540//623 537//629 566//630
f 568//626 539//625 536//631 565//632
f 567//628 538//627 535//633 564//634
f 566//630 537//629 518//635 547//636
f 565//632 536//631 534//637 563//638
f 564//634 535//633 533//639 562//640
f 563//638 534//637 532//641 561//642
f 562//640 533//639 531//643 560//644
f 561//642 532//641 530//645 559//646
f 560//644 531//643 529//647 558//648
f 559//646 530//645 528//649 557//650
f 558//648 529//647 527//651 556//652
f 557//650 528//649 526//653 555//654
f 556//652 527//651 525//655 554//656
f 555//654 526//653 524//657 553//658
f 554//656 525//655 523//659 552//660
f 553//658 524//657 522//661 551//662
f 552//660 523//659 521//663 550//664
f 551//662 522//661 520//665 549//666
f 550//664 521//663 519//667 548//668
f 549//666 520//665 516//669 546//670
f 548//668 519//667 514//671 545//672
f 547//636 518//635 517//610 576//609
f 546//670 516//669 515//614 575//613
f 545//672 514//671 513//618 574//617
f 307//484 545//672 574//617 306//481
f 294//488 546//670 575//613 293//485
f 289//492 547//636 576//609 320//489
f 308//494 548//668 545//672 307//484
f 295//496 549//666 546//670 294//488
f 309//498 550//664 548//668 308//494
f 296//500 551//662 549//666 295//496
f 310//502 552//660 550//664 309//498
f 297//504 553//658 551//662 296//500
f 311//506 554//656 552//660 310//502
f 298//508 555//654 553//658 297//504
f 312//510 556//652 554//656 311//506
f 299//512 557//650 555//654 298//508
f 313//514 558//648 556//652 312//510
f 300//516 559//646 557//650 299//512
f 314//518 560//644 558//648 313//514
f 301//520 561//642 559//646 300//516
f 315//522 562//640 560//644 314//518
f 302//524 563//638 561//642 301//520
f 316//526 564//634 562//640 315//522
f 303//528 565//632 563//638 302//524
f 290//530 566//630 547//636 289//492
f 317//532 567//628 564//634 316//526
f 304//534 568//626 565//632 303//528
f 291//536 569//624 566//630 290//530
f 318//538 570//622 567//628 317//532
f 305//540 571//620 568//626 304//534
f 292//542 572//616 569//624 291//536
f 319//544 573//612 570//622 318//538
f 306//481 574//617 571//620 305//540
f 293//485 575//613 572//616 292//542
f 320//489 576//609 573//612 319//544
f 385//442 577//673 608//674 416//436
f 404//444 596//675 595//676 403//438
f 391//446 583//677 582//678 390//440
f 405//448 597//679 596//675 404//444
f 392//450 584//680 583//677 391//446
f 406//452 598//681 597//679 405//448
f 393//454 585//682 584//680 392//450
f 407//456 599//683 598//681 406//452
f 394//458 586//684 585//682 393//454
f 408//460 600//685 599//683 407//456
f 395//462 587//686 586//684 394//458
f 409//464 601//687 600//685 408//460
f 396//466 588//688 587//686 395//462
f 410//468 602//689 601//687 409//464
f 397//470 589//690 588//688 396//466
f 411//472 603//691 602//689 410//468
f 398//474 590//692 589//690 397//470
f 412//476 604//693 603//691 411//472
f 399//478 591//694 590//692 398//474
f 386//480 578//695 577//673 385//442
f 413//419 605//696 604//693 412//476
f 400//423 592//697 591//694 399//478
f 387//427 579//698 578//695 386//480
f 414//418 606//699 605//696 413//419
f 401//422 593//700 592//697 400//423
f 388//426 580//701 579//698 387//427
f 415//430 607//702 606//699 414//418
f 402//432 594//703 593//700 401//422
f 389//434 581//704 580//701 388//426
f 416//436 608//674 607//702 415//430
f 403//438 595//676 594//703 402//432
f 390//440 582//678 581//704 389//434
f 587//686 619//705 618//706 586//684
f 601//687 633//707 632//708 600//685
f 588//688 620//709 619//705 587//686
f 602//689 634//710 633//707 601//687
f 589//690 621//711 620//709 588//688
f 603//691 635//712 634//710 602//689
f 590//692 622//713 621//711 589//690
f 604//693 636//714 635//712 603//691
f 591//694 623//715 622//713 590//692
f 578//695 610//716 609//717 577//673
f 605//696 637//718 636//714 604//693
f 592//697 624//719 623//715 591//694
f 579//698 611//720 610//716 578//695
f 606//699 638//721 637//718 605//696
f 593//700 625//722 624//719 592//697
f 580//701 612//723 611//720 579//698
f 607//702 639//724 638//721 606//699
f 594//703 626//725 625//722 593//700
f 581//704 613//726 612//723 580//701
f 608//674 640//727 639//724 607//702
f 595//676 627//728 626//725 594//703
f 582//678 614//729 613//726 581//704
f 577//673 609//717 640//727 608//674
f 596//675 628//730 627//728 595//676
f 583//677 615//731 614//729 582//678
f 597//679 629//732 628//730 596//675
f 584//680 616//733 615//731 583//677
f 598//681 630//734 629//732 597//679
f 585//682 617//735 616//733 584//680
f 599//683 631//736 630//734 598//681
f 586//684 618//706 617//735 585//682
f 600//685 632//708 631//736 599//683
f 622//713 654//737 653//738 621//711
f 636//714 668//739 667//740 635//712
f 623//715 655//741 654//737 622//713
f 610//716 642//742 641//743 609//717
f 637//718 669//744 668//739 636//714
f 624//719 656//745 655//741 623//715
f 611//720 643//746 642//742 610//716
f 638//721 670//747 669//744 637//718
f 625//722 657//748 656//745 624//719
f 612//723 644//749 643//746 611//720
f 639//724 671//750 670//747 638//721
f 626//725 658//751 657//748 625//722
f 613//726 645//752 644//749 612//723
f 640//727 672//753 671//750 639//724
f 627//728 659//754 658//751 626//725
f 614//729 646//755 645//752 613//726
f 609//717 641//743 672//753 640//727
f 628//730 660//756 659//754 627//728
f 615//731 647//757 646//755 614//729
f 629//732 661//758 660//756 628//730
f 616//733 648//759 647//757 615//731
f 630//734 662//760 661//758 629//732
f 617//735 649//761 648//759 616//733
f 631//736 663//762 662//760 630//734
f 618//706 650//763 649//761 617//735
f 632//708 664//764 663//762 631//736
f 619//705 651//765 650//763 618//706
f 633//707 665//766 664//764 632//708
f 620//709 652//767 651//765 619//705
f 634//710 666//768 665//766 633//707
f 621//711 653//738 652//767 620//709
f 635//712 667//740 666//768 634//710
f 657//748 689//769 688//770 656//745
f 644//749 676//771 675//772 643//746
f 671//750 703//773 702//774 670//747
f 658//751 690//775 689//769 657//748
f 645//752 677//776 676//771 644//749
f 672//753 704//777 703//773 671//750
f 659//754 691//778 690//775 658//751
f 646//755 678//779 677//776 645//752
f 641//743 673//780 704//777 672//753
f 660//756 692//781 691//778 659//754
f 647//757 679//782 678//779 646//755
f 661//758 693//783 692//781 660//756
f 648//759 680//784 679//782 647//757
f 662//760 694//785 693//783 661//758
f 649//761 681//786 680//784 648//759
f 663//762 695//787 694//785 662//760
f 650//763 682//788 681//786 649//761
f 664//764 696//789 695//787 663//762
f 651//765 683//790 682//788 650//763
f 665//766 697//791 696//789 664//764
f 652//767 684//792 683//790 651//765
f 666//768 698//793 697//791 665//766
f 653//738 685//794 684//792 652//767
f 667//740 699//795 698//793 666//768
f 654//737 686//796 685//794 653//738
f 668//739 700//797 699//795 667//740
f 655//741 687//798 686//796 654//737
f 642//742 674//799 673//780 641//743
f 669//744 701//800 700//797 668//739
f 656//745 688//770 687//798 655//741
f 643//746 675//772 674//799 642//742
f 670//747 702//774 701//800 669//744
f 692//781 724//801 723//802 691//778
f 679//782 711//803 710//804 678//779
f 693//783 725//805 724//801 692//781
f 680//784 712//806 711//803 679//782
f 694//785 726//807 725//805 693//783
f 681//786 713//808 712//806 680//784
f 695//787 727//809 726//807 694//785
f 682//788 714//810 713//808 681//786
f 696//789 728//811 727//809 695//787
f 683//790 715//812 714//810 682//788
f 697//791 729//813 728//811 696//789
f 684//792 716//814 715//812 683//790
f 698//793 730//815 729//813 697//791
f 685//794 717//816 716//814 684//792
f 699//795 731//817 730//815 698//793
f 686//796 718//818 717//816 685//794
f 700//797 732//819 731//817 699//795
f 687//798 719//820 718//818 686//796
f 674//799 706//821 705//822 673//780
f 701//800 733//823 732//819 700//797
f 688//770 720//824 719//820 687//798
f 675//772 707//825 706//821 674//799
f 702//774 734//826 733//823 701//800
f 689//769 721//827 720//824 688//770
f 676//771 708//828 707//825 675//772
f 703//773 735//829 734//826 702//774
f 690//775 722//830 721//827 689//769
f 677//776 709//831 708//828 676//771
f 704//777 736//832 735//829 703//773
f 691//778 723//802 722//830 690//775
f 678//779 710//804 709//831 677//776
f 673//780 705//822 736//832 704//777
f 727//809 759//833 758//834 726//807
f 714//810 746//835 745//836 713//808
f 728//811 760//837 759//833 727//809
f 715//812 747//838 746//835 714//810
f 729//813 761//839 760//837 728//811
f 716//814 748//840 747//838 715//812
f 730//815 762//841 761//839 729//813
f 717//816 749//842 748//840 716//814
f 731//817 763//843 762//841 730//815
f 718//818 750//844 749//842 717//816
f 732//819 764//845 763//843 731//817
f 719//820 751//846 750//844 718//818
f 706//821 738//847 737//848 705//822
f 733//823 765//849 764//845 732//819
f 720//824 752//850 751//846 719//820
f 707//825 739//851 738//847 706//821
f 734//826 766//852 765//849 733//823
f 721//827 753//853 752//850 720//824
f 708//828 740//854 739//851 707//825
f 735//829 767//855 766//852 734//826
f 722//830 754//856 753//853 721//827
f 709//831 741//857 740//854 708//828
f 736//832 768//858 767//855 735//829
f 723//802 755//859 754//856 722//830
f 710//804 742//860 741//857 709//831
f 705//822 737//848 768//858 736//832
f 724//801 756//861 755//859 723//802
f 711//803 743//862 742//860 710//804
f 725//805 757//863 756//861 724//801
f 712//806 744//864 743//862 711//803
f 726//807 758//834 757//863 725//805
f 713//808 745//836 744//864 712//806
f 762//841 794//865 793//866 761//839
f 749//842 781//867 780//868 748//840
f 763//843 795//869 794//865 762//841
f 750//844 782//870 781//867 749//842
f 764//845 796//871 795//869 763//843
f 751//846 783//872 782//870 750//844
f 738//847 770//873 769//874 737//848
f 765//849 797//875 796//871 764//845
f 752//850 784//876 783//872 751//846
f 739//851 771//877 770//873 738//847
f 766//852 798//878 797//875 765//849
f 753//853 785//879 784//876 752//850
f 740//854 772//880 771//877 739//851
f 767//855 799//881 798//878 766//852
f 754//856 786//882 785//879 753//853
f 741//857 773//883 772//880 740//854
f 768//858 800//884 799//881 767//855
f 755//859 787//885 786//882 754//856
f 742//860 774//886 773//883 741//857
f 737//848 769//874 800//884 768//858
f 756//861 788//887 787//885 755//859
f 743//862 775//888 774//886 742//860
f 757//863 789//889 788//887 756//861
f 744//864 776//890 775//888 743//862
f 758//834 790//891 789//889 757//863
f 745//836 777//892 776//890 744//864
f 759//833 791//893 790//891 758//834
f 746//835 778//894 777//892 745//836
f 760//837 792//895 791//893 759//833
f 747//838 779//896 778//894 746//835
f 761//839 793//866 792//895 760//837
f 748//840 780//868 779//896 747//838
f 770//873 802//897 801//898 769//874
f 797//875 829//899 828//900 796//871
f 784//876 816//901 815//902 783//872
f 771//877 803//903 802//897 770//873
f 798//878 830//904 829//899 797//875
f 785//879 817//905 816//901 784//876
f 772//880 804//906 803//903 771//877
f 799//881 831//907 830//904 798//878
f 786//882 818//908 817//905 785//879
f 773//883 805//909 804//906 772//880
f 800//884 832//910 831//907 799//881
f 787//885 819//911 818//908 786//882
f 774//886 806//912 805//909 773//883
f 769//874 801//898 832//910 800//884
f 788//887 820//913 819//911 787//885
f 775//888 807//914 806//912 774//886
f 789//889 821//915 820//913 788//887
f 776//890 808//916 807//914 775//888
f 790//891 822//917 821//915 789//889
f 777//892 809//918 808//916 776//890
f 791//893 823//919 822//917 790//891
f 778//894 810//920 809//918 777//892
f 792//895 824//921 823//919 791//893
f 779//896 811//922 810//920 778//894
f 793//866 825//923 824//921 792//895
f 780//868 812//924 811//922 779//896
f 794//865 826//925 825//923 793//866
f 781//867 813//926 812//924 780//868
f 795//869 827//927 826//925 794//865
f 782//870 814//928 813//926 781//867
f 796//871 828//900 827//927 795//869
f 783//872 815//902 814//928 782//870
f 805//909 837//929 836//930 804//906
f 832//910 864//931 863//932 831//907
f 819//911 851//933 850//934 818//908
f 806//912 838//935 837//929 805//909
f 801//898 833//936 864//931 832//910
f 820//913 852//937 851//933 819//911
f 807//914 839//938 838//935 806//912
f 821//915 853//939 852//937 820//913
f 808//916 840//940 839//938 807//914
f 822//917 854//941 853//939 821//915
f 809//918 841//942 840//940 808//916
f 823//919 855//943 854//941 822//917
f 810//920 842//944 841//942 809//918
f 824//921 856//945 855//943 823//919
f 811//922 843//946 842//944 810//920
f 825//923 857//947 856//945 824//921
f 812//924 844//948 843//946 811//922
f 826//925 858//949 857//947 825//923
f 813//926 845//950 844//948 812//924
f 827//927 859//951 858//949 826//925
f 814//928 846//952 845//950 813//926
f 828//900 860//953 859//951 827//927
f 815//902 847//954 846//952 814//928
f 802//897 834//955 833//936 801//898
f 829//899 861//956 860//953 828//900
f 816//901 848//957 847//954 815//902
f 803//903 835//958 834//955 802//897
f 830//904 862//959 861//956 829//899
f 817//905 849//960 848//957 816//901
f 804//906 836//930 835//958 803//903
f 831//907 863//932 862//959 830//904
f 818//908 850//934 849//960 817//905
f 840//940 872//961 871//962 839//938
f 854//941 886//963 885//964 853//939
f 841//942 873//965 872//961 840//940
f 855//943 887//966 886//963 854//941
f 842//944 874//967 873//965 841//942
f 856//945 888//968 887//966 855//943
f 843//946 875//969 874//967 842//944
f 857//947 889//970 888//968 856//945
f 844//948 876//971 875//969 843//946
f 858//949 890//972 889//970 857//947
f 845//950 877//973 876//971 844//948
f 859//951 891//974 890//972 858//949
f 846//952 878//975 877//973 845//950
f 860//953 892//976 891//974 859//951
f 847//954 879//977 878//975 846//952
f 834//955 866//978 865//979 833//936
f 861//956 893//980 892//976 860//953
f 848//957 880//981 879//977 847//954
f 835//958 867//982 866//978 834//955
f 862//959 894//983 893//980 861//956
f 849//960 881//984 880//981 848//957
f 836//930 868//985 867//982 835//958
f 863//932 895//986 894//983 862//959
f 850//934 882//987 881//984 849//960
f 837//929 869//988 868//985 836//930
f 864//931 896//989 895//986 863//932
f 851//933 883//990 882//987 850//934
f 838//935 870//991 869//988 837//929
f 833//936 865//979 896//989 864//931
f 852//937 884//992 883//990 851//933
f 839//938 871//962 870//991 838//935
f 853//939 885//964 884//992 852//937
f 866//978 867//982 868//985 869//988 870//991 871//962 872//961 873//965 874//967 875//969 876//971 877//973 878//975 879//977 880//981 881//984 882//987 883//990 884//992 885//964 886//963 887//966 888//968 889//970 890//972 891//974 892//976 893//980 894//983 895//986 896//989 865//979
f 355//374 901//428 928//479 354//366
f 368//372 899//424 927//477 367//364
f 381//370 897//420 926//475 380//362
f 354//366 928//479 909//441 353//367
f 367//364 927//477 925//473 366//358
f 380//362 926//475 924//471 379//354
f 366//358 925//473 923//469 365//359
f 379//354 924//471 922//467 378//355
f 365//359 923//469 921//465 364//416
f 378//355 922//467 920//463 377//414
f 364//416 921//465 919//461 363//412
f 377//414 920//463 918//459 376//410
f 363//412 919//461 917//457 362//408
f 376//410 918//459 916//455 375//406
f 362//408 917//457 915//453 361//404
f 375//406 916//455 914//451 374//402
f 361//404 915//453 913//449 360//400
f 374//402 914//451 912//447 373//398
f 360//400 913//449 911//445 359//396
f 373//398 912//447 910//443 372//394
f 359//396 911//445 908//439 358//392
f 372//394 910//443 907//437 371//390
f 353//367 909//441 906//435 384//388
f 358//392 908//439 905//433 357//386
f 371//390 907//437 904//431 370//384
f 384//388 906//435 903//429 383//382
f 357//386 905//433 902//425 356//380
f 370//384 904//431 900//421 369//378
f 383//382 903//429 898//417 382//376
f 356//380 902//425 901//428 355//374
f 369//378 900//421 899//424 368//372
f 382//376 898//417 897//420 381//370
f 333//328 931//360 960//415 332//324
f 346//326 929//356 959//413 345//322
f 332//324 960//415 958//411 331//320
f 345//322 959//413 957//409 344//318
f 331//320 958//411 956//407 330//316
f 344//318 957//409 955//405 343//314
f 330//316 956//407 954//403 329//312
f 343//314 955//405 953//401 342//310
f 329//312 954//403 952//399 328//308
f 342//310 953//401 951//397 341//306
f 328//308 952//399 950//395 327//304
f 341//306 951//397 949//393 340//302
f 327//304 950//395 948//391 326//294
f 340//302 949//393 947//389 339//290
f 321//298 935//368 946//387 352//299
f 326//294 948//391 945//385 325//295
f 339//290 947//389 944//383 338//291
f 352//299 946//387 943//381 351//352
f 325//295 945//385 942//379 324//350
f 338//291 944//383 941//377 337//348
f 351//352 943//381 940//375 350//346
f 324//350 942//379 939//373 323//344
f 337//348 941//377 938//371 336//342
f 350//346 940//375 937//369 349//340
f 323//344 939//373 936//365 322//338
f 336//342 938//371 934//363 335//336
f 349//340 937//369 933//361 348//334
f 322//338 936//365 935//368 321//298
f 335//336 934//363 932//357 334//332
f 348//334 933//361 930//353 347//330
f 334//332 932//357 931//360 333//328
f 347//330 930//353 929//356 346//326
f 517//610 963//300 992//351 544//611
f 515//614 962//296 991//349 543//615
f 513//618 961//292 990//347 542//619
f 544//611 992//351 989//345 541//621
f 543//615 991//349 988//343 540//623
f 542//619 990//347 987//341 539//625
f 541//621 989//345 986//339 538//627
f 540//623 988//343 985//337 537//629
f 539//625 987//341 984//335 536//631
f 538//627 986//339 983//333 535//633
f 537//629 985//337 966//297 518//635
f 536//631 984//335 982//331 534//637
f 535//633 983//333 981//329 533//639
f 534//637 982//331 980//327 532//641
f 533//639 981//329 979//325 531//643
f 532//641 980//327 978//323 530//645
f 531//643 979//325 977//321 529//647
f 530//645 978//323 976//319 528//649
f 529//647 977//321 975//317 527//651
f 528//649 976//319 974//315 526//653
f 527//651 975//317 973//313 525//655
f 526//653 974//315 972//311 524//657
f 525//655 973//313 971//309 523//659
f 524//657 972//311 970//307 522//661
f 523//659 971//309 969//305 521//663
f 522//661 970//307 968//303 520//665
f 521//663 969//305 967//301 519//667
f 520//665 968//303 965//293 516//669
f 519//667 967//301 964//289 514//671
f 518//635 966//297 963//300 517//610
f 516//669 965//293 962//296 515//614
f 514//671 964//289 961//292 513//618
