# Blender v2.78 (sub 0) OBJ File: 'cup_of_tea.blend'
# www.blender.org
mtllib cup_of_tea.mtl
o Cone
v 0.642950 1.593952 -0.562573
v 0.670738 1.553822 -0.643609
v 0.715549 1.515235 -0.717449
v 0.775660 1.479673 -0.781256
v 0.848762 1.448502 -0.832578
v 0.932044 1.422921 -0.869442
v 1.022308 1.403912 -0.890432
v 1.116083 1.392207 -0.894741
v 1.209766 1.388255 -0.882204
v 0.739353 1.837466 -0.793054
v 1.299757 1.392207 -0.853302
v 1.382598 1.403912 -0.809146
v 1.455105 1.422921 -0.751433
v 1.514492 1.448502 -0.682381
v 1.558476 1.479673 -0.604643
v 1.585367 1.515235 -0.521207
v 1.594133 1.553822 -0.435279
v 1.584435 1.593952 -0.350162
v 1.556646 1.634081 -0.269126
v 1.511835 1.672669 -0.195286
v 1.451724 1.708231 -0.131479
v 1.378623 1.739402 -0.080157
v 1.295340 1.764983 -0.043293
v 1.205077 1.783991 -0.022303
v 1.111301 1.795697 -0.017994
v 1.017618 1.799649 -0.030532
v 0.927627 1.795697 -0.059434
v 0.844786 1.783991 -0.103590
v 0.772279 1.764983 -0.161303
v 0.712892 1.739402 -0.230355
v 0.668908 1.708231 -0.308093
v 0.642017 1.672668 -0.391529
v 0.633252 1.634081 -0.477456
v 0.714478 1.882479 -0.721897
v 0.690900 1.723816 -0.269224
v 0.780062 1.794183 -0.857689
v 0.835040 1.754293 -0.913317
v 0.902174 1.719330 -0.957801
v 0.978884 1.690636 -0.989432
v 1.062222 1.669314 -1.006994
v 1.148986 1.656184 -1.009812
v 1.235841 1.651751 -0.997778
v 1.319450 1.656184 -0.971353
v 1.396598 1.669314 -0.931555
v 1.464323 1.690636 -0.879911
v 1.520021 1.719330 -0.818408
v 1.561551 1.754293 -0.749407
v 1.587318 1.794183 -0.675562
v 1.596332 1.837466 -0.599709
v 1.588245 1.882479 -0.524764
v 1.563369 1.927492 -0.453607
v 1.522660 1.970775 -0.388972
v 1.467682 2.010665 -0.333344
v 1.400548 2.045629 -0.288860
v 1.323838 2.074322 -0.257229
v 1.240500 2.095644 -0.239667
v 1.153736 2.108774 -0.236849
v 1.066881 2.113207 -0.248884
v 0.983272 2.108774 -0.275308
v 0.906124 2.095644 -0.315107
v 0.838399 2.074322 -0.366750
v 0.782701 2.045628 -0.428254
v 0.741171 2.010664 -0.497255
v 0.715404 1.970775 -0.571100
v 0.706391 1.927491 -0.646953
v 0.761936 2.028146 -0.462754
v 0.870690 2.254004 -1.000495
v 0.850484 2.290566 -0.942696
v 0.903757 2.218846 -1.052995
v 0.948414 2.186445 -1.098181
v 1.002944 2.158045 -1.134314
v 1.065253 2.134738 -1.160007
v 1.132946 2.117419 -1.174271
v 1.203422 2.106754 -1.176560
v 1.273971 2.103153 -1.166785
v 1.341884 2.106754 -1.145321
v 1.404549 2.117419 -1.112994
v 1.459560 2.134738 -1.071046
v 1.504801 2.158045 -1.021089
v 1.538535 2.186445 -0.965042
v 1.559465 2.218846 -0.905059
v 1.566786 2.254004 -0.843447
v 1.560218 2.290566 -0.782571
v 1.540012 2.327128 -0.724773
v 1.506945 2.362286 -0.672272
v 1.462288 2.394687 -0.627087
v 1.407758 2.423087 -0.590954
v 1.345448 2.446394 -0.565261
v 1.277755 2.463713 -0.550996
v 1.207280 2.474378 -0.548707
v 1.136730 2.477979 -0.558483
v 1.068818 2.474378 -0.579946
v 1.006152 2.463713 -0.612273
v 0.951142 2.446394 -0.654222
v 0.905900 2.423087 -0.704179
v 0.872167 2.394687 -0.760226
v 0.851237 2.362285 -0.820208
v 0.843916 2.327128 -0.881821
v 0.889033 2.408887 -0.732203
v 1.054163 2.558899 -1.110133
v 1.042726 2.579594 -1.077418
v 1.072879 2.539000 -1.139849
v 1.098155 2.520660 -1.165424
v 1.129020 2.504585 -1.185876
v 1.164288 2.491393 -1.200418
v 1.202603 2.481591 -1.208493
v 1.242493 2.475554 -1.209788
v 1.282425 2.473516 -1.204255
v 1.320864 2.475554 -1.192107
v 1.356334 2.481591 -1.173809
v 1.387470 2.491393 -1.150066
v 1.413078 2.504585 -1.121789
v 1.432171 2.520660 -1.090066
v 1.444018 2.539000 -1.056115
v 1.448162 2.558899 -1.021242
v 1.444444 2.579594 -0.986786
v 1.433007 2.600289 -0.954071
v 1.414291 2.620188 -0.924355
v 1.389015 2.638528 -0.898780
v 1.358150 2.654602 -0.878328
v 1.322882 2.667794 -0.863785
v 1.284567 2.677597 -0.855711
v 1.244677 2.683634 -0.854416
v 1.204745 2.685672 -0.859949
v 1.166306 2.683634 -0.872097
v 1.130836 2.677597 -0.890395
v 1.099700 2.667794 -0.914138
v 1.074092 2.654602 -0.942415
v 1.054999 2.638527 -0.974138
v 1.043152 2.620188 -1.008089
v 1.039008 2.600288 -1.042962
v 1.064546 2.646565 -0.958276
v 1.338791 1.962415 -1.099534
v 1.264123 1.958456 -1.123133
v 1.342711 2.335844 -0.461768
v 1.411219 2.310218 -0.490017
v 0.859435 2.310217 -0.614506
v 0.909177 2.335844 -0.559579
v 1.578018 2.085659 -0.835370
v 1.555006 2.050034 -0.901320
v 0.857079 2.085659 -0.998023
v 0.820722 2.124313 -0.940300
v 1.186555 1.962415 -1.133881
v 1.471174 2.278993 -0.529745
v 0.969661 2.354885 -0.513457
v 0.798506 2.164513 -0.876751
v 1.109068 1.974141 -1.131364
v 1.520273 2.243368 -0.579425
v 1.038560 2.366611 -0.477914
v 1.517917 2.018809 -0.962942
v 0.840891 2.294605 -0.645318
v 1.034641 1.993183 -1.115680
v 0.791285 2.204713 -0.809821
v 1.556630 2.204713 -0.637148
v 1.113229 2.370570 -0.454315
v 1.468174 1.993183 -1.017870
v 0.966133 2.018809 -1.087432
v 1.190797 2.366611 -0.443568
v 0.799334 2.243368 -0.742078
v 1.578846 2.164513 -0.700697
v 1.407691 1.974141 -1.063991
v 0.906178 2.050034 -1.047704
v 1.268283 2.354885 -0.446084
v 0.822346 2.278992 -0.676129
v 1.586068 2.124313 -0.767628
v 1.518995 2.438364 -0.882942
v 1.524439 2.408063 -0.933392
v 0.948779 2.524653 -0.864424
v 0.962757 2.536421 -0.841200
v 1.011968 2.352074 -1.144501
v 0.974959 2.378927 -1.107054
v 1.518371 2.378927 -0.984453
v 0.976735 2.548189 -0.817976
v 1.014229 2.567505 -0.776574
v 0.947555 2.408063 -1.063544
v 1.501026 2.352074 -1.034163
v 1.059818 2.581858 -0.741809
v 0.930810 2.438364 -1.015644
v 1.111752 2.590696 -0.715019
v 1.473069 2.328538 -1.080611
v 1.168034 2.593681 -0.697231
v 1.435576 2.309223 -1.122013
v 1.226501 2.590696 -0.689130
v 1.389986 2.294870 -1.156778
v 1.284907 2.581858 -0.691026
v 1.338053 2.286031 -1.183568
v 1.341007 2.567505 -0.702848
v 1.281771 2.283047 -1.201356
v 1.392645 2.548189 -0.724141
v 1.223304 2.286031 -1.209457
v 1.437837 2.524653 -0.754086
v 1.164898 2.294870 -1.207560
v 1.474846 2.497801 -0.791533
v 0.925366 2.468664 -0.965195
v 1.108798 2.309223 -1.195738
v 1.502250 2.468665 -0.835042
v 0.931434 2.497801 -0.914134
v 1.057160 2.328538 -1.174446
v 0.679114 1.633715 -0.573621
v 0.705010 1.596317 -0.649142
v 0.746771 1.560356 -0.717956
v 0.802791 1.527214 -0.777420
v 0.870917 1.498165 -0.825249
v 0.948531 1.474325 -0.859604
v 1.032651 1.456610 -0.879165
v 1.120044 1.445701 -0.883181
v 1.207351 1.442018 -0.871497
v 1.291217 1.445701 -0.844562
v 1.368419 1.456610 -0.803412
v 1.435991 1.474325 -0.749627
v 1.491336 1.498165 -0.685275
v 1.532326 1.527214 -0.612828
v 1.557388 1.560356 -0.535071
v 1.565556 1.596317 -0.454992
v 1.556518 1.633715 -0.375668
v 1.530621 1.671113 -0.300148
v 1.488860 1.707074 -0.231333
v 1.432840 1.740216 -0.171869
v 1.364714 1.769265 -0.124040
v 1.287100 1.793105 -0.089685
v 1.202980 1.810820 -0.070124
v 1.115588 1.821729 -0.066108
v 1.028281 1.825412 -0.077792
v 0.944414 1.821729 -0.104727
v 0.867212 1.810820 -0.145878
v 0.799640 1.793105 -0.199663
v 0.744295 1.769265 -0.264015
v 0.703305 1.740216 -0.336462
v 0.678244 1.707074 -0.414219
v 0.670076 1.671113 -0.494298
v 0.723800 1.754740 -0.300238
v 0.728980 1.826516 -0.684142
v 0.752608 1.783760 -0.751731
v 0.791276 1.742647 -0.813125
v 0.843497 1.704758 -0.865964
v 0.907265 1.671547 -0.908218
v 0.980129 1.644292 -0.938263
v 1.059289 1.624039 -0.954944
v 1.141702 1.611568 -0.957621
v 1.224202 1.607357 -0.946190
v 1.303619 1.611568 -0.921090
v 1.376899 1.624039 -0.883287
v 1.441228 1.644292 -0.834233
v 1.494133 1.671547 -0.775813
v 1.533581 1.704758 -0.710273
v 1.558057 1.742647 -0.640130
v 1.566618 1.783760 -0.568080
v 1.558937 1.826516 -0.496893
v 1.535308 1.869272 -0.429304
v 1.496640 1.910385 -0.367910
v 1.444419 1.948275 -0.315071
v 1.380651 1.981485 -0.272817
v 1.307787 2.008741 -0.242772
v 1.228627 2.028993 -0.226090
v 1.146214 2.041465 -0.223414
v 1.063714 2.045676 -0.234845
v 0.984297 2.041464 -0.259945
v 0.911016 2.028993 -0.297748
v 0.846688 2.008740 -0.346802
v 0.793783 1.981485 -0.405222
v 0.754335 1.948274 -0.470763
v 0.729860 1.910385 -0.540906
v 0.721298 1.869272 -0.612955
v 0.774059 1.964880 -0.437992
v 0.859331 2.228493 -0.902452
v 0.878566 2.193688 -0.957472
v 0.910043 2.160221 -1.007449
v 0.952553 2.129377 -1.050462
v 1.004462 2.102342 -1.084859
v 1.063776 2.080155 -1.109317
v 1.128215 2.063669 -1.122896
v 1.195303 2.053517 -1.125075
v 1.262461 2.050089 -1.115769
v 1.327110 2.053517 -1.095337
v 1.386763 2.063669 -1.064564
v 1.439129 2.080155 -1.024632
v 1.482196 2.102342 -0.977076
v 1.514308 2.129377 -0.923724
v 1.534232 2.160221 -0.866624
v 1.541201 2.193688 -0.807973
v 1.534948 2.228493 -0.750024
v 1.515714 2.263298 -0.695004
v 1.484236 2.296766 -0.645027
v 1.441726 2.327610 -0.602014
v 1.389817 2.354644 -0.567617
v 1.330503 2.376831 -0.543160
v 1.266064 2.393317 -0.529581
v 1.198976 2.403470 -0.527402
v 1.131818 2.406898 -0.536707
v 1.067170 2.403470 -0.557139
v 1.007516 2.393317 -0.587912
v 0.955150 2.376831 -0.627844
v 0.912083 2.354644 -0.675400
v 0.879971 2.327609 -0.728753
v 0.860048 2.296765 -0.785852
v 0.853078 2.263298 -0.844503
v 0.896027 2.341126 -0.702077
v 1.032968 2.502236 -1.031953
v 1.044378 2.481591 -1.064591
v 1.063050 2.461738 -1.094236
v 1.088266 2.443442 -1.119751
v 1.119058 2.427405 -1.140155
v 1.154243 2.414244 -1.154663
v 1.192467 2.404465 -1.162718
v 1.232262 2.398443 -1.164010
v 1.272100 2.396410 -1.158490
v 1.310448 2.398443 -1.146371
v 1.345834 2.404465 -1.128116
v 1.376897 2.414244 -1.104429
v 1.402444 2.427405 -1.076220
v 1.421492 2.443442 -1.044571
v 1.433311 2.461738 -1.010701
v 1.437445 2.481591 -0.975910
v 1.433736 2.502237 -0.941535
v 1.422326 2.522882 -0.908898
v 1.403654 2.542735 -0.879252
v 1.378438 2.561031 -0.853737
v 1.347646 2.577068 -0.833334
v 1.312461 2.590229 -0.818826
v 1.274237 2.600008 -0.810771
v 1.234441 2.606030 -0.809478
v 1.194604 2.608064 -0.814998
v 1.156255 2.606030 -0.827118
v 1.120870 2.600008 -0.845373
v 1.089807 2.590229 -0.869060
v 1.064260 2.577067 -0.897269
v 1.045212 2.561031 -0.928918
v 1.033393 2.542735 -0.962788
v 1.029259 2.522882 -0.997579
v 1.054736 2.569049 -0.913093
v 1.147391 2.615173 -1.101697
v 1.141210 2.626359 -1.084015
v 1.157507 2.604418 -1.117758
v 1.171168 2.594506 -1.131581
v 1.187851 2.585818 -1.142635
v 1.206912 2.578687 -1.150495
v 1.227621 2.573389 -1.154859
v 1.249181 2.570127 -1.155559
v 1.270764 2.569025 -1.152569
v 1.291540 2.570127 -1.146003
v 1.310711 2.573389 -1.136113
v 1.327540 2.578687 -1.123280
v 1.341380 2.585818 -1.107997
v 1.351700 2.594506 -1.090851
v 1.358103 2.604418 -1.072501
v 1.360343 2.615173 -1.053652
v 1.358333 2.626359 -1.035029
v 1.352152 2.637544 -1.017347
v 1.342036 2.648299 -1.001286
v 1.328374 2.658212 -0.987463
v 1.311692 2.666900 -0.976409
v 1.292630 2.674030 -0.968549
v 1.271922 2.679328 -0.964185
v 1.250362 2.682591 -0.963485
v 1.228779 2.683693 -0.966475
v 1.208003 2.682591 -0.973041
v 1.188832 2.679328 -0.982931
v 1.172003 2.674030 -0.995764
v 1.158163 2.666900 -1.011047
v 1.147843 2.658212 -1.028193
v 1.141440 2.648299 -1.046543
v 1.139200 2.637544 -1.065392
v 1.153003 2.662556 -1.019620
v 1.207627 2.640404 -1.089010
v 1.204931 2.645282 -1.081299
v 1.212039 2.635714 -1.096014
v 1.217996 2.631391 -1.102042
v 1.225271 2.627602 -1.106863
v 1.233584 2.624493 -1.110290
v 1.242615 2.622182 -1.112194
v 1.252017 2.620759 -1.112499
v 1.261429 2.620279 -1.111195
v 1.270490 2.620759 -1.108331
v 1.278850 2.622182 -1.104018
v 1.286189 2.624493 -1.098422
v 1.292225 2.627602 -1.091757
v 1.296725 2.631391 -1.084280
v 1.299518 2.635714 -1.076277
v 1.300494 2.640404 -1.068058
v 1.299618 2.645282 -1.059936
v 1.296922 2.650160 -1.052225
v 1.292511 2.654850 -1.045221
v 1.286553 2.659173 -1.039193
v 1.279278 2.662962 -1.034372
v 1.270965 2.666071 -1.030944
v 1.261934 2.668382 -1.029041
v 1.252532 2.669805 -1.028736
v 1.243120 2.670285 -1.030040
v 1.234060 2.669805 -1.032904
v 1.225699 2.668382 -1.037216
v 1.218360 2.666071 -1.042813
v 1.212325 2.662962 -1.049478
v 1.207824 2.659173 -1.056955
v 1.205032 2.654850 -1.064957
v 1.204055 2.650160 -1.073177
v 1.210074 2.661067 -1.053216
v 1.234237 2.632454 -1.070988
v 1.233236 2.634265 -1.068124
v 1.235876 2.630712 -1.073589
v 1.238088 2.629107 -1.075827
v 1.240790 2.627700 -1.077618
v 1.243877 2.626545 -1.078890
v 1.247230 2.625687 -1.079597
v 1.250722 2.625159 -1.079710
v 1.254217 2.624980 -1.079226
v 1.257581 2.625159 -1.078163
v 1.260686 2.625687 -1.076561
v 1.263411 2.626545 -1.074483
v 1.265653 2.627700 -1.072008
v 1.267324 2.629107 -1.069231
v 1.268361 2.630712 -1.066260
v 1.268724 2.632454 -1.063207
v 1.268398 2.634265 -1.060191
v 1.267397 2.636076 -1.057328
v 1.265759 2.637818 -1.054727
v 1.263547 2.639424 -1.052488
v 1.260845 2.640831 -1.050698
v 1.257758 2.641985 -1.049425
v 1.254404 2.642843 -1.048719
v 1.250913 2.643372 -1.048605
v 1.247418 2.643550 -1.049089
v 1.244053 2.643372 -1.050153
v 1.240949 2.642843 -1.051754
v 1.238223 2.641985 -1.053833
v 1.235982 2.640831 -1.056308
v 1.234311 2.639424 -1.059084
v 1.233274 2.637818 -1.062056
v 1.232911 2.636076 -1.065108
v 1.235146 2.640127 -1.057696
v 1.492671 2.502415 -0.928349
v 0.989923 2.578494 -0.912022
v 1.045636 2.426336 -1.158959
v 1.014572 2.599246 -0.871069
v 1.497470 2.475699 -0.972829
v 1.002248 2.588870 -0.891545
v 1.013006 2.450011 -1.125943
v 1.492121 2.450011 -1.017849
v 1.047629 2.616276 -0.834566
v 0.988845 2.475699 -1.087582
v 1.476828 2.426336 -1.061677
v 1.087824 2.628931 -0.803915
v 0.974080 2.502415 -1.045349
v 1.133613 2.636723 -0.780294
v 1.452179 2.405584 -1.102629
v 1.183236 2.639354 -0.764611
v 1.419122 2.388554 -1.139132
v 1.234785 2.636723 -0.757468
v 1.378926 2.375899 -1.169783
v 1.286280 2.628931 -0.759141
v 1.333138 2.368107 -1.193404
v 1.335742 2.616276 -0.769564
v 1.283515 2.365475 -1.209087
v 1.381271 2.599246 -0.788337
v 1.231966 2.368107 -1.216230
v 1.421115 2.578495 -0.814739
v 1.180471 2.375899 -1.214557
v 1.453745 2.554820 -0.847755
v 0.969281 2.529130 -1.000869
v 1.131009 2.388554 -1.204134
v 1.477906 2.529131 -0.886116
v 0.974630 2.554819 -0.955850
v 1.085480 2.405584 -1.185361
v 1.546412 2.334280 -0.890326
v 0.926010 2.476058 -0.788495
v 0.939488 2.302098 -1.082142
v 1.539710 2.302098 -0.946725
v 0.982863 2.510391 -0.717113
v 0.909219 2.334280 -1.034084
v 1.520552 2.272438 -1.001631
v 1.033218 2.526244 -0.678714
v 0.890723 2.367749 -0.981177
v 1.090581 2.536007 -0.649122
v 1.489672 2.246442 -1.052936
v 1.152747 2.539303 -0.629475
v 1.448259 2.225107 -1.098666
v 1.217327 2.536007 -0.620527
v 1.397904 2.209253 -1.137064
v 1.281839 2.526244 -0.622622
v 1.340541 2.199491 -1.166656
v 1.343804 2.510391 -0.635680
v 1.278375 2.196195 -1.186303
v 1.400840 2.489056 -0.659198
v 1.213795 2.199491 -1.195251
v 1.450757 2.463059 -0.692274
v 1.149283 2.209253 -1.193156
v 1.491635 2.433400 -0.733636
v 0.884710 2.401217 -0.925453
v 1.087318 2.225107 -1.180098
v 1.521903 2.401217 -0.781694
v 0.891412 2.433400 -0.869054
v 1.030282 2.246442 -1.156580
v 1.540399 2.367749 -0.834602
v 0.910571 2.463059 -0.814147
v 0.980366 2.272438 -1.123504
v 0.941450 2.489056 -0.762843
v 1.249579 1.794169 -1.058668
v 1.406978 2.170572 -0.381202
v 0.869770 2.197992 -0.455637
v 1.560838 1.892162 -0.821317
v 0.775118 1.971645 -0.863027
v 1.166577 1.798406 -1.070168
v 1.471134 2.137159 -0.423713
v 0.934490 2.218368 -0.406285
v 0.751346 2.014661 -0.795027
v 1.083663 1.810953 -1.067475
v 1.523672 2.099039 -0.476873
v 1.008216 2.230915 -0.368252
v 1.521150 1.858750 -0.887256
v 1.004022 1.831329 -1.050693
v 0.743618 2.057676 -0.723408
v 1.562575 2.057677 -0.538640
v 1.088115 2.235152 -0.343000
v 1.467924 1.831329 -0.946031
v 0.930715 1.858750 -1.020465
v 1.171116 2.230915 -0.331499
v 0.752232 2.099039 -0.650920
v 1.586348 2.014661 -0.606640
v 1.403204 1.810953 -0.995383
v 0.866560 1.892162 -0.977955
v 1.254031 2.218368 -0.334192
v 0.776855 2.137159 -0.580351
v 1.594075 1.971645 -0.678260
v 1.329478 1.798406 -1.033416
v 1.333672 2.197993 -0.350975
v 0.816543 2.170571 -0.514412
v 1.585462 1.930282 -0.750748
v 0.814021 1.930282 -0.924794
v 0.796699 2.153865 -0.547382
v 1.340959 2.033748 -1.123714
v 1.344717 2.391828 -0.512162
v 0.881305 2.367255 -0.658622
v 1.570353 2.151926 -0.870408
v 0.879046 2.151926 -1.026375
v 0.863523 2.352284 -0.688167
v 1.269359 2.029952 -1.146343
v 1.410409 2.367255 -0.539249
v 0.929003 2.391828 -0.605952
v 1.548287 2.117766 -0.933647
v 0.844184 2.188992 -0.971024
v 1.194980 2.033748 -1.156649
v 1.467900 2.337313 -0.577344
v 0.987000 2.410087 -0.561726
v 0.822881 2.227540 -0.910088
v 1.120678 2.044992 -1.154236
v 1.514981 2.303153 -0.624982
v 1.053068 2.421330 -0.527644
v 1.512721 2.087824 -0.992736
v 1.049310 2.063251 -1.139196
v 0.815956 2.266087 -0.845908
v 1.549843 2.266087 -0.680333
v 1.124668 2.425127 -0.505015
v 1.465024 2.063251 -1.045406
v 0.983618 2.087824 -1.112109
v 1.199047 2.421331 -0.494709
v 0.823674 2.303153 -0.780950
v 1.571146 2.227540 -0.741270
v 1.407027 2.044992 -1.089632
v 0.926127 2.117766 -1.074014
v 1.273349 2.410087 -0.497122
v 0.845740 2.337313 -0.717712
v 1.578071 2.188992 -0.805450
v 1.335994 1.888871 -1.073237
v 1.340066 2.276934 -0.410477
v 0.837851 2.250304 -0.569201
v 1.584596 2.016944 -0.798721
v 0.835402 2.016944 -0.967748
v 0.818580 2.234079 -0.601220
v 1.258399 1.884757 -1.097761
v 1.411259 2.250304 -0.439832
v 0.889543 2.276934 -0.512121
v 1.560682 1.979923 -0.867255
v 0.797621 2.057114 -0.907762
v 1.177791 1.888871 -1.108930
v 1.473564 2.217855 -0.481117
v 0.952396 2.296722 -0.464192
v 0.774534 2.098889 -0.841723
v 1.097267 1.901056 -1.106315
v 1.524588 2.180835 -0.532745
v 1.023996 2.308908 -0.427256
v 1.522139 1.947475 -0.931292
v 1.019923 1.920844 -1.090016
v 0.767029 2.140664 -0.772169
v 1.562369 2.140665 -0.592730
v 1.101591 2.313022 -0.402732
v 1.470447 1.920844 -0.988372
v 0.948731 1.947475 -1.060660
v 1.182199 2.308908 -0.391563
v 0.775394 2.180834 -0.701773
v 1.585456 2.098889 -0.658769
v 1.407593 1.901056 -1.036301
v 0.886425 1.979923 -1.019376
v 1.262722 2.296722 -0.394178
v 0.799308 2.217855 -0.633238
v 1.592961 2.057114 -0.728324
v 1.414328 2.586017 -1.036912
v 1.410933 2.569709 -1.065491
v 1.107779 2.664445 -0.972314
v 1.128764 2.675256 -0.949141
v 1.106785 2.569709 -1.134110
v 1.091447 2.586017 -1.109758
v 1.401224 2.554680 -1.093313
v 1.154281 2.683290 -0.929683
v 1.082075 2.602976 -1.082948
v 1.183348 2.688237 -0.914689
v 1.385577 2.541507 -1.119311
v 1.214849 2.689907 -0.904733
v 1.364592 2.530696 -1.142483
v 1.247573 2.688237 -0.900199
v 1.339076 2.522663 -1.161941
v 1.280263 2.683290 -0.901260
v 1.310008 2.517716 -1.176935
v 1.311662 2.675257 -0.907877
v 1.278507 2.516046 -1.186891
v 1.340564 2.664446 -0.919794
v 1.245783 2.517716 -1.191425
v 1.365858 2.651273 -0.936555
v 1.099956 2.657859 -0.985312
v 1.213094 2.522663 -1.190364
v 1.386571 2.636243 -0.957514
v 1.079028 2.619936 -1.054712
v 1.181695 2.530696 -1.183747
v 1.401909 2.619936 -0.981866
v 1.082424 2.636243 -1.026133
v 1.152793 2.541507 -1.171830
v 1.411282 2.602976 -1.008675
v 1.092132 2.651272 -0.998311
v 1.127499 2.554680 -1.155069
v 1.471820 2.544286 -0.958853
v 1.020239 2.612623 -0.944188
v 1.070282 2.475950 -1.165993
v 1.042379 2.631262 -0.907403
v 1.476131 2.520290 -0.998807
v 1.031309 2.621943 -0.925796
v 1.040973 2.497215 -1.136338
v 1.471326 2.497215 -1.039245
v 1.072072 2.646559 -0.874615
v 1.019270 2.520290 -1.101880
v 1.457589 2.475950 -1.078612
v 1.108177 2.657926 -0.847084
v 1.006009 2.544286 -1.063946
v 1.149305 2.664926 -0.825867
v 1.435449 2.457310 -1.115397
v 1.193877 2.667289 -0.811780
v 1.405756 2.442014 -1.148185
v 1.240180 2.664926 -0.805364
v 1.369652 2.430647 -1.175716
v 1.286435 2.657926 -0.806866
v 1.328523 2.423647 -1.196933
v 1.330863 2.646559 -0.816229
v 1.283951 2.421284 -1.211020
v 1.371758 2.631262 -0.833091
v 1.237648 2.423647 -1.217435
v 1.407547 2.612623 -0.856806
v 1.191394 2.430647 -1.215933
v 1.436856 2.591357 -0.886462
v 1.001698 2.568283 -1.023993
v 1.146966 2.442014 -1.206571
v 1.458558 2.568283 -0.920919
v 1.006503 2.591357 -0.983555
v 1.106071 2.457310 -1.189708
v 1.529532 2.403056 -0.858809
v 0.929830 2.493808 -0.839333
v 0.996286 2.312305 -1.133893
v 0.959232 2.518561 -0.790483
v 1.535257 2.371189 -0.911868
v 0.944531 2.506184 -0.814908
v 0.957364 2.340546 -1.094510
v 1.528876 2.340546 -0.965569
v 0.998664 2.538875 -0.746940
v 0.928543 2.371189 -1.048750
v 1.510634 2.312305 -1.017850
v 1.046611 2.553970 -0.710378
v 0.910932 2.403056 -0.998373
v 1.101230 2.563266 -0.682202
v 1.481232 2.287552 -1.066700
v 1.160422 2.566405 -0.663494
v 1.441799 2.267237 -1.110242
v 1.221913 2.563266 -0.654974
v 1.393852 2.252142 -1.146804
v 1.283339 2.553971 -0.656969
v 1.339233 2.242847 -1.174981
v 1.342340 2.538876 -0.669402
v 1.280041 2.239708 -1.193688
v 1.396649 2.518561 -0.691796
v 1.218550 2.242847 -1.202208
v 1.444177 2.493808 -0.723290
v 1.157124 2.252142 -1.200213
v 1.483100 2.465567 -0.762673
v 0.905207 2.434924 -0.945315
v 1.098123 2.267237 -1.187780
v 1.511921 2.434924 -0.808432
v 0.911588 2.465567 -0.891614
v 1.043815 2.287552 -1.165386
v 1.559473 2.290523 -0.864785
v 0.904192 2.440271 -0.757230
v 0.918427 2.256531 -1.067386
v 1.552394 2.256531 -0.924355
v 0.964241 2.476535 -0.681834
v 0.886457 2.290523 -1.016626
v 1.532159 2.225205 -0.982348
v 1.017428 2.493279 -0.641277
v 0.866921 2.325873 -0.960744
v 1.078016 2.503591 -0.610021
v 1.499543 2.197746 -1.036537
v 1.143676 2.507072 -0.589269
v 1.455802 2.175212 -1.084838
v 1.211887 2.503591 -0.579818
v 1.402615 2.158467 -1.125395
v 1.280025 2.493279 -0.582031
v 1.342027 2.148156 -1.156651
v 1.345474 2.476535 -0.595823
v 1.276367 2.144674 -1.177402
v 1.405717 2.454000 -0.620664
v 1.208156 2.148156 -1.186854
v 1.458440 2.426542 -0.655599
v 1.140018 2.158467 -1.184641
v 1.501616 2.395215 -0.699286
v 0.860571 2.361223 -0.901887
v 1.074569 2.175212 -1.170849
v 1.533586 2.361224 -0.750046
v 0.867649 2.395215 -0.842317
v 1.014326 2.197746 -1.146008
v 1.553122 2.325873 -0.805928
v 0.887885 2.426542 -0.784324
v 0.961603 2.225204 -1.111073
v 0.920500 2.454000 -0.730135
v 1.510676 2.441909 -0.953126
v 0.982746 2.562555 -0.866473
v 0.994214 2.414524 -1.116352
v 1.504973 2.414524 -1.001118
v 1.031124 2.591771 -0.805730
v 0.968457 2.441909 -1.075457
v 1.488670 2.389285 -1.047841
v 1.073975 2.605261 -0.773055
v 0.952718 2.470389 -1.030435
v 1.122787 2.613568 -0.747874
v 1.462394 2.367163 -1.091498
v 1.175687 2.616373 -0.731155
v 1.427153 2.349008 -1.130412
v 1.230642 2.613568 -0.723541
v 1.384303 2.335518 -1.163088
v 1.285538 2.605261 -0.725323
v 1.335490 2.327210 -1.188269
v 1.338267 2.591771 -0.736435
v 1.282590 2.324405 -1.204988
v 1.386802 2.573616 -0.756448
v 1.227636 2.327210 -1.212602
v 1.429278 2.551494 -0.784594
v 1.172740 2.335518 -1.210819
v 1.464063 2.526255 -0.819790
v 0.947602 2.498869 -0.983017
v 1.120011 2.349008 -1.199708
v 1.489820 2.498869 -0.860685
v 0.953304 2.526255 -0.935024
v 1.071476 2.367163 -1.179694
v 1.505560 2.470389 -0.905707
v 0.969607 2.551494 -0.888302
v 1.028999 2.389285 -1.151549
v 0.995884 2.573616 -0.844644
v 0.853070 1.441801 -0.816499
v 0.860456 1.458355 -0.814056
v 0.939959 1.433934 -0.849248
v 0.934464 1.416800 -0.852527
v 1.544895 1.623170 -0.265831
v 1.536220 1.635514 -0.276171
v 1.493442 1.672350 -0.205682
v 1.501101 1.660882 -0.193666
v 0.642450 1.623169 -0.469435
v 0.654725 1.635513 -0.475048
v 0.663983 1.597205 -0.556303
v 0.651928 1.583951 -0.552620
v 1.018096 1.784981 -0.032649
v 1.021650 1.793569 -0.048403
v 0.935742 1.789796 -0.075994
v 0.930146 1.781118 -0.060896
v 1.445658 1.416800 -0.737195
v 1.439286 1.433934 -0.736593
v 1.495978 1.458355 -0.670674
v 1.503697 1.441801 -0.669710
v 1.026127 1.415789 -0.869285
v 1.022679 1.398223 -0.873041
v 1.436059 1.706299 -0.144770
v 1.442353 1.695637 -0.131307
v 0.720284 1.726100 -0.227939
v 0.730751 1.736055 -0.239159
v 0.709757 1.721177 -0.276265
v 0.698791 1.710869 -0.265926
v 0.856660 1.778621 -0.118146
v 0.849185 1.769679 -0.104050
v 1.537967 1.488111 -0.596464
v 1.546683 1.472264 -0.593736
v 1.115647 1.404614 -0.873399
v 1.114327 1.386783 -0.877252
v 1.366274 1.736055 -0.095777
v 1.370910 1.726101 -0.081149
v 0.690510 1.558896 -0.633662
v 0.679086 1.544731 -0.631817
v 0.787443 1.760475 -0.173240
v 0.778323 1.751101 -0.160454
v 1.563638 1.522060 -0.516814
v 1.572964 1.507020 -0.512193
v 1.205079 1.400841 -0.861430
v 1.205885 1.382920 -0.864999
v 1.286770 1.760476 -0.060586
v 1.289517 1.751101 -0.045122
v 0.733287 1.522060 -0.704151
v 0.722880 1.507020 -0.703982
v 1.572005 1.558896 -0.434785
v 1.581531 1.544731 -0.428215
v 1.200603 1.778622 -0.040548
v 1.201301 1.769679 -0.024608
v 0.688763 1.706299 -0.313370
v 0.677298 1.695637 -0.303913
v 1.290987 1.404614 -0.833840
v 1.293834 1.386783 -0.836753
v 0.790671 1.488111 -0.765063
v 0.781627 1.472264 -0.766342
v 1.562747 1.597205 -0.353530
v 1.572053 1.583951 -0.345028
v 1.111082 1.789796 -0.036435
v 1.109654 1.781118 -0.020397
v 0.663092 1.672350 -0.393020
v 0.651016 1.660881 -0.385456
v 1.370069 1.415789 -0.791687
v 1.374796 1.398223 -0.793599
v 1.487507 2.497923 -0.985781
v 1.016160 2.605638 -0.908415
v 1.026399 2.473473 -1.131513
v 1.482416 2.473473 -1.028630
v 1.059353 2.631722 -0.854183
v 1.003403 2.497923 -1.095001
v 1.467860 2.450939 -1.070345
v 1.097611 2.643767 -0.825010
v 0.989351 2.523351 -1.054804
v 1.141192 2.651184 -0.802528
v 1.444400 2.431188 -1.109323
v 1.188422 2.653688 -0.787600
v 1.412936 2.414979 -1.144066
v 1.237486 2.651184 -0.780802
v 1.374679 2.402935 -1.173239
v 1.286499 2.643767 -0.782394
v 1.331098 2.395518 -1.195721
v 1.333577 2.631722 -0.792315
v 1.283867 2.393013 -1.210649
v 1.376910 2.615513 -0.810183
v 1.234803 2.395518 -1.217447
v 1.414834 2.595762 -0.835312
v 1.185791 2.402935 -1.215855
v 1.445891 2.573229 -0.866736
v 0.984783 2.548778 -1.012468
v 1.138713 2.414979 -1.205934
v 1.468887 2.548778 -0.903248
v 0.989874 2.573229 -0.969620
v 1.095380 2.431188 -1.188066
v 1.482939 2.523351 -0.943444
v 1.004430 2.595762 -0.927904
v 1.057456 2.450939 -1.162937
v 1.027890 2.615513 -0.888926
v 1.459594 2.561940 -0.972490
v 1.036246 2.626004 -0.958741
v 1.083160 2.497876 -1.166680
v 1.057002 2.643478 -0.924256
v 1.463636 2.539444 -1.009945
v 1.046624 2.634741 -0.941498
v 1.055683 2.517812 -1.138878
v 1.459131 2.517812 -1.047855
v 1.084838 2.657819 -0.893518
v 1.035337 2.539444 -1.106575
v 1.446254 2.497876 -1.084761
v 1.118685 2.668475 -0.867707
v 1.022905 2.561940 -1.071012
v 1.157243 2.675037 -0.847817
v 1.425498 2.480402 -1.119246
v 1.199028 2.677253 -0.834611
v 1.397661 2.466061 -1.149984
v 1.242437 2.675037 -0.828596
v 1.363814 2.455405 -1.175794
v 1.285799 2.668475 -0.830004
v 1.325257 2.448843 -1.195685
v 1.327450 2.657819 -0.838781
v 1.283471 2.446627 -1.208891
v 1.365788 2.643479 -0.854590
v 1.240063 2.448843 -1.214906
v 1.399340 2.626004 -0.876822
v 1.196700 2.455405 -1.213497
v 1.426817 2.606068 -0.904624
v 1.018864 2.584436 -1.033557
v 1.155050 2.466061 -1.204720
v 1.447162 2.584437 -0.936927
v 1.023368 2.606068 -0.995647
v 1.116712 2.480402 -1.188912
vn -0.6876 -0.5394 -0.4860
vn -0.6889 -0.1803 -0.7021
vn -0.5398 -0.2571 -0.8016
vn -0.5443 -0.6102 -0.5756
vn 0.9033 -0.2723 0.3315
vn 0.9815 0.1002 0.1631
vn 0.9257 0.1983 0.3220
vn 0.8560 -0.1757 0.4861
vn -0.0226 0.2286 0.9732
vn 0.0163 0.5913 0.8063
vn -0.1759 0.6008 0.7797
vn -0.2137 0.2388 0.9472
vn 0.2102 -0.2958 -0.9318
vn 0.2122 -0.2646 -0.9407
vn 0.3920 -0.2550 -0.8839
vn 0.3915 -0.2862 -0.8745
vn -0.3694 -0.3202 -0.8723
vn -0.3833 -0.6677 -0.6382
vn 0.8349 0.2925 0.4663
vn 0.7736 -0.0814 0.6283
vn -0.9818 -0.1757 0.0714
vn -0.9743 0.1983 -0.1067
vn -0.9565 0.1002 -0.2741
vn -0.9581 -0.2723 -0.0884
vn 0.3498 0.1499 0.9247
vn 0.3931 0.5169 0.7604
vn 0.2084 0.5629 0.7998
vn 0.1679 0.1985 0.9656
vn -0.8781 0.0437 0.4763
vn -0.8553 0.4181 0.3060
vn -0.8969 0.3792 0.2273
vn -0.9180 0.0069 0.3965
vn -0.3609 0.5913 0.7212
vn -0.3975 0.2286 0.8887
vn 0.6201 -0.6677 -0.4118
vn 0.7082 -0.3202 -0.6292
vn 0.8316 -0.2571 -0.4922
vn 0.7387 -0.6102 -0.2861
vn -0.1843 -0.3671 -0.9117
vn -0.2102 -0.7100 -0.6721
vn 0.7125 0.3791 0.5905
vn 0.6588 0.0067 0.7523
vn -0.8318 0.0849 0.5486
vn -0.8049 0.4547 0.3812
vn -0.5316 0.5629 0.6328
vn -0.5662 0.1985 0.8000
vn 0.9236 -0.1803 -0.3383
vn 0.8296 -0.5394 -0.1437
vn 0.0083 -0.3961 -0.9182
vn -0.0315 -0.7359 -0.6764
vn 0.5633 0.4548 0.6898
vn 0.5156 0.0850 0.8526
vn -0.9013 0.0019 -0.4331
vn -0.8990 -0.3675 -0.2382
vn -0.6815 0.5169 0.5180
vn -0.7129 0.1499 0.6850
vn 0.9804 -0.0928 -0.1735
vn 0.8891 -0.4576 0.0104
vn 0.2011 -0.4058 -0.8915
vn 0.1469 -0.7446 -0.6511
vn -0.8109 -0.0928 -0.5777
vn -0.8074 -0.4576 -0.3723
vn 1.0000 0.0019 -0.0042
vn 0.9142 -0.3675 0.1708
vn 0.3867 -0.3961 -0.8328
vn 0.3189 -0.7359 -0.5973
vn -0.9542 0.2925 0.0627
vn -0.9685 -0.0814 0.2353
vn 0.5579 -0.3671 -0.7443
vn 0.4785 -0.7100 -0.5167
vn 0.3042 -0.0545 0.9510
vn 0.3631 0.2473 0.8983
vn 0.5327 0.1848 0.8258
vn 0.4600 -0.1065 0.8815
vn 0.8492 0.4534 -0.2707
vn 0.7595 0.5593 -0.3321
vn 0.7472 0.6277 -0.2182
vn 0.8350 0.5322 -0.1395
vn 0.5674 0.5582 0.6054
vn 0.5663 0.5822 0.5834
vn 0.4014 0.6438 0.6514
vn 0.4010 0.6204 0.6739
vn -0.6516 0.6204 0.4365
vn -0.6422 0.6438 0.4159
vn -0.7620 0.5822 0.2837
vn -0.7723 0.5582 0.3031
vn 0.9165 -0.0735 -0.3932
vn 0.9124 -0.0441 -0.4068
vn 0.9679 0.0416 -0.2480
vn 0.9724 0.0130 -0.2331
vn -0.8663 0.1068 -0.4879
vn -0.8551 0.1346 -0.5006
vn -0.7676 0.0416 -0.6395
vn -0.7780 0.0130 -0.6280
vn 0.0219 -0.2862 -0.9579
vn 0.0255 -0.2550 -0.9666
vn 0.7129 0.4824 0.5089
vn 0.7107 0.5070 0.4877
vn -0.5047 0.6666 0.5484
vn -0.4966 0.6897 0.5269
vn -0.9203 0.2044 -0.3336
vn -0.9086 0.2314 -0.3476
vn -0.1662 -0.2578 -0.9518
vn -0.1610 -0.2268 -0.9605
vn 0.8321 0.3959 0.3883
vn 0.8289 0.4212 0.3681
vn -0.3374 0.6951 0.6348
vn -0.3307 0.7179 0.6125
vn 0.8264 -0.1493 -0.5429
vn 0.8232 -0.1193 -0.5551
vn -0.8110 0.5453 0.2118
vn -0.8217 0.5212 0.2304
vn -0.3469 -0.2115 -0.9137
vn -0.3402 -0.1810 -0.9228
vn -0.9378 0.3020 -0.1711
vn -0.9260 0.3282 -0.1865
vn 0.9204 0.3020 0.2481
vn 0.9164 0.3282 0.2292
vn -0.1561 0.7047 0.6920
vn -0.1510 0.7275 0.6693
vn 0.7056 -0.2115 -0.6762
vn 0.7034 -0.1810 -0.6873
vn -0.5133 -0.1493 -0.8451
vn -0.5051 -0.1193 -0.8548
vn 0.0322 0.6951 0.7181
vn 0.0357 0.7179 0.6952
vn -0.9182 0.3959 -0.0066
vn -0.9066 0.4212 -0.0234
vn 0.9744 0.2044 0.0938
vn 0.9698 0.2314 0.0762
vn 0.5588 -0.2578 -0.7882
vn 0.5578 -0.2268 -0.7983
vn -0.6588 -0.0735 -0.7486
vn -0.6494 -0.0441 -0.7591
vn 0.2203 0.6666 0.7120
vn 0.2222 0.6897 0.6891
vn -0.8624 0.4824 0.1535
vn -0.8512 0.5070 0.1353
vn 0.9919 0.1068 -0.0686
vn 0.9872 0.1346 -0.0849
vn 0.6003 0.6317 -0.4905
vn 0.4782 0.7158 -0.5088
vn 0.4859 0.7529 -0.4438
vn 0.6107 0.6817 -0.4029
vn -0.6149 0.7880 -0.0292
vn -0.5099 0.8512 -0.1244
vn -0.5405 0.8226 -0.1764
vn -0.6475 0.7565 -0.0913
vn -0.5795 0.3776 -0.7222
vn -0.4814 0.4935 -0.7243
vn -0.3978 0.4328 -0.8089
vn -0.4832 0.3078 -0.8196
vn 0.8334 0.3776 -0.4034
vn 0.7458 0.4935 -0.4475
vn -0.4773 0.8679 0.1370
vn -0.3927 0.9194 0.0220
vn -0.4774 0.8757 -0.0715
vn -0.5748 0.8177 0.0294
vn -0.6507 0.4534 -0.6091
vn -0.5433 0.5593 -0.6261
vn 0.7883 0.3078 -0.5327
vn 0.7066 0.4328 -0.5597
vn -0.3588 0.9052 0.2274
vn -0.2898 0.9518 0.1005
vn -0.6942 0.5322 -0.4845
vn -0.5811 0.6277 -0.5179
vn -0.2238 0.9282 0.2971
vn -0.1725 0.9717 0.1610
vn 0.7156 0.2466 -0.6535
vn 0.6435 0.3797 -0.6646
vn -0.0775 0.9360 0.3433
vn -0.0454 0.9785 0.2012
vn 0.6182 0.1964 -0.7611
vn 0.5588 0.3360 -0.7581
vn 0.0745 0.9282 0.3644
vn 0.0866 0.9717 0.2195
vn 0.4996 0.1591 -0.8515
vn 0.4559 0.3036 -0.8366
vn 0.2264 0.9052 0.3595
vn 0.2185 0.9518 0.2152
vn 0.3646 0.1361 -0.9211
vn 0.3386 0.2837 -0.8971
vn 0.3723 0.8679 0.3287
vn 0.3452 0.9194 0.1885
vn 0.2182 0.1283 -0.9674
vn 0.2115 0.2769 -0.9373
vn 0.5065 0.8177 0.2734
vn 0.4619 0.8757 0.1404
vn 0.0662 0.1361 -0.9885
vn 0.0794 0.2837 -0.9556
vn 0.6240 0.7565 0.1955
vn 0.5639 0.8226 0.0728
vn -0.0856 0.1591 -0.9835
vn -0.0525 0.3036 -0.9513
vn 0.7203 0.6867 0.0981
vn 0.6475 0.7620 -0.0117
vn -0.7084 0.6110 -0.3534
vn -0.5934 0.6961 -0.4039
vn -0.2315 0.1964 -0.9528
vn -0.1791 0.3360 -0.9246
vn 0.7915 0.6110 -0.0150
vn 0.7094 0.6961 -0.1100
vn -0.6926 0.6867 -0.2206
vn -0.5797 0.7620 -0.2886
vn -0.3657 0.2466 -0.8974
vn -0.2958 0.3797 -0.8765
vn 0.9789 -0.0555 -0.1966
vn 0.9756 -0.0134 -0.2192
vn 0.9952 0.0811 -0.0536
vn 0.9987 0.0399 -0.0295
vn -0.8438 0.4613 0.2741
vn -0.8309 0.4983 0.2476
vn -0.8719 0.4592 0.1701
vn -0.8853 0.4216 0.1961
vn 0.3984 0.5618 0.7249
vn 0.4003 0.5982 0.6941
vn 0.2183 0.6448 0.7325
vn 0.2148 0.6088 0.7636
vn -0.7996 -0.0555 -0.5979
vn -0.7870 -0.0134 -0.6168
vn -0.6669 -0.1005 -0.7383
vn -0.6785 -0.1433 -0.7205
vn 0.3887 -0.3595 -0.8483
vn 0.3907 -0.3147 -0.8650
vn 0.5592 -0.2860 -0.7781
vn 0.5587 -0.3306 -0.7606
vn 0.9776 0.1794 0.1100
vn 0.9809 0.1391 0.1356
vn -0.9281 0.3721 0.0089
vn -0.9421 0.3337 0.0334
vn 0.0289 0.6734 0.7386
vn 0.0236 0.6378 0.7698
vn -0.5203 -0.1769 -0.8354
vn -0.5306 -0.2204 -0.8184
vn 0.7070 -0.2395 -0.6654
vn 0.7079 -0.2836 -0.6468
vn 0.9233 0.2776 0.2654
vn 0.9261 0.2383 0.2923
vn -0.9478 0.2776 -0.1567
vn -0.9619 0.2383 -0.1336
vn -0.1607 0.6831 0.7124
vn -0.1677 0.6475 0.7433
vn -0.3529 -0.2395 -0.9045
vn -0.3616 -0.2836 -0.8881
vn 0.8286 -0.1769 -0.5311
vn 0.8306 -0.2204 -0.5113
vn -0.3433 0.6734 0.6547
vn -0.3519 0.6378 0.6851
vn 0.8344 0.3721 0.4065
vn 0.8365 0.3337 0.4347
vn -0.9301 0.1794 -0.3204
vn -0.9441 0.1391 -0.2987
vn -0.1709 -0.2860 -0.9428
vn -0.1780 -0.3306 -0.9268
vn -0.7938 0.4986 0.3482
vn -0.7812 0.5356 0.3207
vn 0.9193 -0.1005 -0.3804
vn 0.9221 -0.1433 -0.3593
vn -0.5117 0.6448 0.5678
vn -0.5219 0.6088 0.5974
vn 0.7143 0.4592 0.5280
vn 0.7153 0.4216 0.5573
vn 0.0185 -0.3147 -0.9490
vn 0.0132 -0.3595 -0.9330
vn -0.8758 0.0811 -0.4757
vn -0.8893 0.0399 -0.4555
vn -0.6596 0.5982 0.4550
vn -0.6711 0.5618 0.4837
vn 0.5678 0.5356 0.6251
vn 0.5674 0.4986 0.6553
vn 0.2082 -0.3244 -0.9227
vn 0.2045 -0.3693 -0.9065
vn -0.6191 0.0390 -0.7843
vn -0.6043 0.0751 -0.7932
vn -0.4665 0.0034 -0.8845
vn -0.4791 -0.0339 -0.8771
vn -0.8149 0.5736 0.0833
vn -0.7969 0.6011 0.0604
vn -0.8497 0.5192 -0.0911
vn -0.8686 0.4904 -0.0707
vn 0.9516 0.3063 0.0259
vn 0.9411 0.3381 0.0040
vn 0.8900 0.4305 0.1500
vn 0.8997 0.4002 0.1743
vn -0.3091 -0.0555 -0.9494
vn -0.3191 -0.0938 -0.9430
vn -0.8682 0.4304 -0.2467
vn -0.8874 0.4002 -0.2288
vn 0.8065 0.5192 0.2826
vn 0.8148 0.4904 0.3091
vn -0.1382 -0.0992 -0.9854
vn -0.1454 -0.1382 -0.9796
vn -0.8516 0.3381 -0.4005
vn -0.8705 0.3063 -0.3851
vn 0.6937 0.6011 0.3967
vn 0.7002 0.5736 0.4251
vn 0.0398 -0.1262 -0.9912
vn 0.0356 -0.1656 -0.9855
vn -0.7283 0.6465 0.2272
vn -0.7117 0.6728 0.2020
vn -0.7584 0.6380 0.1332
vn -0.7762 0.6104 0.1579
vn 0.5560 0.6728 0.4880
vn 0.5601 0.6465 0.5179
vn 0.2181 -0.1353 -0.9665
vn 0.2167 -0.1748 -0.9604
vn 0.3986 0.7317 0.5529
vn 0.4002 0.7064 0.5838
vn 0.3896 -0.1262 -0.9123
vn 0.3910 -0.1656 -0.9053
vn 0.2276 0.7754 0.5889
vn 0.2264 0.7508 0.6205
vn 0.5479 -0.0992 -0.8306
vn 0.5519 -0.1382 -0.8224
vn 0.0496 0.8024 0.5947
vn 0.0454 0.7782 0.6264
vn 0.6868 -0.0555 -0.7247
vn 0.6931 -0.0938 -0.7147
vn -0.1286 0.8115 0.5700
vn -0.1356 0.7874 0.6012
vn 0.8011 0.0034 -0.5985
vn 0.8093 -0.0339 -0.5864
vn -0.3001 0.8024 0.5158
vn -0.3100 0.7782 0.5462
vn 0.8863 0.0751 -0.4569
vn 0.8959 0.0390 -0.4425
vn -0.4584 0.7754 0.4341
vn -0.4709 0.7508 0.4631
vn -0.8006 0.2457 -0.5465
vn -0.8187 0.2124 -0.5335
vn -0.5974 0.7317 0.3282
vn -0.6121 0.7064 0.3554
vn 0.9392 0.1569 -0.3054
vn 0.9496 0.1222 -0.2885
vn -0.7171 0.1569 -0.6791
vn -0.7338 0.1222 -0.6683
vn 0.9577 0.2457 -0.1498
vn 0.9684 0.2124 -0.1303
vn -0.2075 -0.6052 -0.7685
vn -0.2106 -0.5827 -0.7849
vn -0.3948 -0.5365 -0.7458
vn -0.3890 -0.5618 -0.7301
vn -0.7782 -0.5530 -0.2976
vn -0.8272 -0.3488 -0.4405
vn -0.9190 -0.2587 -0.2976
vn -0.8632 -0.4773 -0.1642
vn 0.8355 -0.3981 0.3787
vn 0.9419 -0.1642 0.2931
vn 0.9577 -0.2587 0.1258
vn 0.8501 -0.4773 0.2223
vn 0.2974 -0.7908 -0.5349
vn 0.3500 -0.6318 -0.6915
vn 0.1690 -0.6408 -0.7489
vn 0.1325 -0.7984 -0.5874
vn -0.7939 -0.1065 0.5986
vn -0.8357 0.1848 0.5171
vn -0.7136 0.2473 0.6554
vn -0.6831 -0.0545 0.7283
vn 0.1343 -0.0157 0.9908
vn 0.1783 0.2940 0.9390
vn -0.6656 -0.6223 -0.4119
vn -0.7049 -0.4313 -0.5631
vn 0.7439 -0.6486 -0.1608
vn 0.8375 -0.4669 -0.2837
vn 0.7867 -0.5030 -0.3577
vn 0.6946 -0.6826 -0.2269
vn 0.4497 -0.7684 -0.4553
vn 0.5174 -0.6052 -0.6050
vn -0.8751 -0.1696 0.4532
vn -0.9257 0.1091 0.3622
vn -0.0428 0.0082 0.9990
vn -0.0145 0.3229 0.9463
vn -0.5299 -0.6826 -0.5031
vn -0.5569 -0.5032 -0.6608
vn 0.7870 -0.3184 0.5285
vn 0.8889 -0.0689 0.4528
vn 0.5838 -0.7319 -0.3514
vn 0.6648 -0.5618 -0.4923
vn -0.9236 -0.2412 0.2981
vn -0.9802 0.0234 0.1967
vn -0.2200 0.0164 0.9753
vn -0.2075 0.3326 0.9199
vn -0.3763 -0.7319 -0.5680
vn 0.7061 -0.2412 0.6658
vn 0.8007 0.0234 0.5985
vn -0.9377 -0.3184 0.1394
vn -0.9972 -0.0689 0.0272
vn -0.2106 -0.7684 -0.6043
vn 0.7780 -0.6223 -0.0862
vn 0.8783 -0.4315 -0.2058
vn -0.3903 0.0082 0.9206
vn -0.3932 0.3229 0.8609
vn 0.5957 -0.1696 0.7850
vn 0.6805 0.1091 0.7246
vn -0.9171 -0.3981 -0.0167
vn -0.9765 -0.1642 -0.1397
vn -0.0389 -0.7908 -0.6108
vn -0.0192 -0.6318 -0.7748
vn 0.8306 -0.5530 0.0654
vn 0.9362 -0.3488 -0.0427
vn -0.5467 -0.0157 0.8371
vn -0.5642 0.2940 0.7715
vn -0.0191 -0.6111 -0.7913
vn -0.0374 -0.7286 -0.6839
vn -0.2231 -0.7005 -0.6778
vn -0.3874 0.3834 0.8384
vn -0.2023 0.3933 0.8968
vn -0.5582 0.3540 0.7504
vn 0.1726 -0.6206 -0.7649
vn -0.7081 0.3064 0.6361
vn 0.3570 -0.6111 -0.7065
vn -0.8314 0.2425 0.4999
vn 0.5273 -0.5827 -0.6184
vn -0.9232 0.1648 0.3470
vn 0.6768 -0.5365 -0.5040
vn -0.9801 0.0764 0.1832
vn 0.8965 -0.0191 0.4427
vn 0.9514 -0.1181 0.2845
vn 0.7999 -0.4741 -0.3678
vn -0.9997 -0.0191 0.0149
vn 0.8065 0.0764 0.5863
vn 0.8917 -0.3985 -0.2145
vn 0.8500 -0.4376 -0.2931
vn -0.9814 -0.1181 -0.1515
vn 0.6848 0.1648 0.7098
vn 0.9489 -0.3114 -0.0506
vn -0.9258 -0.2168 -0.3096
vn 0.5362 0.2425 0.8085
vn 0.9691 -0.2168 0.1179
vn -0.8353 -0.3114 -0.4531
vn 0.3664 0.3064 0.8785
vn -0.7132 -0.3983 -0.5767
vn 0.1819 0.3540 0.9174
vn -0.5645 -0.4743 -0.6755
vn -0.0101 0.3834 0.9235
vn 0.1485 -0.7381 -0.6581
vn 0.0141 -0.9979 -0.0627
vn -0.0962 -0.9923 -0.0779
vn -0.5571 0.2119 0.8029
vn -0.3920 0.2400 0.8881
vn -0.7021 0.1663 0.6924
vn 0.3274 -0.7286 -0.6016
vn -0.8213 0.1049 0.5607
vn 0.4925 -0.7005 -0.5164
vn -0.9102 0.0300 0.4131
vn 0.6375 -0.6549 -0.4058
vn -0.9653 -0.0553 0.2550
vn 0.8495 -0.1480 0.5065
vn 0.9027 -0.2443 0.3542
vn 0.7566 -0.5935 -0.2742
vn -0.9846 -0.1480 0.0927
vn 0.7623 -0.0553 0.6448
vn 0.8455 -0.5187 -0.1266
vn 0.8048 -0.5582 -0.2015
vn -0.9673 -0.2443 -0.0677
vn 0.6446 0.0300 0.7638
vn 0.9007 -0.4333 0.0315
vn -0.9141 -0.3406 -0.2200
vn 0.5010 0.1049 0.8591
vn 0.9200 -0.3406 0.1938
vn -0.8270 -0.4333 -0.3583
vn 0.3368 0.1663 0.9268
vn -0.7093 -0.5187 -0.4773
vn 0.1585 0.2119 0.9644
vn -0.5656 -0.5935 -0.5726
vn -0.0272 0.2400 0.9704
vn -0.4014 -0.6549 -0.6402
vn -0.2131 0.2495 0.9446
vn 0.4620 -0.7047 0.5384
vn 0.4304 -0.6475 0.6289
vn 0.3786 -0.5925 0.7110
vn 0.3088 -0.5418 0.7817
vn 0.2234 -0.4974 0.8383
vn 0.1259 -0.4609 0.8784
vn 0.0201 -0.4338 0.9008
vn -0.0902 -0.4171 0.9044
vn -0.2006 -0.4115 0.8890
vn -0.3068 -0.4171 0.8555
vn -0.4049 -0.4338 0.8049
vn -0.4909 -0.4609 0.7392
vn -0.5617 -0.4974 0.6611
vn -0.6145 -0.5418 0.5734
vn -0.6472 -0.5925 0.4796
vn -0.6587 -0.6475 0.3832
vn -0.6484 -0.7047 0.2879
vn -0.6168 -0.7619 0.1975
vn -0.5651 -0.8169 0.1154
vn -0.4952 -0.8676 0.0446
vn -0.4099 -0.9120 -0.0118
vn -0.3124 -0.9485 -0.0520
vn -0.2065 -0.9756 -0.0744
vn 0.1204 -0.9923 -0.0291
vn 0.2184 -0.9756 0.0215
vn 0.3045 -0.9485 0.0871
vn 0.3753 -0.9120 0.1653
vn 0.3829 -0.8963 0.2237
vn 0.4281 -0.8676 0.2530
vn 0.4608 -0.8169 0.3468
vn 0.4722 -0.7619 0.4432
vn 0.1771 0.5938 -0.7849
vn 0.1119 0.8610 -0.4961
vn 0.1105 0.8609 -0.4965
vn 0.2487 0.5976 -0.7622
vn -0.2642 0.9551 -0.1340
vn -0.1634 0.9558 -0.2442
vn -0.2112 0.9312 -0.2969
vn -0.3285 0.9220 -0.2050
vn -0.3785 0.6817 -0.6261
vn -0.2483 0.7529 -0.6095
vn -0.2134 0.7158 -0.6648
vn -0.3316 0.6317 -0.7007
vn 0.5705 0.5857 -0.5757
vn 0.4561 0.6816 -0.5721
vn -0.1860 0.9797 -0.0744
vn -0.1054 0.9741 -0.2000
vn -0.4072 0.7336 -0.5439
vn -0.2696 0.7915 -0.5485
vn -0.0970 0.9949 -0.0284
vn -0.0393 0.9854 -0.1659
vn 0.5226 0.5453 -0.6554
vn 0.4205 0.6517 -0.6312
vn -0.0005 1.0000 0.0020
vn 0.0323 0.9891 -0.1432
vn 0.4583 0.5122 -0.7263
vn 0.3728 0.6271 -0.6839
vn 0.0998 0.9949 0.0160
vn 0.1067 0.9854 -0.1329
vn 0.3801 0.4876 -0.7859
vn 0.3148 0.6088 -0.7281
vn 0.1999 0.9797 0.0127
vn 0.1811 0.9741 -0.1353
vn 0.2911 0.4724 -0.8319
vn 0.2962 0.9551 -0.0075
vn 0.2525 0.9558 -0.1504
vn 0.1946 0.4673 -0.8624
vn 0.3847 0.9220 -0.0441
vn 0.3182 0.9312 -0.1775
vn 0.0943 0.4724 -0.8763
vn 0.1027 0.5976 -0.7952
vn 0.4622 0.8816 -0.0954
vn 0.3757 0.9013 -0.2156
vn -0.2294 0.9169 -0.3265
vn -0.3522 0.9031 -0.2456
vn -0.0058 0.4876 -0.8730
vn 0.0283 0.6088 -0.7928
vn 0.5257 0.8356 -0.1596
vn 0.4228 0.8671 -0.2633
vn -0.4166 0.7856 -0.4574
vn -0.2766 0.8300 -0.4843
vn -0.1020 0.5122 -0.8528
vn -0.0431 0.6271 -0.7777
vn 0.5726 0.7856 -0.2342
vn 0.4577 0.8300 -0.3186
vn -0.4062 0.8356 -0.3699
vn -0.2688 0.8671 -0.4193
vn -0.1906 0.5453 -0.8162
vn -0.1088 0.6517 -0.7506
vn 0.6014 0.7336 -0.3164
vn 0.4790 0.7915 -0.3796
vn -0.3764 0.8816 -0.2846
vn -0.2467 0.9013 -0.3560
vn -0.2681 0.5857 -0.7649
vn -0.1663 0.6816 -0.7125
vn 0.1134 0.8609 -0.4959
vn 0.1119 0.9440 -0.3102
vn 0.0713 0.9461 -0.3159
vn 0.1091 0.8542 -0.5083
vn 0.1104 0.8538 -0.5088
vn 0.1079 0.8549 -0.5075
vn 0.1197 0.8542 -0.5059
vn 0.1398 0.8468 -0.5132
vn 0.1149 0.8607 -0.4959
vn 0.1070 0.8555 -0.5065
vn 0.1210 0.8563 -0.5021
vn 0.1209 0.8571 -0.5008
vn 0.1163 0.8603 -0.4962
vn 0.1063 0.8563 -0.5054
vn 0.1209 0.8555 -0.5034
vn 0.1176 0.8599 -0.4968
vn 0.1058 0.8571 -0.5042
vn 0.1204 0.8548 -0.5047
vn 0.1188 0.8592 -0.4975
vn 0.1057 0.8578 -0.5029
vn 0.1198 0.8586 -0.4985
vn 0.1059 0.8586 -0.5016
vn 0.1187 0.8538 -0.5069
vn 0.1205 0.8578 -0.4996
vn 0.1063 0.8592 -0.5004
vn 0.1176 0.8534 -0.5078
vn 0.1162 0.8531 -0.5085
vn 0.1070 0.8599 -0.4992
vn 0.1148 0.8531 -0.5090
vn 0.1080 0.8603 -0.4981
vn 0.1133 0.8531 -0.5092
vn 0.1092 0.8607 -0.4972
vn 0.1118 0.8534 -0.5091
vn 0.3156 0.8380 -0.4451
vn 0.3194 0.8169 -0.4803
vn 0.3151 0.7966 -0.5158
vn 0.3030 0.7779 -0.5504
vn 0.2849 0.7749 -0.5642
vn 0.2836 0.7615 -0.5828
vn 0.2575 0.7481 -0.6116
vn 0.2258 0.7381 -0.6358
vn 0.1896 0.7319 -0.6544
vn 0.1504 0.7299 -0.6668
vn 0.1097 0.7319 -0.6724
vn 0.0691 0.7381 -0.6711
vn 0.0300 0.7481 -0.6629
vn -0.0059 0.7615 -0.6481
vn -0.0374 0.7779 -0.6272
vn -0.0631 0.7966 -0.6012
vn -0.0822 0.8169 -0.5708
vn -0.0939 0.8380 -0.5375
vn -0.0977 0.8591 -0.5024
vn -0.0934 0.8794 -0.4669
vn -0.0814 0.8981 -0.4322
vn -0.0619 0.9144 -0.3999
vn -0.0358 0.9279 -0.3711
vn -0.0041 0.9379 -0.3469
vn 0.0321 0.9440 -0.3283
vn 0.1526 0.9379 -0.3115
vn 0.1917 0.9279 -0.3198
vn 0.2276 0.9144 -0.3346
vn 0.2591 0.8980 -0.3554
vn 0.2848 0.8794 -0.3815
vn 0.3039 0.8591 -0.4118
vn -0.5885 0.1110 -0.8008
vn -0.5823 0.1245 -0.8034
vn -0.4480 0.0546 -0.8923
vn -0.4532 0.0406 -0.8905
vn -0.7776 0.6276 0.0374
vn -0.7700 0.6373 0.0288
vn -0.8216 0.5575 -0.1189
vn -0.8295 0.5472 -0.1113
vn 0.9291 0.3693 -0.0179
vn 0.9242 0.3809 -0.0262
vn 0.8744 0.4710 0.1161
vn 0.8790 0.4600 0.1254
vn -0.2946 -0.0027 -0.9556
vn -0.2987 -0.0172 -0.9542
vn -0.8396 0.4710 -0.2706
vn -0.8477 0.4600 -0.2641
vn 0.7930 0.5575 0.2454
vn 0.7970 0.5472 0.2556
vn -0.1279 -0.0454 -0.9907
vn -0.1307 -0.0602 -0.9896
vn -0.8234 0.3809 -0.4205
vn -0.8314 0.3693 -0.4151
vn 0.6831 0.6373 0.3566
vn 0.6862 0.6276 0.3677
vn 0.0456 -0.0717 -0.9964
vn 0.0441 -0.0866 -0.9952
vn -0.6939 0.6980 0.1765
vn -0.6870 0.7073 0.1668
vn -0.7329 0.6729 0.1001
vn -0.7405 0.6630 0.1098
vn 0.5488 0.7073 0.4456
vn 0.5509 0.6980 0.4574
vn 0.2193 -0.0805 -0.9723
vn 0.2191 -0.0956 -0.9710
vn 0.3954 0.7646 0.5089
vn 0.3964 0.7559 0.5211
vn 0.3866 -0.0717 -0.9194
vn 0.3875 -0.0866 -0.9178
vn 0.2287 0.8073 0.5440
vn 0.2284 0.7988 0.5565
vn 0.5409 -0.0454 -0.8398
vn 0.5430 -0.0602 -0.8376
vn 0.0551 0.8336 0.5496
vn 0.0536 0.8253 0.5622
vn 0.6764 -0.0027 -0.7366
vn 0.6794 -0.0172 -0.7335
vn -0.1186 0.8424 0.5256
vn -0.1213 0.8342 0.5379
vn 0.7877 0.0546 -0.6135
vn 0.7917 0.0406 -0.6096
vn -0.2858 0.8336 0.4727
vn -0.2898 0.8253 0.4847
vn 0.8708 0.1245 -0.4755
vn 0.8753 0.1110 -0.4706
vn -0.4401 0.8073 0.3931
vn -0.4453 0.7988 0.4045
vn -0.7737 0.2909 -0.5628
vn -0.7813 0.2786 -0.5585
vn -0.5755 0.7646 0.2898
vn -0.5817 0.7559 0.3004
vn 0.9224 0.2043 -0.3278
vn 0.9272 0.1914 -0.3218
vn -0.6923 0.2043 -0.6921
vn -0.6992 0.1914 -0.6887
vn 0.9404 0.2909 -0.1761
vn 0.9454 0.2786 -0.1690
vn 0.9778 0.1780 -0.1103
vn 0.9680 0.2141 -0.1313
vn 0.9511 0.3078 0.0249
vn 0.9607 0.2733 0.0483
vn -0.7922 0.5826 0.1816
vn -0.7753 0.6118 0.1567
vn -0.8140 0.5750 0.0822
vn -0.8319 0.5446 0.1065
vn -0.7496 0.0865 -0.6562
vn -0.7330 0.1238 -0.6688
vn -0.6184 0.0407 -0.7848
vn -0.6332 0.0020 -0.7739
vn 0.9587 0.0865 -0.2708
vn 0.9492 0.1238 -0.2893
vn -0.6261 0.6793 0.3827
vn -0.6114 0.7076 0.3541
vn -0.7275 0.6478 0.2260
vn -0.7440 0.6186 0.2525
vn -0.8357 0.1780 -0.5194
vn -0.8178 0.2141 -0.5342
vn 0.9042 0.0020 -0.4270
vn 0.8955 0.0407 -0.4432
vn -0.4828 0.7244 0.4920
vn -0.4703 0.7520 0.4617
vn -0.8884 0.2733 -0.3688
vn -0.8697 0.3078 -0.3859
vn -0.3195 0.7522 0.5762
vn -0.3095 0.7794 0.5447
vn 0.8163 -0.0719 -0.5731
vn 0.8089 -0.0321 -0.5870
vn -0.1426 0.7616 0.6321
vn -0.1353 0.7886 0.5997
vn 0.6984 -0.1326 -0.7032
vn 0.6929 -0.0919 -0.7152
vn 0.0412 0.7522 0.6576
vn 0.0457 0.7794 0.6248
vn 0.5551 -0.1778 -0.8125
vn 0.5517 -0.1363 -0.8228
vn 0.2248 0.7244 0.6516
vn 0.2264 0.7520 0.6189
vn 0.3919 -0.2055 -0.8968
vn 0.3910 -0.1637 -0.9057
vn 0.4011 0.6793 0.6145
vn 0.4001 0.7076 0.5824
vn 0.2149 -0.2149 -0.9527
vn 0.2167 -0.1729 -0.9608
vn 0.5635 0.6186 0.5475
vn 0.5600 0.6478 0.5164
vn 0.0311 -0.2055 -0.9781
vn 0.0358 -0.1637 -0.9858
vn 0.7056 0.5446 0.4534
vn 0.6999 0.5750 0.4237
vn -0.1525 -0.1778 -0.9722
vn -0.1450 -0.1363 -0.9800
vn 0.8219 0.4602 0.3357
vn 0.8144 0.4918 0.3078
vn -0.9055 0.3686 -0.2102
vn -0.8865 0.4017 -0.2297
vn -0.3288 -0.1326 -0.9350
vn -0.3187 -0.0919 -0.9434
vn 0.9080 0.3686 0.1989
vn 0.8993 0.4017 0.1731
vn -0.8864 0.4602 -0.0497
vn -0.8677 0.4918 -0.0717
vn -0.4912 -0.0719 -0.8681
vn -0.4785 -0.0321 -0.8775
vn 0.2014 -0.4030 -0.8928
vn 0.3866 -0.3931 -0.8342
vn 0.5662 0.4696 0.6774
vn 0.3963 0.5332 0.7474
vn -0.6789 0.5332 0.5048
vn -0.8022 0.4696 0.3686
vn 0.9228 -0.1758 -0.3426
vn 0.9799 -0.0874 -0.1791
vn -0.8983 0.0084 -0.4393
vn -0.8081 -0.0874 -0.5825
vn 0.0090 -0.3931 -0.9194
vn 0.7149 0.3921 0.5788
vn -0.5289 0.5804 0.6192
vn -0.9534 0.1082 -0.2817
vn -0.1831 -0.3641 -0.9132
vn 0.8367 0.3038 0.4556
vn -0.3580 0.6095 0.7074
vn 0.8309 -0.2532 -0.4955
vn -0.8525 0.4319 0.2943
vn -0.3677 -0.3168 -0.8743
vn -0.9713 0.2079 -0.1157
vn 0.9269 0.2079 0.3125
vn -0.1728 0.6193 0.7659
vn 0.7075 -0.3168 -0.6317
vn -0.5376 -0.2532 -0.8042
vn 0.0196 0.6095 0.7925
vn -0.9513 0.3038 0.0522
vn 0.9820 0.1082 0.1549
vn 0.5575 -0.3641 -0.7461
vn -0.6863 -0.1758 -0.7057
vn 0.2117 0.5804 0.7863
vn -0.8942 0.3921 0.2158
vn 0.9999 0.0084 -0.0111
vn -0.5633 0.1640 -0.8097
vn -0.5307 0.2265 -0.8167
vn -0.4050 0.1611 -0.9000
vn -0.4321 0.0956 -0.8967
vn -0.7468 0.6650 0.0034
vn -0.7065 0.7067 -0.0375
vn -0.7548 0.6320 -0.1758
vn -0.7972 0.5871 -0.1409
vn 0.9086 0.4145 -0.0504
vn 0.8799 0.4666 -0.0890
vn 0.8333 0.5509 0.0443
vn 0.8600 0.5025 0.0887
vn -0.2613 0.1073 -0.9593
vn -0.2822 0.0396 -0.9585
vn -0.7716 0.5509 -0.3179
vn -0.8148 0.5025 -0.2892
vn 0.7571 0.6320 0.1653
vn 0.7804 0.5871 0.2150
vn -0.1052 0.0674 -0.9922
vn -0.1194 -0.0021 -0.9928
vn -0.7565 0.4666 -0.4582
vn -0.7990 0.4145 -0.4357
vn 0.6541 0.7067 0.2695
vn 0.6730 0.6650 0.3237
vn 0.0573 0.0428 -0.9974
vn 0.0502 -0.0277 -0.9984
vn -0.6656 0.7333 0.1382
vn -0.6287 0.7722 0.0917
vn -0.6714 0.7405 0.0289
vn -0.7106 0.6997 0.0731
vn 0.5284 0.7722 0.3528
vn 0.5418 0.7333 0.4106
vn 0.2199 0.0345 -0.9749
vn 0.2199 -0.0364 -0.9748
vn 0.3847 0.8259 0.4120
vn 0.3919 0.7894 0.4724
vn 0.3765 0.0428 -0.9254
vn 0.3833 -0.0277 -0.9232
vn 0.2287 0.8659 0.4449
vn 0.2290 0.8311 0.5068
vn 0.5210 0.0674 -0.8509
vn 0.5341 -0.0021 -0.8454
vn 0.0662 0.8904 0.4502
vn 0.0595 0.8567 0.5123
vn 0.6478 0.1073 -0.7541
vn 0.6665 0.0396 -0.7445
vn -0.0965 0.8987 0.4277
vn -0.1103 0.8654 0.4888
vn 0.7522 0.1611 -0.6389
vn 0.7753 0.0956 -0.6243
vn -0.2531 0.8904 0.3782
vn -0.2737 0.8567 0.4371
vn 0.8300 0.2266 -0.5097
vn 0.8565 0.1640 -0.4894
vn -0.3976 0.8659 0.3036
vn -0.4244 0.8311 0.3593
vn -0.7099 0.3823 -0.5915
vn -0.7504 0.3265 -0.5747
vn -0.5244 0.8259 0.2069
vn -0.5568 0.7894 0.2584
vn 0.8782 0.3013 -0.3714
vn 0.9068 0.2419 -0.3451
vn -0.6337 0.3012 -0.7125
vn -0.6708 0.2419 -0.7010
vn 0.8951 0.3823 -0.2293
vn 0.9244 0.3265 -0.1968
vn -0.1215 -0.8881 0.4433
vn -0.1184 -0.8846 0.4509
vn -0.1138 -0.8998 0.4211
vn -0.1245 -0.8960 0.4262
vn -0.1090 -0.8686 0.4833
vn -0.0956 -0.8698 0.4840
vn -0.0780 -0.8998 0.4292
vn -0.0881 -0.9017 0.4233
vn -0.0776 -0.8922 0.4449
vn -0.0784 -0.8962 0.4366
vn -0.1121 -0.8824 0.4570
vn -0.1327 -0.8907 0.4348
vn -0.0832 -0.8733 0.4801
vn -0.0989 -0.9015 0.4212
vn -0.0832 -0.8996 0.4288
vn -0.1039 -0.8815 0.4605
vn -0.0942 -0.9045 0.4159
vn -0.0735 -0.8784 0.4722
vn -0.1089 -0.8996 0.4230
vn -0.0915 -0.9015 0.4229
vn -0.1369 -0.8845 0.4459
vn -0.1364 -0.8784 0.4580
vn -0.0678 -0.8845 0.4615
vn -0.0949 -0.8824 0.4609
vn -0.1166 -0.8962 0.4280
vn -0.1310 -0.8733 0.4693
vn -0.1022 -0.9017 0.4201
vn -0.0668 -0.8907 0.4497
vn -0.0867 -0.8846 0.4581
vn -0.1209 -0.8922 0.4351
vn -0.1214 -0.8698 0.4782
vn -0.0705 -0.8960 0.4384
vn -0.0806 -0.8881 0.4525
usemtl metal
s 1
f 4//1 37//2 38//3 5//4
f 18//5 50//6 51//7 19//8
f 25//9 57//10 58//11 26//12
f 535//13 75//14 76//15 529//16
f 5//4 38//3 39//17 6//18
f 19//8 51//7 52//19 20//20
f 33//21 65//22 34//23 1//24
f 23//25 55//26 56//27 24//28
f 35//29 66//30 63//31 31//32
f 26//12 58//11 59//33 27//34
f 13//35 45//36 46//37 14//38
f 6//18 39//17 40//39 7//40
f 20//20 52//19 53//41 21//42
f 30//43 62//44 66//30 35//29
f 27//34 59//33 60//45 28//46
f 14//38 46//37 47//47 15//48
f 7//40 40//39 41//49 8//50
f 21//42 53//41 54//51 22//52
f 1//24 34//23 10//53 2//54
f 28//46 60//45 61//55 29//56
f 15//48 47//47 48//57 16//58
f 8//50 41//49 42//59 9//60
f 22//52 54//51 55//26 23//25
f 29//56 61//55 62//44 30//43
f 2//54 10//53 36//61 3//62
f 16//58 48//57 49//63 17//64
f 9//60 42//59 43//65 11//66
f 3//62 36//61 37//2 4//1
f 17//64 49//63 50//6 18//5
f 24//28 56//27 57//10 25//9
f 31//32 63//31 64//67 32//68
f 11//66 43//65 44//69 12//70
f 762//71 204//72 203//73 761//74
f 32//68 64//67 65//22 33//21
f 12//70 44//69 45//36 13//35
f 863//75 115//76 116//77 859//78
f 536//79 87//80 88//81 530//82
f 537//83 94//84 95//85 531//86
f 538//87 80//88 81//89 532//90
f 539//91 67//92 69//93 533//94
f 540//95 74//96 75//14 535//13
f 541//97 86//98 87//80 536//79
f 542//99 93//100 94//84 537//83
f 543//101 68//102 67//92 539//91
f 544//103 73//104 74//96 540//95
f 545//105 85//106 86//98 541//97
f 546//107 92//108 93//100 542//99
f 547//109 79//110 80//88 538//87
f 531//86 95//85 99//111 534//112
f 548//113 72//114 73//104 544//103
f 549//115 98//116 68//102 543//101
f 550//117 84//118 85//106 545//105
f 551//119 91//120 92//108 546//107
f 552//121 78//122 79//110 547//109
f 553//123 71//124 72//114 548//113
f 554//125 90//126 91//120 551//119
f 555//127 97//128 98//116 549//115
f 556//129 83//130 84//118 550//117
f 557//131 77//132 78//122 552//121
f 558//133 70//134 71//124 553//123
f 559//135 89//136 90//126 554//125
f 560//137 96//138 97//128 555//127
f 561//139 82//140 83//130 556//129
f 529//16 76//15 77//132 557//131
f 533//94 69//93 70//134 558//133
f 530//82 88//81 89//136 559//135
f 534//112 99//111 96//138 560//137
f 532//90 81//89 82//140 561//139
f 596//141 345//142 346//143 595//144
f 864//145 132//146 129//147 860//148
f 865//149 102//150 103//151 861//152
f 866//153 114//154 115//76 863//75
f 867//155 127//156 128//157 862//158
f 868//159 100//160 102//150 865//149
f 869//161 113//162 114//154 866//153
f 870//163 126//164 127//156 867//155
f 871//165 101//166 100//160 868//159
f 872//167 125//168 126//164 870//163
f 873//169 112//170 113//162 869//161
f 874//171 124//172 125//168 872//167
f 875//173 111//174 112//170 873//169
f 876//175 123//176 124//172 874//171
f 877//177 110//178 111//174 875//173
f 878//179 122//180 123//176 876//175
f 879//181 109//182 110//178 877//177
f 880//183 121//184 122//180 878//179
f 881//185 108//186 109//182 879//181
f 882//187 120//188 121//184 880//183
f 883//189 107//190 108//186 881//185
f 884//191 119//192 120//188 882//187
f 862//158 128//157 132//146 864//145
f 885//193 106//194 107//190 883//189
f 886//195 118//196 119//192 884//191
f 887//197 131//198 101//166 871//165
f 888//199 105//200 106//194 885//193
f 889//201 117//202 118//196 886//195
f 890//203 130//204 131//198 887//197
f 891//205 104//206 105//200 888//199
f 859//78 116//77 117//202 889//201
f 860//148 129//147 130//204 890//203
f 861//152 103//151 104//206 891//205
f 565//207 139//208 165//209 594//210
f 567//211 151//212 164//213 593//214
f 563//215 135//216 163//217 592//218
f 566//219 141//220 162//221 591//222
f 562//223 133//224 161//225 590//226
f 594//210 165//209 160//227 589//228
f 593//214 164//213 159//229 588//230
f 592//218 163//217 158//231 587//232
f 591//222 162//221 157//233 586//234
f 590//226 161//225 156//235 585//236
f 589//228 160//227 154//237 583//238
f 588//230 159//229 153//239 582//240
f 587//232 158//231 155//241 584//242
f 586//234 157//233 152//243 581//244
f 585//236 156//235 150//245 580//246
f 584//242 155//241 149//247 579//248
f 583//238 154//237 148//249 578//250
f 582//240 153//239 146//251 576//252
f 581//244 152//243 147//253 577//254
f 564//255 137//256 151//212 567//211
f 580//246 150//245 140//257 571//258
f 579//248 149//247 145//259 575//260
f 578//250 148//249 144//261 574//262
f 577//254 147//253 143//263 573//264
f 576//252 146//251 142//265 572//266
f 575//260 145//259 138//267 570//268
f 574//262 144//261 136//269 569//270
f 573//264 143//263 134//271 568//272
f 572//266 142//265 141//220 566//219
f 571//258 140//257 139//208 565//207
f 570//268 138//267 137//256 564//255
f 569//270 136//269 135//216 563//215
f 568//272 134//271 133//224 562//223
f 663//273 170//274 198//275 693//276
f 662//277 168//278 197//279 692//280
f 661//281 166//282 196//283 691//284
f 693//276 198//275 195//285 690//286
f 692//280 197//279 194//287 689//288
f 691//284 196//283 193//289 688//290
f 690//286 195//285 192//291 687//292
f 689//288 194//287 178//293 673//294
f 688//290 193//289 191//295 686//296
f 687//292 192//291 190//297 685//298
f 664//299 173//300 169//301 666//302
f 686//296 191//295 189//303 684//304
f 685//298 190//297 188//305 683//306
f 684//304 189//303 187//307 682//308
f 683//306 188//305 186//309 681//310
f 682//308 187//307 185//311 680//312
f 681//310 186//309 184//313 679//314
f 680//312 185//311 183//315 678//316
f 679//314 184//313 182//317 677//318
f 678//316 183//315 181//319 676//320
f 677//318 182//317 180//321 675//322
f 676//320 181//319 179//323 674//324
f 675//322 180//321 176//325 671//326
f 674//324 179//323 177//327 672//328
f 673//294 178//293 175//329 670//330
f 672//328 177//327 174//331 669//332
f 671//326 176//325 172//333 668//334
f 670//330 175//329 171//335 667//336
f 669//332 174//331 173//300 664//299
f 668//334 172//333 167//337 665//338
f 667//336 171//335 170//274 663//273
f 666//302 169//301 168//278 662//277
f 665//338 167//337 166//282 661//281
f 221//339 254//340 253//341 220//342
f 766//343 217//344 216//345 765//346
f 770//347 199//348 230//349 769//350
f 774//351 224//352 223//353 773//354
f 778//355 211//356 210//357 777//358
f 780//359 205//360 204//72 762//71
f 782//361 218//362 217//344 766//343
f 786//363 231//364 227//365 785//366
f 788//367 225//368 224//352 774//351
f 790//369 212//370 211//356 778//355
f 792//371 206//372 205//360 780//359
f 794//373 219//374 218//362 782//361
f 796//375 200//376 199//348 770//347
f 798//377 226//378 225//368 788//367
f 800//379 213//380 212//370 790//369
f 802//381 207//382 206//372 792//371
f 804//383 220//342 219//374 794//373
f 785//366 227//365 226//378 798//377
f 806//384 201//385 200//376 796//375
f 808//386 214//387 213//380 800//379
f 810//388 221//339 220//342 804//383
f 812//389 228//390 231//364 786//363
f 814//391 208//392 207//382 802//381
f 816//393 202//394 201//385 806//384
f 818//395 215//396 214//387 808//386
f 820//397 222//398 221//339 810//388
f 822//399 229//400 228//390 812//389
f 824//401 209//402 208//392 814//391
f 761//74 203//73 202//394 816//393
f 765//346 216//345 215//396 818//395
f 773//354 223//353 222//398 820//397
f 769//350 230//349 229//400 822//399
f 777//358 210//357 209//402 824//401
f 255//403 288//404 287//405 254//340
f 208//392 241//406 240//407 207//382
f 222//398 255//403 254//340 221//339
f 209//402 242//408 241//406 208//392
f 223//353 256//409 255//403 222//398
f 210//357 243//410 242//408 209//402
f 224//352 257//411 256//409 223//353
f 211//356 244//412 243//410 210//357
f 225//368 258//413 257//411 224//352
f 212//370 245//414 244//412 211//356
f 226//378 259//415 258//413 225//368
f 213//380 246//416 245//414 212//370
f 200//376 233//417 232//418 199//348
f 227//365 260//419 259//415 226//378
f 214//387 247//420 246//416 213//380
f 201//385 234//421 233//417 200//376
f 228//390 261//422 264//423 231//364
f 215//396 248//424 247//420 214//387
f 202//394 235//425 234//421 201//385
f 229//400 262//426 261//422 228//390
f 216//345 249//427 248//424 215//396
f 203//73 236//428 235//425 202//394
f 230//349 263//429 262//426 229//400
f 217//344 250//430 249//427 216//345
f 204//72 237//431 236//428 203//73
f 199//348 232//418 263//429 230//349
f 218//362 251//432 250//430 217//344
f 205//360 238//433 237//431 204//72
f 231//364 264//423 260//419 227//365
f 219//374 252//434 251//432 218//362
f 206//372 239//435 238//433 205//360
f 220//342 253//341 252//434 219//374
f 207//382 240//407 239//435 206//372
f 289//436 322//437 321//438 288//404
f 242//408 275//439 274//440 241//406
f 256//409 289//436 288//404 255//403
f 243//410 276//441 275//439 242//408
f 257//411 290//442 289//436 256//409
f 244//412 277//443 276//441 243//410
f 258//413 291//444 290//442 257//411
f 245//414 278//445 277//443 244//412
f 259//415 292//446 291//444 258//413
f 246//416 279//447 278//445 245//414
f 233//417 266//448 265//449 232//418
f 260//419 293//450 292//446 259//415
f 247//420 280//451 279//447 246//416
f 234//421 267//452 266//448 233//417
f 261//422 294//453 297//454 264//423
f 248//424 281//455 280//451 247//420
f 235//425 268//456 267//452 234//421
f 262//426 295//457 294//453 261//422
f 249//427 282//458 281//455 248//424
f 236//428 269//459 268//456 235//425
f 263//429 296//460 295//457 262//426
f 250//430 283//461 282//458 249//427
f 237//431 270//462 269//459 236//428
f 232//418 265//449 296//460 263//429
f 251//432 284//463 283//461 250//430
f 238//433 271//464 270//462 237//431
f 264//423 297//454 293//450 260//419
f 252//434 285//465 284//463 251//432
f 239//435 272//466 271//464 238//433
f 253//341 286//467 285//465 252//434
f 240//407 273//468 272//466 239//435
f 254//340 287//405 286//467 253//341
f 241//406 274//440 273//468 240//407
f 298//469 299//470 300//471 301//472 302//473 303//474 304//475 305//476 306//477 307//478 308//479 309//480 310//481 311//482 312//483 313//484 314//485 315//486 316//487 317//488 318//489 319//490 320//491 321//438 322//437 323//492 324//493 325//494 326//495 330//496 327//497 328//498 329//499
f 276//441 309//480 308//479 275//439
f 290//442 323//492 322//437 289//436
f 277//443 310//481 309//480 276//441
f 291//444 324//493 323//492 290//442
f 278//445 311//482 310//481 277//443
f 292//446 325//494 324//493 291//444
f 279//447 312//483 311//482 278//445
f 266//448 299//470 298//469 265//449
f 293//450 326//495 325//494 292//446
f 280//451 313//484 312//483 279//447
f 267//452 300//471 299//470 266//448
f 294//453 327//497 330//496 297//454
f 281//455 314//485 313//484 280//451
f 268//456 301//472 300//471 267//452
f 295//457 328//498 327//497 294//453
f 282//458 315//486 314//485 281//455
f 269//459 302//473 301//472 268//456
f 296//460 329//499 328//498 295//457
f 283//461 316//487 315//486 282//458
f 270//462 303//474 302//473 269//459
f 265//449 298//469 329//499 296//460
f 284//463 317//488 316//487 283//461
f 271//464 304//475 303//474 270//462
f 297//454 330//496 326//495 293//450
f 285//465 318//489 317//488 284//463
f 272//466 305//476 304//475 271//464
f 286//467 319//490 318//489 285//465
f 273//468 306//477 305//476 272//466
f 287//405 320//491 319//490 286//467
f 274//440 307//478 306//477 273//468
f 288//404 321//438 320//491 287//405
f 275//439 308//479 307//478 274//440
f 339//500 372//501 373//502 340//503
f 598//504 358//505 359//506 597//507
f 600//508 331//509 333//510 599//511
f 601//512 344//513 345//142 596//141
f 602//514 357//515 358//505 598//504
f 603//516 332//517 331//509 600//508
f 604//518 356//519 357//515 602//514
f 605//520 343//521 344//513 601//512
f 606//522 355//523 356//519 604//518
f 607//524 342//525 343//521 605//520
f 608//526 354//527 355//523 606//522
f 609//528 341//529 342//525 607//524
f 610//530 353//531 354//527 608//526
f 611//532 340//503 341//529 609//528
f 612//533 352//534 353//531 610//530
f 613//535 339//500 340//503 611//532
f 614//536 351//537 352//534 612//533
f 615//538 338//539 339//500 613//535
f 616//540 350//541 351//537 614//536
f 597//507 359//506 363//542 617//543
f 618//544 337//545 338//539 615//538
f 619//546 349//547 350//541 616//540
f 620//548 362//549 332//517 603//516
f 621//550 336//551 337//545 618//544
f 622//552 348//553 349//547 619//546
f 623//554 361//555 362//549 620//548
f 624//556 335//557 336//551 621//550
f 625//558 347//559 348//553 622//552
f 626//560 360//561 361//555 623//554
f 627//562 334//563 335//557 624//556
f 595//144 346//143 347//559 625//558
f 617//543 363//542 360//561 626//560
f 599//511 333//510 334//563 627//562
f 371//564 404//565 405//566 372//501
f 351//537 384//567 385//568 352//534
f 338//539 371//564 372//501 339//500
f 350//541 383//569 384//567 351//537
f 359//506 392//570 396//571 363//542
f 337//545 370//572 371//564 338//539
f 349//547 382//573 383//569 350//541
f 362//549 395//574 365//575 332//517
f 336//551 369//576 370//572 337//545
f 348//553 381//577 382//573 349//547
f 361//555 394//578 395//574 362//549
f 335//557 368//579 369//576 336//551
f 347//559 380//580 381//577 348//553
f 360//561 393//581 394//578 361//555
f 334//563 367//582 368//579 335//557
f 346//143 379//583 380//580 347//559
f 363//542 396//571 393//581 360//561
f 333//510 366//584 367//582 334//563
f 345//142 378//585 379//583 346//143
f 358//505 391//586 392//570 359//506
f 331//509 364//587 366//584 333//510
f 344//513 377//588 378//585 345//142
f 357//515 390//589 391//586 358//505
f 332//517 365//575 364//587 331//509
f 356//519 389//590 390//589 357//515
f 343//521 376//591 377//588 344//513
f 355//523 388//592 389//590 356//519
f 342//525 375//593 376//591 343//521
f 354//527 387//594 388//592 355//523
f 341//529 374//595 375//593 342//525
f 353//531 386//596 387//594 354//527
f 340//503 373//502 374//595 341//529
f 352//534 385//568 386//596 353//531
f 398//597 428//598 427//599 426//600 429//601 425//602 424//603 423//604 422//605 421//606 420//607 419//608 418//609 417//610 416//611 415//612 414//613 413//614 412//615 411//616 410//617 409//618 408//619 407//620 406//621 405//566 404//565 403//622 402//623 401//624 400//625 399//626 397//627
f 383//569 416//611 417//610 384//567
f 392//570 425//602 429//601 396//571
f 370//572 403//622 404//565 371//564
f 382//573 415//612 416//611 383//569
f 395//574 428//598 398//597 365//575
f 369//576 402//623 403//622 370//572
f 381//577 414//613 415//612 382//573
f 394//578 427//599 428//598 395//574
f 368//579 401//624 402//623 369//576
f 380//580 413//614 414//613 381//577
f 393//581 426//600 427//599 394//578
f 367//582 400//625 401//624 368//579
f 379//583 412//615 413//614 380//580
f 396//571 429//601 426//600 393//581
f 366//584 399//626 400//625 367//582
f 378//585 411//616 412//615 379//583
f 391//586 424//603 425//602 392//570
f 364//587 397//627 399//626 366//584
f 377//588 410//617 411//616 378//585
f 390//589 423//604 424//603 391//586
f 365//575 398//597 397//627 364//587
f 389//590 422//605 423//604 390//589
f 376//591 409//618 410//617 377//588
f 388//592 421//606 422//605 389//590
f 375//593 408//619 409//618 376//591
f 387//594 420//607 421//606 388//592
f 374//595 407//620 408//619 375//593
f 386//596 419//608 420//607 387//594
f 373//502 406//621 407//620 374//595
f 385//568 418//609 419//608 386//596
f 372//501 405//566 406//621 373//502
f 384//567 417//610 418//609 385//568
f 758//628 432//629 462//630 755//631
f 757//632 431//633 461//634 754//635
f 756//636 430//637 460//638 753//639
f 755//631 462//630 459//640 752//641
f 754//635 461//634 458//642 751//643
f 753//639 460//638 457//644 750//645
f 752//641 459//640 456//646 749//647
f 751//643 458//642 442//648 735//649
f 750//645 457//644 455//650 748//651
f 749//647 456//646 454//652 747//653
f 759//654 433//655 435//656 728//657
f 748//651 455//650 453//658 746//659
f 747//653 454//652 452//660 745//661
f 746//659 453//658 451//662 744//663
f 745//661 452//660 450//664 743//665
f 744//663 451//662 449//666 742//667
f 743//665 450//664 448//668 741//669
f 742//667 449//666 447//670 740//671
f 741//669 448//668 446//672 739//673
f 740//671 447//670 445//674 738//675
f 739//673 446//672 444//676 737//677
f 738//675 445//674 443//678 736//679
f 737//677 444//676 440//680 733//681
f 736//679 443//678 441//682 734//683
f 735//649 442//648 439//684 732//685
f 734//683 441//682 438//686 731//687
f 733//681 440//680 437//688 730//689
f 732//685 439//684 436//690 729//691
f 731//687 438//686 433//655 759//654
f 730//689 437//688 434//692 727//693
f 729//691 436//690 432//629 758//628
f 728//657 435//656 431//633 757//632
f 727//693 434//692 430//637 756//636
f 694//694 463//695 492//696 723//697
f 695//698 464//699 493//700 724//701
f 696//702 465//703 494//704 725//705
f 697//706 466//707 463//695 694//694
f 698//708 467//709 495//710 726//711
f 699//712 468//713 465//703 696//702
f 700//714 469//715 466//707 697//706
f 701//716 470//717 467//709 698//708
f 702//718 471//719 468//713 699//712
f 703//720 472//721 470//717 701//716
f 704//722 473//723 469//715 700//714
f 705//724 474//725 472//721 703//720
f 706//726 475//727 473//723 704//722
f 707//728 476//729 474//725 705//724
f 708//730 477//731 475//727 706//726
f 709//732 478//733 476//729 707//728
f 710//734 479//735 477//731 708//730
f 711//736 480//737 478//733 709//732
f 712//738 481//739 479//735 710//734
f 713//740 482//741 480//737 711//736
f 714//742 483//743 481//739 712//738
f 715//744 484//745 482//741 713//740
f 726//711 495//710 464//699 695//698
f 716//746 485//747 483//743 714//742
f 717//748 486//749 484//745 715//744
f 718//750 487//751 471//719 702//718
f 719//752 488//753 485//747 716//746
f 720//754 489//755 486//749 717//748
f 721//756 490//757 487//751 718//750
f 722//758 491//759 488//753 719//752
f 723//697 492//696 489//755 720//754
f 724//701 493//700 490//757 721//756
f 725//705 494//704 491//759 722//758
f 42//59 496//760 523//761 43//65
f 54//51 497//762 524//763 55//26
f 61//55 498//764 525//765 62//44
f 47//47 499//766 526//767 48//57
f 10//53 500//768 527//769 36//61
f 41//49 501//770 496//760 42//59
f 53//41 502//771 497//762 54//51
f 60//45 503//772 498//764 61//55
f 34//23 504//773 500//768 10//53
f 40//39 505//774 501//770 41//49
f 52//19 506//775 502//771 53//41
f 59//33 507//776 503//772 60//45
f 46//37 508//777 499//766 47//47
f 62//44 525//765 528//778 66//30
f 39//17 509//779 505//774 40//39
f 65//22 510//780 504//773 34//23
f 51//7 511//781 506//775 52//19
f 58//11 512//782 507//776 59//33
f 45//36 513//783 508//777 46//37
f 38//3 514//784 509//779 39//17
f 57//10 515//785 512//782 58//11
f 64//67 516//786 510//780 65//22
f 50//6 517//787 511//781 51//7
f 44//69 518//788 513//783 45//36
f 37//2 519//789 514//784 38//3
f 56//27 520//790 515//785 57//10
f 63//31 521//791 516//786 64//67
f 49//63 522//792 517//787 50//6
f 43//65 523//761 518//788 44//69
f 36//61 527//769 519//789 37//2
f 55//26 524//763 520//790 56//27
f 66//30 528//778 521//791 63//31
f 48//57 526//767 522//792 49//63
f 139//208 532//90 561//139 165//209
f 151//212 534//112 560//137 164//213
f 135//216 530//82 559//135 163//217
f 141//220 533//94 558//133 162//221
f 133//224 529//16 557//131 161//225
f 165//209 561//139 556//129 160//227
f 164//213 560//137 555//127 159//229
f 163//217 559//135 554//125 158//231
f 162//221 558//133 553//123 157//233
f 161//225 557//131 552//121 156//235
f 160//227 556//129 550//117 154//237
f 159//229 555//127 549//115 153//239
f 158//231 554//125 551//119 155//241
f 157//233 553//123 548//113 152//243
f 156//235 552//121 547//109 150//245
f 155//241 551//119 546//107 149//247
f 154//237 550//117 545//105 148//249
f 153//239 549//115 543//101 146//251
f 152//243 548//113 544//103 147//253
f 137//256 531//86 534//112 151//212
f 150//245 547//109 538//87 140//257
f 149//247 546//107 542//99 145//259
f 148//249 545//105 541//97 144//261
f 147//253 544//103 540//95 143//263
f 146//251 543//101 539//91 142//265
f 145//259 542//99 537//83 138//267
f 144//261 541//97 536//79 136//269
f 143//263 540//95 535//13 134//271
f 142//265 539//91 533//94 141//220
f 140//257 538//87 532//90 139//208
f 138//267 537//83 531//86 137//256
f 136//269 536//79 530//82 135//216
f 134//271 535//13 529//16 133//224
f 496//760 568//272 562//223 523//761
f 497//762 569//270 563//215 524//763
f 498//764 570//268 564//255 525//765
f 499//766 571//258 565//207 526//767
f 500//768 572//266 566//219 527//769
f 501//770 573//264 568//272 496//760
f 502//771 574//262 569//270 497//762
f 503//772 575//260 570//268 498//764
f 504//773 576//252 572//266 500//768
f 505//774 577//254 573//264 501//770
f 506//775 578//250 574//262 502//771
f 507//776 579//248 575//260 503//772
f 508//777 580//246 571//258 499//766
f 525//765 564//255 567//211 528//778
f 509//779 581//244 577//254 505//774
f 510//780 582//240 576//252 504//773
f 511//781 583//238 578//250 506//775
f 512//782 584//242 579//248 507//776
f 513//783 585//236 580//246 508//777
f 514//784 586//234 581//244 509//779
f 515//785 587//232 584//242 512//782
f 516//786 588//230 582//240 510//780
f 517//787 589//228 583//238 511//781
f 518//788 590//226 585//236 513//783
f 519//789 591//222 586//234 514//784
f 520//790 592//218 587//232 515//785
f 521//791 593//214 588//230 516//786
f 522//792 594//210 589//228 517//787
f 523//761 562//223 590//226 518//788
f 527//769 566//219 591//222 519//789
f 524//763 563//215 592//218 520//790
f 528//778 567//211 593//214 521//791
f 526//767 565//207 594//210 522//792
f 102//150 599//511 627//562 103//151
f 132//146 617//543 626//560 129//147
f 115//76 595//144 625//558 116//77
f 103//151 627//562 624//556 104//206
f 129//147 626//560 623//554 130//204
f 116//77 625//558 622//552 117//202
f 104//206 624//556 621//550 105//200
f 130//204 623//554 620//548 131//198
f 117//202 622//552 619//546 118//196
f 105//200 621//550 618//544 106//194
f 131//198 620//548 603//516 101//166
f 118//196 619//546 616//540 119//192
f 106//194 618//544 615//538 107//190
f 128//157 597//507 617//543 132//146
f 119//192 616//540 614//536 120//188
f 107//190 615//538 613//535 108//186
f 120//188 614//536 612//533 121//184
f 108//186 613//535 611//532 109//182
f 121//184 612//533 610//530 122//180
f 109//182 611//532 609//528 110//178
f 122//180 610//530 608//526 123//176
f 110//178 609//528 607//524 111//174
f 123//176 608//526 606//522 124//172
f 111//174 607//524 605//520 112//170
f 124//172 606//522 604//518 125//168
f 112//170 605//520 601//512 113//162
f 125//168 604//518 602//514 126//164
f 101//166 603//516 600//508 100//160
f 126//164 602//514 598//504 127//156
f 113//162 601//512 596//141 114//154
f 100//160 600//508 599//511 102//150
f 127//156 598//504 597//507 128//157
f 114//154 596//141 595//144 115//76
f 857//793 630//794 660//795 854//796
f 856//797 629//798 659//799 853//800
f 855//801 628//802 658//803 852//804
f 854//796 660//795 657//805 851//806
f 853//800 659//799 656//807 850//808
f 852//804 658//803 655//809 849//810
f 851//806 657//805 654//811 848//812
f 850//808 656//807 640//813 834//814
f 849//810 655//809 653//815 847//816
f 848//812 654//811 652//817 846//818
f 858//819 631//820 633//821 827//822
f 847//816 653//815 651//823 845//824
f 846//818 652//817 650//825 844//826
f 845//824 651//823 649//827 843//828
f 844//826 650//825 648//829 842//830
f 843//828 649//827 647//831 841//832
f 842//830 648//829 646//833 840//834
f 841//832 647//831 645//835 839//836
f 840//834 646//833 644//837 838//838
f 839//836 645//835 643//839 837//840
f 838//838 644//837 642//841 836//842
f 837//840 643//839 641//843 835//844
f 836//842 642//841 638//845 832//846
f 835//844 641//843 639//847 833//848
f 834//814 640//813 637//849 831//850
f 833//848 639//847 636//851 830//852
f 832//846 638//845 635//853 829//854
f 831//850 637//849 634//855 828//856
f 830//852 636//851 631//820 858//819
f 829//854 635//853 632//857 826//858
f 828//856 634//855 630//794 857//793
f 827//822 633//821 629//798 856//797
f 826//858 632//857 628//802 855//801
f 463//695 665//338 661//281 492//696
f 464//699 666//302 662//277 493//700
f 465//703 667//336 663//273 494//704
f 466//707 668//334 665//338 463//695
f 467//709 669//332 664//299 495//710
f 468//713 670//330 667//336 465//703
f 469//715 671//326 668//334 466//707
f 470//717 672//328 669//332 467//709
f 471//719 673//294 670//330 468//713
f 472//721 674//324 672//328 470//717
f 473//723 675//322 671//326 469//715
f 474//725 676//320 674//324 472//721
f 475//727 677//318 675//322 473//723
f 476//729 678//316 676//320 474//725
f 477//731 679//314 677//318 475//727
f 478//733 680//312 678//316 476//729
f 479//735 681//310 679//314 477//731
f 480//737 682//308 680//312 478//733
f 481//739 683//306 681//310 479//735
f 482//741 684//304 682//308 480//737
f 483//743 685//298 683//306 481//739
f 484//745 686//296 684//304 482//741
f 495//710 664//299 666//302 464//699
f 485//747 687//292 685//298 483//743
f 486//749 688//290 686//296 484//745
f 487//751 689//288 673//294 471//719
f 488//753 690//286 687//292 485//747
f 489//755 691//284 688//290 486//749
f 490//757 692//280 689//288 487//751
f 491//759 693//276 690//286 488//753
f 492//696 661//281 691//284 489//755
f 493//700 662//277 692//280 490//757
f 494//704 663//273 693//276 491//759
f 70//134 725//705 722//758 71//124
f 96//138 724//701 721//756 97//128
f 83//130 723//697 720//754 84//118
f 71//124 722//758 719//752 72//114
f 97//128 721//756 718//750 98//116
f 84//118 720//754 717//748 85//106
f 72//114 719//752 716//746 73//104
f 98//116 718//750 702//718 68//102
f 85//106 717//748 715//744 86//98
f 73//104 716//746 714//742 74//96
f 95//85 726//711 695//698 99//111
f 86//98 715//744 713//740 87//80
f 74//96 714//742 712//738 75//14
f 87//80 713//740 711//736 88//81
f 75//14 712//738 710//734 76//15
f 88//81 711//736 709//732 89//136
f 76//15 710//734 708//730 77//132
f 89//136 709//732 707//728 90//126
f 77//132 708//730 706//726 78//122
f 90//126 707//728 705//724 91//120
f 78//122 706//726 704//722 79//110
f 91//120 705//724 703//720 92//108
f 79//110 704//722 700//714 80//88
f 92//108 703//720 701//716 93//100
f 68//102 702//718 699//712 67//92
f 93//100 701//716 698//708 94//84
f 80//88 700//714 697//706 81//89
f 67//92 699//712 696//702 69//93
f 94//84 698//708 726//711 95//85
f 81//89 697//706 694//694 82//140
f 69//93 696//702 725//705 70//134
f 99//111 695//698 724//701 96//138
f 82//140 694//694 723//697 83//130
f 167//337 727//693 756//636 166//282
f 169//301 728//657 757//632 168//278
f 171//335 729//691 758//628 170//274
f 172//333 730//689 727//693 167//337
f 174//331 731//687 759//654 173//300
f 175//329 732//685 729//691 171//335
f 176//325 733//681 730//689 172//333
f 177//327 734//683 731//687 174//331
f 178//293 735//649 732//685 175//329
f 179//323 736//679 734//683 177//327
f 180//321 737//677 733//681 176//325
f 181//319 738//675 736//679 179//323
f 182//317 739//673 737//677 180//321
f 183//315 740//671 738//675 181//319
f 184//313 741//669 739//673 182//317
f 185//311 742//667 740//671 183//315
f 186//309 743//665 741//669 184//313
f 187//307 744//663 742//667 185//311
f 188//305 745//661 743//665 186//309
f 189//303 746//659 744//663 187//307
f 190//297 747//653 745//661 188//305
f 191//295 748//651 746//659 189//303
f 173//300 759//654 728//657 169//301
f 192//291 749//647 747//653 190//297
f 193//289 750//645 748//651 191//295
f 194//287 751//643 735//649 178//293
f 195//285 752//641 749//647 192//291
f 196//283 753//639 750//645 193//289
f 197//279 754//635 751//643 194//287
f 198//275 755//631 752//641 195//285
f 166//282 756//636 753//639 196//283
f 168//278 757//632 754//635 197//279
f 170//274 758//628 755//631 198//275
f 13//35 776//859 825//860 12//70
f 776//859 777//358 824//401 825//860
f 33//21 768//861 823//862 32//68
f 768//861 769//350 822//399 823//862
f 26//12 772//863 821//864 25//9
f 772//863 773//354 820//397 821//864
f 19//8 764//865 819//866 18//5
f 764//865 765//346 818//395 819//866
f 5//4 760//867 817//868 4//1
f 760//867 761//74 816//393 817//868
f 12//70 825//860 815//869 11//66
f 825//860 824//401 814//391 815//869
f 32//68 823//862 813//870 31//32
f 823//862 822//399 812//389 813//870
f 25//9 821//864 811//871 24//28
f 821//864 820//397 810//388 811//871
f 18//5 819//866 809//872 17//64
f 819//866 818//395 808//386 809//872
f 4//1 817//868 807//873 3//62
f 817//868 816//393 806//384 807//873
f 11//66 815//869 803//874 9//60
f 815//869 814//391 802//381 803//874
f 31//32 813//870 787//875 35//29
f 813//870 812//389 786//363 787//875
f 24//28 811//871 805//876 23//25
f 811//871 810//388 804//383 805//876
f 17//64 809//872 801//877 16//58
f 809//872 808//386 800//379 801//877
f 3//62 807//873 797//878 2//54
f 807//873 806//384 796//375 797//878
f 30//43 784//879 799//880 29//56
f 784//879 785//366 798//377 799//880
f 23//25 805//876 795//881 22//52
f 805//876 804//383 794//373 795//881
f 9//60 803//874 793//882 8//50
f 803//874 802//381 792//371 793//882
f 16//58 801//877 791//883 15//48
f 801//877 800//379 790//369 791//883
f 29//56 799//880 789//884 28//46
f 799//880 798//377 788//367 789//884
f 2//54 797//878 771//885 1//24
f 797//878 796//375 770//347 771//885
f 22//52 795//881 783//886 21//42
f 795//881 794//373 782//361 783//886
f 8//50 793//882 781//887 7//40
f 793//882 792//371 780//359 781//887
f 15//48 791//883 779//888 14//38
f 791//883 790//369 778//355 779//888
f 28//46 789//884 775//889 27//34
f 789//884 788//367 774//351 775//889
f 35//29 787//875 784//879 30//43
f 787//875 786//363 785//366 784//879
f 21//42 783//886 767//890 20//20
f 783//886 782//361 766//343 767//890
f 7//40 781//887 763//891 6//18
f 781//887 780//359 762//71 763//891
f 14//38 779//888 776//859 13//35
f 779//888 778//355 777//358 776//859
f 27//34 775//889 772//863 26//12
f 775//889 774//351 773//354 772//863
f 1//24 771//885 768//861 33//21
f 771//885 770//347 769//350 768//861
f 20//20 767//890 764//865 19//8
f 767//890 766//343 765//346 764//865
f 6//18 763//891 760//867 5//4
f 763//891 762//71 761//74 760//867
f 434//692 826//858 855//801 430//637
f 435//656 827//822 856//797 431//633
f 436//690 828//856 857//793 432//629
f 437//688 829//854 826//858 434//692
f 438//686 830//852 858//819 433//655
f 439//684 831//850 828//856 436//690
f 440//680 832//846 829//854 437//688
f 441//682 833//848 830//852 438//686
f 442//648 834//814 831//850 439//684
f 443//678 835//844 833//848 441//682
f 444//676 836//842 832//846 440//680
f 445//674 837//840 835//844 443//678
f 446//672 838//838 836//842 444//676
f 447//670 839//836 837//840 445//674
f 448//668 840//834 838//838 446//672
f 449//666 841//832 839//836 447//670
f 450//664 842//830 840//834 448//668
f 451//662 843//828 841//832 449//666
f 452//660 844//826 842//830 450//664
f 453//658 845//824 843//828 451//662
f 454//652 846//818 844//826 452//660
f 455//650 847//816 845//824 453//658
f 433//655 858//819 827//822 435//656
f 456//646 848//812 846//818 454//652
f 457//644 849//810 847//816 455//650
f 458//642 850//808 834//814 442//648
f 459//640 851//806 848//812 456//646
f 460//638 852//804 849//810 457//644
f 461//634 853//800 850//808 458//642
f 462//630 854//796 851//806 459//640
f 430//637 855//801 852//804 460//638
f 431//633 856//797 853//800 461//634
f 432//629 857//793 854//796 462//630
f 630//794 861//152 891//205 660//795
f 629//798 860//148 890//203 659//799
f 628//802 859//78 889//201 658//803
f 660//795 891//205 888//199 657//805
f 659//799 890//203 887//197 656//807
f 658//803 889//201 886//195 655//809
f 657//805 888//199 885//193 654//811
f 656//807 887//197 871//165 640//813
f 655//809 886//195 884//191 653//815
f 654//811 885//193 883//189 652//817
f 631//820 862//158 864//145 633//821
f 653//815 884//191 882//187 651//823
f 652//817 883//189 881//185 650//825
f 651//823 882//187 880//183 649//827
f 650//825 881//185 879//181 648//829
f 649//827 880//183 878//179 647//831
f 648//829 879//181 877//177 646//833
f 647//831 878//179 876//175 645//835
f 646//833 877//177 875//173 644//837
f 645//835 876//175 874//171 643//839
f 644//837 875//173 873//169 642//841
f 643//839 874//171 872//167 641//843
f 642//841 873//169 869//161 638//845
f 641//843 872//167 870//163 639//847
f 640//813 871//165 868//159 637//849
f 639//847 870//163 867//155 636//851
f 638//845 869//161 866//153 635//853
f 637//849 868//159 865//149 634//855
f 636//851 867//155 862//158 631//820
f 635//853 866//153 863//75 632//857
f 634//855 865//149 861//152 630//794
f 633//821 864//145 860//148 629//798
f 632//857 863//75 859//78 628//802
