# Blender v2.78 (sub 0) OBJ File: 'cup_of_tea.blend'
# www.blender.org
mtllib cup_of_tea.mtl
o Cube.001
v -0.928525 0.377261 0.076644
v -0.897786 0.450078 0.156274
v -1.008155 0.450078 0.107383
v -0.919024 0.380827 0.101256
v -0.910460 0.391163 0.123442
v -0.953136 0.380827 0.086145
v -0.943981 0.385049 0.111803
v -0.935317 0.394807 0.131798
v -0.975322 0.391163 0.094709
v -0.964826 0.394858 0.118812
v -0.954394 0.401773 0.135043
v -0.923903 0.450078 0.161876
v -0.950452 0.450078 0.159137
v -0.899291 0.427573 0.152376
v -0.926480 0.426976 0.157566
v -0.950912 0.427729 0.154736
v -0.903654 0.407285 0.141072
v -0.929718 0.408234 0.146490
v -0.950267 0.411550 0.145734
v -1.004256 0.427573 0.105878
v -0.992953 0.407285 0.101515
v -0.994756 0.450078 0.130490
v -0.989886 0.426846 0.129360
v -0.979533 0.408271 0.124417
v -0.974888 0.450078 0.148312
v -0.971247 0.427671 0.145715
v -0.965085 0.411550 0.139170
v -0.897786 1.040782 0.156274
v -0.928525 1.113600 0.076644
v -1.008155 1.040782 0.107383
v -0.899291 1.063288 0.152376
v -0.903654 1.083576 0.141072
v -0.923903 1.040782 0.161876
v -0.926337 1.064015 0.157511
v -0.929633 1.082590 0.146522
v -0.950452 1.040782 0.159137
v -0.950974 1.063190 0.154695
v -0.950267 1.079311 0.145734
v -0.953136 1.110034 0.086145
v -0.975322 1.099698 0.094709
v -0.919024 1.110034 0.101256
v -0.944179 1.105812 0.111716
v -0.964809 1.096054 0.118734
v -0.910460 1.099698 0.123442
v -0.935364 1.096003 0.131863
v -0.954394 1.089088 0.135043
v -0.994756 1.040782 0.130490
v -0.974888 1.040782 0.148312
v -1.004256 1.063288 0.105878
v -0.989831 1.063885 0.129502
v -0.971319 1.063132 0.145696
v -0.992953 1.083576 0.101515
v -0.979453 1.082627 0.124459
v -0.965085 1.079311 0.139170
v -1.177885 0.377261 -0.569328
v -1.257515 0.450078 -0.538589
v -1.208624 0.450078 -0.648959
v -1.202496 0.380827 -0.559828
v -1.224682 0.391163 -0.551263
v -1.187385 0.380827 -0.593940
v -1.213044 0.385049 -0.584785
v -1.233039 0.394807 -0.576120
v -1.195950 0.391163 -0.616126
v -1.220053 0.394858 -0.605629
v -1.236283 0.401773 -0.595198
v -1.263117 0.450078 -0.564706
v -1.260378 0.450078 -0.591255
v -1.253616 0.427573 -0.540094
v -1.258806 0.426976 -0.567283
v -1.255976 0.427729 -0.591715
v -1.242313 0.407285 -0.544458
v -1.247730 0.408234 -0.570521
v -1.246974 0.411550 -0.591071
v -1.207119 0.427573 -0.645060
v -1.202755 0.407285 -0.633756
v -1.231730 0.450078 -0.635559
v -1.230600 0.426846 -0.630690
v -1.225658 0.408271 -0.620337
v -1.249553 0.450078 -0.615691
v -1.246955 0.427671 -0.612051
v -1.240410 0.411550 -0.605888
v -1.177885 1.113600 -0.569328
v -1.208624 1.040782 -0.648959
v -1.257515 1.040782 -0.538589
v -1.187385 1.110034 -0.593940
v -1.195950 1.099698 -0.616126
v -1.202496 1.110034 -0.559828
v -1.212956 1.105812 -0.584982
v -1.219974 1.096054 -0.605613
v -1.224682 1.099698 -0.551263
v -1.233104 1.096003 -0.576168
v -1.236283 1.089088 -0.595198
v -1.231730 1.040782 -0.635559
v -1.249553 1.040782 -0.615691
v -1.207119 1.063288 -0.645060
v -1.230743 1.063885 -0.630635
v -1.246936 1.063132 -0.612123
v -1.202755 1.083576 -0.633756
v -1.225699 1.082627 -0.620256
v -1.240410 1.079311 -0.605888
v -1.253616 1.063288 -0.540094
v -1.242313 1.083576 -0.544458
v -1.263117 1.040782 -0.564706
v -1.258751 1.064015 -0.567141
v -1.247762 1.082590 -0.570437
v -1.260378 1.040782 -0.591255
v -1.255936 1.063190 -0.591778
v -1.246974 1.079311 -0.591071
v -0.282552 0.377261 -0.172716
v -0.202922 0.450078 -0.203455
v -0.251813 0.450078 -0.093085
v -0.257941 0.380827 -0.182216
v -0.235755 0.391163 -0.190781
v -0.273052 0.380827 -0.148104
v -0.247393 0.385049 -0.157259
v -0.227398 0.394807 -0.165924
v -0.264487 0.391163 -0.125918
v -0.240384 0.394858 -0.136415
v -0.224154 0.401773 -0.146846
v -0.197320 0.450078 -0.177338
v -0.200059 0.450078 -0.150789
v -0.206821 0.427573 -0.201950
v -0.201631 0.426976 -0.174761
v -0.204460 0.427729 -0.150329
v -0.218124 0.407285 -0.197586
v -0.212706 0.408234 -0.171522
v -0.213463 0.411550 -0.150973
v -0.253318 0.427573 -0.096984
v -0.257682 0.407285 -0.108288
v -0.228707 0.450078 -0.106485
v -0.229837 0.426846 -0.111354
v -0.234779 0.408271 -0.121707
v -0.210884 0.450078 -0.126353
v -0.213482 0.427671 -0.129993
v -0.220027 0.411550 -0.136156
v -0.282552 1.113600 -0.172716
v -0.251813 1.040782 -0.093085
v -0.202922 1.040782 -0.203455
v -0.273052 1.110034 -0.148104
v -0.264487 1.099698 -0.125918
v -0.257941 1.110034 -0.182216
v -0.247481 1.105812 -0.157062
v -0.240463 1.096054 -0.136431
v -0.235755 1.099698 -0.190781
v -0.227333 1.096003 -0.165876
v -0.224154 1.089088 -0.146846
v -0.228707 1.040782 -0.106485
v -0.210884 1.040782 -0.126353
v -0.253318 1.063288 -0.096984
v -0.229694 1.063885 -0.111409
v -0.213501 1.063132 -0.129921
v -0.257682 1.083576 -0.108288
v -0.234738 1.082627 -0.121788
v -0.220027 1.079311 -0.136156
v -0.206821 1.063288 -0.201950
v -0.218124 1.083576 -0.197586
v -0.197320 1.040782 -0.177338
v -0.201686 1.064015 -0.174903
v -0.212674 1.082590 -0.171607
v -0.200059 1.040782 -0.150789
v -0.204501 1.063190 -0.150266
v -0.213463 1.079311 -0.150973
v -0.531912 0.377261 -0.818688
v -0.562651 0.450078 -0.898318
v -0.452282 0.450078 -0.849427
v -0.541413 0.380827 -0.843300
v -0.549977 0.391163 -0.865486
v -0.507300 0.380827 -0.828189
v -0.516455 0.385049 -0.853847
v -0.525120 0.394807 -0.873842
v -0.485115 0.391163 -0.836753
v -0.495611 0.394858 -0.860856
v -0.506043 0.401773 -0.877087
v -0.536534 0.450078 -0.903920
v -0.509985 0.450078 -0.901181
v -0.561146 0.427573 -0.894420
v -0.533957 0.426976 -0.899610
v -0.509525 0.427729 -0.896780
v -0.556783 0.407285 -0.883116
v -0.530719 0.408234 -0.888534
v -0.510170 0.411550 -0.887778
v -0.456181 0.427573 -0.847922
v -0.467484 0.407285 -0.843559
v -0.465681 0.450078 -0.872534
v -0.470551 0.426846 -0.871404
v -0.480904 0.408271 -0.866461
v -0.485549 0.450078 -0.890356
v -0.489190 0.427671 -0.887759
v -0.495352 0.411550 -0.881214
v -0.531912 1.113600 -0.818688
v -0.452282 1.040782 -0.849427
v -0.562651 1.040782 -0.898318
v -0.507300 1.110034 -0.828189
v -0.485115 1.099698 -0.836753
v -0.541413 1.110034 -0.843300
v -0.516258 1.105812 -0.853760
v -0.495628 1.096054 -0.860778
v -0.549977 1.099698 -0.865486
v -0.525073 1.096003 -0.873907
v -0.506043 1.089088 -0.877087
v -0.465681 1.040782 -0.872534
v -0.485549 1.040782 -0.890356
v -0.456181 1.063288 -0.847922
v -0.470606 1.063885 -0.871546
v -0.489118 1.063132 -0.887740
v -0.467484 1.083576 -0.843559
v -0.480984 1.082627 -0.866503
v -0.495352 1.079311 -0.881214
v -0.561146 1.063288 -0.894420
v -0.556783 1.083576 -0.883116
v -0.536534 1.040782 -0.903920
v -0.534100 1.064015 -0.899555
v -0.530804 1.082590 -0.888566
v -0.509985 1.040782 -0.901181
v -0.509463 1.063190 -0.896739
v -0.510170 1.079311 -0.887778
vn 0.3601 0.0000 0.9329
vn 0.9329 0.0000 -0.3601
vn 0.0000 1.0000 0.0000
vn -0.9329 0.0000 0.3601
vn -0.3601 0.0000 -0.9329
vn 0.0000 -1.0000 0.0000
vn -0.0393 -0.9952 0.0889
vn 0.0320 -0.9606 0.2760
vn -0.1549 -0.9234 0.3511
vn -0.2259 -0.9606 0.1621
vn 0.1272 -0.8461 0.5176
vn -0.0553 -0.8148 0.5771
vn 0.2080 -0.6424 0.7375
vn 0.0103 -0.6269 0.7790
vn -0.3902 -0.8145 0.4292
vn -0.4685 -0.8462 0.2538
vn -0.2729 -0.7389 0.6160
vn -0.2238 -0.5751 0.7868
vn 0.2827 -0.0936 0.9546
vn 0.0544 -0.0935 0.9941
vn 0.0364 -0.3498 0.9361
vn 0.2620 -0.3524 0.8984
vn -0.2549 -0.0880 0.9630
vn -0.2505 -0.3271 0.9112
vn -0.5421 -0.0884 0.8356
vn -0.5062 -0.3276 0.7978
vn -0.4324 -0.5751 0.6945
vn -0.8970 -0.0936 0.4320
vn -0.8416 -0.3522 0.4093
vn -0.7181 -0.3508 0.6010
vn -0.7726 -0.0938 0.6278
vn -0.6860 -0.6426 0.3411
vn -0.5842 -0.6268 0.5155
vn 0.2827 0.0936 0.9546
vn 0.2623 0.3522 0.8984
vn 0.0374 0.3508 0.9357
vn 0.0541 0.0938 0.9941
vn 0.2083 0.6426 0.7373
vn 0.0107 0.6268 0.7791
vn 0.1268 0.8462 0.5175
vn -0.0557 0.8145 0.5774
vn -0.2507 0.3276 0.9109
vn -0.2546 0.0884 0.9630
vn -0.2238 0.5751 0.7869
vn -0.2728 0.7389 0.6160
vn -0.0393 0.9952 0.0889
vn -0.2259 0.9606 0.1617
vn -0.1559 0.9234 0.3507
vn 0.0317 0.9606 0.2762
vn -0.4688 0.8461 0.2536
vn -0.3902 0.8148 0.4287
vn -0.6860 0.6424 0.3415
vn -0.5838 0.6269 0.5158
vn -0.4324 0.5751 0.6944
vn -0.8970 0.0936 0.4320
vn -0.7728 0.0935 0.6277
vn -0.7178 0.3498 0.6020
vn -0.8415 0.3524 0.4096
vn -0.5419 0.0880 0.8358
vn -0.5065 0.3271 0.7977
vn -0.0889 -0.9952 -0.0393
vn -0.2760 -0.9606 0.0320
vn -0.3511 -0.9234 -0.1549
vn -0.1621 -0.9606 -0.2259
vn -0.5176 -0.8461 0.1272
vn -0.5771 -0.8148 -0.0553
vn -0.7375 -0.6424 0.2080
vn -0.7790 -0.6269 0.0103
vn -0.4292 -0.8145 -0.3902
vn -0.2538 -0.8462 -0.4685
vn -0.6160 -0.7389 -0.2729
vn -0.7868 -0.5751 -0.2238
vn -0.9546 -0.0936 0.2827
vn -0.9941 -0.0935 0.0544
vn -0.9361 -0.3498 0.0364
vn -0.8984 -0.3524 0.2620
vn -0.9630 -0.0880 -0.2549
vn -0.9112 -0.3271 -0.2505
vn -0.8356 -0.0884 -0.5421
vn -0.7978 -0.3276 -0.5062
vn -0.6945 -0.5751 -0.4324
vn -0.4320 -0.0936 -0.8970
vn -0.4093 -0.3522 -0.8416
vn -0.6010 -0.3508 -0.7181
vn -0.6278 -0.0938 -0.7726
vn -0.3411 -0.6426 -0.6860
vn -0.5155 -0.6268 -0.5842
vn -0.0889 0.9952 -0.0393
vn -0.1617 0.9606 -0.2259
vn -0.3507 0.9234 -0.1559
vn -0.2762 0.9606 0.0317
vn -0.2536 0.8461 -0.4688
vn -0.4287 0.8148 -0.3902
vn -0.3415 0.6424 -0.6860
vn -0.5158 0.6269 -0.5838
vn -0.5774 0.8145 -0.0557
vn -0.5175 0.8462 0.1268
vn -0.6160 0.7389 -0.2728
vn -0.6944 0.5751 -0.4324
vn -0.4320 0.0936 -0.8970
vn -0.6277 0.0935 -0.7728
vn -0.6020 0.3498 -0.7178
vn -0.4096 0.3524 -0.8415
vn -0.8358 0.0880 -0.5419
vn -0.7977 0.3271 -0.5065
vn -0.9630 0.0884 -0.2546
vn -0.9109 0.3276 -0.2507
vn -0.7869 0.5751 -0.2238
vn -0.9546 0.0936 0.2827
vn -0.8984 0.3522 0.2623
vn -0.9357 0.3508 0.0374
vn -0.9941 0.0938 0.0541
vn -0.7373 0.6426 0.2083
vn -0.7791 0.6268 0.0107
vn 0.0889 -0.9952 0.0393
vn 0.2760 -0.9606 -0.0320
vn 0.3511 -0.9234 0.1549
vn 0.1621 -0.9606 0.2259
vn 0.5176 -0.8461 -0.1272
vn 0.5771 -0.8148 0.0553
vn 0.7375 -0.6424 -0.2080
vn 0.7790 -0.6269 -0.0103
vn 0.4292 -0.8145 0.3902
vn 0.2538 -0.8462 0.4685
vn 0.6160 -0.7389 0.2729
vn 0.7868 -0.5751 0.2238
vn 0.9546 -0.0936 -0.2827
vn 0.9941 -0.0935 -0.0544
vn 0.9361 -0.3498 -0.0364
vn 0.8984 -0.3524 -0.2620
vn 0.9630 -0.0880 0.2549
vn 0.9112 -0.3271 0.2505
vn 0.8356 -0.0884 0.5421
vn 0.7978 -0.3276 0.5062
vn 0.6945 -0.5751 0.4324
vn 0.4320 -0.0936 0.8970
vn 0.4093 -0.3522 0.8416
vn 0.6010 -0.3508 0.7181
vn 0.6278 -0.0938 0.7726
vn 0.3411 -0.6426 0.6860
vn 0.5155 -0.6268 0.5842
vn 0.0889 0.9952 0.0394
vn 0.1617 0.9606 0.2259
vn 0.3507 0.9234 0.1559
vn 0.2762 0.9606 -0.0317
vn 0.2536 0.8461 0.4688
vn 0.4287 0.8148 0.3902
vn 0.3415 0.6424 0.6860
vn 0.5158 0.6269 0.5838
vn 0.5774 0.8145 0.0557
vn 0.5175 0.8462 -0.1268
vn 0.6160 0.7389 0.2728
vn 0.6944 0.5751 0.4324
vn 0.4320 0.0936 0.8970
vn 0.6277 0.0935 0.7728
vn 0.6020 0.3498 0.7178
vn 0.4096 0.3524 0.8415
vn 0.8358 0.0880 0.5419
vn 0.7977 0.3271 0.5065
vn 0.9630 0.0884 0.2546
vn 0.9109 0.3276 0.2507
vn 0.7869 0.5751 0.2238
vn 0.9546 0.0936 -0.2827
vn 0.8984 0.3522 -0.2623
vn 0.9357 0.3508 -0.0374
vn 0.9941 0.0938 -0.0541
vn 0.7373 0.6426 -0.2083
vn 0.7791 0.6268 -0.0107
vn 0.0393 -0.9952 -0.0889
vn -0.0320 -0.9606 -0.2760
vn 0.1549 -0.9234 -0.3511
vn 0.2259 -0.9606 -0.1621
vn -0.1272 -0.8461 -0.5176
vn 0.0553 -0.8148 -0.5771
vn -0.2080 -0.6424 -0.7375
vn -0.0103 -0.6269 -0.7790
vn 0.3902 -0.8145 -0.4292
vn 0.4685 -0.8462 -0.2538
vn 0.2729 -0.7389 -0.6160
vn 0.2238 -0.5751 -0.7868
vn -0.2827 -0.0936 -0.9546
vn -0.0544 -0.0935 -0.9941
vn -0.0364 -0.3498 -0.9361
vn -0.2620 -0.3524 -0.8984
vn 0.2549 -0.0880 -0.9630
vn 0.2505 -0.3271 -0.9112
vn 0.5421 -0.0884 -0.8356
vn 0.5062 -0.3276 -0.7978
vn 0.4324 -0.5751 -0.6945
vn 0.8970 -0.0936 -0.4320
vn 0.8416 -0.3522 -0.4093
vn 0.7181 -0.3508 -0.6010
vn 0.7726 -0.0938 -0.6278
vn 0.6860 -0.6426 -0.3411
vn 0.5842 -0.6268 -0.5155
vn 0.0393 0.9952 -0.0889
vn 0.2259 0.9606 -0.1617
vn 0.1559 0.9234 -0.3507
vn -0.0317 0.9606 -0.2762
vn 0.4688 0.8461 -0.2536
vn 0.3902 0.8148 -0.4287
vn 0.6860 0.6424 -0.3415
vn 0.5838 0.6269 -0.5158
vn 0.0557 0.8145 -0.5774
vn -0.1268 0.8462 -0.5175
vn 0.2728 0.7389 -0.6160
vn 0.4324 0.5751 -0.6944
vn 0.8970 0.0936 -0.4320
vn 0.7728 0.0935 -0.6277
vn 0.7178 0.3498 -0.6020
vn 0.8415 0.3524 -0.4096
vn 0.5419 0.0880 -0.8358
vn 0.5065 0.3271 -0.7977
vn 0.2546 0.0884 -0.9630
vn 0.2507 0.3276 -0.9109
vn 0.2238 0.5751 -0.7869
vn -0.2827 0.0936 -0.9546
vn -0.2623 0.3522 -0.8984
vn -0.0374 0.3508 -0.9357
vn -0.0541 0.0938 -0.9941
vn -0.2083 0.6426 -0.7373
vn -0.0107 0.6268 -0.7791
usemtl glass
s off
f 111//1 137//1 28//1 2//1
f 165//2 191//2 138//2 110//2
f 190//3 82//3 29//3 136//3
f 3//4 30//4 84//4 56//4
f 57//5 83//5 192//5 164//5
f 55//6 163//6 109//6 1//6
s 1
f 1//7 4//8 7//9 6//10
f 4//8 5//11 8//12 7//9
f 5//11 17//13 18//14 8//12
f 6//10 7//9 10//15 9//16
f 7//9 8//12 11//17 10//15
f 8//12 18//14 19//18 11//17
f 2//19 12//20 15//21 14//22
f 12//20 13//23 16//24 15//21
f 13//23 25//25 26//26 16//24
f 14//22 15//21 18//14 17//13
f 15//21 16//24 19//18 18//14
f 16//24 26//26 27//27 19//18
f 3//28 20//29 23//30 22//31
f 20//29 21//32 24//33 23//30
f 21//32 9//16 10//15 24//33
f 22//31 23//30 26//26 25//25
f 23//30 24//33 27//27 26//26
f 24//33 10//15 11//17 27//27
f 11//17 19//18 27//27
f 28//34 31//35 34//36 33//37
f 31//35 32//38 35//39 34//36
f 32//38 44//40 45//41 35//39
f 33//37 34//36 37//42 36//43
f 34//36 35//39 38//44 37//42
f 35//39 45//41 46//45 38//44
f 29//46 39//47 42//48 41//49
f 39//47 40//50 43//51 42//48
f 40//50 52//52 53//53 43//51
f 41//49 42//48 45//41 44//40
f 42//48 43//51 46//45 45//41
f 43//51 53//53 54//54 46//45
f 30//55 47//56 50//57 49//58
f 47//56 48//59 51//60 50//57
f 48//59 36//43 37//42 51//60
f 49//58 50//57 53//53 52//52
f 50//57 51//60 54//54 53//53
f 51//60 37//42 38//44 54//54
f 38//44 46//45 54//54
f 55//61 58//62 61//63 60//64
f 58//62 59//65 62//66 61//63
f 59//65 71//67 72//68 62//66
f 60//64 61//63 64//69 63//70
f 61//63 62//66 65//71 64//69
f 62//66 72//68 73//72 65//71
f 56//73 66//74 69//75 68//76
f 66//74 67//77 70//78 69//75
f 67//77 79//79 80//80 70//78
f 68//76 69//75 72//68 71//67
f 69//75 70//78 73//72 72//68
f 70//78 80//80 81//81 73//72
f 57//82 74//83 77//84 76//85
f 74//83 75//86 78//87 77//84
f 75//86 63//70 64//69 78//87
f 76//85 77//84 80//80 79//79
f 77//84 78//87 81//81 80//80
f 78//87 64//69 65//71 81//81
f 65//71 73//72 81//81
f 82//88 85//89 88//90 87//91
f 85//89 86//92 89//93 88//90
f 86//92 98//94 99//95 89//93
f 87//91 88//90 91//96 90//97
f 88//90 89//93 92//98 91//96
f 89//93 99//95 100//99 92//98
f 83//100 93//101 96//102 95//103
f 93//101 94//104 97//105 96//102
f 94//104 106//106 107//107 97//105
f 95//103 96//102 99//95 98//94
f 96//102 97//105 100//99 99//95
f 97//105 107//107 108//108 100//99
f 84//109 101//110 104//111 103//112
f 101//110 102//113 105//114 104//111
f 102//113 90//97 91//96 105//114
f 103//112 104//111 107//107 106//106
f 104//111 105//114 108//108 107//107
f 105//114 91//96 92//98 108//108
f 92//98 100//99 108//108
f 109//115 112//116 115//117 114//118
f 112//116 113//119 116//120 115//117
f 113//119 125//121 126//122 116//120
f 114//118 115//117 118//123 117//124
f 115//117 116//120 119//125 118//123
f 116//120 126//122 127//126 119//125
f 110//127 120//128 123//129 122//130
f 120//128 121//131 124//132 123//129
f 121//131 133//133 134//134 124//132
f 122//130 123//129 126//122 125//121
f 123//129 124//132 127//126 126//122
f 124//132 134//134 135//135 127//126
f 111//136 128//137 131//138 130//139
f 128//137 129//140 132//141 131//138
f 129//140 117//124 118//123 132//141
f 130//139 131//138 134//134 133//133
f 131//138 132//141 135//135 134//134
f 132//141 118//123 119//125 135//135
f 119//125 127//126 135//135
f 136//142 139//143 142//144 141//145
f 139//143 140//146 143//147 142//144
f 140//146 152//148 153//149 143//147
f 141//145 142//144 145//150 144//151
f 142//144 143//147 146//152 145//150
f 143//147 153//149 154//153 146//152
f 137//154 147//155 150//156 149//157
f 147//155 148//158 151//159 150//156
f 148//158 160//160 161//161 151//159
f 149//157 150//156 153//149 152//148
f 150//156 151//159 154//153 153//149
f 151//159 161//161 162//162 154//153
f 138//163 155//164 158//165 157//166
f 155//164 156//167 159//168 158//165
f 156//167 144//151 145//150 159//168
f 157//166 158//165 161//161 160//160
f 158//165 159//168 162//162 161//161
f 159//168 145//150 146//152 162//162
f 146//152 154//153 162//162
f 163//169 166//170 169//171 168//172
f 166//170 167//173 170//174 169//171
f 167//173 179//175 180//176 170//174
f 168//172 169//171 172//177 171//178
f 169//171 170//174 173//179 172//177
f 170//174 180//176 181//180 173//179
f 164//181 174//182 177//183 176//184
f 174//182 175//185 178//186 177//183
f 175//185 187//187 188//188 178//186
f 176//184 177//183 180//176 179//175
f 177//183 178//186 181//180 180//176
f 178//186 188//188 189//189 181//180
f 165//190 182//191 185//192 184//193
f 182//191 183//194 186//195 185//192
f 183//194 171//178 172//177 186//195
f 184//193 185//192 188//188 187//187
f 185//192 186//195 189//189 188//188
f 186//195 172//177 173//179 189//189
f 173//179 181//180 189//189
f 190//196 193//197 196//198 195//199
f 193//197 194//200 197//201 196//198
f 194//200 206//202 207//203 197//201
f 195//199 196//198 199//204 198//205
f 196//198 197//201 200//206 199//204
f 197//201 207//203 208//207 200//206
f 191//208 201//209 204//210 203//211
f 201//209 202//212 205//213 204//210
f 202//212 214//214 215//215 205//213
f 203//211 204//210 207//203 206//202
f 204//210 205//213 208//207 207//203
f 205//213 215//215 216//216 208//207
f 192//217 209//218 212//219 211//220
f 209//218 210//221 213//222 212//219
f 210//221 198//205 199//204 213//222
f 211//220 212//219 215//215 214//214
f 212//219 213//222 216//216 215//215
f 213//222 199//204 200//206 216//216
f 200//206 208//207 216//216
f 55//61 1//7 6//10 58//62
f 58//62 6//10 9//16 59//65
f 59//65 9//16 21//32 71//67
f 71//67 21//32 20//29 68//76
f 68//76 20//29 3//28 56//73
f 2//19 28//34 33//37 12//20
f 12//20 33//37 36//43 13//23
f 13//23 36//43 48//59 25//25
f 25//25 48//59 47//56 22//31
f 22//31 47//56 30//55 3//28
f 29//46 82//88 87//91 39//47
f 39//47 87//91 90//97 40//50
f 40//50 90//97 102//113 52//52
f 52//52 102//113 101//110 49//58
f 49//58 101//110 84//109 30//55
f 83//100 57//82 76//85 93//101
f 93//101 76//85 79//79 94//104
f 94//104 79//79 67//77 106//106
f 106//106 67//77 66//74 103//112
f 103//112 66//74 56//73 84//109
f 163//169 55//61 60//64 166//170
f 166//170 60//64 63//70 167//173
f 167//173 63//70 75//86 179//175
f 179//175 75//86 74//83 176//184
f 176//184 74//83 57//82 164//181
f 82//88 190//196 195//199 85//89
f 85//89 195//199 198//205 86//92
f 86//92 198//205 210//221 98//94
f 98//94 210//221 209//218 95//103
f 95//103 209//218 192//217 83//100
f 191//208 165//190 184//193 201//209
f 201//209 184//193 187//187 202//212
f 202//212 187//187 175//185 214//214
f 214//214 175//185 174//182 211//220
f 211//220 174//182 164//181 192//217
f 109//115 163//169 168//172 112//116
f 112//116 168//172 171//178 113//119
f 113//119 171//178 183//194 125//121
f 125//121 183//194 182//191 122//130
f 122//130 182//191 165//190 110//127
f 190//196 136//142 141//145 193//197
f 193//197 141//145 144//151 194//200
f 194//200 144//151 156//167 206//202
f 206//202 156//167 155//164 203//211
f 203//211 155//164 138//163 191//208
f 137//154 111//136 130//139 147//155
f 147//155 130//139 133//133 148//158
f 148//158 133//133 121//131 160//160
f 160//160 121//131 120//128 157//166
f 157//166 120//128 110//127 138//163
f 1//7 109//115 114//118 4//8
f 4//8 114//118 117//124 5//11
f 5//11 117//124 129//140 17//13
f 17//13 129//140 128//137 14//22
f 14//22 128//137 111//136 2//19
f 136//142 29//46 41//49 139//143
f 139//143 41//49 44//40 140//146
f 140//146 44//40 32//38 152//148
f 152//148 32//38 31//35 149//157
f 149//157 31//35 28//34 137//154
