# Blender v2.78 (sub 0) OBJ File: 'cup_of_tea.blend'
# www.blender.org
mtllib cup_of_tea.mtl
o Cube
v -1.028099 -0.146717 0.292902
v -1.028099 0.306298 0.292902
v -1.396612 -0.146717 -0.661738
v -1.396612 0.306298 -0.661738
v -0.073460 -0.146717 -0.075611
v -0.073460 0.306298 -0.075611
v -0.441972 -0.146717 -1.030251
v -0.441972 0.306298 -1.030251
v -0.990520 0.374470 0.208067
v -1.311778 0.374470 -0.624159
v -0.158294 0.374470 -0.113191
v -0.479552 0.374470 -0.945417
vt 0.0000 0.0000
vt 1.0000 0.0000
vt 1.0000 1.0000
vt 0.0000 1.0000
vt 0.0000 0.0000
vt 1.0000 0.0000
vt 1.0000 1.0000
vt 0.0000 1.0000
vt 0.0000 0.0000
vt 1.0000 0.0000
vt 1.0000 1.0000
vt 0.0000 1.0000
vt 0.0000 0.0000
vt 1.0000 0.0000
vt 1.0000 1.0000
vt 0.0000 1.0000
vt 1.0000 0.0000
vt 1.0000 1.0000
vt 0.0000 0.0000
vt 1.0000 1.0000
vt 0.0000 1.0000
vt 0.0000 0.0000
vt 1.0000 0.0000
vt 1.0000 1.0000
vt 0.0000 1.0000
vt 0.0000 0.0000
vt 1.0000 1.0000
vt 0.0000 1.0000
vt 0.0000 0.0000
vt 1.0000 1.0000
vt 0.0000 0.0000
vt 0.0000 1.0000
vn -0.9329 0.0000 0.3601
vn -0.3601 0.0000 -0.9329
vn 0.9329 0.0000 -0.3601
vn 0.3601 0.0000 0.9329
vn 0.0000 -1.0000 0.0000
vn 0.2595 0.6934 0.6722
vn 0.0000 1.0000 0.0000
vn -0.2595 0.6934 -0.6722
vn 0.6722 0.6934 -0.2595
vn -0.6722 0.6934 0.2595
usemtl souvenir_bse
s off
f 1/1/1 2/2/1 4/3/1 3/4/1
f 3/5/2 4/6/2 8/7/2 7/8/2
f 7/9/3 8/10/3 6/11/3 5/12/3
f 5/13/4 6/14/4 2/15/4 1/16/4
f 3/5/5 7/17/5 5/18/5 1/16/5
f 2/19/6 6/14/6 11/20/6 9/21/6
f 12/22/7 10/23/7 9/24/7 11/25/7
f 8/26/8 4/6/8 10/27/8 12/28/8
f 6/29/9 8/10/9 12/30/9 11/25/9
f 4/31/10 2/2/10 9/24/10 10/32/10
