# Blender v2.78 (sub 0) OBJ File: 'cup_of_tea.blend'
# www.blender.org
mtllib cup_of_tea.mtl
o Cube.002_Cube.003
v -11.852944 -11.408193 12.156420
v -11.852944 12.150760 12.156420
v -11.852944 -11.408193 -11.402533
v -11.852944 12.150760 -11.402533
v 11.706008 -11.408193 12.156420
v 11.706008 -11.408193 -11.402533
v 11.706008 12.150760 -11.402533
vn -1.0000 0.0000 0.0000
vn 0.0000 0.0000 -1.0000
vn 0.0000 -1.0000 0.0000
usemtl plastic_holder.002
s off
f 1//1 2//1 4//1 3//1
f 3//2 4//2 7//2 6//2
f 3//3 6//3 5//3 1//3
