# Blender v2.78 (sub 0) OBJ File: 'cup_of_tea.blend'
# www.blender.org
mtllib cup_of_tea.mtl
o Cylinder.005
v 0.916180 -0.157651 -1.846358
v 0.948670 -0.102748 -1.839028
v 0.947111 -0.157651 -1.939671
v 0.977546 -0.102748 -1.926143
v 0.995651 -0.157651 -2.025157
v 1.022863 -0.102748 -2.005952
v 1.059936 -0.157651 -2.099530
v 1.082878 -0.102748 -2.075386
v 1.137496 -0.157651 -2.159934
v 1.155287 -0.102748 -2.131777
v 1.225349 -0.157651 -2.204044
v 1.237305 -0.102748 -2.172958
v 1.320120 -0.157651 -2.230169
v 1.325781 -0.102748 -2.197347
v 1.418167 -0.157651 -2.237302
v 1.417316 -0.102748 -2.204007
v 1.515721 -0.157651 -2.225171
v 1.508391 -0.102748 -2.192681
v 1.609034 -0.157651 -2.194240
v 1.595506 -0.102748 -2.163805
v 1.694520 -0.157651 -2.145700
v 1.675314 -0.102748 -2.118488
v 1.768893 -0.157651 -2.081414
v 1.744748 -0.102748 -2.058473
v 1.829296 -0.157651 -2.003855
v 1.801139 -0.102748 -1.986064
v 1.873407 -0.157651 -1.916001
v 1.842321 -0.102748 -1.904046
v 1.899532 -0.157651 -1.821230
v 1.866710 -0.102748 -1.815569
v 1.906665 -0.157651 -1.723183
v 1.873369 -0.102748 -1.724034
v 1.894533 -0.157651 -1.625630
v 1.862044 -0.102748 -1.632960
v 1.863603 -0.157651 -1.532316
v 1.833168 -0.102748 -1.545844
v 1.815062 -0.157651 -1.446831
v 1.787851 -0.102748 -1.466036
v 1.750777 -0.157651 -1.372458
v 1.727835 -0.102748 -1.396602
v 1.673217 -0.157651 -1.312054
v 1.655427 -0.102748 -1.340211
v 1.585364 -0.157651 -1.267943
v 1.573408 -0.102748 -1.299030
v 1.490593 -0.157651 -1.241819
v 1.484932 -0.102748 -1.274641
v 1.392546 -0.157651 -1.234686
v 1.393397 -0.102748 -1.267982
v 1.294992 -0.157651 -1.246818
v 1.302322 -0.102748 -1.279307
v 1.201679 -0.157651 -1.277749
v 1.215207 -0.102748 -1.308184
v 1.116193 -0.157651 -1.326289
v 1.135399 -0.102748 -1.353500
v 1.041820 -0.157651 -1.390574
v 1.065965 -0.102748 -1.413515
v 0.981417 -0.157651 -1.468133
v 1.009574 -0.102748 -1.485924
v 0.937306 -0.157651 -1.555987
v 0.968392 -0.102748 -1.567943
v 0.911182 -0.157651 -1.650758
v 0.944004 -0.102748 -1.656419
v 0.904049 -0.157651 -1.748805
v 0.937344 -0.102748 -1.747954
v 0.952444 -0.092938 -1.838177
v 0.981081 -0.092938 -1.924572
v 1.026023 -0.092938 -2.003721
v 1.085543 -0.092938 -2.072581
v 1.157353 -0.092938 -2.128506
v 1.238693 -0.092938 -2.169347
v 1.326439 -0.092938 -2.193535
v 1.417217 -0.092938 -2.200140
v 1.507539 -0.092938 -2.188907
v 1.593935 -0.092938 -2.160270
v 1.673084 -0.092938 -2.115327
v 1.741944 -0.092938 -2.055808
v 1.797868 -0.092938 -1.983998
v 1.838710 -0.092938 -1.902658
v 1.862898 -0.092938 -1.814912
v 1.869502 -0.092938 -1.724133
v 1.858270 -0.092938 -1.633811
v 1.829632 -0.092938 -1.547415
v 1.784690 -0.092938 -1.468267
v 1.725171 -0.092938 -1.399407
v 1.653360 -0.092938 -1.343482
v 1.572020 -0.092938 -1.302641
v 1.484274 -0.092938 -1.278453
v 1.393496 -0.092938 -1.271848
v 1.303174 -0.092938 -1.283082
v 1.216778 -0.092938 -1.311718
v 1.137629 -0.092938 -1.356661
v 1.068769 -0.092938 -1.416182
v 1.012844 -0.092938 -1.487991
v 0.972003 -0.092938 -1.569332
v 0.947816 -0.092938 -1.657077
v 0.941211 -0.092938 -1.747855
v 0.966654 -0.085190 -1.834971
v 0.994393 -0.085190 -1.918655
v 1.037925 -0.085190 -1.995321
v 1.095577 -0.085190 -2.062020
v 1.165134 -0.085190 -2.116191
v 1.243923 -0.085190 -2.155751
v 1.328915 -0.085190 -2.179179
v 1.416845 -0.085190 -2.185577
v 1.504333 -0.085190 -2.174697
v 1.588019 -0.085190 -2.146959
v 1.664684 -0.085190 -2.103426
v 1.731383 -0.085190 -2.045774
v 1.785554 -0.085190 -1.976217
v 1.825114 -0.085190 -1.897428
v 1.848542 -0.085190 -1.812435
v 1.854939 -0.085190 -1.724505
v 1.844060 -0.085190 -1.637017
v 1.816320 -0.085190 -1.553332
v 1.772789 -0.085190 -1.476667
v 1.715136 -0.085190 -1.409967
v 1.645579 -0.085190 -1.355797
v 1.566790 -0.085190 -1.316237
v 1.481798 -0.085190 -1.292809
v 1.393868 -0.085190 -1.286411
v 1.306380 -0.085190 -1.297291
v 1.222695 -0.085190 -1.325030
v 1.146029 -0.085190 -1.368562
v 1.079330 -0.085190 -1.426215
v 1.025160 -0.085190 -1.495772
v 0.985600 -0.085190 -1.574561
v 0.962171 -0.085190 -1.659553
v 0.955774 -0.085190 -1.747483
v 0.916180 -0.205256 -1.846358
v 0.947111 -0.205256 -1.939671
v 0.995651 -0.205256 -2.025157
v 1.059936 -0.205256 -2.099530
v 1.137496 -0.205256 -2.159934
v 1.225349 -0.205256 -2.204044
v 1.320120 -0.205256 -2.230169
v 1.418167 -0.205256 -2.237302
v 1.515721 -0.205256 -2.225171
v 1.609034 -0.205256 -2.194240
v 1.694520 -0.205256 -2.145700
v 1.768893 -0.205256 -2.081414
v 1.829296 -0.205256 -2.003855
v 1.873407 -0.205256 -1.916001
v 1.899532 -0.205256 -1.821230
v 1.906665 -0.205256 -1.723183
v 1.894533 -0.205256 -1.625630
v 1.863603 -0.205256 -1.532316
v 1.815062 -0.205256 -1.446831
v 1.750777 -0.205256 -1.372458
v 1.673217 -0.205256 -1.312054
v 1.585364 -0.205256 -1.267943
v 1.490593 -0.205256 -1.241819
v 1.392546 -0.205256 -1.234686
v 1.294992 -0.205256 -1.246818
v 1.201679 -0.205256 -1.277749
v 1.116193 -0.205256 -1.326289
v 1.041820 -0.205256 -1.390574
v 0.981417 -0.205256 -1.468133
v 0.937306 -0.205256 -1.555987
v 0.911182 -0.205256 -1.650758
v 0.904049 -0.205256 -1.748805
vn -0.9406 0.2650 -0.2122
vn -0.8728 0.4465 -0.1969
vn -0.8177 0.4465 -0.3634
vn -0.8811 0.2650 -0.3916
vn -0.7310 0.4465 -0.5159
vn -0.7878 0.2650 -0.5560
vn -0.6163 0.4465 -0.6487
vn -0.6642 0.2650 -0.6990
vn -0.4780 0.4465 -0.7564
vn -0.5150 0.2650 -0.8151
vn -0.3212 0.4465 -0.8351
vn -0.3461 0.2650 -0.9000
vn -0.1521 0.4465 -0.8818
vn -0.1639 0.2650 -0.9502
vn 0.0228 0.4465 -0.8945
vn 0.0246 0.2650 -0.9639
vn 0.1969 0.4465 -0.8728
vn 0.2122 0.2650 -0.9406
vn 0.3634 0.4465 -0.8177
vn 0.3916 0.2650 -0.8811
vn 0.5159 0.4465 -0.7310
vn 0.5560 0.2650 -0.7878
vn 0.6487 0.4465 -0.6163
vn 0.6990 0.2650 -0.6642
vn 0.7564 0.4465 -0.4780
vn 0.8151 0.2650 -0.5150
vn 0.8351 0.4465 -0.3212
vn 0.9000 0.2650 -0.3461
vn 0.8818 0.4465 -0.1521
vn 0.9502 0.2650 -0.1639
vn 0.8945 0.4465 0.0229
vn 0.9639 0.2650 0.0246
vn 0.8728 0.4465 0.1969
vn 0.9406 0.2650 0.2122
vn 0.8177 0.4465 0.3634
vn 0.8811 0.2650 0.3916
vn 0.7310 0.4465 0.5159
vn 0.7878 0.2650 0.5560
vn 0.6163 0.4465 0.6487
vn 0.6642 0.2650 0.6990
vn 0.4779 0.4465 0.7564
vn 0.5150 0.2650 0.8151
vn 0.3212 0.4465 0.8351
vn 0.3461 0.2650 0.9000
vn 0.1521 0.4465 0.8818
vn 0.1639 0.2650 0.9502
vn -0.0229 0.4465 0.8945
vn -0.0246 0.2650 0.9639
vn -0.1969 0.4465 0.8728
vn -0.2122 0.2650 0.9406
vn -0.3634 0.4465 0.8177
vn -0.3916 0.2650 0.8811
vn -0.5159 0.4465 0.7310
vn -0.5560 0.2650 0.7878
vn -0.6486 0.4465 0.6163
vn -0.6990 0.2650 0.6642
vn -0.7564 0.4465 0.4779
vn -0.8151 0.2650 0.5150
vn -0.8351 0.4465 0.3212
vn -0.9000 0.2650 0.3461
vn -0.8818 0.4465 0.1521
vn -0.9502 0.2650 0.1639
vn -0.6170 0.6554 -0.4355
vn -0.5202 0.6554 -0.5475
vn -0.8945 0.4465 -0.0229
vn -0.9639 0.2650 -0.0246
vn -0.7173 -0.6857 0.1237
vn -0.6794 -0.6857 0.2613
vn 0.4034 0.6554 0.6385
vn 0.5202 0.6554 0.5475
vn 0.1764 0.9666 0.1856
vn 0.1368 0.9666 0.2165
vn 0.5475 0.6554 -0.5202
vn 0.6385 0.6554 -0.4034
vn 0.2711 0.6554 0.7049
vn -0.7049 0.6554 0.2711
vn -0.7443 0.6554 0.1284
vn 0.0193 0.6554 -0.7550
vn 0.1662 0.6554 -0.7367
vn 0.7367 0.6554 0.1662
vn 0.6901 0.6554 0.3067
vn -0.3067 0.6554 0.6901
vn -0.4355 0.6554 0.6170
vn -0.4034 0.6554 -0.6385
vn 0.7049 0.6554 -0.2711
vn 0.1284 0.6554 0.7443
vn -0.7550 0.6554 -0.0193
vn 0.3067 0.6554 -0.6901
vn 0.6170 0.6554 0.4355
vn -0.5475 0.6554 0.5202
vn -0.2711 0.6554 -0.7049
vn 0.7443 0.6554 -0.1284
vn -0.0193 0.6554 0.7550
vn -0.7367 0.6554 -0.1662
vn -0.6901 0.6554 -0.3067
vn 0.4355 0.6554 -0.6170
vn -0.6384 0.6554 0.4034
vn -0.1284 0.6554 -0.7443
vn 0.7550 0.6554 0.0193
vn -0.1662 0.6554 0.7367
vn -0.2340 0.9666 -0.1040
vn -0.2498 0.9666 -0.0563
vn -0.2560 0.9666 -0.0065
vn -0.2524 0.9666 0.0435
vn -0.2390 0.9666 0.0919
vn -0.2165 0.9666 0.1368
vn -0.1856 0.9666 0.1764
vn -0.1477 0.9666 0.2092
vn -0.1040 0.9666 0.2340
vn -0.0563 0.9666 0.2498
vn -0.0065 0.9666 0.2560
vn 0.0435 0.9666 0.2524
vn 0.0919 0.9666 0.2391
vn 0.2092 0.9666 0.1477
vn 0.2340 0.9666 0.1040
vn 0.2498 0.9666 0.0563
vn 0.2560 0.9666 0.0065
vn 0.2524 0.9666 -0.0435
vn 0.2390 0.9666 -0.0919
vn 0.2165 0.9666 -0.1368
vn 0.1856 0.9666 -0.1764
vn 0.1477 0.9666 -0.2092
vn 0.1040 0.9666 -0.2340
vn 0.0564 0.9666 -0.2498
vn 0.0065 0.9666 -0.2560
vn -0.0435 0.9666 -0.2524
vn -0.0919 0.9666 -0.2390
vn -0.1368 0.9666 -0.2165
vn -0.1764 0.9666 -0.1856
vn -0.2092 0.9666 -0.1477
vn -0.7100 -0.6857 -0.1602
vn -0.6651 -0.6857 -0.2956
vn -0.5947 -0.6857 -0.4197
vn -0.5014 -0.6857 -0.5277
vn -0.3888 -0.6857 -0.6153
vn -0.2613 -0.6857 -0.6794
vn -0.1237 -0.6857 -0.7173
vn 0.0186 -0.6857 -0.7276
vn 0.1602 -0.6857 -0.7100
vn 0.2956 -0.6857 -0.6651
vn 0.4197 -0.6857 -0.5947
vn 0.5277 -0.6857 -0.5014
vn 0.6153 -0.6857 -0.3888
vn 0.6794 -0.6857 -0.2613
vn 0.7173 -0.6857 -0.1237
vn 0.7276 -0.6857 0.0186
vn 0.7100 -0.6857 0.1602
vn 0.6651 -0.6857 0.2956
vn 0.5947 -0.6857 0.4197
vn 0.5014 -0.6857 0.5277
vn 0.3888 -0.6857 0.6153
vn 0.2613 -0.6857 0.6794
vn 0.1237 -0.6857 0.7173
vn -0.0186 -0.6857 0.7276
vn -0.1602 -0.6857 0.7100
vn -0.2956 -0.6857 0.6651
vn -0.4197 -0.6857 0.5947
vn -0.5277 -0.6857 0.5014
vn -0.6153 -0.6857 0.3888
vn -0.7276 -0.6857 -0.0186
usemtl plastic_holder
s 1
f 1//1 2//2 4//3 3//4
f 3//4 4//3 6//5 5//6
f 5//6 6//5 8//7 7//8
f 7//8 8//7 10//9 9//10
f 9//10 10//9 12//11 11//12
f 11//12 12//11 14//13 13//14
f 13//14 14//13 16//15 15//16
f 15//16 16//15 18//17 17//18
f 17//18 18//17 20//19 19//20
f 19//20 20//19 22//21 21//22
f 21//22 22//21 24//23 23//24
f 23//24 24//23 26//25 25//26
f 25//26 26//25 28//27 27//28
f 27//28 28//27 30//29 29//30
f 29//30 30//29 32//31 31//32
f 31//32 32//31 34//33 33//34
f 33//34 34//33 36//35 35//36
f 35//36 36//35 38//37 37//38
f 37//38 38//37 40//39 39//40
f 39//40 40//39 42//41 41//42
f 41//42 42//41 44//43 43//44
f 43//44 44//43 46//45 45//46
f 45//46 46//45 48//47 47//48
f 47//48 48//47 50//49 49//50
f 49//50 50//49 52//51 51//52
f 51//52 52//51 54//53 53//54
f 53//54 54//53 56//55 55//56
f 55//56 56//55 58//57 57//58
f 57//58 58//57 60//59 59//60
f 59//60 60//59 62//61 61//62
f 8//7 6//5 67//63 68//64
f 61//62 62//61 64//65 63//66
f 63//66 64//65 2//2 1//1
f 59//60 61//62 159//67 158//68
f 85//69 84//70 116//71 117//72
f 26//25 24//23 76//73 77//74
f 44//43 42//41 85//69 86//75
f 62//61 60//59 94//76 95//77
f 18//17 16//15 72//78 73//79
f 36//35 34//33 81//80 82//81
f 54//53 52//51 90//82 91//83
f 10//9 8//7 68//64 69//84
f 28//27 26//25 77//74 78//85
f 46//45 44//43 86//75 87//86
f 64//65 62//61 95//77 96//87
f 20//19 18//17 73//79 74//88
f 38//37 36//35 82//81 83//89
f 56//55 54//53 91//83 92//90
f 12//11 10//9 69//84 70//91
f 30//29 28//27 78//85 79//92
f 48//47 46//45 87//86 88//93
f 4//3 2//2 65//94 66//95
f 2//2 64//65 96//87 65//94
f 22//21 20//19 74//88 75//96
f 40//39 38//37 83//89 84//70
f 58//57 56//55 92//90 93//97
f 14//13 12//11 70//91 71//98
f 32//31 30//29 79//92 80//99
f 50//49 48//47 88//93 89//100
f 6//5 4//3 66//95 67//63
f 24//23 22//21 75//96 76//73
f 42//41 40//39 84//70 85//69
f 60//59 58//57 93//97 94//76
f 16//15 14//13 71//98 72//78
f 34//33 32//31 80//99 81//80
f 52//51 50//49 89//100 90//82
f 98//101 97//102 128//103 127//104 126//105 125//106 124//107 123//108 122//109 121//110 120//111 119//112 118//113 117//72 116//71 115//114 114//115 113//116 112//117 111//118 110//119 109//120 108//121 107//122 106//123 105//124 104//125 103//126 102//127 101//128 100//129 99//130
f 72//78 71//98 103//126 104//125
f 86//75 85//69 117//72 118//113
f 73//79 72//78 104//125 105//124
f 87//86 86//75 118//113 119//112
f 74//88 73//79 105//124 106//123
f 88//93 87//86 119//112 120//111
f 75//96 74//88 106//123 107//122
f 89//100 88//93 120//111 121//110
f 76//73 75//96 107//122 108//121
f 90//82 89//100 121//110 122//109
f 77//74 76//73 108//121 109//120
f 91//83 90//82 122//109 123//108
f 78//85 77//74 109//120 110//119
f 92//90 91//83 123//108 124//107
f 79//92 78//85 110//119 111//118
f 66//95 65//94 97//102 98//101
f 93//97 92//90 124//107 125//106
f 80//99 79//92 111//118 112//117
f 67//63 66//95 98//101 99//130
f 94//76 93//97 125//106 126//105
f 81//80 80//99 112//117 113//116
f 68//64 67//63 99//130 100//129
f 95//77 94//76 126//105 127//104
f 82//81 81//80 113//116 114//115
f 69//84 68//64 100//129 101//128
f 96//87 95//77 127//104 128//103
f 83//89 82//81 114//115 115//114
f 70//91 69//84 101//128 102//127
f 65//94 96//87 128//103 97//102
f 84//70 83//89 115//114 116//71
f 71//98 70//91 102//127 103//126
f 129//131 130//132 131//133 132//134 133//135 134//136 135//137 136//138 137//139 138//140 139//141 140//142 141//143 142//144 143//145 144//146 145//147 146//148 147//149 148//150 149//151 150//152 151//153 152//154 153//155 154//156 155//157 156//158 157//159 158//68 159//67 160//160
f 15//16 17//18 137//139 136//138
f 33//34 35//36 146//148 145//147
f 51//52 53//54 155//157 154//156
f 7//8 9//10 133//135 132//134
f 25//26 27//28 142//144 141//143
f 43//44 45//46 151//153 150//152
f 61//62 63//66 160//160 159//67
f 17//18 19//20 138//140 137//139
f 35//36 37//38 147//149 146//148
f 53//54 55//56 156//158 155//157
f 9//10 11//12 134//136 133//135
f 27//28 29//30 143//145 142//144
f 45//46 47//48 152//154 151//153
f 1//1 3//4 130//132 129//131
f 63//66 1//1 129//131 160//160
f 19//20 21//22 139//141 138//140
f 37//38 39//40 148//150 147//149
f 55//56 57//58 157//159 156//158
f 11//12 13//14 135//137 134//136
f 29//30 31//32 144//146 143//145
f 47//48 49//50 153//155 152//154
f 3//4 5//6 131//133 130//132
f 21//22 23//24 140//142 139//141
f 39//40 41//42 149//151 148//150
f 57//58 59//60 158//68 157//159
f 13//14 15//16 136//138 135//137
f 31//32 33//34 145//147 144//146
f 49//50 51//52 154//156 153//155
f 5//6 7//8 132//134 131//133
f 23//24 25//26 141//143 140//142
f 41//42 43//44 150//152 149//151
