# Blender v2.78 (sub 0) OBJ File: 'cup_of_tea.blend'
# www.blender.org
mtllib cup_of_tea.mtl
o Cylinder.002
v -0.209805 0.365773 -1.689132
v -0.217276 0.365773 -1.765831
v -0.209640 0.365773 -1.842515
v -0.187190 0.365773 -1.916234
v -0.150790 0.365773 -1.984158
v -0.101838 0.365773 -2.043675
v -0.042215 0.365773 -2.092499
v 0.025788 0.365773 -2.128752
v 0.099556 0.365773 -2.151043
v 0.176255 0.365773 -2.158514
v 0.252939 0.365773 -2.150877
v 0.326659 0.365773 -2.128427
v 0.394583 0.365773 -2.092027
v 0.454100 0.365773 -2.043075
v 0.502923 0.365773 -1.983452
v 0.539177 0.365773 -1.915449
v 0.561467 0.365773 -1.841681
v 0.568937 0.365773 -1.764981
v 0.561301 0.365773 -1.688298
v 0.538851 0.365773 -1.614578
v 0.502451 0.365773 -1.546654
v 0.453499 0.365773 -1.487137
v 0.393876 0.365773 -1.438314
v 0.325873 0.365773 -1.402060
v 0.252105 0.365773 -1.379770
v 0.175405 0.365773 -1.372299
v 0.098722 0.365773 -1.379936
v 0.025002 0.365773 -1.402386
v -0.042922 0.365773 -1.438786
v -0.102439 0.365773 -1.487739
v -0.151262 0.365773 -1.547362
v -0.187516 0.365773 -1.615364
v -0.161097 0.151491 -1.626274
v -0.127480 0.151491 -1.563215
v -0.082206 0.151491 -1.507928
v -0.027016 0.151491 -1.462534
v 0.035969 0.151491 -1.428781
v 0.104329 0.151491 -1.407963
v 0.175436 0.151491 -1.400882
v 0.246559 0.151491 -1.407809
v 0.314964 0.151491 -1.428479
v 0.378022 0.151491 -1.462096
v 0.433310 0.151491 -1.507370
v 0.478703 0.151491 -1.562560
v 0.512457 0.151491 -1.625545
v 0.533274 0.151491 -1.693905
v 0.540355 0.151491 -1.765012
v 0.533428 0.151491 -1.836135
v 0.512758 0.151491 -1.904540
v 0.479141 0.151491 -1.967598
v 0.433867 0.151491 -2.022886
v 0.378677 0.151491 -2.068279
v 0.315692 0.151491 -2.102033
v 0.247332 0.151491 -2.122850
v 0.176225 0.151491 -2.129931
v 0.105102 0.151491 -2.123004
v 0.036697 0.151491 -2.102334
v -0.026361 0.151491 -2.068717
v -0.081649 0.151491 -2.023443
v -0.127041 0.151491 -1.968253
v -0.160796 0.151491 -1.905268
v -0.181613 0.151491 -1.836908
v -0.188694 0.151491 -1.765800
v -0.181767 0.151491 -1.694678
v -0.133276 0.000461 -1.637762
v -0.102435 0.000461 -1.579911
v -0.060899 0.000461 -1.529188
v -0.010267 0.000461 -1.487544
v 0.047518 0.000461 -1.456577
v 0.110233 0.000461 -1.437478
v 0.175469 0.000461 -1.430982
v 0.240719 0.000461 -1.437337
v 0.303475 0.000461 -1.456300
v 0.361326 0.000461 -1.487141
v 0.412049 0.000461 -1.528677
v 0.453694 0.000461 -1.579309
v 0.484660 0.000461 -1.637093
v 0.503759 0.000461 -1.699809
v 0.510255 0.000461 -1.765045
v 0.503900 0.000461 -1.830295
v 0.484937 0.000461 -1.893051
v 0.454095 0.000461 -1.950902
v 0.412560 0.000461 -2.001625
v 0.361928 0.000461 -2.043270
v 0.304143 0.000461 -2.074236
v 0.241428 0.000461 -2.093335
v 0.176192 0.000461 -2.099831
v 0.110942 0.000461 -2.093476
v 0.048186 0.000461 -2.074513
v -0.009665 0.000461 -2.043671
v -0.060388 0.000461 -2.002136
v -0.102032 0.000461 -1.951504
v -0.132999 0.000461 -1.893719
v -0.152098 0.000461 -1.831004
v -0.158594 0.000461 -1.765768
v -0.152239 0.000461 -1.700518
v -0.110571 -0.074409 -1.647138
v -0.081995 -0.074409 -1.593537
v -0.043510 -0.074409 -1.546540
v 0.003403 -0.074409 -1.507954
v 0.056943 -0.074409 -1.479262
v 0.115051 -0.074409 -1.461566
v 0.175495 -0.074409 -1.455547
v 0.235952 -0.074409 -1.461435
v 0.294099 -0.074409 -1.479005
v 0.347701 -0.074409 -1.507581
v 0.394697 -0.074409 -1.546066
v 0.433283 -0.074409 -1.592979
v 0.461975 -0.074409 -1.646519
v 0.479671 -0.074409 -1.704627
v 0.485690 -0.074409 -1.765071
v 0.479802 -0.074409 -1.825529
v 0.462232 -0.074409 -1.883675
v 0.433656 -0.074409 -1.937277
v 0.395171 -0.074409 -1.984273
v 0.348258 -0.074409 -2.022859
v 0.294718 -0.074409 -2.051551
v 0.236610 -0.074409 -2.069247
v 0.176166 -0.074409 -2.075266
v 0.115708 -0.074409 -2.069377
v 0.057562 -0.074409 -2.051807
v 0.003960 -0.074409 -2.023231
v -0.043036 -0.074409 -1.984747
v -0.081622 -0.074409 -1.937834
v -0.110314 -0.074409 -1.884294
v -0.128010 -0.074409 -1.826186
v -0.134029 -0.074409 -1.765741
v -0.128140 -0.074409 -1.705284
v -0.096205 -0.083108 -1.653070
v -0.069062 -0.083108 -1.602157
v -0.032508 -0.083108 -1.557518
v 0.012052 -0.083108 -1.520867
v 0.062906 -0.083108 -1.493615
v 0.118100 -0.083108 -1.476807
v 0.175512 -0.083108 -1.471089
v 0.232937 -0.083108 -1.476682
v 0.288167 -0.083108 -1.493371
v 0.339080 -0.083108 -1.520514
v 0.383719 -0.083108 -1.557068
v 0.420370 -0.083108 -1.601628
v 0.447622 -0.083108 -1.652482
v 0.464430 -0.083108 -1.707676
v 0.470148 -0.083108 -1.765088
v 0.464555 -0.083108 -1.822513
v 0.447866 -0.083108 -1.877743
v 0.420723 -0.083108 -1.928656
v 0.384169 -0.083108 -1.973295
v 0.339609 -0.083108 -2.009946
v 0.288755 -0.083108 -2.037199
v 0.233561 -0.083108 -2.054007
v 0.176149 -0.083108 -2.059724
v 0.118724 -0.083108 -2.054131
v 0.063494 -0.083108 -2.037442
v 0.012581 -0.083108 -2.010299
v -0.032058 -0.083108 -1.973745
v -0.068708 -0.083108 -1.929185
v -0.095961 -0.083108 -1.878331
v -0.112769 -0.083108 -1.823137
v -0.118487 -0.083108 -1.765725
v -0.112893 -0.083108 -1.708300
v -0.211309 0.373225 -1.688834
v -0.218809 0.373225 -1.765833
v -0.211143 0.373225 -1.842815
v -0.188606 0.373225 -1.916823
v -0.152063 0.373225 -1.985011
v -0.102920 0.373225 -2.044761
v -0.043065 0.373225 -2.093775
v 0.025203 0.373225 -2.130169
v 0.099259 0.373225 -2.152547
v 0.176257 0.373225 -2.160046
v 0.253239 0.373225 -2.152380
v 0.327247 0.373225 -2.129843
v 0.395436 0.373225 -2.093301
v 0.455185 0.373225 -2.044157
v 0.504199 0.373225 -1.984302
v 0.540593 0.373225 -1.916034
v 0.562971 0.373225 -1.841978
v 0.570470 0.373225 -1.764980
v 0.562804 0.373225 -1.687997
v 0.540267 0.373225 -1.613990
v 0.503724 0.373225 -1.545801
v 0.454581 0.373225 -1.486052
v 0.394726 0.373225 -1.437038
v 0.326458 0.373225 -1.400643
v 0.252402 0.373225 -1.378266
v 0.175404 0.373225 -1.370767
v 0.098421 0.373225 -1.378433
v 0.024414 0.373225 -1.400970
v -0.043775 0.373225 -1.437513
v -0.103524 0.373225 -1.486656
v -0.152538 0.373225 -1.546512
v -0.188933 0.373225 -1.614779
v -0.207159 0.370505 -1.689655
v -0.214578 0.370505 -1.765828
v -0.206994 0.370505 -1.841985
v -0.184699 0.370505 -1.915199
v -0.148548 0.370505 -1.982657
v -0.099932 0.370505 -2.041766
v -0.040718 0.370505 -2.090254
v 0.026817 0.370505 -2.126259
v 0.100079 0.370505 -2.148396
v 0.176252 0.370505 -2.155815
v 0.252409 0.370505 -2.148231
v 0.325623 0.370505 -2.125936
v 0.393081 0.370505 -2.089785
v 0.452190 0.370505 -2.041169
v 0.500678 0.370505 -1.981955
v 0.536682 0.370505 -1.914419
v 0.558820 0.370505 -1.841157
v 0.566239 0.370505 -1.764984
v 0.558655 0.370505 -1.688827
v 0.536360 0.370505 -1.615613
v 0.500209 0.370505 -1.548156
v 0.451593 0.370505 -1.489047
v 0.392379 0.370505 -1.440559
v 0.324843 0.370505 -1.404554
v 0.251581 0.370505 -1.382417
v 0.175408 0.370505 -1.374998
v 0.099251 0.370505 -1.382582
v 0.026037 0.370505 -1.404878
v -0.041420 0.370505 -1.441028
v -0.100529 0.370505 -1.489644
v -0.149017 0.370505 -1.548858
v -0.185022 0.370505 -1.616394
vn -0.6979 -0.1673 0.6964
vn -0.6983 -0.1636 0.6968
vn -0.5490 -0.1636 0.8197
vn -0.5486 -0.1673 0.8191
vn 0.9113 -0.1673 -0.3763
vn 0.9118 -0.1636 -0.3765
vn 0.8209 -0.1636 -0.5472
vn 0.8203 -0.1673 -0.5468
vn -0.9672 -0.1673 0.1913
vn -0.9678 -0.1636 0.1914
vn -0.9118 -0.1636 0.3765
vn -0.9113 -0.1673 0.3763
vn -0.3782 -0.1673 0.9104
vn -0.3785 -0.1636 0.9110
vn -0.1935 -0.1636 0.9673
vn -0.1934 -0.1673 0.9667
vn 0.6979 -0.1673 -0.6964
vn 0.6983 -0.1636 -0.6968
vn 0.5490 -0.1636 -0.8197
vn 0.5486 -0.1673 -0.8191
vn -0.1913 -0.1673 -0.9672
vn -0.1169 0.7982 -0.5908
vn 0.0006 0.7982 -0.6023
vn 0.0010 -0.1673 -0.9859
vn -0.8203 -0.1673 0.5468
vn -0.8209 -0.1636 0.5472
vn 0.3765 -0.1636 0.9118
vn 0.3692 -0.2531 0.8942
vn 0.5366 -0.2531 0.8050
vn 0.5472 -0.1636 0.8209
vn -0.9104 -0.1673 -0.3782
vn -0.9110 -0.1636 -0.3785
vn -0.9673 -0.1636 -0.1935
vn -0.9667 -0.1673 -0.1934
vn 0.3785 -0.1636 -0.9110
vn 0.3782 -0.1673 -0.9104
vn 0.6964 -0.1673 0.6979
vn 0.6968 -0.1636 0.6983
vn 0.8197 -0.1636 0.5490
vn 0.8191 -0.1673 0.5486
vn -0.1914 -0.1636 -0.9678
vn -0.3765 -0.1636 -0.9118
vn -0.3763 -0.1673 -0.9113
vn 0.9859 -0.1673 0.0010
vn 0.9865 -0.1636 0.0010
vn 0.9678 -0.1636 -0.1914
vn 0.9672 -0.1673 -0.1913
vn -0.0010 -0.1636 0.9865
vn -0.0010 -0.1673 0.9859
vn -0.8191 -0.1673 -0.5486
vn -0.8197 -0.1636 -0.5490
vn 0.5468 -0.1673 0.8203
vn 0.0010 -0.1636 -0.9865
vn 0.9667 -0.1673 0.1934
vn 0.9673 -0.1636 0.1935
vn -0.6964 -0.1673 -0.6979
vn -0.6968 -0.1636 -0.6983
vn 0.3763 -0.1673 0.9113
vn -0.9859 -0.1673 -0.0010
vn -0.9865 -0.1636 -0.0010
vn 0.1934 -0.1673 -0.9667
vn 0.1935 -0.1636 -0.9673
vn 0.9104 -0.1673 0.3782
vn 0.9110 -0.1636 0.3785
vn -0.5468 -0.1673 -0.8203
vn -0.5472 -0.1636 -0.8209
vn 0.1913 -0.1673 0.9672
vn 0.1914 -0.1636 0.9678
vn 0.8038 -0.2531 0.5383
vn 0.6488 -0.6247 0.4345
vn 0.7211 -0.6247 0.2996
vn 0.8934 -0.2531 0.3712
vn -0.8038 -0.2531 -0.5383
vn -0.8934 -0.2531 -0.3712
vn -0.8050 -0.2531 0.5366
vn -0.6848 -0.2531 0.6833
vn -0.1897 -0.2531 0.9486
vn -0.0010 -0.2531 0.9674
vn -0.9486 -0.2531 -0.1897
vn -0.5383 -0.2531 0.8038
vn -0.3712 -0.2531 0.8934
vn -0.9674 -0.2531 -0.0010
vn 0.1877 -0.2531 0.9490
vn -0.9490 -0.2531 0.1877
vn -0.8942 -0.2531 0.3692
vn -0.5366 -0.2531 -0.8050
vn -0.6833 -0.2531 -0.6848
vn 0.6833 -0.2531 0.6848
vn -0.3692 -0.2531 -0.8942
vn 0.0010 -0.2531 -0.9674
vn -0.1877 -0.2531 -0.9490
vn 0.9486 -0.2531 0.1897
vn 0.9674 -0.2531 0.0010
vn 0.3712 -0.2531 -0.8934
vn 0.1897 -0.2531 -0.9486
vn 0.8942 -0.2531 -0.3692
vn 0.8050 -0.2531 -0.5366
vn 0.6848 -0.2531 -0.6833
vn 0.5383 -0.2531 -0.8038
vn 0.9490 -0.2531 -0.1877
vn 0.6497 -0.6247 -0.4331
vn 0.2222 -0.9637 -0.1481
vn 0.1890 -0.9637 -0.1886
vn 0.5528 -0.6247 -0.5516
vn 0.0008 -0.6247 -0.7809
vn -0.1515 -0.6247 -0.7660
vn 0.7657 -0.6247 0.1531
vn 0.7809 -0.6247 0.0008
vn 0.2996 -0.6247 -0.7211
vn 0.1531 -0.6247 -0.7657
vn 0.7217 -0.6247 -0.2980
vn 0.4345 -0.6247 -0.6488
vn 0.7660 -0.6247 -0.1515
vn -0.2980 -0.6247 -0.7217
vn 0.5516 -0.6247 0.5528
vn -0.5516 -0.6247 -0.5528
vn -0.6488 -0.6247 -0.4345
vn -0.7660 -0.6247 0.1515
vn -0.7217 -0.6247 0.2980
vn 0.2980 -0.6247 0.7217
vn 0.4331 -0.6247 0.6497
vn -0.7211 -0.6247 -0.2996
vn -0.6497 -0.6247 0.4331
vn -0.5528 -0.6247 0.5516
vn -0.1531 -0.6247 0.7657
vn -0.0008 -0.6247 0.7809
vn -0.7657 -0.6247 -0.1531
vn -0.4345 -0.6247 0.6488
vn -0.2996 -0.6247 0.7211
vn -0.7809 -0.6247 -0.0008
vn 0.1515 -0.6247 0.7660
vn -0.4331 -0.6247 -0.6497
vn -0.2670 -0.9637 -0.0003
vn -0.2618 -0.9637 -0.0524
vn -0.2466 -0.9637 -0.1025
vn -0.2218 -0.9637 -0.1486
vn -0.1886 -0.9637 -0.1890
vn -0.1481 -0.9637 -0.2222
vn -0.1019 -0.9637 -0.2468
vn -0.0518 -0.9637 -0.2619
vn 0.0003 -0.9637 -0.2670
vn 0.0524 -0.9637 -0.2618
vn 0.1025 -0.9637 -0.2466
vn 0.1486 -0.9637 -0.2219
vn 0.2468 -0.9637 -0.1019
vn 0.2619 -0.9637 -0.0518
vn 0.2670 -0.9637 0.0003
vn 0.2618 -0.9637 0.0524
vn 0.2466 -0.9637 0.1025
vn 0.2218 -0.9637 0.1486
vn 0.1886 -0.9637 0.1890
vn 0.1481 -0.9637 0.2222
vn 0.1019 -0.9637 0.2468
vn 0.0518 -0.9637 0.2619
vn -0.0003 -0.9637 0.2670
vn -0.0524 -0.9637 0.2618
vn -0.1025 -0.9637 0.2466
vn -0.1486 -0.9637 0.2218
vn -0.1890 -0.9637 0.1886
vn -0.2222 -0.9637 0.1481
vn -0.2468 -0.9637 0.1019
vn -0.2619 -0.9637 0.0518
vn 0.5567 0.7982 -0.2299
vn -0.2753 0.9546 0.1137
vn -0.2922 0.9546 0.0578
vn 0.5908 0.7982 -0.1169
vn 0.3341 0.7982 0.5011
vn 0.2299 0.7982 0.5567
vn 0.1181 0.7982 -0.5906
vn 0.1169 0.7982 0.5908
vn 0.2311 0.7982 -0.5562
vn -0.0006 0.7982 0.6023
vn 0.3352 0.7982 -0.5004
vn -0.1181 0.7982 0.5906
vn 0.4263 0.7982 -0.4254
vn -0.2311 0.7982 0.5562
vn 0.5011 0.7982 -0.3341
vn -0.5909 0.7982 0.1169
vn -0.6023 0.7982 -0.0006
vn -0.3352 0.7982 0.5004
vn -0.5906 0.7982 -0.1181
vn -0.4263 0.7982 0.4254
vn -0.5562 0.7982 -0.2311
vn -0.5011 0.7982 0.3341
vn 0.6023 0.7982 0.0006
vn -0.5004 0.7982 -0.3352
vn -0.5567 0.7982 0.2299
vn 0.5906 0.7982 0.1181
vn -0.4254 0.7982 -0.4263
vn 0.5562 0.7982 0.2311
vn -0.3341 0.7982 -0.5011
vn 0.5004 0.7982 0.3352
vn -0.2299 0.7982 -0.5567
vn 0.4254 0.7982 0.4263
vn 0.2979 0.9546 0.0003
vn 0.2922 0.9546 -0.0578
vn 0.2753 0.9546 -0.1137
vn 0.2478 0.9546 -0.1652
vn 0.2109 0.9546 -0.2104
vn 0.1657 0.9546 -0.2475
vn 0.1143 0.9546 -0.2751
vn 0.0584 0.9546 -0.2921
vn 0.0003 0.9546 -0.2979
vn -0.0578 0.9546 -0.2922
vn -0.1137 0.9546 -0.2753
vn -0.1652 0.9546 -0.2478
vn -0.2104 0.9546 -0.2108
vn -0.2475 0.9546 -0.1657
vn -0.2751 0.9546 -0.1143
vn -0.2921 0.9546 -0.0584
vn -0.2979 0.9546 -0.0003
vn -0.2478 0.9546 0.1652
vn -0.2108 0.9546 0.2104
vn -0.1657 0.9546 0.2475
vn -0.1143 0.9546 0.2751
vn -0.0584 0.9546 0.2921
vn -0.0003 0.9546 0.2979
vn 0.0578 0.9546 0.2922
vn 0.1137 0.9546 0.2753
vn 0.1652 0.9546 0.2478
vn 0.2104 0.9546 0.2108
vn 0.2475 0.9546 0.1657
vn 0.2751 0.9546 0.1143
vn 0.2921 0.9546 0.0584
usemtl tea
s 1
f 30//1 35//2 36//3 29//4
f 16//5 49//6 50//7 15//8
f 1//9 64//10 33//11 32//12
f 28//13 37//14 38//15 27//16
f 14//17 51//18 52//19 13//20
f 9//21 169//22 170//23 10//24
f 31//25 34//26 35//2 30//1
f 41//27 73//28 74//29 42//30
f 4//31 61//32 62//33 3//34
f 13//20 52//19 53//35 12//36
f 22//37 43//38 44//39 21//40
f 9//21 56//41 57//42 8//43
f 18//44 47//45 48//46 17//47
f 27//16 38//15 39//48 26//49
f 5//50 60//51 61//32 4//31
f 23//52 42//30 43//38 22//37
f 32//12 33//11 34//26 31//25
f 10//24 55//53 56//41 9//21
f 19//54 46//55 47//45 18//44
f 6//56 59//57 60//51 5//50
f 15//8 50//7 51//18 14//17
f 24//58 41//27 42//30 23//52
f 2//59 63//60 64//10 1//9
f 11//61 54//62 55//53 10//24
f 20//63 45//64 46//55 19//54
f 29//4 36//3 37//14 28//13
f 7//65 58//66 59//57 6//56
f 25//67 40//68 41//27 24//58
f 3//34 62//33 63//60 2//59
f 12//36 53//35 54//62 11//61
f 21//40 44//39 45//64 20//63
f 8//43 57//42 58//66 7//65
f 17//47 48//46 49//6 16//5
f 26//49 39//48 40//68 25//67
f 76//69 108//70 109//71 77//72
f 60//51 92//73 93//74 61//32
f 34//26 66//75 67//76 35//2
f 38//15 70//77 71//78 39//48
f 61//32 93//74 94//79 62//33
f 36//3 68//80 69//81 37//14
f 37//14 69//81 70//77 38//15
f 62//33 94//79 95//82 63//60
f 39//48 71//78 72//83 40//68
f 35//2 67//76 68//80 36//3
f 63//60 95//82 96//84 64//10
f 40//68 72//83 73//28 41//27
f 33//11 65//85 66//75 34//26
f 58//66 90//86 91//87 59//57
f 42//30 74//29 75//88 43//38
f 57//42 89//89 90//86 58//66
f 44//39 76//69 77//72 45//64
f 55//53 87//90 88//91 56//41
f 46//55 78//92 79//93 47//45
f 53//35 85//94 86//95 54//62
f 49//6 81//96 82//97 50//7
f 51//18 83//98 84//99 52//19
f 50//7 82//97 83//98 51//18
f 48//46 80//100 81//96 49//6
f 52//19 84//99 85//94 53//35
f 47//45 79//93 80//100 48//46
f 54//62 86//95 87//90 55//53
f 45//64 77//72 78//92 46//55
f 56//41 88//91 89//89 57//42
f 43//38 75//88 76//69 44//39
f 59//57 91//87 92//73 60//51
f 64//10 96//84 65//85 33//11
f 114//101 146//102 147//103 115//104
f 87//90 119//105 120//106 88//91
f 78//92 110//107 111//108 79//93
f 85//94 117//109 118//110 86//95
f 81//96 113//111 114//101 82//97
f 83//98 115//104 116//112 84//99
f 82//97 114//101 115//104 83//98
f 80//100 112//113 113//111 81//96
f 84//99 116//112 117//109 85//94
f 79//93 111//108 112//113 80//100
f 86//95 118//110 119//105 87//90
f 77//72 109//71 110//107 78//92
f 88//91 120//106 121//114 89//89
f 75//88 107//115 108//70 76//69
f 91//87 123//116 124//117 92//73
f 96//84 128//118 97//119 65//85
f 73//28 105//120 106//121 74//29
f 92//73 124//117 125//122 93//74
f 66//75 98//123 99//124 67//76
f 70//77 102//125 103//126 71//78
f 93//74 125//122 126//127 94//79
f 68//80 100//128 101//129 69//81
f 69//81 101//129 102//125 70//77
f 94//79 126//127 127//130 95//82
f 71//78 103//126 104//131 72//83
f 67//76 99//124 100//128 68//80
f 95//82 127//130 128//118 96//84
f 72//83 104//131 105//120 73//28
f 65//85 97//119 98//123 66//75
f 90//86 122//132 123//116 91//87
f 74//29 106//121 107//115 75//88
f 89//89 121//114 122//132 90//86
f 159//133 158//134 157//135 156//136 155//137 154//138 153//139 152//140 151//141 150//142 149//143 148//144 147//103 146//102 145//145 144//146 143//147 142//148 141//149 140//150 139//151 138//152 137//153 136//154 135//155 134//156 133//157 132//158 131//159 130//160 129//161 160//162
f 112//113 144//146 145//145 113//111
f 116//112 148//144 149//143 117//109
f 111//108 143//147 144//146 112//113
f 118//110 150//142 151//141 119//105
f 109//71 141//149 142//148 110//107
f 120//106 152//140 153//139 121//114
f 107//115 139//151 140//150 108//70
f 123//116 155//137 156//136 124//117
f 128//118 160//162 129//161 97//119
f 105//120 137//153 138//152 106//121
f 124//117 156//136 157//135 125//122
f 98//123 130//160 131//159 99//124
f 102//125 134//156 135//155 103//126
f 125//122 157//135 158//134 126//127
f 100//128 132//158 133//157 101//129
f 101//129 133//157 134//156 102//125
f 126//127 158//134 159//133 127//130
f 103//126 135//155 136//154 104//131
f 99//124 131//159 132//158 100//128
f 127//130 159//133 160//162 128//118
f 104//131 136//154 137//153 105//120
f 97//119 129//161 130//160 98//123
f 122//132 154//138 155//137 123//116
f 106//121 138//152 139//151 107//115
f 121//114 153//139 154//138 122//132
f 108//70 140//150 141//149 109//71
f 119//105 151//141 152//140 120//106
f 110//107 142//148 143//147 111//108
f 117//109 149//143 150//142 118//110
f 113//111 145//145 146//102 114//101
f 115//104 147//103 148//144 116//112
f 176//163 208//164 209//165 177//166
f 23//52 183//167 184//168 24//58
f 10//24 170//23 171//169 11//61
f 24//58 184//168 185//170 25//67
f 11//61 171//169 172//171 12//36
f 25//67 185//170 186//172 26//49
f 12//36 172//171 173//173 13//20
f 26//49 186//172 187//174 27//16
f 13//20 173//173 174//175 14//17
f 27//16 187//174 188//176 28//13
f 14//17 174//175 175//177 15//8
f 1//9 161//178 162//179 2//59
f 28//13 188//176 189//180 29//4
f 15//8 175//177 176//163 16//5
f 2//59 162//179 163//181 3//34
f 29//4 189//180 190//182 30//1
f 16//5 176//163 177//166 17//47
f 3//34 163//181 164//183 4//31
f 30//1 190//182 191//184 31//25
f 17//47 177//166 178//185 18//44
f 4//31 164//183 165//186 5//50
f 31//25 191//184 192//187 32//12
f 18//44 178//185 179//188 19//54
f 5//50 165//186 166//189 6//56
f 32//12 192//187 161//178 1//9
f 19//54 179//188 180//190 20//63
f 6//56 166//189 167//191 7//65
f 20//63 180//190 181//192 21//40
f 7//65 167//191 168//193 8//43
f 21//40 181//192 182//194 22//37
f 8//43 168//193 169//22 9//21
f 22//37 182//194 183//167 23//52
f 194//195 193//196 224//197 223//198 222//199 221//200 220//201 219//202 218//203 217//204 216//205 215//206 214//207 213//208 212//209 211//210 210//211 209//165 208//164 207//212 206//213 205//214 204//215 203//216 202//217 201//218 200//219 199//220 198//221 197//222 196//223 195//224
f 163//181 195//224 196//223 164//183
f 190//182 222//199 223//198 191//184
f 177//166 209//165 210//211 178//185
f 164//183 196//223 197//222 165//186
f 191//184 223//198 224//197 192//187
f 178//185 210//211 211//210 179//188
f 165//186 197//222 198//221 166//189
f 192//187 224//197 193//196 161//178
f 179//188 211//210 212//209 180//190
f 166//189 198//221 199//220 167//191
f 180//190 212//209 213//208 181//192
f 167//191 199//220 200//219 168//193
f 181//192 213//208 214//207 182//194
f 168//193 200//219 201//218 169//22
f 182//194 214//207 215//206 183//167
f 169//22 201//218 202//217 170//23
f 183//167 215//206 216//205 184//168
f 170//23 202//217 203//216 171//169
f 184//168 216//205 217//204 185//170
f 171//169 203//216 204//215 172//171
f 185//170 217//204 218//203 186//172
f 172//171 204//215 205//214 173//173
f 186//172 218//203 219//202 187//174
f 173//173 205//214 206//213 174//175
f 187//174 219//202 220//201 188//176
f 174//175 206//213 207//212 175//177
f 161//178 193//196 194//195 162//179
f 188//176 220//201 221//200 189//180
f 175//177 207//212 208//164 176//163
f 162//179 194//195 195//224 163//181
f 189//180 221//200 222//199 190//182
