# Blender v2.78 (sub 0) OBJ File: 'cup_of_tea.blend'
# www.blender.org
mtllib cup_of_tea.mtl
o Cylinder
v -0.369728 0.354958 1.138872
v -0.293036 0.354958 1.146425
v -0.219292 0.354958 1.168795
v -0.151329 0.354958 1.205122
v -0.091759 0.354958 1.254010
v -0.042871 0.354958 1.313580
v -0.006544 0.354958 1.381543
v 0.015826 0.354958 1.455287
v 0.023380 0.354958 1.531979
v 0.015826 0.354958 1.608670
v -0.006544 0.354958 1.682414
v -0.042871 0.354958 1.750377
v -0.091759 0.354958 1.809948
v -0.151329 0.354958 1.858836
v -0.219292 0.354958 1.895162
v -0.293036 0.354958 1.917532
v -0.369728 0.354958 1.925086
v -0.446419 0.354958 1.917532
v -0.520163 0.354958 1.895162
v -0.588127 0.354958 1.858835
v -0.647697 0.354958 1.809947
v -0.696585 0.354958 1.750377
v -0.732911 0.354958 1.682414
v -0.755282 0.354958 1.608670
v -0.762835 0.354958 1.531978
v -0.755281 0.354958 1.455287
v -0.732911 0.354958 1.381543
v -0.696584 0.354958 1.313580
v -0.647696 0.354958 1.254010
v -0.588126 0.354958 1.205122
v -0.520163 0.354958 1.168795
v -0.446418 0.354958 1.146425
v -0.440842 0.140676 1.174458
v -0.509225 0.140676 1.195201
v -0.572246 0.140676 1.228887
v -0.627485 0.140676 1.274220
v -0.672819 0.140676 1.329459
v -0.706505 0.140676 1.392481
v -0.727248 0.140676 1.460863
v -0.734253 0.140676 1.531978
v -0.727248 0.140676 1.603094
v -0.706505 0.140676 1.671476
v -0.672819 0.140676 1.734498
v -0.627486 0.140676 1.789737
v -0.572247 0.140676 1.835070
v -0.509225 0.140676 1.868756
v -0.440843 0.140676 1.889499
v -0.369728 0.140676 1.896504
v -0.298612 0.140676 1.889499
v -0.230230 0.140676 1.868756
v -0.167209 0.140676 1.835070
v -0.111970 0.140676 1.789737
v -0.066636 0.140676 1.734498
v -0.032951 0.140676 1.671476
v -0.012207 0.140676 1.603094
v -0.005203 0.140676 1.531979
v -0.012207 0.140676 1.460863
v -0.032951 0.140676 1.392481
v -0.066636 0.140676 1.329460
v -0.111970 0.140676 1.274221
v -0.167208 0.140676 1.228887
v -0.230230 0.140676 1.195202
v -0.298612 0.140676 1.174458
v -0.369728 0.140676 1.167454
v -0.434970 -0.010354 1.203980
v -0.497706 -0.010354 1.223010
v -0.555524 -0.010354 1.253914
v -0.606201 -0.010354 1.295504
v -0.647792 -0.010354 1.346182
v -0.678696 -0.010354 1.404000
v -0.697727 -0.010354 1.466735
v -0.704153 -0.010354 1.531978
v -0.697727 -0.010354 1.597221
v -0.678696 -0.010354 1.659957
v -0.647792 -0.010354 1.717775
v -0.606202 -0.010354 1.768453
v -0.555524 -0.010354 1.810043
v -0.497707 -0.010354 1.840947
v -0.434971 -0.010354 1.859977
v -0.369728 -0.010354 1.866404
v -0.304485 -0.010354 1.859977
v -0.241749 -0.010354 1.840947
v -0.183931 -0.010354 1.810043
v -0.133254 -0.010354 1.768453
v -0.091664 -0.010354 1.717775
v -0.060759 -0.010354 1.659958
v -0.041729 -0.010354 1.597222
v -0.035303 -0.010354 1.531979
v -0.041729 -0.010354 1.466736
v -0.060759 -0.010354 1.404000
v -0.091664 -0.010354 1.346182
v -0.133254 -0.010354 1.295505
v -0.183931 -0.010354 1.253915
v -0.241749 -0.010354 1.223010
v -0.304485 -0.010354 1.203980
v -0.369728 -0.010354 1.197554
v -0.430178 -0.085223 1.228073
v -0.488305 -0.085223 1.245705
v -0.541876 -0.085223 1.274340
v -0.588831 -0.085223 1.312875
v -0.627366 -0.085223 1.359830
v -0.656001 -0.085223 1.413400
v -0.673633 -0.085223 1.471528
v -0.679587 -0.085223 1.531978
v -0.673634 -0.085223 1.592429
v -0.656001 -0.085223 1.650557
v -0.627367 -0.085223 1.704127
v -0.588832 -0.085223 1.751083
v -0.541877 -0.085223 1.789618
v -0.488306 -0.085223 1.818252
v -0.430178 -0.085223 1.835885
v -0.369728 -0.085223 1.841838
v -0.309277 -0.085223 1.835885
v -0.251150 -0.085223 1.818252
v -0.197579 -0.085223 1.789618
v -0.150624 -0.085223 1.751083
v -0.112089 -0.085223 1.704128
v -0.083455 -0.085223 1.650557
v -0.065822 -0.085223 1.592429
v -0.059868 -0.085223 1.531979
v -0.065822 -0.085223 1.471528
v -0.083455 -0.085223 1.413401
v -0.112089 -0.085223 1.359830
v -0.150624 -0.085223 1.312875
v -0.197579 -0.085223 1.274340
v -0.251149 -0.085223 1.245706
v -0.309277 -0.085223 1.228073
v -0.369728 -0.085223 1.222119
v -0.427146 -0.093923 1.243317
v -0.482358 -0.093923 1.260065
v -0.533241 -0.093923 1.287262
v -0.577841 -0.093923 1.323865
v -0.614443 -0.093923 1.368464
v -0.641641 -0.093923 1.419348
v -0.658390 -0.093923 1.474560
v -0.664045 -0.093923 1.531978
v -0.658390 -0.093923 1.589397
v -0.641642 -0.093923 1.644609
v -0.614444 -0.093923 1.695493
v -0.577842 -0.093923 1.740092
v -0.533242 -0.093923 1.776695
v -0.482358 -0.093923 1.803892
v -0.427146 -0.093923 1.820641
v -0.369728 -0.093923 1.826296
v -0.312309 -0.093923 1.820641
v -0.257097 -0.093923 1.803893
v -0.206214 -0.093923 1.776695
v -0.161614 -0.093923 1.740093
v -0.125012 -0.093923 1.695493
v -0.097814 -0.093923 1.644609
v -0.081065 -0.093923 1.589397
v -0.075410 -0.093923 1.531979
v -0.081065 -0.093923 1.474560
v -0.097814 -0.093923 1.419348
v -0.125012 -0.093923 1.368465
v -0.161614 -0.093923 1.323865
v -0.206214 -0.093923 1.287263
v -0.257097 -0.093923 1.260065
v -0.312309 -0.093923 1.243317
v -0.369728 -0.093923 1.237661
v -0.369728 0.362410 1.137339
v -0.292737 0.362410 1.144922
v -0.218705 0.362410 1.167379
v -0.150477 0.362410 1.203847
v -0.090675 0.362410 1.252926
v -0.041596 0.362410 1.312729
v -0.005128 0.362410 1.380957
v 0.017329 0.362410 1.454988
v 0.024912 0.362410 1.531979
v 0.017330 0.362410 1.608969
v -0.005128 0.362410 1.683001
v -0.041596 0.362410 1.751229
v -0.090675 0.362410 1.811032
v -0.150477 0.362410 1.860110
v -0.218706 0.362410 1.896579
v -0.292737 0.362410 1.919036
v -0.369728 0.362410 1.926619
v -0.446718 0.362410 1.919036
v -0.520750 0.362410 1.896579
v -0.588978 0.362410 1.860110
v -0.648781 0.362410 1.811031
v -0.697859 0.362410 1.751229
v -0.734328 0.362410 1.683001
v -0.756785 0.362410 1.608969
v -0.764368 0.362410 1.531978
v -0.756785 0.362410 1.454988
v -0.734327 0.362410 1.380956
v -0.697859 0.362410 1.312728
v -0.648780 0.362410 1.252926
v -0.588978 0.362410 1.203847
v -0.520749 0.362410 1.167379
v -0.446718 0.362410 1.144922
v -0.369728 0.359690 1.141570
v -0.293563 0.359690 1.149071
v -0.220325 0.359690 1.171288
v -0.152828 0.359690 1.207366
v -0.093667 0.359690 1.255918
v -0.045114 0.359690 1.315079
v -0.009037 0.359690 1.382576
v 0.013180 0.359690 1.455814
v 0.020681 0.359690 1.531979
v 0.013180 0.359690 1.608144
v -0.009037 0.359690 1.681382
v -0.045114 0.359690 1.748878
v -0.093667 0.359690 1.808040
v -0.152828 0.359690 1.856592
v -0.220325 0.359690 1.892670
v -0.293563 0.359690 1.914886
v -0.369728 0.359690 1.922388
v -0.445893 0.359690 1.914886
v -0.519131 0.359690 1.892669
v -0.586628 0.359690 1.856592
v -0.645789 0.359690 1.808039
v -0.694341 0.359690 1.748878
v -0.730419 0.359690 1.681382
v -0.752635 0.359690 1.608143
v -0.760137 0.359690 1.531978
v -0.752635 0.359690 1.455813
v -0.730418 0.359690 1.382575
v -0.694341 0.359690 1.315079
v -0.645788 0.359690 1.255918
v -0.586627 0.359690 1.207365
v -0.519130 0.359690 1.171288
v -0.445892 0.359690 1.149071
vn -0.5477 -0.1673 -0.8197
vn -0.5481 -0.1636 -0.8202
vn -0.6976 -0.1636 -0.6976
vn -0.6971 -0.1673 -0.6971
vn 0.1923 -0.1673 0.9669
vn 0.1924 -0.1636 0.9676
vn 0.3775 -0.1636 0.9114
vn 0.3773 -0.1673 0.9109
vn 0.0000 -0.1673 -0.9859
vn 0.0000 -0.1636 -0.9865
vn -0.1924 -0.1636 -0.9676
vn -0.1923 -0.1673 -0.9669
vn -0.8197 -0.1673 -0.5477
vn -0.8202 -0.1636 -0.5481
vn -0.9114 -0.1636 -0.3775
vn -0.9109 -0.1673 -0.3773
vn 0.5477 -0.1673 0.8197
vn 0.5481 -0.1636 0.8202
vn 0.6976 -0.1636 0.6976
vn 0.6971 -0.1673 0.6971
vn 0.9859 -0.1673 0.0000
vn 0.6023 0.7982 0.0000
vn 0.5907 0.7982 0.1175
vn 0.9669 -0.1673 0.1923
vn -0.3773 -0.1673 -0.9109
vn -0.3775 -0.1636 -0.9114
vn -0.9676 -0.1636 0.1924
vn -0.9488 -0.2531 0.1887
vn -0.8938 -0.2531 0.3702
vn -0.9114 -0.1636 0.3775
vn 0.5477 -0.1673 -0.8197
vn 0.5481 -0.1636 -0.8202
vn 0.3775 -0.1636 -0.9114
vn 0.3773 -0.1673 -0.9108
vn 0.8202 -0.1636 0.5481
vn 0.8197 -0.1673 0.5477
vn -0.8197 -0.1673 0.5477
vn -0.8202 -0.1636 0.5481
vn -0.6976 -0.1636 0.6976
vn -0.6971 -0.1673 0.6971
vn 0.9865 -0.1636 0.0000
vn 0.9676 -0.1636 -0.1924
vn 0.9669 -0.1673 -0.1923
vn -0.1923 -0.1673 0.9669
vn -0.1924 -0.1636 0.9676
vn 0.0000 -0.1636 0.9865
vn 0.0000 -0.1673 0.9859
vn -0.9676 -0.1636 -0.1924
vn -0.9669 -0.1673 -0.1923
vn 0.6971 -0.1673 -0.6971
vn 0.6976 -0.1636 -0.6976
vn -0.9109 -0.1673 0.3773
vn 0.9676 -0.1636 0.1924
vn -0.3773 -0.1673 0.9109
vn -0.3775 -0.1636 0.9114
vn 0.8197 -0.1673 -0.5477
vn 0.8202 -0.1636 -0.5481
vn -0.9669 -0.1673 0.1923
vn 0.1923 -0.1673 -0.9669
vn 0.1924 -0.1636 -0.9676
vn 0.9109 -0.1673 0.3773
vn 0.9114 -0.1636 0.3775
vn -0.5477 -0.1673 0.8197
vn -0.5481 -0.1636 0.8202
vn 0.9109 -0.1673 -0.3773
vn 0.9114 -0.1636 -0.3775
vn -0.9859 -0.1673 0.0000
vn -0.9865 -0.1636 0.0000
vn -0.6841 -0.2531 0.6841
vn -0.5521 -0.6247 0.5521
vn -0.4338 -0.6247 0.6493
vn -0.5375 -0.2531 0.8044
vn 0.6841 -0.2531 -0.6841
vn 0.5375 -0.2531 -0.8044
vn -0.3702 -0.2531 -0.8938
vn -0.5375 -0.2531 -0.8044
vn -0.8938 -0.2531 -0.3702
vn -0.9488 -0.2531 -0.1887
vn 0.3702 -0.2531 -0.8938
vn -0.6841 -0.2531 -0.6841
vn -0.8044 -0.2531 -0.5375
vn 0.1887 -0.2531 -0.9488
vn -0.9674 -0.2531 0.0000
vn 0.0000 -0.2531 -0.9674
vn -0.1887 -0.2531 -0.9488
vn 0.8938 -0.2531 -0.3702
vn 0.8044 -0.2531 -0.5375
vn -0.8044 -0.2531 0.5375
vn 0.9488 -0.2531 -0.1887
vn 0.9488 -0.2531 0.1887
vn 0.9674 -0.2531 0.0000
vn -0.3702 -0.2531 0.8938
vn -0.1887 -0.2531 0.9488
vn 0.8044 -0.2531 0.5375
vn 0.8938 -0.2531 0.3702
vn 0.1887 -0.2531 0.9488
vn 0.3702 -0.2531 0.8938
vn 0.5375 -0.2531 0.8044
vn 0.6841 -0.2531 0.6841
vn 0.0000 -0.2531 0.9674
vn 0.2988 -0.6247 0.7214
vn 0.1022 -0.9637 0.2467
vn 0.1484 -0.9637 0.2220
vn 0.4338 -0.6247 0.6493
vn 0.7659 -0.6247 0.1523
vn 0.7809 -0.6247 0.0000
vn -0.2988 -0.6247 0.7214
vn -0.1523 -0.6247 0.7659
vn 0.6493 -0.6247 0.4338
vn 0.7214 -0.6247 0.2988
vn 0.1523 -0.6247 0.7659
vn 0.5521 -0.6247 0.5521
vn 0.0000 -0.6247 0.7809
vn 0.7659 -0.6247 -0.1523
vn -0.6493 -0.6247 0.4338
vn 0.6493 -0.6247 -0.4338
vn 0.5521 -0.6247 -0.5521
vn 0.0000 -0.6247 -0.7809
vn -0.1523 -0.6247 -0.7659
vn -0.7659 -0.6247 0.1523
vn -0.7214 -0.6247 0.2988
vn 0.4338 -0.6247 -0.6493
vn -0.2988 -0.6247 -0.7214
vn -0.4338 -0.6247 -0.6493
vn -0.7214 -0.6247 -0.2988
vn -0.7659 -0.6247 -0.1523
vn 0.2988 -0.6247 -0.7214
vn -0.5521 -0.6247 -0.5521
vn -0.6493 -0.6247 -0.4338
vn 0.1523 -0.6247 -0.7659
vn -0.7809 -0.6247 0.0000
vn 0.7214 -0.6247 -0.2988
vn 0.0521 -0.9637 -0.2619
vn 0.1022 -0.9637 -0.2467
vn 0.1484 -0.9637 -0.2220
vn 0.1888 -0.9637 -0.1888
vn 0.2220 -0.9637 -0.1484
vn 0.2467 -0.9637 -0.1022
vn 0.2619 -0.9637 -0.0521
vn 0.2670 -0.9637 0.0000
vn 0.2619 -0.9637 0.0521
vn 0.2467 -0.9637 0.1022
vn 0.2220 -0.9637 0.1484
vn 0.1888 -0.9637 0.1888
vn 0.0521 -0.9637 0.2619
vn 0.0000 -0.9637 0.2670
vn -0.0521 -0.9637 0.2619
vn -0.1022 -0.9637 0.2467
vn -0.1484 -0.9637 0.2220
vn -0.1888 -0.9637 0.1888
vn -0.2220 -0.9637 0.1484
vn -0.2467 -0.9637 0.1022
vn -0.2619 -0.9637 0.0521
vn -0.2670 -0.9637 0.0000
vn -0.2619 -0.9637 -0.0521
vn -0.2467 -0.9637 -0.1022
vn -0.2220 -0.9637 -0.1484
vn -0.1888 -0.9637 -0.1888
vn -0.1484 -0.9637 -0.2220
vn -0.1022 -0.9637 -0.2467
vn -0.0521 -0.9637 -0.2619
vn 0.0000 -0.9637 -0.2670
vn 0.1175 0.7982 0.5907
vn -0.0581 0.9546 -0.2921
vn 0.0000 0.9546 -0.2979
vn 0.0000 0.7982 0.6023
vn -0.5564 0.7982 0.2305
vn -0.5907 0.7982 0.1175
vn 0.5564 0.7982 0.2305
vn -0.6023 0.7982 0.0000
vn 0.5008 0.7982 0.3346
vn -0.5907 0.7982 -0.1175
vn 0.4259 0.7982 0.4259
vn -0.5564 0.7982 -0.2305
vn 0.3346 0.7982 0.5008
vn -0.5008 0.7982 -0.3346
vn 0.2305 0.7982 0.5564
vn 0.0000 0.7982 -0.6023
vn 0.1175 0.7982 -0.5907
vn -0.4259 0.7982 -0.4259
vn 0.2305 0.7982 -0.5565
vn -0.3346 0.7982 -0.5008
vn 0.3346 0.7982 -0.5008
vn -0.2305 0.7982 -0.5564
vn -0.1175 0.7982 0.5907
vn 0.4259 0.7982 -0.4259
vn -0.1175 0.7982 -0.5907
vn -0.2305 0.7982 0.5564
vn 0.5008 0.7982 -0.3346
vn -0.3346 0.7982 0.5008
vn 0.5564 0.7982 -0.2305
vn -0.4259 0.7982 0.4259
vn 0.5907 0.7982 -0.1175
vn -0.5008 0.7982 0.3346
vn -0.0581 0.9546 0.2921
vn 0.0000 0.9546 0.2979
vn 0.0581 0.9546 0.2921
vn 0.1140 0.9546 0.2752
vn 0.1655 0.9546 0.2477
vn 0.2106 0.9546 0.2106
vn 0.2477 0.9546 0.1655
vn 0.2752 0.9546 0.1140
vn 0.2921 0.9546 0.0581
vn 0.2979 0.9546 0.0000
vn 0.2921 0.9546 -0.0581
vn 0.2752 0.9546 -0.1140
vn 0.2477 0.9546 -0.1655
vn 0.2106 0.9546 -0.2106
vn 0.1655 0.9546 -0.2477
vn 0.1140 0.9546 -0.2752
vn 0.0581 0.9546 -0.2921
vn -0.1140 0.9546 -0.2752
vn -0.1655 0.9546 -0.2477
vn -0.2106 0.9546 -0.2106
vn -0.2477 0.9546 -0.1655
vn -0.2752 0.9546 -0.1140
vn -0.2921 0.9546 -0.0581
vn -0.2979 0.9546 0.0000
vn -0.2921 0.9546 0.0581
vn -0.2752 0.9546 0.1140
vn -0.2477 0.9546 0.1655
vn -0.2106 0.9546 0.2106
vn -0.1655 0.9546 0.2477
vn -0.1140 0.9546 0.2752
usemtl tea
s 1
f 30//1 35//2 36//3 29//4
f 16//5 49//6 50//7 15//8
f 1//9 64//10 33//11 32//12
f 28//13 37//14 38//15 27//16
f 14//17 51//18 52//19 13//20
f 9//21 169//22 170//23 10//24
f 31//25 34//26 35//2 30//1
f 41//27 73//28 74//29 42//30
f 4//31 61//32 62//33 3//34
f 13//20 52//19 53//35 12//36
f 22//37 43//38 44//39 21//40
f 9//21 56//41 57//42 8//43
f 18//44 47//45 48//46 17//47
f 27//16 38//15 39//48 26//49
f 5//50 60//51 61//32 4//31
f 23//52 42//30 43//38 22//37
f 32//12 33//11 34//26 31//25
f 10//24 55//53 56//41 9//21
f 19//54 46//55 47//45 18//44
f 6//56 59//57 60//51 5//50
f 15//8 50//7 51//18 14//17
f 24//58 41//27 42//30 23//52
f 2//59 63//60 64//10 1//9
f 11//61 54//62 55//53 10//24
f 20//63 45//64 46//55 19//54
f 29//4 36//3 37//14 28//13
f 7//65 58//66 59//57 6//56
f 25//67 40//68 41//27 24//58
f 3//34 62//33 63//60 2//59
f 12//36 53//35 54//62 11//61
f 21//40 44//39 45//64 20//63
f 8//43 57//42 58//66 7//65
f 17//47 48//46 49//6 16//5
f 26//49 39//48 40//68 25//67
f 76//69 108//70 109//71 77//72
f 60//51 92//73 93//74 61//32
f 34//26 66//75 67//76 35//2
f 38//15 70//77 71//78 39//48
f 61//32 93//74 94//79 62//33
f 36//3 68//80 69//81 37//14
f 37//14 69//81 70//77 38//15
f 62//33 94//79 95//82 63//60
f 39//48 71//78 72//83 40//68
f 35//2 67//76 68//80 36//3
f 63//60 95//82 96//84 64//10
f 40//68 72//83 73//28 41//27
f 33//11 65//85 66//75 34//26
f 58//66 90//86 91//87 59//57
f 42//30 74//29 75//88 43//38
f 57//42 89//89 90//86 58//66
f 44//39 76//69 77//72 45//64
f 55//53 87//90 88//91 56//41
f 46//55 78//92 79//93 47//45
f 53//35 85//94 86//95 54//62
f 49//6 81//96 82//97 50//7
f 51//18 83//98 84//99 52//19
f 50//7 82//97 83//98 51//18
f 48//46 80//100 81//96 49//6
f 52//19 84//99 85//94 53//35
f 47//45 79//93 80//100 48//46
f 54//62 86//95 87//90 55//53
f 45//64 77//72 78//92 46//55
f 56//41 88//91 89//89 57//42
f 43//38 75//88 76//69 44//39
f 59//57 91//87 92//73 60//51
f 64//10 96//84 65//85 33//11
f 114//101 146//102 147//103 115//104
f 87//90 119//105 120//106 88//91
f 78//92 110//107 111//108 79//93
f 85//94 117//109 118//110 86//95
f 81//96 113//111 114//101 82//97
f 83//98 115//104 116//112 84//99
f 82//97 114//101 115//104 83//98
f 80//100 112//113 113//111 81//96
f 84//99 116//112 117//109 85//94
f 79//93 111//108 112//113 80//100
f 86//95 118//110 119//105 87//90
f 77//72 109//71 110//107 78//92
f 88//91 120//106 121//114 89//89
f 75//88 107//115 108//70 76//69
f 91//87 123//116 124//117 92//73
f 96//84 128//118 97//119 65//85
f 73//28 105//120 106//121 74//29
f 92//73 124//117 125//122 93//74
f 66//75 98//123 99//124 67//76
f 70//77 102//125 103//126 71//78
f 93//74 125//122 126//127 94//79
f 68//80 100//128 101//129 69//81
f 69//81 101//129 102//125 70//77
f 94//79 126//127 127//130 95//82
f 71//78 103//126 104//131 72//83
f 67//76 99//124 100//128 68//80
f 95//82 127//130 128//118 96//84
f 72//83 104//131 105//120 73//28
f 65//85 97//119 98//123 66//75
f 90//86 122//132 123//116 91//87
f 74//29 106//121 107//115 75//88
f 89//89 121//114 122//132 90//86
f 159//133 158//134 157//135 156//136 155//137 154//138 153//139 152//140 151//141 150//142 149//143 148//144 147//103 146//102 145//145 144//146 143//147 142//148 141//149 140//150 139//151 138//152 137//153 136//154 135//155 134//156 133//157 132//158 131//159 130//160 129//161 160//162
f 112//113 144//146 145//145 113//111
f 116//112 148//144 149//143 117//109
f 111//108 143//147 144//146 112//113
f 118//110 150//142 151//141 119//105
f 109//71 141//149 142//148 110//107
f 120//106 152//140 153//139 121//114
f 107//115 139//151 140//150 108//70
f 123//116 155//137 156//136 124//117
f 128//118 160//162 129//161 97//119
f 105//120 137//153 138//152 106//121
f 124//117 156//136 157//135 125//122
f 98//123 130//160 131//159 99//124
f 102//125 134//156 135//155 103//126
f 125//122 157//135 158//134 126//127
f 100//128 132//158 133//157 101//129
f 101//129 133//157 134//156 102//125
f 126//127 158//134 159//133 127//130
f 103//126 135//155 136//154 104//131
f 99//124 131//159 132//158 100//128
f 127//130 159//133 160//162 128//118
f 104//131 136//154 137//153 105//120
f 97//119 129//161 130//160 98//123
f 122//132 154//138 155//137 123//116
f 106//121 138//152 139//151 107//115
f 121//114 153//139 154//138 122//132
f 108//70 140//150 141//149 109//71
f 119//105 151//141 152//140 120//106
f 110//107 142//148 143//147 111//108
f 117//109 149//143 150//142 118//110
f 113//111 145//145 146//102 114//101
f 115//104 147//103 148//144 116//112
f 176//163 208//164 209//165 177//166
f 23//52 183//167 184//168 24//58
f 10//24 170//23 171//169 11//61
f 24//58 184//168 185//170 25//67
f 11//61 171//169 172//171 12//36
f 25//67 185//170 186//172 26//49
f 12//36 172//171 173//173 13//20
f 26//49 186//172 187//174 27//16
f 13//20 173//173 174//175 14//17
f 27//16 187//174 188//176 28//13
f 14//17 174//175 175//177 15//8
f 1//9 161//178 162//179 2//59
f 28//13 188//176 189//180 29//4
f 15//8 175//177 176//163 16//5
f 2//59 162//179 163//181 3//34
f 29//4 189//180 190//182 30//1
f 16//5 176//163 177//166 17//47
f 3//34 163//181 164//183 4//31
f 30//1 190//182 191//184 31//25
f 17//47 177//166 178//185 18//44
f 4//31 164//183 165//186 5//50
f 31//25 191//184 192//187 32//12
f 18//44 178//185 179//188 19//54
f 5//50 165//186 166//189 6//56
f 32//12 192//187 161//178 1//9
f 19//54 179//188 180//190 20//63
f 6//56 166//189 167//191 7//65
f 20//63 180//190 181//192 21//40
f 7//65 167//191 168//193 8//43
f 21//40 181//192 182//194 22//37
f 8//43 168//193 169//22 9//21
f 22//37 182//194 183//167 23//52
f 194//195 193//196 224//197 223//198 222//199 221//200 220//201 219//202 218//203 217//204 216//205 215//206 214//207 213//208 212//209 211//210 210//211 209//165 208//164 207//212 206//213 205//214 204//215 203//216 202//217 201//218 200//219 199//220 198//221 197//222 196//223 195//224
f 163//181 195//224 196//223 164//183
f 190//182 222//199 223//198 191//184
f 177//166 209//165 210//211 178//185
f 164//183 196//223 197//222 165//186
f 191//184 223//198 224//197 192//187
f 178//185 210//211 211//210 179//188
f 165//186 197//222 198//221 166//189
f 192//187 224//197 193//196 161//178
f 179//188 211//210 212//209 180//190
f 166//189 198//221 199//220 167//191
f 180//190 212//209 213//208 181//192
f 167//191 199//220 200//219 168//193
f 181//192 213//208 214//207 182//194
f 168//193 200//219 201//218 169//22
f 182//194 214//207 215//206 183//167
f 169//22 201//218 202//217 170//23
f 183//167 215//206 216//205 184//168
f 170//23 202//217 203//216 171//169
f 184//168 216//205 217//204 185//170
f 171//169 203//216 204//215 172//171
f 185//170 217//204 218//203 186//172
f 172//171 204//215 205//214 173//173
f 186//172 218//203 219//202 187//174
f 173//173 205//214 206//213 174//175
f 187//174 219//202 220//201 188//176
f 174//175 206//213 207//212 175//177
f 161//178 193//196 194//195 162//179
f 188//176 220//201 221//200 189//180
f 175//177 207//212 208//164 176//163
f 162//179 194//195 195//224 163//181
f 189//180 221//200 222//199 190//182
