# Blender v2.78 (sub 0) OBJ File: 'cup_of_tea.blend'
# www.blender.org
mtllib cup_of_tea.mtl
o Cylinder.001
v 1.883397 0.365773 1.106449
v 1.833906 0.365773 1.165519
v 1.773841 0.365773 1.213798
v 1.705511 0.365773 1.249431
v 1.631543 0.365773 1.271049
v 1.554779 0.365773 1.277821
v 1.478168 0.365773 1.269487
v 1.404656 0.365773 1.246367
v 1.337066 0.365773 1.209350
v 1.277997 0.365773 1.159858
v 1.229718 0.365773 1.099793
v 1.194085 0.365773 1.031464
v 1.172467 0.365773 0.957495
v 1.165695 0.365773 0.880731
v 1.174029 0.365773 0.804121
v 1.197149 0.365773 0.730608
v 1.234166 0.365773 0.663018
v 1.283658 0.365773 0.603949
v 1.343723 0.365773 0.555670
v 1.412052 0.365773 0.520037
v 1.486020 0.365773 0.498419
v 1.562784 0.365773 0.491647
v 1.639395 0.365773 0.499981
v 1.712908 0.365773 0.523101
v 1.780497 0.365773 0.560118
v 1.839567 0.365773 0.609610
v 1.887845 0.365773 0.669675
v 1.923478 0.365773 0.738005
v 1.945096 0.365773 0.811973
v 1.951868 0.365773 0.888737
v 1.943534 0.365773 0.965348
v 1.920414 0.365773 1.038860
v 1.894120 0.151491 1.027654
v 1.915560 0.151491 0.959486
v 1.923288 0.151491 0.888446
v 1.917008 0.151491 0.817263
v 1.896962 0.151491 0.748673
v 1.863919 0.151491 0.685312
v 1.819151 0.151491 0.629614
v 1.764377 0.151491 0.583721
v 1.701701 0.151491 0.549395
v 1.633534 0.151491 0.527956
v 1.562494 0.151491 0.520228
v 1.491311 0.151491 0.526508
v 1.422720 0.151491 0.546554
v 1.359359 0.151491 0.579596
v 1.303662 0.151491 0.624365
v 1.257768 0.151491 0.679139
v 1.223442 0.151491 0.741814
v 1.202004 0.151491 0.809982
v 1.194275 0.151491 0.881022
v 1.200555 0.151491 0.952205
v 1.220601 0.151491 1.020795
v 1.253644 0.151491 1.084157
v 1.298412 0.151491 1.139854
v 1.353187 0.151491 1.185748
v 1.415862 0.151491 1.220073
v 1.484030 0.151491 1.241512
v 1.555070 0.151491 1.249240
v 1.626253 0.151491 1.242960
v 1.694843 0.151491 1.222914
v 1.758204 0.151491 1.189872
v 1.813902 0.151491 1.145103
v 1.859795 0.151491 1.090329
v 1.866430 0.000461 1.015852
v 1.886099 0.000461 0.953314
v 1.893189 0.000461 0.888139
v 1.887428 0.000461 0.822834
v 1.869037 0.000461 0.759908
v 1.838723 0.000461 0.701779
v 1.797651 0.000461 0.650680
v 1.747400 0.000461 0.608576
v 1.689900 0.000461 0.577085
v 1.627361 0.000461 0.557416
v 1.562187 0.000461 0.550326
v 1.496882 0.000461 0.556088
v 1.433956 0.000461 0.574479
v 1.375826 0.000461 0.604792
v 1.324728 0.000461 0.645864
v 1.282624 0.000461 0.696116
v 1.251133 0.000461 0.753616
v 1.231464 0.000461 0.816154
v 1.224374 0.000461 0.881329
v 1.230135 0.000461 0.946634
v 1.248526 0.000461 1.009560
v 1.278840 0.000461 1.067689
v 1.319912 0.000461 1.118788
v 1.370163 0.000461 1.160892
v 1.427663 0.000461 1.192383
v 1.490202 0.000461 1.212052
v 1.555376 0.000461 1.219141
v 1.620681 0.000461 1.213380
v 1.683608 0.000461 1.194989
v 1.741737 0.000461 1.164675
v 1.792835 0.000461 1.123604
v 1.834939 0.000461 1.073352
v 1.843832 -0.074409 1.006221
v 1.862056 -0.074409 0.948276
v 1.868625 -0.074409 0.887889
v 1.863287 -0.074409 0.827381
v 1.846247 -0.074409 0.769077
v 1.818160 -0.074409 0.715218
v 1.780105 -0.074409 0.667873
v 1.733545 -0.074409 0.628861
v 1.680269 -0.074409 0.599683
v 1.622324 -0.074409 0.581459
v 1.561937 -0.074409 0.574890
v 1.501429 -0.074409 0.580228
v 1.443125 -0.074409 0.597268
v 1.389265 -0.074409 0.625355
v 1.341920 -0.074409 0.663410
v 1.302909 -0.074409 0.709971
v 1.273731 -0.074409 0.763247
v 1.255507 -0.074409 0.821192
v 1.248938 -0.074409 0.881579
v 1.254276 -0.074409 0.942087
v 1.271316 -0.074409 1.000391
v 1.299403 -0.074409 1.054250
v 1.337458 -0.074409 1.101595
v 1.384018 -0.074409 1.140607
v 1.437295 -0.074409 1.169785
v 1.495240 -0.074409 1.188009
v 1.555627 -0.074409 1.194578
v 1.616135 -0.074409 1.189240
v 1.674439 -0.074409 1.172199
v 1.728298 -0.074409 1.144112
v 1.775643 -0.074409 1.106058
v 1.814654 -0.074409 1.059497
v 1.829534 -0.083108 1.000128
v 1.846844 -0.083108 0.945089
v 1.853084 -0.083108 0.887731
v 1.848014 -0.083108 0.830258
v 1.831828 -0.083108 0.774878
v 1.805150 -0.083108 0.723720
v 1.769004 -0.083108 0.678750
v 1.724779 -0.083108 0.641696
v 1.674175 -0.083108 0.613981
v 1.619136 -0.083108 0.596671
v 1.561779 -0.083108 0.590432
v 1.504305 -0.083108 0.595502
v 1.448926 -0.083108 0.611687
v 1.397768 -0.083108 0.638366
v 1.352798 -0.083108 0.674512
v 1.315743 -0.083108 0.718737
v 1.288029 -0.083108 0.769341
v 1.270719 -0.083108 0.824379
v 1.264479 -0.083108 0.881737
v 1.269549 -0.083108 0.939210
v 1.285735 -0.083108 0.994590
v 1.312413 -0.083108 1.045748
v 1.348559 -0.083108 1.090718
v 1.392784 -0.083108 1.127772
v 1.443388 -0.083108 1.155487
v 1.498427 -0.083108 1.172796
v 1.555785 -0.083108 1.179036
v 1.613258 -0.083108 1.173966
v 1.668637 -0.083108 1.157781
v 1.719795 -0.083108 1.131102
v 1.764766 -0.083108 1.094956
v 1.801820 -0.083108 1.050731
v 1.884663 0.373225 1.107314
v 1.834978 0.373225 1.166614
v 1.774679 0.373225 1.215081
v 1.706084 0.373225 1.250853
v 1.631827 0.373225 1.272555
v 1.554763 0.373225 1.279354
v 1.477854 0.373225 1.270987
v 1.404055 0.373225 1.247777
v 1.336202 0.373225 1.210616
v 1.276902 0.373225 1.160931
v 1.228435 0.373225 1.100632
v 1.192663 0.373225 1.032036
v 1.170960 0.373225 0.957779
v 1.164162 0.373225 0.880716
v 1.172528 0.373225 0.803806
v 1.195738 0.373225 0.730007
v 1.232900 0.373225 0.662154
v 1.282585 0.373225 0.602854
v 1.342884 0.373225 0.554387
v 1.411480 0.373225 0.518615
v 1.485736 0.373225 0.496913
v 1.562800 0.373225 0.490114
v 1.639709 0.373225 0.498481
v 1.713509 0.373225 0.521691
v 1.781362 0.373225 0.558852
v 1.840661 0.373225 0.608537
v 1.889128 0.373225 0.668836
v 1.924900 0.373225 0.737432
v 1.946603 0.373225 0.811689
v 1.953401 0.373225 0.888753
v 1.945034 0.373225 0.965662
v 1.921824 0.373225 1.039461
v 1.881169 0.370505 1.104928
v 1.832017 0.370505 1.163591
v 1.772365 0.370505 1.211539
v 1.704504 0.370505 1.246927
v 1.631044 0.370505 1.268397
v 1.554806 0.370505 1.275123
v 1.478722 0.370505 1.266846
v 1.405714 0.370505 1.243885
v 1.338588 0.370505 1.207122
v 1.279924 0.370505 1.157970
v 1.231977 0.370505 1.098317
v 1.196588 0.370505 1.030457
v 1.175118 0.370505 0.956996
v 1.168393 0.370505 0.880759
v 1.176670 0.370505 0.804674
v 1.199631 0.370505 0.731666
v 1.236394 0.370505 0.664540
v 1.285546 0.370505 0.605876
v 1.345199 0.370505 0.557929
v 1.413059 0.370505 0.522540
v 1.486520 0.370505 0.501071
v 1.562757 0.370505 0.494345
v 1.638842 0.370505 0.502622
v 1.711850 0.370505 0.525583
v 1.778975 0.370505 0.562346
v 1.837639 0.370505 0.611499
v 1.885587 0.370505 0.671151
v 1.920975 0.370505 0.739012
v 1.942445 0.370505 0.812472
v 1.949170 0.370505 0.888710
v 1.940893 0.370505 0.964794
v 1.917932 0.370505 1.037802
vn 0.9858 -0.1673 0.0100
vn 0.9864 -0.1636 0.0100
vn 0.9695 -0.1636 -0.1826
vn 0.9688 -0.1673 -0.1825
vn -0.9069 -0.1673 -0.3865
vn -0.9075 -0.1636 -0.3868
vn -0.9655 -0.1636 -0.2023
vn -0.9649 -0.1673 -0.2022
vn 0.8141 -0.1673 0.5560
vn 0.8146 -0.1636 0.5564
vn 0.9075 -0.1636 0.3868
vn 0.9069 -0.1673 0.3865
vn 0.9146 -0.1673 -0.3680
vn 0.9152 -0.1636 -0.3682
vn 0.8258 -0.1636 -0.5397
vn 0.8253 -0.1673 -0.5394
vn -0.9858 -0.1673 -0.0100
vn -0.9864 -0.1636 -0.0100
vn -0.9695 -0.1636 0.1826
vn -0.9688 -0.1673 0.1825
vn -0.5560 -0.1673 0.8141
vn -0.3397 0.7982 0.4974
vn -0.4302 0.7982 0.4215
vn -0.7042 -0.1673 0.6900
vn 0.9649 -0.1673 0.2022
vn 0.9655 -0.1636 0.2023
vn 0.3868 -0.1636 -0.9075
vn 0.3793 -0.2531 -0.8900
vn 0.1984 -0.2531 -0.9469
vn 0.2023 -0.1636 -0.9655
vn 0.3680 -0.1673 0.9146
vn 0.3682 -0.1636 0.9152
vn 0.5397 -0.1636 0.8258
vn 0.5394 -0.1673 0.8253
vn -0.9152 -0.1636 0.3682
vn -0.9146 -0.1673 0.3680
vn 0.0100 -0.1673 -0.9858
vn 0.0100 -0.1636 -0.9864
vn -0.1826 -0.1636 -0.9695
vn -0.1825 -0.1673 -0.9688
vn -0.5564 -0.1636 0.8146
vn -0.3868 -0.1636 0.9075
vn -0.3865 -0.1673 0.9069
vn -0.6900 -0.1673 -0.7042
vn -0.6904 -0.1636 -0.7046
vn -0.8146 -0.1636 -0.5564
vn -0.8141 -0.1673 -0.5560
vn 0.7046 -0.1636 -0.6904
vn 0.7042 -0.1673 -0.6900
vn 0.1825 -0.1673 0.9688
vn 0.1826 -0.1636 0.9695
vn 0.2022 -0.1673 -0.9649
vn -0.7046 -0.1636 0.6904
vn -0.5394 -0.1673 -0.8253
vn -0.5397 -0.1636 -0.8258
vn -0.0100 -0.1673 0.9858
vn -0.0100 -0.1636 0.9864
vn 0.3865 -0.1673 -0.9069
vn 0.6900 -0.1673 0.7042
vn 0.6904 -0.1636 0.7046
vn -0.8253 -0.1673 0.5394
vn -0.8258 -0.1636 0.5397
vn -0.3680 -0.1673 -0.9146
vn -0.3682 -0.1636 -0.9152
vn -0.2022 -0.1673 0.9649
vn -0.2023 -0.1636 0.9655
vn 0.5560 -0.1673 -0.8141
vn 0.5564 -0.1636 -0.8146
vn -0.1791 -0.2531 -0.9507
vn -0.1445 -0.6247 -0.7674
vn -0.2915 -0.6247 -0.7244
vn -0.3611 -0.2531 -0.8975
vn 0.1791 -0.2531 0.9507
vn 0.3611 -0.2531 0.8975
vn 0.9469 -0.2531 0.1984
vn 0.9674 -0.2531 0.0098
vn 0.8098 -0.2531 -0.5293
vn 0.6910 -0.2531 -0.6771
vn 0.5293 -0.2531 0.8098
vn 0.9507 -0.2531 -0.1791
vn 0.8975 -0.2531 -0.3611
vn 0.6771 -0.2531 0.6910
vn 0.5456 -0.2531 -0.7989
vn 0.7989 -0.2531 0.5456
vn 0.8900 -0.2531 0.3793
vn -0.1984 -0.2531 0.9469
vn -0.0098 -0.2531 0.9674
vn 0.0098 -0.2531 -0.9674
vn -0.3793 -0.2531 0.8900
vn -0.6910 -0.2531 0.6771
vn -0.5456 -0.2531 0.7989
vn -0.5293 -0.2531 -0.8098
vn -0.6771 -0.2531 -0.6910
vn -0.8975 -0.2531 0.3611
vn -0.8098 -0.2531 0.5293
vn -0.8900 -0.2531 -0.3793
vn -0.9469 -0.2531 -0.1984
vn -0.9674 -0.2531 -0.0098
vn -0.9507 -0.2531 0.1791
vn -0.7989 -0.2531 -0.5456
vn -0.7643 -0.6247 -0.1601
vn -0.2613 -0.9637 -0.0548
vn -0.2670 -0.9637 -0.0027
vn -0.7808 -0.6247 -0.0079
vn -0.5578 -0.6247 0.5465
vn -0.4404 -0.6247 0.6448
vn -0.4272 -0.6247 -0.6536
vn -0.5465 -0.6247 -0.5578
vn -0.7244 -0.6247 0.2915
vn -0.6536 -0.6247 0.4272
vn -0.7183 -0.6247 -0.3061
vn -0.7674 -0.6247 0.1445
vn -0.6448 -0.6247 -0.4404
vn -0.3061 -0.6247 0.7183
vn 0.0079 -0.6247 -0.7808
vn -0.0079 -0.6247 0.7808
vn 0.1445 -0.6247 0.7674
vn 0.6448 -0.6247 0.4404
vn 0.7183 -0.6247 0.3062
vn 0.3061 -0.6247 -0.7183
vn 0.1601 -0.6247 -0.7643
vn 0.2915 -0.6247 0.7244
vn 0.7643 -0.6247 0.1601
vn 0.7808 -0.6247 0.0079
vn 0.6536 -0.6247 -0.4272
vn 0.5578 -0.6247 -0.5465
vn 0.4272 -0.6247 0.6536
vn 0.7674 -0.6247 -0.1445
vn 0.7244 -0.6247 -0.2915
vn 0.5465 -0.6247 0.5578
vn 0.4404 -0.6247 -0.6448
vn -0.1601 -0.6247 0.7643
vn 0.1869 -0.9637 0.1907
vn 0.1461 -0.9637 0.2235
vn 0.0996 -0.9637 0.2477
vn 0.0494 -0.9637 0.2624
vn -0.0027 -0.9637 0.2670
vn -0.0548 -0.9637 0.2613
vn -0.1047 -0.9637 0.2456
vn -0.1506 -0.9637 0.2205
vn -0.1907 -0.9637 0.1869
vn -0.2235 -0.9637 0.1461
vn -0.2477 -0.9637 0.0996
vn -0.2624 -0.9637 0.0494
vn -0.2456 -0.9637 -0.1047
vn -0.2205 -0.9637 -0.1506
vn -0.1869 -0.9637 -0.1907
vn -0.1461 -0.9637 -0.2235
vn -0.0996 -0.9637 -0.2477
vn -0.0494 -0.9637 -0.2624
vn 0.0027 -0.9637 -0.2670
vn 0.0548 -0.9637 -0.2613
vn 0.1047 -0.9637 -0.2456
vn 0.1506 -0.9637 -0.2205
vn 0.1907 -0.9637 -0.1869
vn 0.2235 -0.9637 -0.1461
vn 0.2477 -0.9637 -0.0996
vn 0.2624 -0.9637 -0.0494
vn 0.2670 -0.9637 0.0027
vn 0.2613 -0.9637 0.0548
vn 0.2456 -0.9637 0.1047
vn 0.2205 -0.9637 0.1506
vn -0.5541 0.7982 -0.2361
vn 0.2740 0.9546 0.1168
vn 0.2459 0.9546 0.1680
vn -0.4974 0.7982 -0.3397
vn 0.1235 0.7982 -0.5895
vn 0.2361 0.7982 -0.5541
vn -0.5042 0.7982 0.3295
vn 0.3397 0.7982 -0.4974
vn -0.5588 0.7982 0.2248
vn 0.4302 0.7982 -0.4215
vn -0.5919 0.7982 0.1115
vn 0.5042 0.7982 -0.3295
vn -0.6023 0.7982 -0.0061
vn 0.5588 0.7982 -0.2248
vn -0.5895 0.7982 -0.1235
vn 0.4974 0.7982 0.3397
vn 0.4215 0.7982 0.4302
vn 0.5919 0.7982 -0.1115
vn 0.3295 0.7982 0.5042
vn 0.6023 0.7982 0.0061
vn 0.2248 0.7982 0.5588
vn 0.5895 0.7982 0.1235
vn -0.4215 0.7982 -0.4302
vn 0.1115 0.7982 0.5919
vn 0.5541 0.7982 0.2361
vn -0.3295 0.7982 -0.5042
vn -0.0061 0.7982 0.6023
vn -0.2248 0.7982 -0.5588
vn -0.1235 0.7982 0.5895
vn -0.1115 0.7982 -0.5919
vn -0.2361 0.7982 0.5541
vn 0.0061 0.7982 -0.6023
vn -0.2084 0.9546 -0.2127
vn -0.2459 0.9546 -0.1680
vn -0.2740 0.9546 -0.1168
vn -0.2915 0.9546 -0.0611
vn -0.2978 0.9546 -0.0030
vn -0.2927 0.9546 0.0551
vn -0.2763 0.9546 0.1111
vn -0.2493 0.9546 0.1629
vn -0.2127 0.9546 0.2084
vn -0.1680 0.9546 0.2459
vn -0.1168 0.9546 0.2740
vn -0.0611 0.9546 0.2915
vn -0.0030 0.9546 0.2978
vn 0.0551 0.9546 0.2927
vn 0.1112 0.9546 0.2763
vn 0.1629 0.9546 0.2493
vn 0.2084 0.9546 0.2127
vn 0.2915 0.9546 0.0611
vn 0.2978 0.9546 0.0030
vn 0.2927 0.9546 -0.0551
vn 0.2763 0.9546 -0.1112
vn 0.2493 0.9546 -0.1629
vn 0.2127 0.9546 -0.2084
vn 0.1680 0.9546 -0.2459
vn 0.1168 0.9546 -0.2740
vn 0.0611 0.9546 -0.2915
vn 0.0030 0.9546 -0.2978
vn -0.0551 0.9546 -0.2927
vn -0.1111 0.9546 -0.2763
vn -0.1629 0.9546 -0.2493
usemtl tea
s 1
f 30//1 35//2 36//3 29//4
f 16//5 49//6 50//7 15//8
f 1//9 64//10 33//11 32//12
f 28//13 37//14 38//15 27//16
f 14//17 51//18 52//19 13//20
f 9//21 169//22 170//23 10//24
f 31//25 34//26 35//2 30//1
f 41//27 73//28 74//29 42//30
f 4//31 61//32 62//33 3//34
f 13//20 52//19 53//35 12//36
f 22//37 43//38 44//39 21//40
f 9//21 56//41 57//42 8//43
f 18//44 47//45 48//46 17//47
f 27//16 38//15 39//48 26//49
f 5//50 60//51 61//32 4//31
f 23//52 42//30 43//38 22//37
f 32//12 33//11 34//26 31//25
f 10//24 55//53 56//41 9//21
f 19//54 46//55 47//45 18//44
f 6//56 59//57 60//51 5//50
f 15//8 50//7 51//18 14//17
f 24//58 41//27 42//30 23//52
f 2//59 63//60 64//10 1//9
f 11//61 54//62 55//53 10//24
f 20//63 45//64 46//55 19//54
f 29//4 36//3 37//14 28//13
f 7//65 58//66 59//57 6//56
f 25//67 40//68 41//27 24//58
f 3//34 62//33 63//60 2//59
f 12//36 53//35 54//62 11//61
f 21//40 44//39 45//64 20//63
f 8//43 57//42 58//66 7//65
f 17//47 48//46 49//6 16//5
f 26//49 39//48 40//68 25//67
f 76//69 108//70 109//71 77//72
f 60//51 92//73 93//74 61//32
f 34//26 66//75 67//76 35//2
f 38//15 70//77 71//78 39//48
f 61//32 93//74 94//79 62//33
f 36//3 68//80 69//81 37//14
f 37//14 69//81 70//77 38//15
f 62//33 94//79 95//82 63//60
f 39//48 71//78 72//83 40//68
f 35//2 67//76 68//80 36//3
f 63//60 95//82 96//84 64//10
f 40//68 72//83 73//28 41//27
f 33//11 65//85 66//75 34//26
f 58//66 90//86 91//87 59//57
f 42//30 74//29 75//88 43//38
f 57//42 89//89 90//86 58//66
f 44//39 76//69 77//72 45//64
f 55//53 87//90 88//91 56//41
f 46//55 78//92 79//93 47//45
f 53//35 85//94 86//95 54//62
f 49//6 81//96 82//97 50//7
f 51//18 83//98 84//99 52//19
f 50//7 82//97 83//98 51//18
f 48//46 80//100 81//96 49//6
f 52//19 84//99 85//94 53//35
f 47//45 79//93 80//100 48//46
f 54//62 86//95 87//90 55//53
f 45//64 77//72 78//92 46//55
f 56//41 88//91 89//89 57//42
f 43//38 75//88 76//69 44//39
f 59//57 91//87 92//73 60//51
f 64//10 96//84 65//85 33//11
f 114//101 146//102 147//103 115//104
f 87//90 119//105 120//106 88//91
f 78//92 110//107 111//108 79//93
f 85//94 117//109 118//110 86//95
f 81//96 113//111 114//101 82//97
f 83//98 115//104 116//112 84//99
f 82//97 114//101 115//104 83//98
f 80//100 112//113 113//111 81//96
f 84//99 116//112 117//109 85//94
f 79//93 111//108 112//113 80//100
f 86//95 118//110 119//105 87//90
f 77//72 109//71 110//107 78//92
f 88//91 120//106 121//114 89//89
f 75//88 107//115 108//70 76//69
f 91//87 123//116 124//117 92//73
f 96//84 128//118 97//119 65//85
f 73//28 105//120 106//121 74//29
f 92//73 124//117 125//122 93//74
f 66//75 98//123 99//124 67//76
f 70//77 102//125 103//126 71//78
f 93//74 125//122 126//127 94//79
f 68//80 100//128 101//129 69//81
f 69//81 101//129 102//125 70//77
f 94//79 126//127 127//130 95//82
f 71//78 103//126 104//131 72//83
f 67//76 99//124 100//128 68//80
f 95//82 127//130 128//118 96//84
f 72//83 104//131 105//120 73//28
f 65//85 97//119 98//123 66//75
f 90//86 122//132 123//116 91//87
f 74//29 106//121 107//115 75//88
f 89//89 121//114 122//132 90//86
f 159//133 158//134 157//135 156//136 155//137 154//138 153//139 152//140 151//141 150//142 149//143 148//144 147//103 146//102 145//145 144//146 143//147 142//148 141//149 140//150 139//151 138//152 137//153 136//154 135//155 134//156 133//157 132//158 131//159 130//160 129//161 160//162
f 112//113 144//146 145//145 113//111
f 116//112 148//144 149//143 117//109
f 111//108 143//147 144//146 112//113
f 118//110 150//142 151//141 119//105
f 109//71 141//149 142//148 110//107
f 120//106 152//140 153//139 121//114
f 107//115 139//151 140//150 108//70
f 123//116 155//137 156//136 124//117
f 128//118 160//162 129//161 97//119
f 105//120 137//153 138//152 106//121
f 124//117 156//136 157//135 125//122
f 98//123 130//160 131//159 99//124
f 102//125 134//156 135//155 103//126
f 125//122 157//135 158//134 126//127
f 100//128 132//158 133//157 101//129
f 101//129 133//157 134//156 102//125
f 126//127 158//134 159//133 127//130
f 103//126 135//155 136//154 104//131
f 99//124 131//159 132//158 100//128
f 127//130 159//133 160//162 128//118
f 104//131 136//154 137//153 105//120
f 97//119 129//161 130//160 98//123
f 122//132 154//138 155//137 123//116
f 106//121 138//152 139//151 107//115
f 121//114 153//139 154//138 122//132
f 108//70 140//150 141//149 109//71
f 119//105 151//141 152//140 120//106
f 110//107 142//148 143//147 111//108
f 117//109 149//143 150//142 118//110
f 113//111 145//145 146//102 114//101
f 115//104 147//103 148//144 116//112
f 176//163 208//164 209//165 177//166
f 23//52 183//167 184//168 24//58
f 10//24 170//23 171//169 11//61
f 24//58 184//168 185//170 25//67
f 11//61 171//169 172//171 12//36
f 25//67 185//170 186//172 26//49
f 12//36 172//171 173//173 13//20
f 26//49 186//172 187//174 27//16
f 13//20 173//173 174//175 14//17
f 27//16 187//174 188//176 28//13
f 14//17 174//175 175//177 15//8
f 1//9 161//178 162//179 2//59
f 28//13 188//176 189//180 29//4
f 15//8 175//177 176//163 16//5
f 2//59 162//179 163//181 3//34
f 29//4 189//180 190//182 30//1
f 16//5 176//163 177//166 17//47
f 3//34 163//181 164//183 4//31
f 30//1 190//182 191//184 31//25
f 17//47 177//166 178//185 18//44
f 4//31 164//183 165//186 5//50
f 31//25 191//184 192//187 32//12
f 18//44 178//185 179//188 19//54
f 5//50 165//186 166//189 6//56
f 32//12 192//187 161//178 1//9
f 19//54 179//188 180//190 20//63
f 6//56 166//189 167//191 7//65
f 20//63 180//190 181//192 21//40
f 7//65 167//191 168//193 8//43
f 21//40 181//192 182//194 22//37
f 8//43 168//193 169//22 9//21
f 22//37 182//194 183//167 23//52
f 194//195 193//196 224//197 223//198 222//199 221//200 220//201 219//202 218//203 217//204 216//205 215//206 214//207 213//208 212//209 211//210 210//211 209//165 208//164 207//212 206//213 205//214 204//215 203//216 202//217 201//218 200//219 199//220 198//221 197//222 196//223 195//224
f 163//181 195//224 196//223 164//183
f 190//182 222//199 223//198 191//184
f 177//166 209//165 210//211 178//185
f 164//183 196//223 197//222 165//186
f 191//184 223//198 224//197 192//187
f 178//185 210//211 211//210 179//188
f 165//186 197//222 198//221 166//189
f 192//187 224//197 193//196 161//178
f 179//188 211//210 212//209 180//190
f 166//189 198//221 199//220 167//191
f 180//190 212//209 213//208 181//192
f 167//191 199//220 200//219 168//193
f 181//192 213//208 214//207 182//194
f 168//193 200//219 201//218 169//22
f 182//194 214//207 215//206 183//167
f 169//22 201//218 202//217 170//23
f 183//167 215//206 216//205 184//168
f 170//23 202//217 203//216 171//169
f 184//168 216//205 217//204 185//170
f 171//169 203//216 204//215 172//171
f 185//170 217//204 218//203 186//172
f 172//171 204//215 205//214 173//173
f 186//172 218//203 219//202 187//174
f 173//173 205//214 206//213 174//175
f 187//174 219//202 220//201 188//176
f 174//175 206//213 207//212 175//177
f 161//178 193//196 194//195 162//179
f 188//176 220//201 221//200 189//180
f 175//177 207//212 208//164 176//163
f 162//179 194//195 195//224 163//181
f 189//180 221//200 222//199 190//182
