# Blender v2.78 (sub 0) OBJ File: 'cup_of_tea.blend'
# www.blender.org
mtllib cup_of_tea.mtl
o Plane
v -3.675481 -0.163280 3.686702
v 3.625915 -0.163280 3.686702
v -3.675481 -0.163280 -3.614694
v 3.625915 -0.163280 -3.614694
v -3.712203 -0.199243 3.723424
v 3.662637 -0.199243 3.723424
v -3.712203 -0.199243 -3.651416
v 3.662637 -0.199243 -3.651416
v -3.743959 -0.264176 3.755180
v 3.694393 -0.264176 3.755180
v -3.743959 -0.264176 -3.683172
v 3.694393 -0.264176 -3.683172
v -3.710762 -0.389048 3.721982
v 3.661195 -0.389048 3.721982
v -3.710762 -0.389048 -3.649974
v 3.661195 -0.389048 -3.649974
v -1.873623 -0.603827 1.884844
v 1.824057 -0.603827 1.884844
v -1.873623 -0.603827 -1.812836
v 1.824057 -0.603827 -1.812836
v -0.388358 -1.453038 0.399579
v 0.338792 -1.453038 0.399579
v -0.388358 -1.453038 -0.327571
v 0.338792 -1.453038 -0.327571
v -0.388358 -4.905827 0.399579
v 0.338792 -4.905827 0.399579
v -0.388358 -4.905827 -0.327571
v 0.338792 -4.905827 -0.327571
v -1.251127 -9.662580 1.262348
v 1.201561 -9.662580 1.262348
v -1.251127 -9.662580 -1.190340
v 1.201561 -9.662580 -1.190340
vt 0.0000 0.0000
vt 1.0000 0.0000
vt 1.0000 1.0000
vt 0.0000 1.0000
vt 0.0000 0.0000
vt 1.0000 0.0000
vt 1.0000 1.0000
vt 0.0000 1.0000
vt 1.0000 0.0000
vt 1.0000 1.0000
vt 0.0000 1.0000
vt 0.0000 0.0000
vt 1.0000 0.0000
vt 1.0000 1.0000
vt 0.0000 1.0000
vt 0.0000 0.0000
vt 1.0000 0.0000
vt 1.0000 1.0000
vt 0.0000 1.0000
vt 0.0000 0.0000
vt 1.0000 1.0000
vt 0.0000 1.0000
vt 0.0000 0.0000
vt 1.0000 0.0000
vt 1.0000 1.0000
vt 0.0000 1.0000
vt 0.0000 0.0000
vt 1.0000 0.0000
vt 1.0000 1.0000
vt 0.0000 1.0000
vt 0.0000 0.0000
vt 1.0000 0.0000
vt 1.0000 1.0000
vt 0.0000 1.0000
vt 0.0000 0.0000
vt 1.0000 0.0000
vt 1.0000 1.0000
vt 0.0000 1.0000
vt 0.0000 0.0000
vt 1.0000 0.0000
vt 1.0000 1.0000
vt 0.0000 1.0000
vt 0.0000 0.0000
vt 1.0000 0.0000
vt 1.0000 1.0000
vt 0.0000 1.0000
vt 0.0000 0.0000
vt 1.0000 0.0000
vt 1.0000 1.0000
vt 0.0000 1.0000
vt 0.0000 0.0000
vt 1.0000 0.0000
vt 1.0000 1.0000
vt 0.0000 1.0000
vt 0.0000 0.0000
vt 1.0000 0.0000
vt 1.0000 1.0000
vt 0.0000 1.0000
vt 0.0000 0.0000
vt 1.0000 0.0000
vt 1.0000 1.0000
vt 0.0000 1.0000
vt 0.0000 0.0000
vt 1.0000 0.0000
vt 1.0000 1.0000
vt 0.0000 1.0000
vt 0.0000 0.0000
vt 1.0000 0.0000
vt 1.0000 1.0000
vt 0.0000 1.0000
vt 0.0000 0.0000
vt 1.0000 0.0000
vt 1.0000 1.0000
vt 0.0000 1.0000
vt 0.0000 0.0000
vt 1.0000 0.0000
vt 1.0000 1.0000
vt 0.0000 1.0000
vt 0.0000 0.0000
vt 1.0000 0.0000
vt 1.0000 1.0000
vt 0.0000 1.0000
vt 0.0000 0.0000
vt 1.0000 0.0000
vt 1.0000 1.0000
vt 0.0000 1.0000
vt 0.0000 0.0000
vt 1.0000 0.0000
vt 1.0000 1.0000
vt 0.0000 1.0000
vt 0.0000 0.0000
vt 1.0000 0.0000
vt 1.0000 1.0000
vt 0.0000 1.0000
vt 0.0000 0.0000
vt 1.0000 0.0000
vt 1.0000 1.0000
vt 0.0000 1.0000
vt 0.0000 0.0000
vt 1.0000 0.0000
vt 1.0000 1.0000
vt 0.0000 1.0000
vt 0.0000 0.0000
vt 1.0000 0.0000
vt 1.0000 1.0000
vt 0.0000 1.0000
vt 0.0000 0.0000
vt 1.0000 0.0000
vt 0.0000 1.0000
vt 0.0000 0.0000
vt 1.0000 0.0000
vt 1.0000 1.0000
vt 0.0000 0.0000
vt 1.0000 0.0000
vt 1.0000 1.0000
vt 0.0000 1.0000
vn 0.2961 -0.9081 -0.2961
vn 0.2961 -0.9081 0.2961
vn -0.2961 -0.9081 0.2961
vn -0.2961 -0.9081 -0.2961
vn -0.5266 -0.6673 -0.5266
vn -0.5266 -0.6673 0.5266
vn -0.7033 -0.1029 0.7033
vn -0.7033 -0.1029 -0.7033
vn 0.5266 -0.6673 -0.5266
vn 0.5266 -0.6673 0.5266
vn 0.7033 -0.1029 0.7033
vn 0.7033 -0.1029 -0.7033
vn 0.5112 0.6908 -0.5112
vn 0.5112 0.6908 0.5112
vn -0.5112 0.6908 0.5112
vn 0.1119 0.9874 0.1119
vn -0.1119 0.9874 0.1119
vn -0.5112 0.6908 -0.5112
vn -0.1119 0.9874 -0.1119
vn -0.4907 0.7199 0.4907
vn -0.4907 0.7199 -0.4907
vn 0.1119 0.9874 -0.1119
vn 0.4907 0.7199 0.4907
vn 0.7008 -0.1328 0.7008
vn -0.7008 -0.1328 0.7008
vn 0.4907 0.7199 -0.4907
vn 0.7008 -0.1328 -0.7008
vn -0.7008 -0.1328 -0.7008
vn -0.6187 0.4840 -0.6187
vn 0.6187 0.4840 -0.6187
vn -0.6187 0.4840 0.6187
vn 0.6187 0.4840 0.6187
usemtl souvenir_bse
s off
f 1/1 3/2 4/3 2/4
f 6/5 8/6 12/7 10/8
f 1/1 2/9 6/10 5/11
f 2/12 4/13 8/14 6/15
f 3/16 1/17 5/18 7/19
f 4/20 3/2 7/21 8/22
f 11/23 9/24 13/25 15/26
f 7/27 5/28 9/29 11/30
f 8/31 7/32 11/33 12/34
f 5/35 6/36 10/37 9/38
f 16/39 15/40 19/41 20/42
f 12/43 11/44 15/45 16/46
f 9/47 10/48 14/49 13/50
f 10/51 12/52 16/53 14/54
f 18/55 20/56 24/57 22/58
f 13/59 14/60 18/61 17/62
f 14/63 16/64 20/65 18/66
f 15/67 13/68 17/69 19/70
f 24/71 23/72 27/73 28/74
f 19/75 17/76 21/77 23/78
f 20/79 19/80 23/81 24/82
f 17/83 18/84 22/85 21/86
f 25/87 26/88 30/89 29/90
f 21/91 22/92 26/93 25/94
f 22/95 24/96 28/97 26/98
f 23/99 21/100 25/101 27/102
f 29/103 30/104 32/105 31/106
f 26/107 28/108 32/105 30/109
f 27/110 25/111 29/112 31/106
f 28/113 27/114 31/115 32/116
