# Blender v2.78 (sub 0) OBJ File: 'cup_of_tea.blend'
# www.blender.org
mtllib cup_of_tea.mtl
o Sphere
v 1.147002 2.319948 -0.772709
v 1.115399 2.309457 -0.786756
v 1.086274 2.292421 -0.799701
v 1.060745 2.269494 -0.811048
v 1.039794 2.241557 -0.820360
v 1.024227 2.209684 -0.827280
v 1.014640 2.175100 -0.831541
v 1.011403 2.139134 -0.832980
v 1.014640 2.103168 -0.831541
v 1.024227 2.068584 -0.827280
v 1.039794 2.036711 -0.820360
v 1.060745 2.008774 -0.811048
v 1.086274 1.985847 -0.799701
v 1.115399 1.968811 -0.786756
v 1.147002 1.958320 -0.772709
v 1.150484 2.319948 -0.778841
v 1.122228 2.309457 -0.798783
v 1.096188 2.292421 -0.817162
v 1.073364 2.269494 -0.833271
v 1.054632 2.241557 -0.846491
v 1.040713 2.209684 -0.856315
v 1.032142 2.175100 -0.862364
v 1.029248 2.139134 -0.864407
v 1.032142 2.103168 -0.862364
v 1.040713 2.068584 -0.856315
v 1.054632 2.036711 -0.846491
v 1.073364 2.008774 -0.833271
v 1.096188 1.985847 -0.817162
v 1.122228 1.968811 -0.798783
v 1.150484 1.958320 -0.778841
v 1.155094 2.319948 -0.784175
v 1.131272 2.309457 -0.809246
v 1.109318 2.292421 -0.832352
v 1.090075 2.269494 -0.852604
v 1.074282 2.241557 -0.869225
v 1.062547 2.209684 -0.881575
v 1.055321 2.175100 -0.889181
v 1.052881 2.139134 -0.891749
v 1.055321 2.103168 -0.889181
v 1.062547 2.068584 -0.881575
v 1.074282 2.036711 -0.869225
v 1.090075 2.008774 -0.852604
v 1.109318 1.985847 -0.832352
v 1.131272 1.968811 -0.809246
v 1.155094 1.958320 -0.784175
v 1.160657 2.319948 -0.788507
v 1.142184 2.309457 -0.817744
v 1.125159 2.292421 -0.844689
v 1.110237 2.269494 -0.868306
v 1.097990 2.241557 -0.887689
v 1.088890 2.209684 -0.902091
v 1.083287 2.175100 -0.910960
v 1.081394 2.139134 -0.913955
v 1.083287 2.103168 -0.910960
v 1.088890 2.068584 -0.902091
v 1.097990 2.036711 -0.887689
v 1.110237 2.008774 -0.868306
v 1.125159 1.985847 -0.844689
v 1.142184 1.968811 -0.817744
v 1.160657 1.958320 -0.788507
v 1.166958 2.319948 -0.791671
v 1.154544 2.309457 -0.823950
v 1.143103 2.292421 -0.853698
v 1.133075 2.269494 -0.879773
v 1.124845 2.241557 -0.901172
v 1.118729 2.209684 -0.917073
v 1.114964 2.175100 -0.926865
v 1.113692 2.139134 -0.930171
v 1.114964 2.103168 -0.926865
v 1.118729 2.068584 -0.917073
v 1.124845 2.036711 -0.901172
v 1.133075 2.008774 -0.879773
v 1.143103 1.985847 -0.853698
v 1.154544 1.968811 -0.823950
v 1.166958 1.958320 -0.791671
v 1.179868 1.954777 -0.758101
v 1.173755 2.319948 -0.793544
v 1.167877 2.309457 -0.827625
v 1.162459 2.292421 -0.859034
v 1.157711 2.269494 -0.886564
v 1.153814 2.241557 -0.909158
v 1.150918 2.209684 -0.925946
v 1.149135 2.175100 -0.936284
v 1.148533 2.139134 -0.939775
v 1.149135 2.103168 -0.936284
v 1.150918 2.068584 -0.925946
v 1.153814 2.036711 -0.909158
v 1.157711 2.008774 -0.886564
v 1.162459 1.985847 -0.859034
v 1.167877 1.968811 -0.827625
v 1.173755 1.958320 -0.793544
v 1.180787 2.319948 -0.794056
v 1.181670 2.309457 -0.828629
v 1.182485 2.292421 -0.860491
v 1.183198 2.269494 -0.888419
v 1.183784 2.241557 -0.911338
v 1.184219 2.209684 -0.928369
v 1.184487 2.175100 -0.938857
v 1.184578 2.139134 -0.942398
v 1.184487 2.103168 -0.938857
v 1.184219 2.068584 -0.928369
v 1.183784 2.036711 -0.911338
v 1.183198 2.008774 -0.888419
v 1.182485 1.985847 -0.860491
v 1.181670 1.968811 -0.828629
v 1.180787 1.958320 -0.794056
v 1.187784 2.319948 -0.793186
v 1.195395 2.309457 -0.826922
v 1.202410 2.292421 -0.858013
v 1.208558 2.269494 -0.885265
v 1.213604 2.241557 -0.907630
v 1.217353 2.209684 -0.924249
v 1.219662 2.175100 -0.934482
v 1.220442 2.139134 -0.937938
v 1.219662 2.103168 -0.934482
v 1.217353 2.068584 -0.924249
v 1.213604 2.036711 -0.907630
v 1.208558 2.008774 -0.885265
v 1.202410 1.985847 -0.858013
v 1.195395 1.968811 -0.826922
v 1.187784 1.958320 -0.793186
v 1.194476 2.319948 -0.790967
v 1.208523 2.309457 -0.822570
v 1.221468 2.292421 -0.851696
v 1.232815 2.269494 -0.877225
v 1.242127 2.241557 -0.898175
v 1.249047 2.209684 -0.913743
v 1.253308 2.175100 -0.923330
v 1.254746 2.139134 -0.926567
v 1.253308 2.103168 -0.923330
v 1.249047 2.068584 -0.913743
v 1.242127 2.036711 -0.898175
v 1.232815 2.008774 -0.877225
v 1.221468 1.985847 -0.851696
v 1.208523 1.968811 -0.822570
v 1.194476 1.958320 -0.790967
v 1.200607 2.319948 -0.787486
v 1.220550 2.309457 -0.815741
v 1.238928 2.292421 -0.841782
v 1.255037 2.269494 -0.864606
v 1.268258 2.241557 -0.883338
v 1.278082 2.209684 -0.897257
v 1.284131 2.175100 -0.905828
v 1.286174 2.139134 -0.908722
v 1.284131 2.103168 -0.905828
v 1.278082 2.068584 -0.897257
v 1.268258 2.036711 -0.883338
v 1.255037 2.008774 -0.864606
v 1.238928 1.985847 -0.841782
v 1.220550 1.968811 -0.815741
v 1.200607 1.958320 -0.787486
v 1.205942 2.319948 -0.782875
v 1.231013 2.309457 -0.806697
v 1.254119 2.292421 -0.828652
v 1.274371 2.269494 -0.847895
v 1.290992 2.241557 -0.863687
v 1.303342 2.209684 -0.875422
v 1.310947 2.175100 -0.882649
v 1.313515 2.139134 -0.885089
v 1.310947 2.103168 -0.882649
v 1.303342 2.068584 -0.875422
v 1.290992 2.036711 -0.863687
v 1.274371 2.008774 -0.847895
v 1.254119 1.985847 -0.828652
v 1.231013 1.968811 -0.806697
v 1.205942 1.958320 -0.782875
v 1.210274 2.319948 -0.777313
v 1.239511 2.309457 -0.795786
v 1.266456 2.292421 -0.812811
v 1.290073 2.269494 -0.827733
v 1.309455 2.241557 -0.839979
v 1.323858 2.209684 -0.849079
v 1.332727 2.175100 -0.854683
v 1.335721 2.139134 -0.856575
v 1.332727 2.103168 -0.854683
v 1.323858 2.068584 -0.849079
v 1.309455 2.036711 -0.839979
v 1.290073 2.008774 -0.827733
v 1.266456 1.985847 -0.812811
v 1.239511 1.968811 -0.795786
v 1.210274 1.958320 -0.777313
v 1.213437 2.319948 -0.771012
v 1.245717 2.309457 -0.783426
v 1.275465 2.292421 -0.794867
v 1.301540 2.269494 -0.804895
v 1.322939 2.241557 -0.813125
v 1.338840 2.209684 -0.819240
v 1.348632 2.175100 -0.823006
v 1.351938 2.139134 -0.824278
v 1.348632 2.103168 -0.823006
v 1.338840 2.068584 -0.819240
v 1.322939 2.036711 -0.813125
v 1.301540 2.008774 -0.804895
v 1.275465 1.985847 -0.794867
v 1.245717 1.968811 -0.783426
v 1.213437 1.958320 -0.771012
v 1.215311 2.319948 -0.764215
v 1.249392 2.309457 -0.770093
v 1.280801 2.292421 -0.775511
v 1.308331 2.269494 -0.780259
v 1.330925 2.241557 -0.784156
v 1.347713 2.209684 -0.787052
v 1.358051 2.175100 -0.788835
v 1.361542 2.139134 -0.789437
v 1.358051 2.103168 -0.788835
v 1.347713 2.068584 -0.787052
v 1.330925 2.036711 -0.784156
v 1.308331 2.008774 -0.780259
v 1.280801 1.985847 -0.775511
v 1.249392 1.968811 -0.770093
v 1.215311 1.958320 -0.764215
v 1.215823 2.319948 -0.757183
v 1.250395 2.309457 -0.756299
v 1.282258 2.292421 -0.755485
v 1.310185 2.269494 -0.754771
v 1.333105 2.241557 -0.754186
v 1.350136 2.209684 -0.753751
v 1.360623 2.175100 -0.753483
v 1.364165 2.139134 -0.753392
v 1.360623 2.103168 -0.753483
v 1.350136 2.068584 -0.753751
v 1.333105 2.036711 -0.754186
v 1.310185 2.008774 -0.754771
v 1.282258 1.985847 -0.755485
v 1.250395 1.968811 -0.756299
v 1.215823 1.958320 -0.757183
v 1.214953 2.319948 -0.750186
v 1.248689 2.309457 -0.742575
v 1.279780 2.292421 -0.735560
v 1.307032 2.269494 -0.729412
v 1.329397 2.241557 -0.724366
v 1.346015 2.209684 -0.720617
v 1.356249 2.175100 -0.718308
v 1.359705 2.139134 -0.717528
v 1.356249 2.103168 -0.718308
v 1.346015 2.068584 -0.720617
v 1.329397 2.036711 -0.724366
v 1.307032 2.008774 -0.729412
v 1.279780 1.985847 -0.735560
v 1.248689 1.968811 -0.742575
v 1.214953 1.958320 -0.750186
v 1.212734 2.319948 -0.743493
v 1.244337 2.309457 -0.729447
v 1.273463 2.292421 -0.716501
v 1.298991 2.269494 -0.705155
v 1.319942 2.241557 -0.695843
v 1.335510 2.209684 -0.688923
v 1.345097 2.175100 -0.684662
v 1.348334 2.139134 -0.683223
v 1.345097 2.103168 -0.684662
v 1.335510 2.068584 -0.688923
v 1.319942 2.036711 -0.695843
v 1.298991 2.008774 -0.705155
v 1.273463 1.985847 -0.716501
v 1.244337 1.968811 -0.729447
v 1.212734 1.958320 -0.743493
v 1.209253 2.319948 -0.737362
v 1.237508 2.309457 -0.717420
v 1.263548 2.292421 -0.699041
v 1.286373 2.269494 -0.682932
v 1.305104 2.241557 -0.669712
v 1.319023 2.209684 -0.659888
v 1.327595 2.175100 -0.653839
v 1.330489 2.139134 -0.651796
v 1.327595 2.103168 -0.653839
v 1.319023 2.068584 -0.659888
v 1.305104 2.036711 -0.669712
v 1.286373 2.008774 -0.682932
v 1.263548 1.985847 -0.699041
v 1.237508 1.968811 -0.717420
v 1.209253 1.958320 -0.737362
v 1.179868 2.323490 -0.758101
v 1.204642 2.319948 -0.732028
v 1.228464 2.309457 -0.706957
v 1.250419 2.292421 -0.683851
v 1.269662 2.269494 -0.663599
v 1.285454 2.241557 -0.646978
v 1.297189 2.209684 -0.634628
v 1.304415 2.175100 -0.627022
v 1.306855 2.139134 -0.624454
v 1.304415 2.103168 -0.627022
v 1.297189 2.068584 -0.634628
v 1.285454 2.036711 -0.646978
v 1.269662 2.008774 -0.663599
v 1.250419 1.985847 -0.683851
v 1.228464 1.968811 -0.706957
v 1.204642 1.958320 -0.732028
v 1.199080 2.319948 -0.727696
v 1.217553 2.309457 -0.698459
v 1.234577 2.292421 -0.671514
v 1.249500 2.269494 -0.647897
v 1.261746 2.241557 -0.628514
v 1.270846 2.209684 -0.614112
v 1.276450 2.175100 -0.605243
v 1.278342 2.139134 -0.602248
v 1.276450 2.103168 -0.605243
v 1.270846 2.068584 -0.614112
v 1.261746 2.036711 -0.628514
v 1.249500 2.008774 -0.647897
v 1.234577 1.985847 -0.671514
v 1.217553 1.968811 -0.698459
v 1.199080 1.958320 -0.727696
v 1.192779 2.319948 -0.724532
v 1.205193 2.309457 -0.692253
v 1.216634 2.292421 -0.662505
v 1.226662 2.269494 -0.636430
v 1.234892 2.241557 -0.615031
v 1.241007 2.209684 -0.599130
v 1.244773 2.175100 -0.589338
v 1.246045 2.139134 -0.586032
v 1.244773 2.103168 -0.589338
v 1.241007 2.068584 -0.599130
v 1.234892 2.036711 -0.615031
v 1.226662 2.008774 -0.636430
v 1.216634 1.985847 -0.662505
v 1.205193 1.968811 -0.692253
v 1.192779 1.958320 -0.724532
v 1.185982 2.319948 -0.722659
v 1.191860 2.309457 -0.688578
v 1.197277 2.292421 -0.657169
v 1.202026 2.269494 -0.629639
v 1.205923 2.241557 -0.607045
v 1.208819 2.209684 -0.590257
v 1.210602 2.175100 -0.579919
v 1.211204 2.139134 -0.576428
v 1.210602 2.103168 -0.579919
v 1.208819 2.068584 -0.590257
v 1.205923 2.036711 -0.607045
v 1.202026 2.008774 -0.629639
v 1.197277 1.985847 -0.657169
v 1.191860 1.968811 -0.688578
v 1.185982 1.958320 -0.722659
v 1.178949 2.319948 -0.722147
v 1.178066 2.309457 -0.687574
v 1.177252 2.292421 -0.655712
v 1.176538 2.269494 -0.627784
v 1.175953 2.241557 -0.604865
v 1.175517 2.209684 -0.587834
v 1.175249 2.175100 -0.577346
v 1.175159 2.139134 -0.573805
v 1.175249 2.103168 -0.577346
v 1.175517 2.068584 -0.587834
v 1.175953 2.036711 -0.604865
v 1.176538 2.008774 -0.627784
v 1.177252 1.985847 -0.655712
v 1.178066 1.968811 -0.687574
v 1.178949 1.958320 -0.722147
v 1.171953 2.319948 -0.723017
v 1.164342 2.309457 -0.689281
v 1.157327 2.292421 -0.658190
v 1.151179 2.269494 -0.630938
v 1.146133 2.241557 -0.608573
v 1.142383 2.209684 -0.591954
v 1.140075 2.175100 -0.581721
v 1.139295 2.139134 -0.578265
v 1.140075 2.103168 -0.581721
v 1.142383 2.068584 -0.591954
v 1.146133 2.036711 -0.608573
v 1.151179 2.008774 -0.630938
v 1.157327 1.985847 -0.658190
v 1.164342 1.968811 -0.689281
v 1.171953 1.958320 -0.723017
v 1.165260 2.319948 -0.725235
v 1.151214 2.309457 -0.693633
v 1.138268 2.292421 -0.664507
v 1.126922 2.269494 -0.638978
v 1.117610 2.241557 -0.618028
v 1.110690 2.209684 -0.602460
v 1.106429 2.175100 -0.592873
v 1.104990 2.139134 -0.589636
v 1.106429 2.103168 -0.592873
v 1.110690 2.068584 -0.602460
v 1.117610 2.036711 -0.618028
v 1.126922 2.008774 -0.638978
v 1.138268 1.985847 -0.664507
v 1.151214 1.968811 -0.693633
v 1.165260 1.958320 -0.725236
v 1.159129 2.319948 -0.728717
v 1.139187 2.309457 -0.700462
v 1.120808 2.292421 -0.674421
v 1.104699 2.269494 -0.651597
v 1.091479 2.241557 -0.632865
v 1.081655 2.209684 -0.618946
v 1.075606 2.175100 -0.610375
v 1.073563 2.139134 -0.607481
v 1.075606 2.103168 -0.610375
v 1.081655 2.068584 -0.618946
v 1.091479 2.036711 -0.632865
v 1.104699 2.008774 -0.651597
v 1.120808 1.985847 -0.674421
v 1.139187 1.968811 -0.700462
v 1.159129 1.958320 -0.728717
v 1.153795 2.319948 -0.733327
v 1.128724 2.309457 -0.709506
v 1.105618 2.292421 -0.687551
v 1.085365 2.269494 -0.668308
v 1.068745 2.241557 -0.652516
v 1.056394 2.209684 -0.640781
v 1.048789 2.175100 -0.633554
v 1.046221 2.139134 -0.631114
v 1.048789 2.103168 -0.633554
v 1.056394 2.068584 -0.640781
v 1.068745 2.036711 -0.652516
v 1.085365 2.008774 -0.668308
v 1.105618 1.985847 -0.687551
v 1.128724 1.968811 -0.709506
v 1.153795 1.958320 -0.733328
v 1.149463 2.319948 -0.738890
v 1.120226 2.309457 -0.720417
v 1.093281 2.292421 -0.703392
v 1.069663 2.269494 -0.688470
v 1.050281 2.241557 -0.676224
v 1.035879 2.209684 -0.667123
v 1.027010 2.175100 -0.661520
v 1.024015 2.139134 -0.659628
v 1.027010 2.103168 -0.661520
v 1.035879 2.068584 -0.667123
v 1.050281 2.036711 -0.676224
v 1.069663 2.008774 -0.688470
v 1.093281 1.985847 -0.703392
v 1.120226 1.968811 -0.720417
v 1.149463 1.958320 -0.738890
v 1.146299 2.319948 -0.745191
v 1.114020 2.309457 -0.732777
v 1.084271 2.292421 -0.721336
v 1.058197 2.269494 -0.711308
v 1.036798 2.241557 -0.703078
v 1.020897 2.209684 -0.696963
v 1.011105 2.175100 -0.693197
v 1.007799 2.139134 -0.691925
v 1.011105 2.103168 -0.693197
v 1.020897 2.068584 -0.696963
v 1.036798 2.036711 -0.703078
v 1.058197 2.008774 -0.711308
v 1.084271 1.985847 -0.721336
v 1.114020 1.968811 -0.732777
v 1.146299 1.958320 -0.745191
v 1.144425 2.319948 -0.751988
v 1.110345 2.309457 -0.746110
v 1.078936 2.292421 -0.740692
v 1.051405 2.269494 -0.735944
v 1.028812 2.241557 -0.732047
v 1.012024 2.209684 -0.729151
v 1.001685 2.175100 -0.727368
v 0.998195 2.139134 -0.726766
v 1.001685 2.103168 -0.727368
v 1.012024 2.068584 -0.729151
v 1.028812 2.036711 -0.732047
v 1.051405 2.008774 -0.735944
v 1.078936 1.985847 -0.740692
v 1.110345 1.968811 -0.746110
v 1.144426 1.958320 -0.751988
v 1.143914 2.319948 -0.759020
v 1.109341 2.309457 -0.759904
v 1.077479 2.292421 -0.760718
v 1.049551 2.269494 -0.761432
v 1.026632 2.241557 -0.762017
v 1.009601 2.209684 -0.762452
v 0.999113 2.175100 -0.762720
v 0.995572 2.139134 -0.762811
v 0.999113 2.103168 -0.762720
v 1.009601 2.068584 -0.762452
v 1.026632 2.036711 -0.762017
v 1.049551 2.008774 -0.761432
v 1.077479 1.985847 -0.760718
v 1.109341 1.968811 -0.759904
v 1.143914 1.958320 -0.759020
v 1.144784 2.319948 -0.766017
v 1.111048 2.309457 -0.773628
v 1.079957 2.292421 -0.780643
v 1.052705 2.269494 -0.786791
v 1.030340 2.241557 -0.791837
v 1.013721 2.209684 -0.795586
v 1.003488 2.175100 -0.797895
v 1.000032 2.139134 -0.798675
v 1.003488 2.103168 -0.797895
v 1.013721 2.068584 -0.795586
v 1.030340 2.036711 -0.791837
v 1.052705 2.008774 -0.786791
v 1.079957 1.985847 -0.780643
v 1.111048 1.968811 -0.773628
v 1.144784 1.958320 -0.766017
vn -0.8380 -0.4696 -0.2778
vn -0.6039 0.7715 -0.2002
vn -0.7352 -0.6326 -0.2437
vn -0.7352 0.6326 -0.2437
vn -0.6039 -0.7715 -0.2002
vn -0.8380 0.4696 -0.2778
vn -0.4491 -0.8810 -0.1489
vn -0.9087 0.2890 -0.3012
vn -0.2768 -0.9565 -0.0917
vn -0.9447 0.0975 -0.3131
vn -0.0935 0.9951 -0.0310
vn -0.0935 -0.9951 -0.0310
vn -0.9447 -0.0975 -0.3131
vn -0.2768 0.9566 -0.0917
vn -0.9087 -0.2890 -0.3012
vn -0.4491 0.8810 -0.1489
vn -0.8325 -0.2890 -0.4727
vn -0.4115 0.8810 -0.2336
vn -0.7677 -0.4696 -0.4359
vn -0.5533 0.7715 -0.3142
vn -0.6735 -0.6326 -0.3824
vn -0.6735 0.6326 -0.3824
vn -0.5533 -0.7715 -0.3142
vn -0.7677 0.4696 -0.4359
vn -0.4115 -0.8810 -0.2336
vn -0.8325 0.2890 -0.4727
vn -0.2535 -0.9565 -0.1440
vn -0.8654 0.0975 -0.4914
vn -0.0856 0.9951 -0.0487
vn -0.0856 -0.9951 -0.0486
vn -0.8654 -0.0975 -0.4914
vn -0.2536 0.9566 -0.1440
vn -0.3580 -0.8810 -0.3094
vn -0.7243 0.2890 -0.6260
vn -0.2206 -0.9566 -0.1907
vn -0.7529 0.0975 -0.6508
vn -0.0745 0.9951 -0.0644
vn -0.0745 -0.9951 -0.0644
vn -0.7529 -0.0975 -0.6508
vn -0.2206 0.9565 -0.1907
vn -0.7243 -0.2890 -0.6260
vn -0.3580 0.8810 -0.3094
vn -0.6679 -0.4696 -0.5773
vn -0.4813 0.7715 -0.4160
vn -0.5860 -0.6326 -0.5065
vn -0.5860 0.6326 -0.5065
vn -0.4813 -0.7715 -0.4160
vn -0.6679 0.4696 -0.5773
vn -0.2907 0.8810 -0.3733
vn -0.5425 -0.4696 -0.6965
vn -0.3909 0.7715 -0.5020
vn -0.4759 -0.6326 -0.6111
vn -0.4759 0.6326 -0.6111
vn -0.3909 -0.7715 -0.5020
vn -0.5425 0.4696 -0.6965
vn -0.2907 -0.8810 -0.3733
vn -0.5882 0.2890 -0.7553
vn -0.1792 -0.9565 -0.2300
vn -0.6115 0.0975 -0.7852
vn -0.0605 0.9951 -0.0777
vn -0.0605 -0.9951 -0.0777
vn -0.6115 -0.0975 -0.7852
vn -0.1791 0.9566 -0.2300
vn -0.5882 -0.2890 -0.7553
vn -0.4296 0.2890 -0.8555
vn -0.1308 -0.9565 -0.2606
vn -0.4466 0.0975 -0.8894
vn -0.0442 0.9951 -0.0880
vn -0.0442 -0.9951 -0.0880
vn -0.4466 -0.0975 -0.8894
vn -0.1308 0.9565 -0.2606
vn -0.4296 -0.2890 -0.8555
vn -0.2123 0.8810 -0.4229
vn -0.3962 -0.4696 -0.7890
vn -0.2855 0.7715 -0.5686
vn -0.3475 -0.6326 -0.6922
vn -0.3475 0.6326 -0.6922
vn -0.2855 -0.7715 -0.5686
vn -0.3962 0.4696 -0.7890
vn -0.2123 -0.8810 -0.4229
vn -0.2346 -0.4696 -0.8511
vn -0.1691 0.7715 -0.6133
vn -0.2058 -0.6326 -0.7467
vn -0.2058 0.6326 -0.7467
vn -0.1691 -0.7715 -0.6133
vn -0.2346 0.4696 -0.8511
vn -0.1257 -0.8810 -0.4562
vn -0.2544 0.2890 -0.9229
vn -0.0775 -0.9566 -0.2811
vn -0.2645 0.0976 -0.9594
vn -0.0262 0.9951 -0.0949
vn -0.0262 -0.9951 -0.0949
vn -0.2645 -0.0976 -0.9594
vn -0.0775 0.9566 -0.2811
vn -0.2544 -0.2890 -0.9229
vn -0.1257 0.8810 -0.4562
vn -0.0212 -0.9565 -0.2908
vn -0.0722 0.0976 -0.9926
vn -0.0071 0.9951 -0.0982
vn -0.0071 -0.9951 -0.0982
vn -0.0722 -0.0976 -0.9926
vn -0.0212 0.9565 -0.2908
vn -0.0695 -0.2890 -0.9548
vn -0.0343 0.8810 -0.4719
vn -0.0641 -0.4696 -0.8805
vn -0.0462 0.7715 -0.6345
vn -0.0562 -0.6326 -0.7725
vn -0.0562 0.6326 -0.7725
vn -0.0462 -0.7715 -0.6345
vn -0.0641 0.4696 -0.8805
vn -0.0343 -0.8810 -0.4719
vn -0.0695 0.2890 -0.9548
vn 0.0956 -0.6326 -0.7686
vn 0.0956 0.6326 -0.7686
vn 0.0785 -0.7715 -0.6314
vn 0.1090 0.4696 -0.8761
vn 0.0584 -0.8810 -0.4695
vn 0.1181 0.2890 -0.9500
vn 0.0360 -0.9565 -0.2893
vn 0.1228 0.0976 -0.9876
vn 0.0122 0.9951 -0.0977
vn 0.0122 -0.9951 -0.0977
vn 0.1228 -0.0976 -0.9876
vn 0.0360 0.9565 -0.2893
vn 0.1181 -0.2890 -0.9500
vn 0.0584 0.8810 -0.4696
vn 0.1090 -0.4696 -0.8761
vn 0.0785 0.7715 -0.6314
vn 0.0310 0.9951 -0.0935
vn 0.0310 -0.9951 -0.0935
vn 0.3131 -0.0976 -0.9447
vn 0.0917 0.9565 -0.2768
vn 0.3012 -0.2890 -0.9087
vn 0.1489 0.8810 -0.4491
vn 0.2778 -0.4696 -0.8380
vn 0.2002 0.7715 -0.6039
vn 0.2437 -0.6326 -0.7352
vn 0.2437 0.6326 -0.7352
vn 0.2002 -0.7715 -0.6039
vn 0.2778 0.4696 -0.8380
vn 0.1489 -0.8810 -0.4491
vn 0.3012 0.2890 -0.9087
vn 0.0917 -0.9565 -0.2768
vn 0.3131 0.0976 -0.9447
vn 0.3824 0.6326 -0.6735
vn 0.3142 -0.7715 -0.5533
vn 0.4359 0.4696 -0.7677
vn 0.2336 -0.8810 -0.4115
vn 0.4727 0.2890 -0.8325
vn 0.1440 -0.9566 -0.2535
vn 0.4914 0.0976 -0.8654
vn 0.0486 0.9951 -0.0856
vn 0.0486 -0.9951 -0.0856
vn 0.4914 -0.0976 -0.8654
vn 0.1440 0.9566 -0.2535
vn 0.4727 -0.2890 -0.8325
vn 0.2336 0.8810 -0.4115
vn 0.4359 -0.4696 -0.7677
vn 0.3142 0.7715 -0.5533
vn 0.3824 -0.6326 -0.6735
vn 0.6508 -0.0976 -0.7529
vn 0.1907 0.9566 -0.2206
vn 0.6260 -0.2890 -0.7243
vn 0.3094 0.8810 -0.3580
vn 0.5773 -0.4696 -0.6679
vn 0.4160 0.7715 -0.4813
vn 0.5065 -0.6326 -0.5860
vn 0.5065 0.6326 -0.5860
vn 0.4160 -0.7715 -0.4813
vn 0.5773 0.4696 -0.6679
vn 0.3094 -0.8810 -0.3580
vn 0.6260 0.2890 -0.7243
vn 0.1907 -0.9565 -0.2206
vn 0.6508 0.0976 -0.7529
vn 0.0644 0.9951 -0.0745
vn 0.0644 -0.9951 -0.0745
vn 0.5020 -0.7715 -0.3909
vn 0.6965 0.4696 -0.5425
vn 0.3733 -0.8810 -0.2907
vn 0.7553 0.2890 -0.5882
vn 0.2300 -0.9565 -0.1791
vn 0.7852 0.0976 -0.6115
vn 0.0777 0.9951 -0.0605
vn 0.0777 -0.9951 -0.0605
vn 0.7852 -0.0976 -0.6115
vn 0.2300 0.9565 -0.1792
vn 0.7553 -0.2890 -0.5882
vn 0.3733 0.8810 -0.2907
vn 0.6965 -0.4696 -0.5425
vn 0.5020 0.7715 -0.3909
vn 0.6111 -0.6326 -0.4759
vn 0.6111 0.6326 -0.4759
vn 0.2606 0.9565 -0.1308
vn 0.8555 -0.2890 -0.4296
vn 0.4229 0.8810 -0.2123
vn 0.7890 -0.4696 -0.3962
vn 0.5686 0.7715 -0.2855
vn 0.6922 -0.6326 -0.3475
vn 0.6922 0.6326 -0.3475
vn 0.5686 -0.7715 -0.2855
vn 0.7890 0.4696 -0.3962
vn 0.4229 -0.8810 -0.2123
vn 0.8555 0.2890 -0.4296
vn 0.2606 -0.9565 -0.1308
vn 0.8894 0.0976 -0.4466
vn 0.0880 0.9951 -0.0442
vn 0.0880 -0.9951 -0.0442
vn 0.8894 -0.0976 -0.4466
vn 0.8511 0.4696 -0.2346
vn 0.4562 -0.8810 -0.1257
vn 0.9229 0.2890 -0.2544
vn 0.2811 -0.9565 -0.0775
vn 0.9594 0.0976 -0.2645
vn 0.0949 0.9951 -0.0261
vn 0.0949 -0.9951 -0.0261
vn 0.9594 -0.0976 -0.2645
vn 0.2811 0.9565 -0.0775
vn 0.9229 -0.2890 -0.2544
vn 0.4562 0.8810 -0.1257
vn 0.8511 -0.4696 -0.2346
vn 0.6133 0.7715 -0.1691
vn 0.7467 -0.6326 -0.2058
vn 0.7467 0.6326 -0.2058
vn 0.6133 -0.7715 -0.1691
vn 0.9548 -0.2890 -0.0695
vn 0.4719 0.8810 -0.0343
vn 0.8805 -0.4696 -0.0641
vn 0.6345 0.7715 -0.0462
vn 0.7725 -0.6326 -0.0562
vn 0.7725 0.6326 -0.0562
vn 0.6345 -0.7715 -0.0462
vn 0.8805 0.4696 -0.0641
vn 0.4719 -0.8810 -0.0343
vn 0.9548 0.2890 -0.0695
vn 0.2908 -0.9565 -0.0212
vn 0.9926 0.0975 -0.0722
vn 0.0982 0.9951 -0.0072
vn 0.0982 -0.9951 -0.0072
vn 0.9926 -0.0975 -0.0722
vn 0.2908 0.9566 -0.0211
vn 0.4695 -0.8810 0.0584
vn 0.9500 0.2890 0.1181
vn 0.2893 -0.9565 0.0360
vn 0.9876 0.0976 0.1228
vn 0.0977 0.9951 0.0121
vn 0.0977 -0.9951 0.0121
vn 0.9876 -0.0976 0.1228
vn 0.2893 0.9565 0.0360
vn 0.9500 -0.2890 0.1181
vn 0.4696 0.8810 0.0584
vn 0.8761 -0.4696 0.1090
vn 0.6314 0.7715 0.0785
vn 0.7686 -0.6326 0.0956
vn 0.7686 0.6326 0.0956
vn 0.6314 -0.7715 0.0785
vn 0.8761 0.4696 0.1089
vn 0.8380 -0.4696 0.2778
vn 0.6039 0.7715 0.2002
vn 0.7352 -0.6326 0.2437
vn 0.7352 0.6326 0.2437
vn 0.6039 -0.7715 0.2002
vn 0.8380 0.4696 0.2778
vn 0.4491 -0.8810 0.1489
vn 0.9087 0.2890 0.3012
vn 0.2768 -0.9565 0.0918
vn 0.9447 0.0976 0.3131
vn 0.0935 0.9951 0.0310
vn 0.0935 -0.9951 0.0310
vn 0.9447 -0.0976 0.3131
vn 0.2768 0.9565 0.0917
vn 0.9087 -0.2890 0.3012
vn 0.4491 0.8810 0.1489
vn 0.2536 -0.9565 0.1440
vn 0.8654 0.0975 0.4914
vn 0.0856 0.9951 0.0486
vn 0.0856 -0.9951 0.0486
vn 0.8654 -0.0975 0.4914
vn 0.2535 0.9566 0.1440
vn 0.8325 -0.2890 0.4727
vn 0.4115 0.8810 0.2336
vn 0.7677 -0.4696 0.4359
vn 0.5533 0.7715 0.3142
vn 0.6735 -0.6326 0.3824
vn 0.6735 0.6326 0.3824
vn 0.5533 -0.7715 0.3142
vn 0.7677 0.4696 0.4359
vn 0.4115 -0.8810 0.2336
vn 0.8325 0.2890 0.4727
vn 0.4813 0.7715 0.4160
vn 0.5860 -0.6326 0.5065
vn 0.5860 0.6326 0.5065
vn 0.4813 -0.7715 0.4160
vn 0.6679 0.4696 0.5773
vn 0.3580 -0.8810 0.3094
vn 0.7243 0.2890 0.6260
vn 0.2206 -0.9566 0.1907
vn 0.7529 0.0975 0.6508
vn 0.0745 0.9951 0.0644
vn 0.0745 -0.9951 0.0644
vn 0.7529 -0.0975 0.6508
vn 0.2206 0.9565 0.1907
vn 0.7243 -0.2890 0.6260
vn 0.3580 0.8810 0.3094
vn 0.6679 -0.4696 0.5773
vn 0.6115 0.0975 0.7852
vn 0.0605 0.9951 0.0777
vn 0.0605 -0.9951 0.0777
vn 0.6115 -0.0975 0.7852
vn 0.1792 0.9566 0.2300
vn 0.5882 -0.2890 0.7553
vn 0.2907 0.8810 0.3733
vn 0.5425 -0.4696 0.6965
vn 0.3909 0.7715 0.5020
vn 0.4759 -0.6326 0.6111
vn 0.4759 0.6326 0.6111
vn 0.3909 -0.7715 0.5020
vn 0.5425 0.4696 0.6965
vn 0.2907 -0.8810 0.3733
vn 0.5882 0.2890 0.7553
vn 0.1792 -0.9566 0.2300
vn 0.3475 -0.6326 0.6922
vn 0.3475 0.6326 0.6922
vn 0.2855 -0.7715 0.5686
vn 0.3962 0.4696 0.7890
vn 0.2123 -0.8810 0.4229
vn 0.4296 0.2890 0.8555
vn 0.1308 -0.9566 0.2606
vn 0.4466 0.0976 0.8894
vn 0.0442 0.9951 0.0880
vn 0.0442 -0.9951 0.0880
vn 0.4466 -0.0976 0.8894
vn 0.1308 0.9565 0.2606
vn 0.4296 -0.2890 0.8555
vn 0.2123 0.8810 0.4229
vn 0.3962 -0.4696 0.7890
vn 0.2855 0.7715 0.5686
vn 0.0262 0.9951 0.0949
vn 0.0262 -0.9951 0.0949
vn 0.2645 -0.0976 0.9594
vn 0.0775 0.9565 0.2811
vn 0.2544 -0.2890 0.9229
vn 0.1257 0.8810 0.4562
vn 0.2346 -0.4696 0.8511
vn 0.1691 0.7715 0.6133
vn 0.2058 -0.6326 0.7467
vn 0.2058 0.6326 0.7467
vn 0.1691 -0.7715 0.6133
vn 0.2346 0.4696 0.8511
vn 0.1257 -0.8810 0.4562
vn 0.2544 0.2890 0.9229
vn 0.0775 -0.9565 0.2811
vn 0.2645 0.0976 0.9594
vn 0.0562 0.6326 0.7725
vn 0.0462 -0.7715 0.6345
vn 0.0641 0.4696 0.8805
vn 0.0343 -0.8810 0.4719
vn 0.0695 0.2890 0.9548
vn 0.0212 -0.9565 0.2908
vn 0.0722 0.0976 0.9926
vn 0.0071 0.9951 0.0982
vn 0.0071 -0.9951 0.0982
vn 0.0722 -0.0976 0.9926
vn 0.0212 0.9566 0.2908
vn 0.0695 -0.2890 0.9548
vn 0.0343 0.8810 0.4719
vn 0.0641 -0.4696 0.8805
vn 0.0462 0.7715 0.6345
vn 0.0562 -0.6326 0.7725
vn -0.1228 -0.0976 0.9876
vn -0.0360 0.9565 0.2893
vn -0.1181 -0.2890 0.9500
vn -0.0584 0.8810 0.4696
vn -0.1090 -0.4696 0.8761
vn -0.0785 0.7715 0.6314
vn -0.0956 -0.6326 0.7686
vn -0.0956 0.6326 0.7686
vn -0.0785 -0.7715 0.6314
vn -0.1090 0.4696 0.8761
vn -0.0584 -0.8810 0.4696
vn -0.1181 0.2890 0.9500
vn -0.0360 -0.9565 0.2893
vn -0.1228 0.0976 0.9876
vn -0.0122 0.9951 0.0977
vn -0.0122 -0.9951 0.0977
vn -0.2002 -0.7715 0.6039
vn -0.2778 0.4696 0.8380
vn -0.1489 -0.8810 0.4491
vn -0.3012 0.2890 0.9087
vn -0.0917 -0.9565 0.2768
vn -0.3131 0.0976 0.9447
vn -0.0310 0.9951 0.0935
vn -0.0310 -0.9951 0.0935
vn -0.3131 -0.0976 0.9447
vn -0.0917 0.9565 0.2768
vn -0.3012 -0.2890 0.9087
vn -0.1489 0.8810 0.4491
vn -0.2778 -0.4696 0.8380
vn -0.2002 0.7715 0.6039
vn -0.2437 -0.6326 0.7352
vn -0.2437 0.6326 0.7352
vn -0.4727 -0.2890 0.8325
vn -0.2336 0.8810 0.4115
vn -0.4359 -0.4696 0.7677
vn -0.3141 0.7715 0.5533
vn -0.3824 -0.6326 0.6735
vn -0.3824 0.6326 0.6735
vn -0.3141 -0.7715 0.5533
vn -0.4359 0.4696 0.7677
vn -0.2336 -0.8810 0.4115
vn -0.4727 0.2890 0.8325
vn -0.1440 -0.9566 0.2535
vn -0.4914 0.0976 0.8654
vn -0.0486 0.9951 0.0856
vn -0.0486 -0.9951 0.0857
vn -0.4914 -0.0976 0.8654
vn -0.1440 0.9566 0.2535
vn -0.3094 -0.8810 0.3580
vn -0.6260 0.2890 0.7243
vn -0.1907 -0.9565 0.2206
vn -0.6508 0.0976 0.7529
vn -0.0644 0.9951 0.0745
vn -0.0644 -0.9951 0.0745
vn -0.6508 -0.0976 0.7529
vn -0.1907 0.9566 0.2206
vn -0.6260 -0.2890 0.7243
vn -0.3094 0.8810 0.3580
vn -0.5773 -0.4696 0.6679
vn -0.4160 0.7715 0.4813
vn -0.5065 -0.6326 0.5860
vn -0.5065 0.6326 0.5860
vn -0.4160 -0.7715 0.4813
vn -0.5773 0.4696 0.6679
vn -0.3733 0.8810 0.2907
vn -0.6965 -0.4696 0.5425
vn -0.5020 0.7715 0.3909
vn -0.6111 -0.6326 0.4759
vn -0.6111 0.6326 0.4759
vn -0.5020 -0.7715 0.3909
vn -0.6965 0.4696 0.5425
vn -0.3733 -0.8810 0.2907
vn -0.7553 0.2890 0.5882
vn -0.2300 -0.9566 0.1791
vn -0.7852 0.0976 0.6115
vn -0.0777 0.9951 0.0605
vn -0.0777 -0.9951 0.0605
vn -0.7852 -0.0976 0.6115
vn -0.2300 0.9565 0.1792
vn -0.7553 -0.2890 0.5882
vn -0.8555 0.2890 0.4296
vn -0.2606 -0.9565 0.1308
vn -0.8894 0.0975 0.4466
vn -0.0880 0.9951 0.0442
vn -0.0880 -0.9951 0.0442
vn -0.8894 -0.0975 0.4466
vn -0.2606 0.9565 0.1308
vn -0.8555 -0.2890 0.4296
vn -0.4229 0.8810 0.2123
vn -0.7890 -0.4696 0.3962
vn -0.5686 0.7715 0.2855
vn -0.6922 -0.6326 0.3475
vn -0.6922 0.6326 0.3475
vn -0.5686 -0.7715 0.2855
vn -0.7890 0.4696 0.3962
vn -0.4229 -0.8810 0.2123
vn -0.8511 -0.4696 0.2346
vn -0.6133 0.7715 0.1691
vn -0.7467 -0.6326 0.2058
vn -0.7467 0.6326 0.2058
vn -0.6133 -0.7715 0.1691
vn -0.8511 0.4696 0.2346
vn -0.4562 -0.8810 0.1257
vn -0.9229 0.2890 0.2544
vn -0.2811 -0.9565 0.0775
vn -0.9594 0.0976 0.2645
vn -0.0949 0.9951 0.0261
vn -0.0949 -0.9951 0.0262
vn -0.9594 -0.0976 0.2645
vn -0.2811 0.9565 0.0775
vn -0.9229 -0.2890 0.2544
vn -0.4562 0.8810 0.1257
vn -0.2908 -0.9565 0.0212
vn -0.9926 0.0976 0.0722
vn -0.0982 0.9951 0.0072
vn -0.0982 -0.9951 0.0072
vn -0.9926 -0.0976 0.0722
vn -0.2908 0.9566 0.0211
vn -0.9548 -0.2890 0.0695
vn -0.4719 0.8810 0.0343
vn -0.8805 -0.4696 0.0641
vn -0.6345 0.7715 0.0462
vn -0.7725 -0.6326 0.0562
vn -0.7725 0.6326 0.0562
vn -0.6345 -0.7715 0.0462
vn -0.8805 0.4696 0.0641
vn -0.4719 -0.8810 0.0343
vn -0.9548 0.2890 0.0695
vn -0.6314 0.7715 -0.0785
vn -0.7686 -0.6326 -0.0956
vn -0.7686 0.6326 -0.0956
vn -0.6314 -0.7715 -0.0785
vn -0.8761 0.4696 -0.1090
vn -0.4695 -0.8810 -0.0584
vn -0.9500 0.2890 -0.1181
vn -0.2893 -0.9565 -0.0360
vn -0.9876 0.0976 -0.1228
vn -0.0977 0.9951 -0.0121
vn -0.0977 -0.9951 -0.0122
vn -0.9876 -0.0976 -0.1228
vn -0.2893 0.9566 -0.0360
vn -0.9500 -0.2890 -0.1181
vn -0.4696 0.8810 -0.0584
vn -0.8761 -0.4696 -0.1090
usemtl lamp
s off
f 478//1 477//1 10//1 11//1
f 471//2 470//2 3//2 4//2
f 479//3 478//3 11//3 12//3
f 472//4 471//4 4//4 5//4
f 480//5 479//5 12//5 13//5
f 473//6 472//6 5//6 6//6
f 481//7 480//7 13//7 14//7
f 474//8 473//8 6//8 7//8
f 482//9 481//9 14//9 15//9
f 475//10 474//10 7//10 8//10
f 468//11 272//11 1//11
f 76//12 482//12 15//12
f 476//13 475//13 8//13 9//13
f 469//14 468//14 1//14 2//14
f 477//15 476//15 9//15 10//15
f 470//16 469//16 2//16 3//16
f 10//17 9//17 24//17 25//17
f 3//18 2//18 17//18 18//18
f 11//19 10//19 25//19 26//19
f 4//20 3//20 18//20 19//20
f 12//21 11//21 26//21 27//21
f 5//22 4//22 19//22 20//22
f 13//23 12//23 27//23 28//23
f 6//24 5//24 20//24 21//24
f 14//25 13//25 28//25 29//25
f 7//26 6//26 21//26 22//26
f 15//27 14//27 29//27 30//27
f 8//28 7//28 22//28 23//28
f 1//29 272//29 16//29
f 76//30 15//30 30//30
f 9//31 8//31 23//31 24//31
f 2//32 1//32 16//32 17//32
f 29//33 28//33 43//33 44//33
f 22//34 21//34 36//34 37//34
f 30//35 29//35 44//35 45//35
f 23//36 22//36 37//36 38//36
f 16//37 272//37 31//37
f 76//38 30//38 45//38
f 24//39 23//39 38//39 39//39
f 17//40 16//40 31//40 32//40
f 25//41 24//41 39//41 40//41
f 18//42 17//42 32//42 33//42
f 26//43 25//43 40//43 41//43
f 19//44 18//44 33//44 34//44
f 27//45 26//45 41//45 42//45
f 20//46 19//46 34//46 35//46
f 28//47 27//47 42//47 43//47
f 21//48 20//48 35//48 36//48
f 33//49 32//49 47//49 48//49
f 41//50 40//50 55//50 56//50
f 34//51 33//51 48//51 49//51
f 42//52 41//52 56//52 57//52
f 35//53 34//53 49//53 50//53
f 43//54 42//54 57//54 58//54
f 36//55 35//55 50//55 51//55
f 44//56 43//56 58//56 59//56
f 37//57 36//57 51//57 52//57
f 45//58 44//58 59//58 60//58
f 38//59 37//59 52//59 53//59
f 31//60 272//60 46//60
f 76//61 45//61 60//61
f 39//62 38//62 53//62 54//62
f 32//63 31//63 46//63 47//63
f 40//64 39//64 54//64 55//64
f 52//65 51//65 66//65 67//65
f 60//66 59//66 74//66 75//66
f 53//67 52//67 67//67 68//67
f 46//68 272//68 61//68
f 76//69 60//69 75//69
f 54//70 53//70 68//70 69//70
f 47//71 46//71 61//71 62//71
f 55//72 54//72 69//72 70//72
f 48//73 47//73 62//73 63//73
f 56//74 55//74 70//74 71//74
f 49//75 48//75 63//75 64//75
f 57//76 56//76 71//76 72//76
f 50//77 49//77 64//77 65//77
f 58//78 57//78 72//78 73//78
f 51//79 50//79 65//79 66//79
f 59//80 58//80 73//80 74//80
f 71//81 70//81 86//81 87//81
f 64//82 63//82 79//82 80//82
f 72//83 71//83 87//83 88//83
f 65//84 64//84 80//84 81//84
f 73//85 72//85 88//85 89//85
f 66//86 65//86 81//86 82//86
f 74//87 73//87 89//87 90//87
f 67//88 66//88 82//88 83//88
f 75//89 74//89 90//89 91//89
f 68//90 67//90 83//90 84//90
f 61//91 272//91 77//91
f 76//92 75//92 91//92
f 69//93 68//93 84//93 85//93
f 62//94 61//94 77//94 78//94
f 70//95 69//95 85//95 86//95
f 63//96 62//96 78//96 79//96
f 91//97 90//97 105//97 106//97
f 84//98 83//98 98//98 99//98
f 77//99 272//99 92//99
f 76//100 91//100 106//100
f 85//101 84//101 99//101 100//101
f 78//102 77//102 92//102 93//102
f 86//103 85//103 100//103 101//103
f 79//104 78//104 93//104 94//104
f 87//105 86//105 101//105 102//105
f 80//106 79//106 94//106 95//106
f 88//107 87//107 102//107 103//107
f 81//108 80//108 95//108 96//108
f 89//109 88//109 103//109 104//109
f 82//110 81//110 96//110 97//110
f 90//111 89//111 104//111 105//111
f 83//112 82//112 97//112 98//112
f 103//113 102//113 117//113 118//113
f 96//114 95//114 110//114 111//114
f 104//115 103//115 118//115 119//115
f 97//116 96//116 111//116 112//116
f 105//117 104//117 119//117 120//117
f 98//118 97//118 112//118 113//118
f 106//119 105//119 120//119 121//119
f 99//120 98//120 113//120 114//120
f 92//121 272//121 107//121
f 76//122 106//122 121//122
f 100//123 99//123 114//123 115//123
f 93//124 92//124 107//124 108//124
f 101//125 100//125 115//125 116//125
f 94//126 93//126 108//126 109//126
f 102//127 101//127 116//127 117//127
f 95//128 94//128 109//128 110//128
f 107//129 272//129 122//129
f 76//130 121//130 136//130
f 115//131 114//131 129//131 130//131
f 108//132 107//132 122//132 123//132
f 116//133 115//133 130//133 131//133
f 109//134 108//134 123//134 124//134
f 117//135 116//135 131//135 132//135
f 110//136 109//136 124//136 125//136
f 118//137 117//137 132//137 133//137
f 111//138 110//138 125//138 126//138
f 119//139 118//139 133//139 134//139
f 112//140 111//140 126//140 127//140
f 120//141 119//141 134//141 135//141
f 113//142 112//142 127//142 128//142
f 121//143 120//143 135//143 136//143
f 114//144 113//144 128//144 129//144
f 126//145 125//145 140//145 141//145
f 134//146 133//146 148//146 149//146
f 127//147 126//147 141//147 142//147
f 135//148 134//148 149//148 150//148
f 128//149 127//149 142//149 143//149
f 136//150 135//150 150//150 151//150
f 129//151 128//151 143//151 144//151
f 122//152 272//152 137//152
f 76//153 136//153 151//153
f 130//154 129//154 144//154 145//154
f 123//155 122//155 137//155 138//155
f 131//156 130//156 145//156 146//156
f 124//157 123//157 138//157 139//157
f 132//158 131//158 146//158 147//158
f 125//159 124//159 139//159 140//159
f 133//160 132//160 147//160 148//160
f 145//161 144//161 159//161 160//161
f 138//162 137//162 152//162 153//162
f 146//163 145//163 160//163 161//163
f 139//164 138//164 153//164 154//164
f 147//165 146//165 161//165 162//165
f 140//166 139//166 154//166 155//166
f 148//167 147//167 162//167 163//167
f 141//168 140//168 155//168 156//168
f 149//169 148//169 163//169 164//169
f 142//170 141//170 156//170 157//170
f 150//171 149//171 164//171 165//171
f 143//172 142//172 157//172 158//172
f 151//173 150//173 165//173 166//173
f 144//174 143//174 158//174 159//174
f 137//175 272//175 152//175
f 76//176 151//176 166//176
f 164//177 163//177 178//177 179//177
f 157//178 156//178 171//178 172//178
f 165//179 164//179 179//179 180//179
f 158//180 157//180 172//180 173//180
f 166//181 165//181 180//181 181//181
f 159//182 158//182 173//182 174//182
f 152//183 272//183 167//183
f 76//184 166//184 181//184
f 160//185 159//185 174//185 175//185
f 153//186 152//186 167//186 168//186
f 161//187 160//187 175//187 176//187
f 154//188 153//188 168//188 169//188
f 162//189 161//189 176//189 177//189
f 155//190 154//190 169//190 170//190
f 163//191 162//191 177//191 178//191
f 156//192 155//192 170//192 171//192
f 168//193 167//193 182//193 183//193
f 176//194 175//194 190//194 191//194
f 169//195 168//195 183//195 184//195
f 177//196 176//196 191//196 192//196
f 170//197 169//197 184//197 185//197
f 178//198 177//198 192//198 193//198
f 171//199 170//199 185//199 186//199
f 179//200 178//200 193//200 194//200
f 172//201 171//201 186//201 187//201
f 180//202 179//202 194//202 195//202
f 173//203 172//203 187//203 188//203
f 181//204 180//204 195//204 196//204
f 174//205 173//205 188//205 189//205
f 167//206 272//206 182//206
f 76//207 181//207 196//207
f 175//208 174//208 189//208 190//208
f 187//209 186//209 201//209 202//209
f 195//210 194//210 209//210 210//210
f 188//211 187//211 202//211 203//211
f 196//212 195//212 210//212 211//212
f 189//213 188//213 203//213 204//213
f 182//214 272//214 197//214
f 76//215 196//215 211//215
f 190//216 189//216 204//216 205//216
f 183//217 182//217 197//217 198//217
f 191//218 190//218 205//218 206//218
f 184//219 183//219 198//219 199//219
f 192//220 191//220 206//220 207//220
f 185//221 184//221 199//221 200//221
f 193//222 192//222 207//222 208//222
f 186//223 185//223 200//223 201//223
f 194//224 193//224 208//224 209//224
f 206//225 205//225 220//225 221//225
f 199//226 198//226 213//226 214//226
f 207//227 206//227 221//227 222//227
f 200//228 199//228 214//228 215//228
f 208//229 207//229 222//229 223//229
f 201//230 200//230 215//230 216//230
f 209//231 208//231 223//231 224//231
f 202//232 201//232 216//232 217//232
f 210//233 209//233 224//233 225//233
f 203//234 202//234 217//234 218//234
f 211//235 210//235 225//235 226//235
f 204//236 203//236 218//236 219//236
f 197//237 272//237 212//237
f 76//238 211//238 226//238
f 205//239 204//239 219//239 220//239
f 198//240 197//240 212//240 213//240
f 225//241 224//241 239//241 240//241
f 218//242 217//242 232//242 233//242
f 226//243 225//243 240//243 241//243
f 219//244 218//244 233//244 234//244
f 212//245 272//245 227//245
f 76//246 226//246 241//246
f 220//247 219//247 234//247 235//247
f 213//248 212//248 227//248 228//248
f 221//249 220//249 235//249 236//249
f 214//250 213//250 228//250 229//250
f 222//251 221//251 236//251 237//251
f 215//252 214//252 229//252 230//252
f 223//253 222//253 237//253 238//253
f 216//254 215//254 230//254 231//254
f 224//255 223//255 238//255 239//255
f 217//256 216//256 231//256 232//256
f 237//257 236//257 251//257 252//257
f 230//258 229//258 244//258 245//258
f 238//259 237//259 252//259 253//259
f 231//260 230//260 245//260 246//260
f 239//261 238//261 253//261 254//261
f 232//262 231//262 246//262 247//262
f 240//263 239//263 254//263 255//263
f 233//264 232//264 247//264 248//264
f 241//265 240//265 255//265 256//265
f 234//266 233//266 248//266 249//266
f 227//267 272//267 242//267
f 76//268 241//268 256//268
f 235//269 234//269 249//269 250//269
f 228//270 227//270 242//270 243//270
f 236//271 235//271 250//271 251//271
f 229//272 228//272 243//272 244//272
f 256//273 255//273 270//273 271//273
f 249//274 248//274 263//274 264//274
f 242//275 272//275 257//275
f 76//276 256//276 271//276
f 250//277 249//277 264//277 265//277
f 243//278 242//278 257//278 258//278
f 251//279 250//279 265//279 266//279
f 244//280 243//280 258//280 259//280
f 252//281 251//281 266//281 267//281
f 245//282 244//282 259//282 260//282
f 253//283 252//283 267//283 268//283
f 246//284 245//284 260//284 261//284
f 254//285 253//285 268//285 269//285
f 247//286 246//286 261//286 262//286
f 255//287 254//287 269//287 270//287
f 248//288 247//288 262//288 263//288
f 260//289 259//289 275//289 276//289
f 268//290 267//290 283//290 284//290
f 261//291 260//291 276//291 277//291
f 269//292 268//292 284//292 285//292
f 262//293 261//293 277//293 278//293
f 270//294 269//294 285//294 286//294
f 263//295 262//295 278//295 279//295
f 271//296 270//296 286//296 287//296
f 264//297 263//297 279//297 280//297
f 257//298 272//298 273//298
f 76//299 271//299 287//299
f 265//300 264//300 280//300 281//300
f 258//301 257//301 273//301 274//301
f 266//302 265//302 281//302 282//302
f 259//303 258//303 274//303 275//303
f 267//304 266//304 282//304 283//304
f 280//305 279//305 294//305 295//305
f 273//306 272//306 288//306
f 76//307 287//307 302//307
f 281//308 280//308 295//308 296//308
f 274//309 273//309 288//309 289//309
f 282//310 281//310 296//310 297//310
f 275//311 274//311 289//311 290//311
f 283//312 282//312 297//312 298//312
f 276//313 275//313 290//313 291//313
f 284//314 283//314 298//314 299//314
f 277//315 276//315 291//315 292//315
f 285//316 284//316 299//316 300//316
f 278//317 277//317 292//317 293//317
f 286//318 285//318 300//318 301//318
f 279//319 278//319 293//319 294//319
f 287//320 286//320 301//320 302//320
f 299//321 298//321 313//321 314//321
f 292//322 291//322 306//322 307//322
f 300//323 299//323 314//323 315//323
f 293//324 292//324 307//324 308//324
f 301//325 300//325 315//325 316//325
f 294//326 293//326 308//326 309//326
f 302//327 301//327 316//327 317//327
f 295//328 294//328 309//328 310//328
f 288//329 272//329 303//329
f 76//330 302//330 317//330
f 296//331 295//331 310//331 311//331
f 289//332 288//332 303//332 304//332
f 297//333 296//333 311//333 312//333
f 290//334 289//334 304//334 305//334
f 298//335 297//335 312//335 313//335
f 291//336 290//336 305//336 306//336
f 303//337 272//337 318//337
f 76//338 317//338 332//338
f 311//339 310//339 325//339 326//339
f 304//340 303//340 318//340 319//340
f 312//341 311//341 326//341 327//341
f 305//342 304//342 319//342 320//342
f 313//343 312//343 327//343 328//343
f 306//344 305//344 320//344 321//344
f 314//345 313//345 328//345 329//345
f 307//346 306//346 321//346 322//346
f 315//347 314//347 329//347 330//347
f 308//348 307//348 322//348 323//348
f 316//349 315//349 330//349 331//349
f 309//350 308//350 323//350 324//350
f 317//351 316//351 331//351 332//351
f 310//352 309//352 324//352 325//352
f 322//353 321//353 336//353 337//353
f 330//354 329//354 344//354 345//354
f 323//355 322//355 337//355 338//355
f 331//356 330//356 345//356 346//356
f 324//357 323//357 338//357 339//357
f 332//358 331//358 346//358 347//358
f 325//359 324//359 339//359 340//359
f 318//360 272//360 333//360
f 76//361 332//361 347//361
f 326//362 325//362 340//362 341//362
f 319//363 318//363 333//363 334//363
f 327//364 326//364 341//364 342//364
f 320//365 319//365 334//365 335//365
f 328//366 327//366 342//366 343//366
f 321//367 320//367 335//367 336//367
f 329//368 328//368 343//368 344//368
f 341//369 340//369 355//369 356//369
f 334//370 333//370 348//370 349//370
f 342//371 341//371 356//371 357//371
f 335//372 334//372 349//372 350//372
f 343//373 342//373 357//373 358//373
f 336//374 335//374 350//374 351//374
f 344//375 343//375 358//375 359//375
f 337//376 336//376 351//376 352//376
f 345//377 344//377 359//377 360//377
f 338//378 337//378 352//378 353//378
f 346//379 345//379 360//379 361//379
f 339//380 338//380 353//380 354//380
f 347//381 346//381 361//381 362//381
f 340//382 339//382 354//382 355//382
f 333//383 272//383 348//383
f 76//384 347//384 362//384
f 360//385 359//385 374//385 375//385
f 353//386 352//386 367//386 368//386
f 361//387 360//387 375//387 376//387
f 354//388 353//388 368//388 369//388
f 362//389 361//389 376//389 377//389
f 355//390 354//390 369//390 370//390
f 348//391 272//391 363//391
f 76//392 362//392 377//392
f 356//393 355//393 370//393 371//393
f 349//394 348//394 363//394 364//394
f 357//395 356//395 371//395 372//395
f 350//396 349//396 364//396 365//396
f 358//397 357//397 372//397 373//397
f 351//398 350//398 365//398 366//398
f 359//399 358//399 373//399 374//399
f 352//400 351//400 366//400 367//400
f 372//401 371//401 386//401 387//401
f 365//402 364//402 379//402 380//402
f 373//403 372//403 387//403 388//403
f 366//404 365//404 380//404 381//404
f 374//405 373//405 388//405 389//405
f 367//406 366//406 381//406 382//406
f 375//407 374//407 389//407 390//407
f 368//408 367//408 382//408 383//408
f 376//409 375//409 390//409 391//409
f 369//410 368//410 383//410 384//410
f 377//411 376//411 391//411 392//411
f 370//412 369//412 384//412 385//412
f 363//413 272//413 378//413
f 76//414 377//414 392//414
f 371//415 370//415 385//415 386//415
f 364//416 363//416 378//416 379//416
f 391//417 390//417 405//417 406//417
f 384//418 383//418 398//418 399//418
f 392//419 391//419 406//419 407//419
f 385//420 384//420 399//420 400//420
f 378//421 272//421 393//421
f 76//422 392//422 407//422
f 386//423 385//423 400//423 401//423
f 379//424 378//424 393//424 394//424
f 387//425 386//425 401//425 402//425
f 380//426 379//426 394//426 395//426
f 388//427 387//427 402//427 403//427
f 381//428 380//428 395//428 396//428
f 389//429 388//429 403//429 404//429
f 382//430 381//430 396//430 397//430
f 390//431 389//431 404//431 405//431
f 383//432 382//432 397//432 398//432
f 395//433 394//433 409//433 410//433
f 403//434 402//434 417//434 418//434
f 396//435 395//435 410//435 411//435
f 404//436 403//436 418//436 419//436
f 397//437 396//437 411//437 412//437
f 405//438 404//438 419//438 420//438
f 398//439 397//439 412//439 413//439
f 406//440 405//440 420//440 421//440
f 399//441 398//441 413//441 414//441
f 407//442 406//442 421//442 422//442
f 400//443 399//443 414//443 415//443
f 393//444 272//444 408//444
f 76//445 407//445 422//445
f 401//446 400//446 415//446 416//446
f 394//447 393//447 408//447 409//447
f 402//448 401//448 416//448 417//448
f 414//449 413//449 428//449 429//449
f 422//450 421//450 436//450 437//450
f 415//451 414//451 429//451 430//451
f 408//452 272//452 423//452
f 76//453 422//453 437//453
f 416//454 415//454 430//454 431//454
f 409//455 408//455 423//455 424//455
f 417//456 416//456 431//456 432//456
f 410//457 409//457 424//457 425//457
f 418//458 417//458 432//458 433//458
f 411//459 410//459 425//459 426//459
f 419//460 418//460 433//460 434//460
f 412//461 411//461 426//461 427//461
f 420//462 419//462 434//462 435//462
f 413//463 412//463 427//463 428//463
f 421//464 420//464 435//464 436//464
f 433//465 432//465 447//465 448//465
f 426//466 425//466 440//466 441//466
f 434//467 433//467 448//467 449//467
f 427//468 426//468 441//468 442//468
f 435//469 434//469 449//469 450//469
f 428//470 427//470 442//470 443//470
f 436//471 435//471 450//471 451//471
f 429//472 428//472 443//472 444//472
f 437//473 436//473 451//473 452//473
f 430//474 429//474 444//474 445//474
f 423//475 272//475 438//475
f 76//476 437//476 452//476
f 431//477 430//477 445//477 446//477
f 424//478 423//478 438//478 439//478
f 432//479 431//479 446//479 447//479
f 425//480 424//480 439//480 440//480
f 452//481 451//481 466//481 467//481
f 445//482 444//482 459//482 460//482
f 438//483 272//483 453//483
f 76//484 452//484 467//484
f 446//485 445//485 460//485 461//485
f 439//486 438//486 453//486 454//486
f 447//487 446//487 461//487 462//487
f 440//488 439//488 454//488 455//488
f 448//489 447//489 462//489 463//489
f 441//490 440//490 455//490 456//490
f 449//491 448//491 463//491 464//491
f 442//492 441//492 456//492 457//492
f 450//493 449//493 464//493 465//493
f 443//494 442//494 457//494 458//494
f 451//495 450//495 465//495 466//495
f 444//496 443//496 458//496 459//496
f 456//497 455//497 470//497 471//497
f 464//498 463//498 478//498 479//498
f 457//499 456//499 471//499 472//499
f 465//500 464//500 479//500 480//500
f 458//501 457//501 472//501 473//501
f 466//502 465//502 480//502 481//502
f 459//503 458//503 473//503 474//503
f 467//504 466//504 481//504 482//504
f 460//505 459//505 474//505 475//505
f 453//506 272//506 468//506
f 76//507 467//507 482//507
f 461//508 460//508 475//508 476//508
f 454//509 453//509 468//509 469//509
f 462//510 461//510 476//510 477//510
f 455//511 454//511 469//511 470//511
f 463//512 462//512 477//512 478//512
